G04 (created by PCBNEW (2012-12-10 BZR 3844)-stable) date Tue 18 Dec 2012 09:43:10 AM CET*
%MOIN*%
G04 Gerber Fmt 3.4, Leading zero omitted, Abs format*
%FSLAX34Y34*%
G01*
G70*
G90*
G04 APERTURE LIST*
%ADD10C,0.006*%
%ADD11R,0.1224X0.083*%
%ADD12R,0.1381X0.083*%
%ADD13R,0.08X0.08*%
%ADD14C,0.08*%
%ADD15R,0.1065X0.1065*%
%ADD16R,0.0396X0.1065*%
%ADD17C,0.0554*%
%ADD18C,0.2562*%
%ADD19R,0.0535X0.0535*%
%ADD20R,0.12X0.12*%
%ADD21C,0.12*%
%ADD22R,0.045X0.065*%
%ADD23R,0.065X0.045*%
%ADD24O,0.11X0.082*%
%ADD25R,0.11X0.082*%
%ADD26R,0.075X0.075*%
%ADD27C,0.075*%
%ADD28R,0.055X0.075*%
%ADD29R,0.07X0.036*%
%ADD30R,0.0909X0.0712*%
%ADD31R,0.0909X0.1696*%
%ADD32C,0.076*%
G04 APERTURE END LIST*
G54D10*
G54D11*
X23502Y-8108D03*
X22084Y-8108D03*
G54D12*
X19359Y-31758D03*
X17627Y-31758D03*
X19359Y-34258D03*
X17627Y-34258D03*
G54D13*
X20493Y-28758D03*
G54D14*
X20493Y-29758D03*
X19493Y-28758D03*
X19493Y-29758D03*
X18493Y-28758D03*
X18493Y-29758D03*
G54D15*
X17749Y-3683D03*
G54D16*
X20122Y-3793D03*
X19807Y-3793D03*
X19493Y-3793D03*
X19179Y-3793D03*
X18864Y-3793D03*
G54D17*
X20358Y-2798D03*
X18627Y-2798D03*
G54D15*
X21237Y-3683D03*
X21237Y-1518D03*
X17749Y-1518D03*
G54D18*
X23493Y-37258D03*
X15493Y-37258D03*
X23493Y-2258D03*
X15493Y-2258D03*
G54D19*
X21143Y-34267D03*
X21143Y-32949D03*
G54D20*
X18493Y-37758D03*
G54D21*
X20493Y-37758D03*
G54D22*
X16143Y-10858D03*
X16743Y-10858D03*
X14943Y-10858D03*
X15543Y-10858D03*
G54D23*
X21143Y-31758D03*
X21143Y-31158D03*
G54D24*
X17993Y-14258D03*
X17993Y-15258D03*
X17993Y-16258D03*
X17993Y-17258D03*
X17993Y-18258D03*
X17993Y-19258D03*
X17993Y-20258D03*
X17993Y-21258D03*
X17993Y-22258D03*
X17993Y-23258D03*
X17993Y-24258D03*
X17993Y-25258D03*
X17993Y-26258D03*
G54D25*
X17993Y-13258D03*
G54D24*
X20993Y-26258D03*
X20993Y-25258D03*
X20993Y-24258D03*
X20993Y-23258D03*
X20993Y-22258D03*
X20993Y-21258D03*
X20993Y-20258D03*
X20993Y-19258D03*
X20993Y-18258D03*
X20993Y-17258D03*
X20993Y-16258D03*
X20993Y-15258D03*
X20993Y-14258D03*
X20993Y-13258D03*
G54D26*
X22493Y-19258D03*
G54D27*
X22493Y-20258D03*
G54D26*
X21993Y-6258D03*
G54D27*
X22993Y-6258D03*
G54D26*
X16493Y-24758D03*
G54D27*
X16493Y-25758D03*
X16493Y-26758D03*
G54D26*
X15493Y-24758D03*
G54D27*
X15493Y-25758D03*
X15493Y-26758D03*
G54D26*
X14493Y-24758D03*
G54D27*
X14493Y-25758D03*
X14493Y-26758D03*
G54D26*
X14493Y-14258D03*
G54D27*
X14493Y-15258D03*
X14493Y-16258D03*
X14493Y-17258D03*
X14493Y-18258D03*
G54D26*
X15493Y-14258D03*
G54D27*
X15493Y-15258D03*
X15493Y-16258D03*
X15493Y-17258D03*
X15493Y-18258D03*
G54D26*
X16493Y-14258D03*
G54D27*
X16493Y-15258D03*
X16493Y-16258D03*
X16493Y-17258D03*
X16493Y-18258D03*
G54D26*
X24493Y-18258D03*
G54D27*
X24493Y-17258D03*
X24493Y-16258D03*
X24493Y-15258D03*
X24493Y-14258D03*
X24493Y-13258D03*
G54D26*
X23493Y-18258D03*
G54D27*
X23493Y-17258D03*
X23493Y-16258D03*
X23493Y-15258D03*
X23493Y-14258D03*
X23493Y-13258D03*
G54D26*
X24493Y-27258D03*
G54D27*
X24493Y-26258D03*
X24493Y-25258D03*
X24493Y-24258D03*
X24493Y-23258D03*
X24493Y-22258D03*
G54D26*
X23493Y-27258D03*
G54D27*
X23493Y-26258D03*
X23493Y-25258D03*
X23493Y-24258D03*
X23493Y-23258D03*
X23493Y-22258D03*
G54D26*
X22493Y-18258D03*
G54D27*
X22493Y-17258D03*
X22493Y-16258D03*
X22493Y-15258D03*
X22493Y-14258D03*
X22493Y-13258D03*
G54D26*
X22493Y-27258D03*
G54D27*
X22493Y-26258D03*
X22493Y-25258D03*
X22493Y-24258D03*
X22493Y-23258D03*
X22493Y-22258D03*
G54D22*
X14943Y-10108D03*
X15543Y-10108D03*
X17243Y-8058D03*
X16643Y-8058D03*
G54D23*
X22443Y-10158D03*
X22443Y-9558D03*
X21693Y-10158D03*
X21693Y-9558D03*
X14493Y-22158D03*
X14493Y-22758D03*
X14493Y-21358D03*
X14493Y-20758D03*
X23443Y-19258D03*
X23443Y-19858D03*
G54D22*
X23493Y-21258D03*
X24093Y-21258D03*
X14943Y-9358D03*
X15543Y-9358D03*
X16143Y-9358D03*
X16743Y-9358D03*
X17843Y-5258D03*
X17243Y-5258D03*
X18443Y-6258D03*
X17843Y-6258D03*
X17393Y-27758D03*
X17993Y-27758D03*
X15493Y-13258D03*
X16093Y-13258D03*
X16143Y-10108D03*
X16743Y-10108D03*
G54D28*
X20468Y-5058D03*
X21218Y-5058D03*
G54D29*
X20893Y-10908D03*
X20893Y-10658D03*
X20893Y-10398D03*
X20893Y-10138D03*
X20893Y-9888D03*
X20893Y-9628D03*
X20893Y-9368D03*
X20893Y-9118D03*
X20893Y-8858D03*
X20893Y-8608D03*
X20893Y-8348D03*
X20893Y-8088D03*
X20893Y-7838D03*
X20893Y-7578D03*
X18093Y-7578D03*
X18093Y-7838D03*
X18093Y-8078D03*
X18093Y-8348D03*
X18093Y-8608D03*
X18093Y-8858D03*
X18093Y-9118D03*
X18093Y-9368D03*
X18093Y-9628D03*
X18093Y-9888D03*
X18093Y-10138D03*
X18093Y-10398D03*
X18093Y-10658D03*
X18093Y-10908D03*
G54D27*
X14493Y-27758D03*
X16493Y-27758D03*
X14493Y-30758D03*
X16493Y-30758D03*
G54D26*
X16993Y-6258D03*
G54D27*
X15993Y-6258D03*
G54D30*
X22312Y-32452D03*
X22312Y-33358D03*
X22312Y-34264D03*
G54D31*
X24674Y-33358D03*
G54D32*
X15993Y-20758D03*
X15993Y-22758D03*
G54D11*
X10511Y-8109D03*
X9093Y-8109D03*
G54D12*
X6368Y-31759D03*
X4636Y-31759D03*
X6368Y-34259D03*
X4636Y-34259D03*
G54D13*
X7502Y-28759D03*
G54D14*
X7502Y-29759D03*
X6502Y-28759D03*
X6502Y-29759D03*
X5502Y-28759D03*
X5502Y-29759D03*
G54D15*
X4758Y-3684D03*
G54D16*
X7131Y-3794D03*
X6816Y-3794D03*
X6502Y-3794D03*
X6188Y-3794D03*
X5873Y-3794D03*
G54D17*
X7367Y-2799D03*
X5636Y-2799D03*
G54D15*
X8246Y-3684D03*
X8246Y-1519D03*
X4758Y-1519D03*
G54D18*
X10502Y-37259D03*
X2502Y-37259D03*
X10502Y-2259D03*
X2502Y-2259D03*
G54D19*
X8152Y-34268D03*
X8152Y-32950D03*
G54D20*
X5502Y-37759D03*
G54D21*
X7502Y-37759D03*
G54D22*
X3152Y-10859D03*
X3752Y-10859D03*
X1952Y-10859D03*
X2552Y-10859D03*
G54D23*
X8152Y-31759D03*
X8152Y-31159D03*
G54D24*
X5002Y-14259D03*
X5002Y-15259D03*
X5002Y-16259D03*
X5002Y-17259D03*
X5002Y-18259D03*
X5002Y-19259D03*
X5002Y-20259D03*
X5002Y-21259D03*
X5002Y-22259D03*
X5002Y-23259D03*
X5002Y-24259D03*
X5002Y-25259D03*
X5002Y-26259D03*
G54D25*
X5002Y-13259D03*
G54D24*
X8002Y-26259D03*
X8002Y-25259D03*
X8002Y-24259D03*
X8002Y-23259D03*
X8002Y-22259D03*
X8002Y-21259D03*
X8002Y-20259D03*
X8002Y-19259D03*
X8002Y-18259D03*
X8002Y-17259D03*
X8002Y-16259D03*
X8002Y-15259D03*
X8002Y-14259D03*
X8002Y-13259D03*
G54D26*
X9502Y-19259D03*
G54D27*
X9502Y-20259D03*
G54D26*
X9002Y-6259D03*
G54D27*
X10002Y-6259D03*
G54D26*
X3502Y-24759D03*
G54D27*
X3502Y-25759D03*
X3502Y-26759D03*
G54D26*
X2502Y-24759D03*
G54D27*
X2502Y-25759D03*
X2502Y-26759D03*
G54D26*
X1502Y-24759D03*
G54D27*
X1502Y-25759D03*
X1502Y-26759D03*
G54D26*
X1502Y-14259D03*
G54D27*
X1502Y-15259D03*
X1502Y-16259D03*
X1502Y-17259D03*
X1502Y-18259D03*
G54D26*
X2502Y-14259D03*
G54D27*
X2502Y-15259D03*
X2502Y-16259D03*
X2502Y-17259D03*
X2502Y-18259D03*
G54D26*
X3502Y-14259D03*
G54D27*
X3502Y-15259D03*
X3502Y-16259D03*
X3502Y-17259D03*
X3502Y-18259D03*
G54D26*
X11502Y-18259D03*
G54D27*
X11502Y-17259D03*
X11502Y-16259D03*
X11502Y-15259D03*
X11502Y-14259D03*
X11502Y-13259D03*
G54D26*
X10502Y-18259D03*
G54D27*
X10502Y-17259D03*
X10502Y-16259D03*
X10502Y-15259D03*
X10502Y-14259D03*
X10502Y-13259D03*
G54D26*
X11502Y-27259D03*
G54D27*
X11502Y-26259D03*
X11502Y-25259D03*
X11502Y-24259D03*
X11502Y-23259D03*
X11502Y-22259D03*
G54D26*
X10502Y-27259D03*
G54D27*
X10502Y-26259D03*
X10502Y-25259D03*
X10502Y-24259D03*
X10502Y-23259D03*
X10502Y-22259D03*
G54D26*
X9502Y-18259D03*
G54D27*
X9502Y-17259D03*
X9502Y-16259D03*
X9502Y-15259D03*
X9502Y-14259D03*
X9502Y-13259D03*
G54D26*
X9502Y-27259D03*
G54D27*
X9502Y-26259D03*
X9502Y-25259D03*
X9502Y-24259D03*
X9502Y-23259D03*
X9502Y-22259D03*
G54D22*
X1952Y-10109D03*
X2552Y-10109D03*
X4252Y-8059D03*
X3652Y-8059D03*
G54D23*
X9452Y-10159D03*
X9452Y-9559D03*
X8702Y-10159D03*
X8702Y-9559D03*
X1502Y-22159D03*
X1502Y-22759D03*
X1502Y-21359D03*
X1502Y-20759D03*
X10452Y-19259D03*
X10452Y-19859D03*
G54D22*
X10502Y-21259D03*
X11102Y-21259D03*
X1952Y-9359D03*
X2552Y-9359D03*
X3152Y-9359D03*
X3752Y-9359D03*
X4852Y-5259D03*
X4252Y-5259D03*
X5452Y-6259D03*
X4852Y-6259D03*
X4402Y-27759D03*
X5002Y-27759D03*
X2502Y-13259D03*
X3102Y-13259D03*
X3152Y-10109D03*
X3752Y-10109D03*
G54D28*
X7477Y-5059D03*
X8227Y-5059D03*
G54D29*
X7902Y-10909D03*
X7902Y-10659D03*
X7902Y-10399D03*
X7902Y-10139D03*
X7902Y-9889D03*
X7902Y-9629D03*
X7902Y-9369D03*
X7902Y-9119D03*
X7902Y-8859D03*
X7902Y-8609D03*
X7902Y-8349D03*
X7902Y-8089D03*
X7902Y-7839D03*
X7902Y-7579D03*
X5102Y-7579D03*
X5102Y-7839D03*
X5102Y-8079D03*
X5102Y-8349D03*
X5102Y-8609D03*
X5102Y-8859D03*
X5102Y-9119D03*
X5102Y-9369D03*
X5102Y-9629D03*
X5102Y-9889D03*
X5102Y-10139D03*
X5102Y-10399D03*
X5102Y-10659D03*
X5102Y-10909D03*
G54D27*
X1502Y-27759D03*
X3502Y-27759D03*
X1502Y-30759D03*
X3502Y-30759D03*
G54D26*
X4002Y-6259D03*
G54D27*
X3002Y-6259D03*
G54D30*
X9321Y-32453D03*
X9321Y-33359D03*
X9321Y-34265D03*
G54D31*
X11683Y-33359D03*
G54D32*
X3002Y-20759D03*
X3002Y-22759D03*
X29379Y-20759D03*
X29379Y-22759D03*
G54D30*
X35698Y-32453D03*
X35698Y-33359D03*
X35698Y-34265D03*
G54D31*
X38060Y-33359D03*
G54D26*
X30379Y-6259D03*
G54D27*
X29379Y-6259D03*
X27879Y-27759D03*
X29879Y-27759D03*
X27879Y-30759D03*
X29879Y-30759D03*
G54D29*
X34279Y-10909D03*
X34279Y-10659D03*
X34279Y-10399D03*
X34279Y-10139D03*
X34279Y-9889D03*
X34279Y-9629D03*
X34279Y-9369D03*
X34279Y-9119D03*
X34279Y-8859D03*
X34279Y-8609D03*
X34279Y-8349D03*
X34279Y-8089D03*
X34279Y-7839D03*
X34279Y-7579D03*
X31479Y-7579D03*
X31479Y-7839D03*
X31479Y-8079D03*
X31479Y-8349D03*
X31479Y-8609D03*
X31479Y-8859D03*
X31479Y-9119D03*
X31479Y-9369D03*
X31479Y-9629D03*
X31479Y-9889D03*
X31479Y-10139D03*
X31479Y-10399D03*
X31479Y-10659D03*
X31479Y-10909D03*
G54D28*
X33854Y-5059D03*
X34604Y-5059D03*
G54D22*
X29529Y-10109D03*
X30129Y-10109D03*
X28879Y-13259D03*
X29479Y-13259D03*
X30779Y-27759D03*
X31379Y-27759D03*
X31829Y-6259D03*
X31229Y-6259D03*
X31229Y-5259D03*
X30629Y-5259D03*
X29529Y-9359D03*
X30129Y-9359D03*
X28329Y-9359D03*
X28929Y-9359D03*
X36879Y-21259D03*
X37479Y-21259D03*
G54D23*
X36829Y-19259D03*
X36829Y-19859D03*
X27879Y-21359D03*
X27879Y-20759D03*
X27879Y-22159D03*
X27879Y-22759D03*
X35079Y-10159D03*
X35079Y-9559D03*
X35829Y-10159D03*
X35829Y-9559D03*
G54D22*
X30629Y-8059D03*
X30029Y-8059D03*
X28329Y-10109D03*
X28929Y-10109D03*
G54D26*
X35879Y-27259D03*
G54D27*
X35879Y-26259D03*
X35879Y-25259D03*
X35879Y-24259D03*
X35879Y-23259D03*
X35879Y-22259D03*
G54D26*
X35879Y-18259D03*
G54D27*
X35879Y-17259D03*
X35879Y-16259D03*
X35879Y-15259D03*
X35879Y-14259D03*
X35879Y-13259D03*
G54D26*
X36879Y-27259D03*
G54D27*
X36879Y-26259D03*
X36879Y-25259D03*
X36879Y-24259D03*
X36879Y-23259D03*
X36879Y-22259D03*
G54D26*
X37879Y-27259D03*
G54D27*
X37879Y-26259D03*
X37879Y-25259D03*
X37879Y-24259D03*
X37879Y-23259D03*
X37879Y-22259D03*
G54D26*
X36879Y-18259D03*
G54D27*
X36879Y-17259D03*
X36879Y-16259D03*
X36879Y-15259D03*
X36879Y-14259D03*
X36879Y-13259D03*
G54D26*
X37879Y-18259D03*
G54D27*
X37879Y-17259D03*
X37879Y-16259D03*
X37879Y-15259D03*
X37879Y-14259D03*
X37879Y-13259D03*
G54D26*
X29879Y-14259D03*
G54D27*
X29879Y-15259D03*
X29879Y-16259D03*
X29879Y-17259D03*
X29879Y-18259D03*
G54D26*
X28879Y-14259D03*
G54D27*
X28879Y-15259D03*
X28879Y-16259D03*
X28879Y-17259D03*
X28879Y-18259D03*
G54D26*
X27879Y-14259D03*
G54D27*
X27879Y-15259D03*
X27879Y-16259D03*
X27879Y-17259D03*
X27879Y-18259D03*
G54D26*
X27879Y-24759D03*
G54D27*
X27879Y-25759D03*
X27879Y-26759D03*
G54D26*
X28879Y-24759D03*
G54D27*
X28879Y-25759D03*
X28879Y-26759D03*
G54D26*
X29879Y-24759D03*
G54D27*
X29879Y-25759D03*
X29879Y-26759D03*
G54D26*
X35379Y-6259D03*
G54D27*
X36379Y-6259D03*
G54D26*
X35879Y-19259D03*
G54D27*
X35879Y-20259D03*
G54D24*
X31379Y-14259D03*
X31379Y-15259D03*
X31379Y-16259D03*
X31379Y-17259D03*
X31379Y-18259D03*
X31379Y-19259D03*
X31379Y-20259D03*
X31379Y-21259D03*
X31379Y-22259D03*
X31379Y-23259D03*
X31379Y-24259D03*
X31379Y-25259D03*
X31379Y-26259D03*
G54D25*
X31379Y-13259D03*
G54D24*
X34379Y-26259D03*
X34379Y-25259D03*
X34379Y-24259D03*
X34379Y-23259D03*
X34379Y-22259D03*
X34379Y-21259D03*
X34379Y-20259D03*
X34379Y-19259D03*
X34379Y-18259D03*
X34379Y-17259D03*
X34379Y-16259D03*
X34379Y-15259D03*
X34379Y-14259D03*
X34379Y-13259D03*
G54D23*
X34529Y-31759D03*
X34529Y-31159D03*
G54D22*
X28329Y-10859D03*
X28929Y-10859D03*
X29529Y-10859D03*
X30129Y-10859D03*
G54D20*
X31879Y-37759D03*
G54D21*
X33879Y-37759D03*
G54D19*
X34529Y-34268D03*
X34529Y-32950D03*
G54D18*
X28879Y-2259D03*
X36879Y-2259D03*
X28879Y-37259D03*
X36879Y-37259D03*
G54D15*
X31135Y-3684D03*
G54D16*
X33508Y-3794D03*
X33193Y-3794D03*
X32879Y-3794D03*
X32565Y-3794D03*
X32250Y-3794D03*
G54D17*
X33744Y-2799D03*
X32013Y-2799D03*
G54D15*
X34623Y-3684D03*
X34623Y-1519D03*
X31135Y-1519D03*
G54D13*
X33879Y-28759D03*
G54D14*
X33879Y-29759D03*
X32879Y-28759D03*
X32879Y-29759D03*
X31879Y-28759D03*
X31879Y-29759D03*
G54D12*
X32745Y-34259D03*
X31013Y-34259D03*
X32745Y-31759D03*
X31013Y-31759D03*
G54D11*
X36888Y-8109D03*
X35470Y-8109D03*
M02*
