G04 (created by PCBNEW (2012-12-10 BZR 3844)-stable) date Thu 10 Jan 2013 10:25:41 AM CET*
%MOIN*%
G04 Gerber Fmt 3.4, Leading zero omitted, Abs format*
%FSLAX34Y34*%
G01*
G70*
G90*
G04 APERTURE LIST*
%ADD10C,0.006*%
%ADD11C,0.076*%
%ADD12R,0.075X0.075*%
%ADD13C,0.075*%
%ADD14O,0.11X0.082*%
%ADD15R,0.11X0.082*%
%ADD16R,0.12X0.12*%
%ADD17C,0.12*%
%ADD18C,0.2562*%
%ADD19C,0.0554*%
%ADD20R,0.08X0.08*%
%ADD21C,0.08*%
G04 APERTURE END LIST*
G54D10*
G54D11*
X2500Y-20500D03*
X2500Y-22500D03*
G54D12*
X3500Y-6000D03*
G54D13*
X2500Y-6000D03*
X1000Y-27500D03*
X3000Y-27500D03*
X1000Y-30500D03*
X3000Y-30500D03*
G54D12*
X9000Y-27000D03*
G54D13*
X9000Y-26000D03*
X9000Y-25000D03*
X9000Y-24000D03*
X9000Y-23000D03*
X9000Y-22000D03*
G54D12*
X9000Y-18000D03*
G54D13*
X9000Y-17000D03*
X9000Y-16000D03*
X9000Y-15000D03*
X9000Y-14000D03*
X9000Y-13000D03*
G54D12*
X10000Y-27000D03*
G54D13*
X10000Y-26000D03*
X10000Y-25000D03*
X10000Y-24000D03*
X10000Y-23000D03*
X10000Y-22000D03*
G54D12*
X11000Y-27000D03*
G54D13*
X11000Y-26000D03*
X11000Y-25000D03*
X11000Y-24000D03*
X11000Y-23000D03*
X11000Y-22000D03*
G54D12*
X10000Y-18000D03*
G54D13*
X10000Y-17000D03*
X10000Y-16000D03*
X10000Y-15000D03*
X10000Y-14000D03*
X10000Y-13000D03*
G54D12*
X11000Y-18000D03*
G54D13*
X11000Y-17000D03*
X11000Y-16000D03*
X11000Y-15000D03*
X11000Y-14000D03*
X11000Y-13000D03*
G54D12*
X3000Y-14000D03*
G54D13*
X3000Y-15000D03*
X3000Y-16000D03*
X3000Y-17000D03*
X3000Y-18000D03*
G54D12*
X2000Y-14000D03*
G54D13*
X2000Y-15000D03*
X2000Y-16000D03*
X2000Y-17000D03*
X2000Y-18000D03*
G54D12*
X1000Y-14000D03*
G54D13*
X1000Y-15000D03*
X1000Y-16000D03*
X1000Y-17000D03*
X1000Y-18000D03*
G54D12*
X1000Y-24500D03*
G54D13*
X1000Y-25500D03*
X1000Y-26500D03*
G54D12*
X2000Y-24500D03*
G54D13*
X2000Y-25500D03*
X2000Y-26500D03*
G54D12*
X3000Y-24500D03*
G54D13*
X3000Y-25500D03*
X3000Y-26500D03*
G54D12*
X8500Y-6000D03*
G54D13*
X9500Y-6000D03*
G54D12*
X9000Y-19000D03*
G54D13*
X9000Y-20000D03*
G54D14*
X4500Y-14000D03*
X4500Y-15000D03*
X4500Y-16000D03*
X4500Y-17000D03*
X4500Y-18000D03*
X4500Y-19000D03*
X4500Y-20000D03*
X4500Y-21000D03*
X4500Y-22000D03*
X4500Y-23000D03*
X4500Y-24000D03*
X4500Y-25000D03*
X4500Y-26000D03*
G54D15*
X4500Y-13000D03*
G54D14*
X7500Y-26000D03*
X7500Y-25000D03*
X7500Y-24000D03*
X7500Y-23000D03*
X7500Y-22000D03*
X7500Y-21000D03*
X7500Y-20000D03*
X7500Y-19000D03*
X7500Y-18000D03*
X7500Y-17000D03*
X7500Y-16000D03*
X7500Y-15000D03*
X7500Y-14000D03*
X7500Y-13000D03*
G54D16*
X5000Y-37500D03*
G54D17*
X7000Y-37500D03*
G54D18*
X2000Y-2000D03*
X10000Y-2000D03*
X2000Y-37000D03*
X10000Y-37000D03*
G54D19*
X6865Y-2540D03*
X5134Y-2540D03*
G54D20*
X7000Y-28500D03*
G54D21*
X7000Y-29500D03*
X6000Y-28500D03*
X6000Y-29500D03*
X5000Y-28500D03*
X5000Y-29500D03*
M02*
