G04 (created by PCBNEW (2012-12-10 BZR 3844)-stable) date Tue 11 Dec 2012 11:45:49 AM CET*
%MOIN*%
G04 Gerber Fmt 3.4, Leading zero omitted, Abs format*
%FSLAX34Y34*%
G01*
G70*
G90*
G04 APERTURE LIST*
%ADD10C,0.006*%
%ADD11C,0.076*%
%ADD12R,0.075X0.075*%
%ADD13C,0.075*%
%ADD14O,0.11X0.082*%
%ADD15R,0.11X0.082*%
%ADD16R,0.12X0.12*%
%ADD17C,0.12*%
%ADD18C,0.2562*%
%ADD19C,0.0554*%
%ADD20R,0.08X0.08*%
%ADD21C,0.08*%
G04 APERTURE END LIST*
G54D10*
G54D11*
X53000Y-49500D03*
X53000Y-51500D03*
G54D12*
X54000Y-35000D03*
G54D13*
X53000Y-35000D03*
X51500Y-56500D03*
X53500Y-56500D03*
X51500Y-59500D03*
X53500Y-59500D03*
G54D12*
X59500Y-56000D03*
G54D13*
X59500Y-55000D03*
X59500Y-54000D03*
X59500Y-53000D03*
X59500Y-52000D03*
X59500Y-51000D03*
G54D12*
X59500Y-47000D03*
G54D13*
X59500Y-46000D03*
X59500Y-45000D03*
X59500Y-44000D03*
X59500Y-43000D03*
X59500Y-42000D03*
G54D12*
X60500Y-56000D03*
G54D13*
X60500Y-55000D03*
X60500Y-54000D03*
X60500Y-53000D03*
X60500Y-52000D03*
X60500Y-51000D03*
G54D12*
X61500Y-56000D03*
G54D13*
X61500Y-55000D03*
X61500Y-54000D03*
X61500Y-53000D03*
X61500Y-52000D03*
X61500Y-51000D03*
G54D12*
X60500Y-47000D03*
G54D13*
X60500Y-46000D03*
X60500Y-45000D03*
X60500Y-44000D03*
X60500Y-43000D03*
X60500Y-42000D03*
G54D12*
X61500Y-47000D03*
G54D13*
X61500Y-46000D03*
X61500Y-45000D03*
X61500Y-44000D03*
X61500Y-43000D03*
X61500Y-42000D03*
G54D12*
X53500Y-43000D03*
G54D13*
X53500Y-44000D03*
X53500Y-45000D03*
X53500Y-46000D03*
X53500Y-47000D03*
G54D12*
X52500Y-43000D03*
G54D13*
X52500Y-44000D03*
X52500Y-45000D03*
X52500Y-46000D03*
X52500Y-47000D03*
G54D12*
X51500Y-43000D03*
G54D13*
X51500Y-44000D03*
X51500Y-45000D03*
X51500Y-46000D03*
X51500Y-47000D03*
G54D12*
X51500Y-53500D03*
G54D13*
X51500Y-54500D03*
X51500Y-55500D03*
G54D12*
X52500Y-53500D03*
G54D13*
X52500Y-54500D03*
X52500Y-55500D03*
G54D12*
X53500Y-53500D03*
G54D13*
X53500Y-54500D03*
X53500Y-55500D03*
G54D12*
X59000Y-35000D03*
G54D13*
X60000Y-35000D03*
G54D12*
X59500Y-48000D03*
G54D13*
X59500Y-49000D03*
G54D14*
X55000Y-43000D03*
X55000Y-44000D03*
X55000Y-45000D03*
X55000Y-46000D03*
X55000Y-47000D03*
X55000Y-48000D03*
X55000Y-49000D03*
X55000Y-50000D03*
X55000Y-51000D03*
X55000Y-52000D03*
X55000Y-53000D03*
X55000Y-54000D03*
X55000Y-55000D03*
G54D15*
X55000Y-42000D03*
G54D14*
X58000Y-55000D03*
X58000Y-54000D03*
X58000Y-53000D03*
X58000Y-52000D03*
X58000Y-51000D03*
X58000Y-50000D03*
X58000Y-49000D03*
X58000Y-48000D03*
X58000Y-47000D03*
X58000Y-46000D03*
X58000Y-45000D03*
X58000Y-44000D03*
X58000Y-43000D03*
X58000Y-42000D03*
G54D16*
X55500Y-66500D03*
G54D17*
X57500Y-66500D03*
G54D18*
X52500Y-31000D03*
X60500Y-31000D03*
X52500Y-66000D03*
X60500Y-66000D03*
G54D19*
X57365Y-31540D03*
X55634Y-31540D03*
G54D20*
X57500Y-57500D03*
G54D21*
X57500Y-58500D03*
X56500Y-57500D03*
X56500Y-58500D03*
X55500Y-57500D03*
X55500Y-58500D03*
M02*
