G04 (created by PCBNEW (2012-12-10 BZR 3844)-stable) date Tue 11 Dec 2012 11:45:49 AM CET*
%MOIN*%
G04 Gerber Fmt 3.4, Leading zero omitted, Abs format*
%FSLAX34Y34*%
G01*
G70*
G90*
G04 APERTURE LIST*
%ADD10C,0.006*%
%ADD11C,0.076*%
%ADD12R,0.0909X0.0712*%
%ADD13R,0.0909X0.1696*%
%ADD14R,0.075X0.075*%
%ADD15C,0.075*%
%ADD16R,0.07X0.036*%
%ADD17R,0.055X0.075*%
%ADD18R,0.045X0.065*%
%ADD19R,0.065X0.045*%
%ADD20O,0.11X0.082*%
%ADD21R,0.11X0.082*%
%ADD22R,0.12X0.12*%
%ADD23C,0.12*%
%ADD24R,0.1204X0.1263*%
%ADD25R,0.1204X0.1696*%
%ADD26R,0.0535X0.0535*%
%ADD27C,0.2562*%
%ADD28R,0.1204X0.1184*%
%ADD29R,0.1065X0.1065*%
%ADD30R,0.0396X0.1065*%
%ADD31C,0.0554*%
%ADD32R,0.08X0.08*%
%ADD33C,0.08*%
G04 APERTURE END LIST*
G54D10*
G54D11*
X53000Y-49500D03*
X53000Y-51500D03*
G54D12*
X59319Y-61194D03*
X59319Y-62100D03*
X59319Y-63006D03*
G54D13*
X61681Y-62100D03*
G54D14*
X54000Y-35000D03*
G54D15*
X53000Y-35000D03*
X51500Y-56500D03*
X53500Y-56500D03*
X51500Y-59500D03*
X53500Y-59500D03*
G54D16*
X57900Y-39650D03*
X57900Y-39400D03*
X57900Y-39140D03*
X57900Y-38880D03*
X57900Y-38630D03*
X57900Y-38370D03*
X57900Y-38110D03*
X57900Y-37860D03*
X57900Y-37600D03*
X57900Y-37350D03*
X57900Y-37090D03*
X57900Y-36830D03*
X57900Y-36580D03*
X57900Y-36320D03*
X55100Y-36320D03*
X55100Y-36580D03*
X55100Y-36820D03*
X55100Y-37090D03*
X55100Y-37350D03*
X55100Y-37600D03*
X55100Y-37860D03*
X55100Y-38110D03*
X55100Y-38370D03*
X55100Y-38630D03*
X55100Y-38880D03*
X55100Y-39140D03*
X55100Y-39400D03*
X55100Y-39650D03*
G54D17*
X57475Y-33800D03*
X58225Y-33800D03*
G54D18*
X53150Y-38850D03*
X53750Y-38850D03*
X52500Y-42000D03*
X53100Y-42000D03*
X54400Y-56500D03*
X55000Y-56500D03*
X55450Y-35000D03*
X54850Y-35000D03*
X54850Y-34000D03*
X54250Y-34000D03*
X53150Y-38100D03*
X53750Y-38100D03*
X51950Y-38100D03*
X52550Y-38100D03*
X60500Y-50000D03*
X61100Y-50000D03*
G54D19*
X60450Y-48000D03*
X60450Y-48600D03*
X51500Y-50100D03*
X51500Y-49500D03*
X51500Y-50900D03*
X51500Y-51500D03*
X58700Y-38900D03*
X58700Y-38300D03*
X59450Y-38900D03*
X59450Y-38300D03*
G54D18*
X54250Y-36800D03*
X53650Y-36800D03*
X51950Y-38850D03*
X52550Y-38850D03*
G54D14*
X59500Y-56000D03*
G54D15*
X59500Y-55000D03*
X59500Y-54000D03*
X59500Y-53000D03*
X59500Y-52000D03*
X59500Y-51000D03*
G54D14*
X59500Y-47000D03*
G54D15*
X59500Y-46000D03*
X59500Y-45000D03*
X59500Y-44000D03*
X59500Y-43000D03*
X59500Y-42000D03*
G54D14*
X60500Y-56000D03*
G54D15*
X60500Y-55000D03*
X60500Y-54000D03*
X60500Y-53000D03*
X60500Y-52000D03*
X60500Y-51000D03*
G54D14*
X61500Y-56000D03*
G54D15*
X61500Y-55000D03*
X61500Y-54000D03*
X61500Y-53000D03*
X61500Y-52000D03*
X61500Y-51000D03*
G54D14*
X60500Y-47000D03*
G54D15*
X60500Y-46000D03*
X60500Y-45000D03*
X60500Y-44000D03*
X60500Y-43000D03*
X60500Y-42000D03*
G54D14*
X61500Y-47000D03*
G54D15*
X61500Y-46000D03*
X61500Y-45000D03*
X61500Y-44000D03*
X61500Y-43000D03*
X61500Y-42000D03*
G54D14*
X53500Y-43000D03*
G54D15*
X53500Y-44000D03*
X53500Y-45000D03*
X53500Y-46000D03*
X53500Y-47000D03*
G54D14*
X52500Y-43000D03*
G54D15*
X52500Y-44000D03*
X52500Y-45000D03*
X52500Y-46000D03*
X52500Y-47000D03*
G54D14*
X51500Y-43000D03*
G54D15*
X51500Y-44000D03*
X51500Y-45000D03*
X51500Y-46000D03*
X51500Y-47000D03*
G54D14*
X51500Y-53500D03*
G54D15*
X51500Y-54500D03*
X51500Y-55500D03*
G54D14*
X52500Y-53500D03*
G54D15*
X52500Y-54500D03*
X52500Y-55500D03*
G54D14*
X53500Y-53500D03*
G54D15*
X53500Y-54500D03*
X53500Y-55500D03*
G54D14*
X59000Y-35000D03*
G54D15*
X60000Y-35000D03*
G54D14*
X59500Y-48000D03*
G54D15*
X59500Y-49000D03*
G54D20*
X55000Y-43000D03*
X55000Y-44000D03*
X55000Y-45000D03*
X55000Y-46000D03*
X55000Y-47000D03*
X55000Y-48000D03*
X55000Y-49000D03*
X55000Y-50000D03*
X55000Y-51000D03*
X55000Y-52000D03*
X55000Y-53000D03*
X55000Y-54000D03*
X55000Y-55000D03*
G54D21*
X55000Y-42000D03*
G54D20*
X58000Y-55000D03*
X58000Y-54000D03*
X58000Y-53000D03*
X58000Y-52000D03*
X58000Y-51000D03*
X58000Y-50000D03*
X58000Y-49000D03*
X58000Y-48000D03*
X58000Y-47000D03*
X58000Y-46000D03*
X58000Y-45000D03*
X58000Y-44000D03*
X58000Y-43000D03*
X58000Y-42000D03*
G54D19*
X58150Y-60950D03*
X58150Y-60350D03*
G54D18*
X51950Y-39600D03*
X52550Y-39600D03*
X53150Y-39600D03*
X53750Y-39600D03*
G54D22*
X55500Y-66500D03*
G54D23*
X57500Y-66500D03*
G54D24*
X56681Y-63000D03*
G54D25*
X54319Y-63000D03*
G54D24*
X56681Y-61000D03*
G54D25*
X54319Y-61000D03*
G54D26*
X58150Y-63009D03*
X58150Y-61691D03*
G54D27*
X52500Y-31000D03*
X60500Y-31000D03*
X52500Y-66000D03*
X60500Y-66000D03*
G54D28*
X59456Y-37250D03*
X61444Y-37250D03*
G54D29*
X54756Y-32425D03*
G54D30*
X57129Y-32535D03*
X56814Y-32535D03*
X56500Y-32535D03*
X56186Y-32535D03*
X55871Y-32535D03*
G54D31*
X57365Y-31540D03*
X55634Y-31540D03*
G54D29*
X58244Y-32425D03*
X58244Y-30260D03*
X54756Y-30260D03*
G54D32*
X57500Y-57500D03*
G54D33*
X57500Y-58500D03*
X56500Y-57500D03*
X56500Y-58500D03*
X55500Y-57500D03*
X55500Y-58500D03*
M02*
