M48
;DRILL file {Pcbnew (2012-12-10 BZR 3844)-stable} date Tue 18 Dec 2012 09:02:32 AM CET
;FORMAT={3:3/ absolute / metric / suppress leading zeros}
FMAT,2
METRIC,TZ
T1C0.508
T2C0.762
T3C0.813
T4C0.899
T5C1.016
T6C1.524
T7C3.099
%
G90
G05
M71
T1
X13970Y-15240
X17780Y-15240
X20320Y-26416
T2
X6350Y-52070
X6350Y-57150
T3
X2540Y-35560
X2540Y-38100
X2540Y-40640
X2540Y-43180
X2540Y-45720
X2540Y-62230
X2540Y-64770
X2540Y-67310
X2540Y-69850
X2540Y-77470
X5080Y-35560
X5080Y-38100
X5080Y-40640
X5080Y-43180
X5080Y-45720
X5080Y-62230
X5080Y-64770
X5080Y-67310
X6350Y-15240
X7620Y-35560
X7620Y-38100
X7620Y-40640
X7620Y-43180
X7620Y-45720
X7620Y-62230
X7620Y-64770
X7620Y-67310
X7620Y-69850
X7620Y-77470
X8890Y-15240
X11430Y-33020
X11430Y-35560
X11430Y-38100
X11430Y-40640
X11430Y-43180
X11430Y-45720
X11430Y-48260
X11430Y-50800
X11430Y-53340
X11430Y-55880
X11430Y-58420
X11430Y-60960
X11430Y-63500
X11430Y-66040
X19050Y-33020
X19050Y-35560
X19050Y-38100
X19050Y-40640
X19050Y-43180
X19050Y-45720
X19050Y-48260
X19050Y-50800
X19050Y-53340
X19050Y-55880
X19050Y-58420
X19050Y-60960
X19050Y-63500
X19050Y-66040
X21590Y-15240
X22860Y-33020
X22860Y-35560
X22860Y-38100
X22860Y-40640
X22860Y-43180
X22860Y-45720
X22860Y-48260
X22860Y-50800
X22860Y-55880
X22860Y-58420
X22860Y-60960
X22860Y-63500
X22860Y-66040
X22860Y-68580
X24130Y-15240
X25400Y-33020
X25400Y-35560
X25400Y-38100
X25400Y-40640
X25400Y-43180
X25400Y-45720
X25400Y-55880
X25400Y-58420
X25400Y-60960
X25400Y-63500
X25400Y-66040
X25400Y-68580
X27940Y-33020
X27940Y-35560
X27940Y-38100
X27940Y-40640
X27940Y-43180
X27940Y-45720
X27940Y-55880
X27940Y-58420
X27940Y-60960
X27940Y-63500
X27940Y-66040
X27940Y-68580
T4
X13040Y-6452
X17437Y-6452
T5
X12700Y-72390
X12700Y-74930
X15240Y-72390
X15240Y-74930
X17780Y-72390
X17780Y-74930
T6
X12700Y-95250
X17780Y-95250
T7
X5080Y-5080
X5080Y-93980
X25400Y-5080
X25400Y-93980
T0
M30
