G04 (created by PCBNEW (2012-12-10 BZR 3844)-stable) date Tue 18 Dec 2012 09:21:11 AM CET*
%MOIN*%
G04 Gerber Fmt 3.4, Leading zero omitted, Abs format*
%FSLAX34Y34*%
G01*
G70*
G90*
G04 APERTURE LIST*
%ADD10C,0.006*%
%ADD11C,0.056*%
%ADD12R,0.055X0.055*%
%ADD13C,0.055*%
%ADD14O,0.09X0.062*%
%ADD15R,0.09X0.062*%
%ADD16R,0.1X0.1*%
%ADD17C,0.1*%
%ADD18C,0.2362*%
%ADD19C,0.0354*%
%ADD20R,0.06X0.06*%
%ADD21C,0.06*%
%ADD22C,0.0197*%
%ADD23C,0.0118*%
%ADD24C,0.0067*%
G04 APERTURE END LIST*
G54D10*
G54D11*
X2500Y-20500D03*
X2500Y-22500D03*
G54D12*
X3500Y-6000D03*
G54D13*
X2500Y-6000D03*
X1000Y-27500D03*
X3000Y-27500D03*
X1000Y-30500D03*
X3000Y-30500D03*
G54D12*
X9000Y-27000D03*
G54D13*
X9000Y-26000D03*
X9000Y-25000D03*
X9000Y-24000D03*
X9000Y-23000D03*
X9000Y-22000D03*
G54D12*
X9000Y-18000D03*
G54D13*
X9000Y-17000D03*
X9000Y-16000D03*
X9000Y-15000D03*
X9000Y-14000D03*
X9000Y-13000D03*
G54D12*
X10000Y-27000D03*
G54D13*
X10000Y-26000D03*
X10000Y-25000D03*
X10000Y-24000D03*
X10000Y-23000D03*
X10000Y-22000D03*
G54D12*
X11000Y-27000D03*
G54D13*
X11000Y-26000D03*
X11000Y-25000D03*
X11000Y-24000D03*
X11000Y-23000D03*
X11000Y-22000D03*
G54D12*
X10000Y-18000D03*
G54D13*
X10000Y-17000D03*
X10000Y-16000D03*
X10000Y-15000D03*
X10000Y-14000D03*
X10000Y-13000D03*
G54D12*
X11000Y-18000D03*
G54D13*
X11000Y-17000D03*
X11000Y-16000D03*
X11000Y-15000D03*
X11000Y-14000D03*
X11000Y-13000D03*
G54D12*
X3000Y-14000D03*
G54D13*
X3000Y-15000D03*
X3000Y-16000D03*
X3000Y-17000D03*
X3000Y-18000D03*
G54D12*
X2000Y-14000D03*
G54D13*
X2000Y-15000D03*
X2000Y-16000D03*
X2000Y-17000D03*
X2000Y-18000D03*
G54D12*
X1000Y-14000D03*
G54D13*
X1000Y-15000D03*
X1000Y-16000D03*
X1000Y-17000D03*
X1000Y-18000D03*
G54D12*
X1000Y-24500D03*
G54D13*
X1000Y-25500D03*
X1000Y-26500D03*
G54D12*
X2000Y-24500D03*
G54D13*
X2000Y-25500D03*
X2000Y-26500D03*
G54D12*
X3000Y-24500D03*
G54D13*
X3000Y-25500D03*
X3000Y-26500D03*
G54D12*
X8500Y-6000D03*
G54D13*
X9500Y-6000D03*
G54D12*
X9000Y-19000D03*
G54D13*
X9000Y-20000D03*
G54D14*
X4500Y-14000D03*
X4500Y-15000D03*
X4500Y-16000D03*
X4500Y-17000D03*
X4500Y-18000D03*
X4500Y-19000D03*
X4500Y-20000D03*
X4500Y-21000D03*
X4500Y-22000D03*
X4500Y-23000D03*
X4500Y-24000D03*
X4500Y-25000D03*
X4500Y-26000D03*
G54D15*
X4500Y-13000D03*
G54D14*
X7500Y-26000D03*
X7500Y-25000D03*
X7500Y-24000D03*
X7500Y-23000D03*
X7500Y-22000D03*
X7500Y-21000D03*
X7500Y-20000D03*
X7500Y-19000D03*
X7500Y-18000D03*
X7500Y-17000D03*
X7500Y-16000D03*
X7500Y-15000D03*
X7500Y-14000D03*
X7500Y-13000D03*
G54D16*
X5000Y-37500D03*
G54D17*
X7000Y-37500D03*
G54D18*
X2000Y-2000D03*
X10000Y-2000D03*
X2000Y-37000D03*
X10000Y-37000D03*
G54D19*
X6865Y-2540D03*
X5134Y-2540D03*
G54D20*
X7000Y-28500D03*
G54D21*
X7000Y-29500D03*
X6000Y-28500D03*
X6000Y-29500D03*
X5000Y-28500D03*
X5000Y-29500D03*
G54D19*
X5500Y-6000D03*
X7000Y-6000D03*
X8000Y-10400D03*
G54D22*
X2000Y-23500D02*
X2000Y-24500D01*
X1500Y-20000D02*
X1500Y-23000D01*
X1500Y-23000D02*
X2000Y-23500D01*
X2000Y-18000D02*
X2000Y-19500D01*
X2000Y-19500D02*
X1500Y-20000D01*
G54D23*
X7500Y-23000D02*
X6550Y-23000D01*
X6250Y-23300D02*
X6550Y-23000D01*
X7000Y-28000D02*
X7000Y-28500D01*
X6250Y-27250D02*
X6250Y-27050D01*
X7000Y-28000D02*
X6250Y-27250D01*
X6250Y-27050D02*
X6250Y-23300D01*
X6500Y-26900D02*
X6500Y-24450D01*
X7800Y-28200D02*
X6500Y-26900D01*
X6000Y-29500D02*
X6000Y-30050D01*
X7550Y-30350D02*
X7800Y-30100D01*
X6300Y-30350D02*
X7550Y-30350D01*
X6000Y-30050D02*
X6300Y-30350D01*
X7800Y-30100D02*
X7800Y-28200D01*
X6950Y-24000D02*
X7500Y-24000D01*
X6500Y-24450D02*
X6950Y-24000D01*
X7000Y-6000D02*
X5500Y-6000D01*
G54D22*
X5000Y-28500D02*
X5000Y-27500D01*
X8000Y-11100D02*
X8000Y-10400D01*
X6300Y-11450D02*
X7650Y-11450D01*
X7650Y-11450D02*
X8000Y-11100D01*
X5500Y-13000D02*
X5500Y-12250D01*
X5500Y-12250D02*
X6300Y-11450D01*
X5500Y-13000D02*
X5500Y-13500D01*
X4500Y-13000D02*
X5500Y-13000D01*
G54D23*
X5500Y-12250D02*
X5500Y-13000D01*
X5500Y-13000D02*
X5500Y-13500D01*
X7650Y-11450D02*
X8000Y-11100D01*
X6300Y-11450D02*
X7650Y-11450D01*
X5500Y-12250D02*
X6300Y-11450D01*
X8000Y-10400D02*
X8000Y-11100D01*
G54D22*
X5500Y-27000D02*
X5500Y-13500D01*
X3000Y-27500D02*
X5000Y-27500D01*
X5000Y-27500D02*
X5500Y-27000D01*
G54D23*
X6000Y-28500D02*
X6000Y-22500D01*
X6500Y-22000D02*
X7500Y-22000D01*
X6000Y-22500D02*
X6500Y-22000D01*
G54D10*
G36*
X11825Y-38825D02*
X11378Y-38825D01*
X11378Y-25950D01*
X11378Y-24950D01*
X11378Y-23950D01*
X11378Y-22950D01*
X11378Y-21950D01*
X11378Y-16950D01*
X11378Y-15950D01*
X11378Y-14950D01*
X11378Y-13950D01*
X11378Y-12950D01*
X11368Y-12902D01*
X11330Y-12864D01*
X11313Y-12881D01*
X11313Y-2262D01*
X11313Y-1740D01*
X11114Y-1257D01*
X10745Y-887D01*
X10262Y-687D01*
X9740Y-687D01*
X9257Y-886D01*
X8887Y-1255D01*
X8687Y-1738D01*
X8687Y-2260D01*
X8886Y-2743D01*
X9255Y-3113D01*
X9738Y-3313D01*
X10260Y-3313D01*
X10743Y-3114D01*
X11113Y-2745D01*
X11313Y-2262D01*
X11313Y-12881D01*
X11194Y-13000D01*
X11330Y-13136D01*
X11368Y-13098D01*
X11378Y-12950D01*
X11378Y-13950D01*
X11368Y-13902D01*
X11330Y-13864D01*
X11194Y-14000D01*
X11330Y-14136D01*
X11368Y-14098D01*
X11378Y-13950D01*
X11378Y-14950D01*
X11368Y-14902D01*
X11330Y-14864D01*
X11194Y-15000D01*
X11330Y-15136D01*
X11368Y-15098D01*
X11378Y-14950D01*
X11378Y-15950D01*
X11368Y-15902D01*
X11330Y-15864D01*
X11194Y-16000D01*
X11330Y-16136D01*
X11368Y-16098D01*
X11378Y-15950D01*
X11378Y-16950D01*
X11368Y-16902D01*
X11330Y-16864D01*
X11194Y-17000D01*
X11330Y-17136D01*
X11368Y-17098D01*
X11378Y-16950D01*
X11378Y-21950D01*
X11375Y-21935D01*
X11375Y-18162D01*
X11375Y-17838D01*
X11374Y-17705D01*
X11359Y-17669D01*
X11331Y-17641D01*
X11294Y-17626D01*
X11255Y-17626D01*
X11162Y-17625D01*
X11137Y-17650D01*
X11137Y-17863D01*
X11350Y-17863D01*
X11375Y-17838D01*
X11375Y-18162D01*
X11350Y-18137D01*
X11137Y-18137D01*
X11137Y-18350D01*
X11162Y-18375D01*
X11255Y-18374D01*
X11294Y-18374D01*
X11331Y-18359D01*
X11359Y-18331D01*
X11374Y-18295D01*
X11375Y-18162D01*
X11375Y-21935D01*
X11368Y-21902D01*
X11330Y-21864D01*
X11194Y-22000D01*
X11330Y-22136D01*
X11368Y-22098D01*
X11378Y-21950D01*
X11378Y-22950D01*
X11368Y-22902D01*
X11330Y-22864D01*
X11194Y-23000D01*
X11330Y-23136D01*
X11368Y-23098D01*
X11378Y-22950D01*
X11378Y-23950D01*
X11368Y-23902D01*
X11330Y-23864D01*
X11194Y-24000D01*
X11330Y-24136D01*
X11368Y-24098D01*
X11378Y-23950D01*
X11378Y-24950D01*
X11368Y-24902D01*
X11330Y-24864D01*
X11194Y-25000D01*
X11330Y-25136D01*
X11368Y-25098D01*
X11378Y-24950D01*
X11378Y-25950D01*
X11368Y-25902D01*
X11330Y-25864D01*
X11194Y-26000D01*
X11330Y-26136D01*
X11368Y-26098D01*
X11378Y-25950D01*
X11378Y-38825D01*
X11375Y-38825D01*
X11375Y-27162D01*
X11375Y-26838D01*
X11374Y-26705D01*
X11359Y-26669D01*
X11331Y-26641D01*
X11294Y-26626D01*
X11255Y-26626D01*
X11162Y-26625D01*
X11137Y-26650D01*
X11137Y-26863D01*
X11350Y-26863D01*
X11375Y-26838D01*
X11375Y-27162D01*
X11350Y-27137D01*
X11137Y-27137D01*
X11137Y-27350D01*
X11162Y-27375D01*
X11255Y-27374D01*
X11294Y-27374D01*
X11331Y-27359D01*
X11359Y-27331D01*
X11374Y-27295D01*
X11375Y-27162D01*
X11375Y-38825D01*
X11313Y-38825D01*
X11313Y-37262D01*
X11313Y-36740D01*
X11136Y-36310D01*
X11136Y-26330D01*
X11136Y-25670D01*
X11136Y-25330D01*
X11136Y-24670D01*
X11136Y-24330D01*
X11136Y-23670D01*
X11136Y-23330D01*
X11136Y-22670D01*
X11136Y-22330D01*
X11136Y-21670D01*
X11136Y-17330D01*
X11136Y-16670D01*
X11136Y-16330D01*
X11136Y-15670D01*
X11136Y-15330D01*
X11136Y-14670D01*
X11136Y-14330D01*
X11136Y-13670D01*
X11136Y-13330D01*
X11136Y-12670D01*
X11098Y-12632D01*
X10950Y-12622D01*
X10902Y-12632D01*
X10864Y-12670D01*
X11000Y-12806D01*
X11136Y-12670D01*
X11136Y-13330D01*
X11000Y-13194D01*
X10864Y-13330D01*
X10902Y-13368D01*
X11050Y-13378D01*
X11098Y-13368D01*
X11136Y-13330D01*
X11136Y-13670D01*
X11098Y-13632D01*
X10950Y-13622D01*
X10902Y-13632D01*
X10864Y-13670D01*
X11000Y-13806D01*
X11136Y-13670D01*
X11136Y-14330D01*
X11000Y-14194D01*
X10864Y-14330D01*
X10902Y-14368D01*
X11050Y-14378D01*
X11098Y-14368D01*
X11136Y-14330D01*
X11136Y-14670D01*
X11098Y-14632D01*
X10950Y-14622D01*
X10902Y-14632D01*
X10864Y-14670D01*
X11000Y-14806D01*
X11136Y-14670D01*
X11136Y-15330D01*
X11000Y-15194D01*
X10864Y-15330D01*
X10902Y-15368D01*
X11050Y-15378D01*
X11098Y-15368D01*
X11136Y-15330D01*
X11136Y-15670D01*
X11098Y-15632D01*
X10950Y-15622D01*
X10902Y-15632D01*
X10864Y-15670D01*
X11000Y-15806D01*
X11136Y-15670D01*
X11136Y-16330D01*
X11000Y-16194D01*
X10864Y-16330D01*
X10902Y-16368D01*
X11050Y-16378D01*
X11098Y-16368D01*
X11136Y-16330D01*
X11136Y-16670D01*
X11098Y-16632D01*
X10950Y-16622D01*
X10902Y-16632D01*
X10864Y-16670D01*
X11000Y-16806D01*
X11136Y-16670D01*
X11136Y-17330D01*
X11000Y-17194D01*
X10864Y-17330D01*
X10902Y-17368D01*
X11050Y-17378D01*
X11098Y-17368D01*
X11136Y-17330D01*
X11136Y-21670D01*
X11098Y-21632D01*
X10950Y-21622D01*
X10902Y-21632D01*
X10864Y-21670D01*
X11000Y-21806D01*
X11136Y-21670D01*
X11136Y-22330D01*
X11000Y-22194D01*
X10864Y-22330D01*
X10902Y-22368D01*
X11050Y-22378D01*
X11098Y-22368D01*
X11136Y-22330D01*
X11136Y-22670D01*
X11098Y-22632D01*
X10950Y-22622D01*
X10902Y-22632D01*
X10864Y-22670D01*
X11000Y-22806D01*
X11136Y-22670D01*
X11136Y-23330D01*
X11000Y-23194D01*
X10864Y-23330D01*
X10902Y-23368D01*
X11050Y-23378D01*
X11098Y-23368D01*
X11136Y-23330D01*
X11136Y-23670D01*
X11098Y-23632D01*
X10950Y-23622D01*
X10902Y-23632D01*
X10864Y-23670D01*
X11000Y-23806D01*
X11136Y-23670D01*
X11136Y-24330D01*
X11000Y-24194D01*
X10864Y-24330D01*
X10902Y-24368D01*
X11050Y-24378D01*
X11098Y-24368D01*
X11136Y-24330D01*
X11136Y-24670D01*
X11098Y-24632D01*
X10950Y-24622D01*
X10902Y-24632D01*
X10864Y-24670D01*
X11000Y-24806D01*
X11136Y-24670D01*
X11136Y-25330D01*
X11000Y-25194D01*
X10864Y-25330D01*
X10902Y-25368D01*
X11050Y-25378D01*
X11098Y-25368D01*
X11136Y-25330D01*
X11136Y-25670D01*
X11098Y-25632D01*
X10950Y-25622D01*
X10902Y-25632D01*
X10864Y-25670D01*
X11000Y-25806D01*
X11136Y-25670D01*
X11136Y-26330D01*
X11000Y-26194D01*
X10864Y-26330D01*
X10902Y-26368D01*
X11050Y-26378D01*
X11098Y-26368D01*
X11136Y-26330D01*
X11136Y-36310D01*
X11114Y-36257D01*
X10863Y-36005D01*
X10863Y-27350D01*
X10863Y-27137D01*
X10863Y-26863D01*
X10863Y-26650D01*
X10863Y-18350D01*
X10863Y-18137D01*
X10863Y-17863D01*
X10863Y-17650D01*
X10838Y-17625D01*
X10806Y-17625D01*
X10806Y-17000D01*
X10806Y-16000D01*
X10806Y-15000D01*
X10806Y-14000D01*
X10806Y-13000D01*
X10670Y-12864D01*
X10632Y-12902D01*
X10622Y-13050D01*
X10632Y-13098D01*
X10670Y-13136D01*
X10806Y-13000D01*
X10806Y-14000D01*
X10670Y-13864D01*
X10632Y-13902D01*
X10622Y-14050D01*
X10632Y-14098D01*
X10670Y-14136D01*
X10806Y-14000D01*
X10806Y-15000D01*
X10670Y-14864D01*
X10632Y-14902D01*
X10622Y-15050D01*
X10632Y-15098D01*
X10670Y-15136D01*
X10806Y-15000D01*
X10806Y-16000D01*
X10670Y-15864D01*
X10632Y-15902D01*
X10622Y-16050D01*
X10632Y-16098D01*
X10670Y-16136D01*
X10806Y-16000D01*
X10806Y-17000D01*
X10670Y-16864D01*
X10632Y-16902D01*
X10622Y-17050D01*
X10632Y-17098D01*
X10670Y-17136D01*
X10806Y-17000D01*
X10806Y-17625D01*
X10745Y-17626D01*
X10706Y-17626D01*
X10669Y-17641D01*
X10641Y-17669D01*
X10626Y-17705D01*
X10625Y-17838D01*
X10650Y-17863D01*
X10863Y-17863D01*
X10863Y-18137D01*
X10650Y-18137D01*
X10625Y-18162D01*
X10626Y-18295D01*
X10641Y-18331D01*
X10669Y-18359D01*
X10706Y-18374D01*
X10745Y-18374D01*
X10838Y-18375D01*
X10863Y-18350D01*
X10863Y-26650D01*
X10838Y-26625D01*
X10806Y-26625D01*
X10806Y-26000D01*
X10806Y-25000D01*
X10806Y-24000D01*
X10806Y-23000D01*
X10806Y-22000D01*
X10670Y-21864D01*
X10632Y-21902D01*
X10622Y-22050D01*
X10632Y-22098D01*
X10670Y-22136D01*
X10806Y-22000D01*
X10806Y-23000D01*
X10670Y-22864D01*
X10632Y-22902D01*
X10622Y-23050D01*
X10632Y-23098D01*
X10670Y-23136D01*
X10806Y-23000D01*
X10806Y-24000D01*
X10670Y-23864D01*
X10632Y-23902D01*
X10622Y-24050D01*
X10632Y-24098D01*
X10670Y-24136D01*
X10806Y-24000D01*
X10806Y-25000D01*
X10670Y-24864D01*
X10632Y-24902D01*
X10622Y-25050D01*
X10632Y-25098D01*
X10670Y-25136D01*
X10806Y-25000D01*
X10806Y-26000D01*
X10670Y-25864D01*
X10632Y-25902D01*
X10622Y-26050D01*
X10632Y-26098D01*
X10670Y-26136D01*
X10806Y-26000D01*
X10806Y-26625D01*
X10745Y-26626D01*
X10706Y-26626D01*
X10669Y-26641D01*
X10641Y-26669D01*
X10626Y-26705D01*
X10625Y-26838D01*
X10650Y-26863D01*
X10863Y-26863D01*
X10863Y-27137D01*
X10650Y-27137D01*
X10625Y-27162D01*
X10626Y-27295D01*
X10641Y-27331D01*
X10669Y-27359D01*
X10706Y-27374D01*
X10745Y-27374D01*
X10838Y-27375D01*
X10863Y-27350D01*
X10863Y-36005D01*
X10745Y-35887D01*
X10407Y-35747D01*
X10407Y-27301D01*
X10407Y-27249D01*
X10407Y-26699D01*
X10407Y-26081D01*
X10407Y-25919D01*
X10407Y-25081D01*
X10407Y-24919D01*
X10407Y-24081D01*
X10407Y-23919D01*
X10407Y-23081D01*
X10407Y-22919D01*
X10407Y-22081D01*
X10407Y-21919D01*
X10407Y-18301D01*
X10407Y-18249D01*
X10407Y-17699D01*
X10407Y-17081D01*
X10407Y-16919D01*
X10407Y-16081D01*
X10407Y-15919D01*
X10407Y-15081D01*
X10407Y-14919D01*
X10407Y-14081D01*
X10407Y-13919D01*
X10407Y-13081D01*
X10407Y-12919D01*
X10345Y-12770D01*
X10231Y-12655D01*
X10081Y-12593D01*
X9919Y-12593D01*
X9907Y-12597D01*
X9907Y-6081D01*
X9907Y-5919D01*
X9845Y-5770D01*
X9731Y-5655D01*
X9581Y-5593D01*
X9419Y-5593D01*
X9270Y-5655D01*
X9155Y-5769D01*
X9093Y-5919D01*
X9093Y-6081D01*
X9155Y-6230D01*
X9269Y-6345D01*
X9419Y-6407D01*
X9581Y-6407D01*
X9730Y-6345D01*
X9845Y-6231D01*
X9907Y-6081D01*
X9907Y-12597D01*
X9770Y-12655D01*
X9655Y-12769D01*
X9593Y-12919D01*
X9593Y-13081D01*
X9655Y-13230D01*
X9769Y-13345D01*
X9919Y-13407D01*
X10081Y-13407D01*
X10230Y-13345D01*
X10345Y-13231D01*
X10407Y-13081D01*
X10407Y-13919D01*
X10345Y-13770D01*
X10231Y-13655D01*
X10081Y-13593D01*
X9919Y-13593D01*
X9770Y-13655D01*
X9655Y-13769D01*
X9593Y-13919D01*
X9593Y-14081D01*
X9655Y-14230D01*
X9769Y-14345D01*
X9919Y-14407D01*
X10081Y-14407D01*
X10230Y-14345D01*
X10345Y-14231D01*
X10407Y-14081D01*
X10407Y-14919D01*
X10345Y-14770D01*
X10231Y-14655D01*
X10081Y-14593D01*
X9919Y-14593D01*
X9770Y-14655D01*
X9655Y-14769D01*
X9593Y-14919D01*
X9593Y-15081D01*
X9655Y-15230D01*
X9769Y-15345D01*
X9919Y-15407D01*
X10081Y-15407D01*
X10230Y-15345D01*
X10345Y-15231D01*
X10407Y-15081D01*
X10407Y-15919D01*
X10345Y-15770D01*
X10231Y-15655D01*
X10081Y-15593D01*
X9919Y-15593D01*
X9770Y-15655D01*
X9655Y-15769D01*
X9593Y-15919D01*
X9593Y-16081D01*
X9655Y-16230D01*
X9769Y-16345D01*
X9919Y-16407D01*
X10081Y-16407D01*
X10230Y-16345D01*
X10345Y-16231D01*
X10407Y-16081D01*
X10407Y-16919D01*
X10345Y-16770D01*
X10231Y-16655D01*
X10081Y-16593D01*
X9919Y-16593D01*
X9770Y-16655D01*
X9655Y-16769D01*
X9593Y-16919D01*
X9593Y-17081D01*
X9655Y-17230D01*
X9769Y-17345D01*
X9919Y-17407D01*
X10081Y-17407D01*
X10230Y-17345D01*
X10345Y-17231D01*
X10407Y-17081D01*
X10407Y-17699D01*
X10387Y-17650D01*
X10350Y-17613D01*
X10301Y-17593D01*
X10249Y-17593D01*
X9699Y-17593D01*
X9650Y-17613D01*
X9613Y-17650D01*
X9593Y-17699D01*
X9593Y-17751D01*
X9593Y-18301D01*
X9613Y-18350D01*
X9650Y-18387D01*
X9699Y-18407D01*
X9751Y-18407D01*
X10301Y-18407D01*
X10350Y-18387D01*
X10387Y-18350D01*
X10407Y-18301D01*
X10407Y-21919D01*
X10345Y-21770D01*
X10231Y-21655D01*
X10081Y-21593D01*
X9919Y-21593D01*
X9770Y-21655D01*
X9655Y-21769D01*
X9593Y-21919D01*
X9593Y-22081D01*
X9655Y-22230D01*
X9769Y-22345D01*
X9919Y-22407D01*
X10081Y-22407D01*
X10230Y-22345D01*
X10345Y-22231D01*
X10407Y-22081D01*
X10407Y-22919D01*
X10345Y-22770D01*
X10231Y-22655D01*
X10081Y-22593D01*
X9919Y-22593D01*
X9770Y-22655D01*
X9655Y-22769D01*
X9593Y-22919D01*
X9593Y-23081D01*
X9655Y-23230D01*
X9769Y-23345D01*
X9919Y-23407D01*
X10081Y-23407D01*
X10230Y-23345D01*
X10345Y-23231D01*
X10407Y-23081D01*
X10407Y-23919D01*
X10345Y-23770D01*
X10231Y-23655D01*
X10081Y-23593D01*
X9919Y-23593D01*
X9770Y-23655D01*
X9655Y-23769D01*
X9593Y-23919D01*
X9593Y-24081D01*
X9655Y-24230D01*
X9769Y-24345D01*
X9919Y-24407D01*
X10081Y-24407D01*
X10230Y-24345D01*
X10345Y-24231D01*
X10407Y-24081D01*
X10407Y-24919D01*
X10345Y-24770D01*
X10231Y-24655D01*
X10081Y-24593D01*
X9919Y-24593D01*
X9770Y-24655D01*
X9655Y-24769D01*
X9593Y-24919D01*
X9593Y-25081D01*
X9655Y-25230D01*
X9769Y-25345D01*
X9919Y-25407D01*
X10081Y-25407D01*
X10230Y-25345D01*
X10345Y-25231D01*
X10407Y-25081D01*
X10407Y-25919D01*
X10345Y-25770D01*
X10231Y-25655D01*
X10081Y-25593D01*
X9919Y-25593D01*
X9770Y-25655D01*
X9655Y-25769D01*
X9593Y-25919D01*
X9593Y-26081D01*
X9655Y-26230D01*
X9769Y-26345D01*
X9919Y-26407D01*
X10081Y-26407D01*
X10230Y-26345D01*
X10345Y-26231D01*
X10407Y-26081D01*
X10407Y-26699D01*
X10387Y-26650D01*
X10350Y-26613D01*
X10301Y-26593D01*
X10249Y-26593D01*
X9699Y-26593D01*
X9650Y-26613D01*
X9613Y-26650D01*
X9593Y-26699D01*
X9593Y-26751D01*
X9593Y-27301D01*
X9613Y-27350D01*
X9650Y-27387D01*
X9699Y-27407D01*
X9751Y-27407D01*
X10301Y-27407D01*
X10350Y-27387D01*
X10387Y-27350D01*
X10407Y-27301D01*
X10407Y-35747D01*
X10262Y-35687D01*
X9740Y-35687D01*
X9407Y-35824D01*
X9407Y-27301D01*
X9407Y-27249D01*
X9407Y-26699D01*
X9407Y-26081D01*
X9407Y-25919D01*
X9407Y-25081D01*
X9407Y-24919D01*
X9407Y-24081D01*
X9407Y-23919D01*
X9407Y-23081D01*
X9407Y-22919D01*
X9407Y-22081D01*
X9407Y-21919D01*
X9407Y-20081D01*
X9407Y-19919D01*
X9407Y-19301D01*
X9407Y-19249D01*
X9407Y-18699D01*
X9407Y-18301D01*
X9407Y-18249D01*
X9407Y-17699D01*
X9407Y-17081D01*
X9407Y-16919D01*
X9407Y-16081D01*
X9407Y-15919D01*
X9407Y-15081D01*
X9407Y-14919D01*
X9407Y-14081D01*
X9407Y-13919D01*
X9407Y-13081D01*
X9407Y-12919D01*
X9345Y-12770D01*
X9231Y-12655D01*
X9081Y-12593D01*
X8919Y-12593D01*
X8907Y-12597D01*
X8907Y-6301D01*
X8907Y-6249D01*
X8907Y-5699D01*
X8887Y-5650D01*
X8850Y-5613D01*
X8801Y-5593D01*
X8749Y-5593D01*
X8199Y-5593D01*
X8150Y-5613D01*
X8113Y-5650D01*
X8093Y-5699D01*
X8093Y-5751D01*
X8093Y-6301D01*
X8113Y-6350D01*
X8150Y-6387D01*
X8199Y-6407D01*
X8251Y-6407D01*
X8801Y-6407D01*
X8850Y-6387D01*
X8887Y-6350D01*
X8907Y-6301D01*
X8907Y-12597D01*
X8770Y-12655D01*
X8655Y-12769D01*
X8593Y-12919D01*
X8593Y-13081D01*
X8655Y-13230D01*
X8769Y-13345D01*
X8919Y-13407D01*
X9081Y-13407D01*
X9230Y-13345D01*
X9345Y-13231D01*
X9407Y-13081D01*
X9407Y-13919D01*
X9345Y-13770D01*
X9231Y-13655D01*
X9081Y-13593D01*
X8919Y-13593D01*
X8770Y-13655D01*
X8655Y-13769D01*
X8593Y-13919D01*
X8593Y-14081D01*
X8655Y-14230D01*
X8769Y-14345D01*
X8919Y-14407D01*
X9081Y-14407D01*
X9230Y-14345D01*
X9345Y-14231D01*
X9407Y-14081D01*
X9407Y-14919D01*
X9345Y-14770D01*
X9231Y-14655D01*
X9081Y-14593D01*
X8919Y-14593D01*
X8770Y-14655D01*
X8655Y-14769D01*
X8593Y-14919D01*
X8593Y-15081D01*
X8655Y-15230D01*
X8769Y-15345D01*
X8919Y-15407D01*
X9081Y-15407D01*
X9230Y-15345D01*
X9345Y-15231D01*
X9407Y-15081D01*
X9407Y-15919D01*
X9345Y-15770D01*
X9231Y-15655D01*
X9081Y-15593D01*
X8919Y-15593D01*
X8770Y-15655D01*
X8655Y-15769D01*
X8593Y-15919D01*
X8593Y-16081D01*
X8655Y-16230D01*
X8769Y-16345D01*
X8919Y-16407D01*
X9081Y-16407D01*
X9230Y-16345D01*
X9345Y-16231D01*
X9407Y-16081D01*
X9407Y-16919D01*
X9345Y-16770D01*
X9231Y-16655D01*
X9081Y-16593D01*
X8919Y-16593D01*
X8770Y-16655D01*
X8655Y-16769D01*
X8593Y-16919D01*
X8593Y-17081D01*
X8655Y-17230D01*
X8769Y-17345D01*
X8919Y-17407D01*
X9081Y-17407D01*
X9230Y-17345D01*
X9345Y-17231D01*
X9407Y-17081D01*
X9407Y-17699D01*
X9387Y-17650D01*
X9350Y-17613D01*
X9301Y-17593D01*
X9249Y-17593D01*
X8699Y-17593D01*
X8650Y-17613D01*
X8613Y-17650D01*
X8593Y-17699D01*
X8593Y-17751D01*
X8593Y-18301D01*
X8613Y-18350D01*
X8650Y-18387D01*
X8699Y-18407D01*
X8751Y-18407D01*
X9301Y-18407D01*
X9350Y-18387D01*
X9387Y-18350D01*
X9407Y-18301D01*
X9407Y-18699D01*
X9387Y-18650D01*
X9350Y-18613D01*
X9301Y-18593D01*
X9249Y-18593D01*
X8699Y-18593D01*
X8650Y-18613D01*
X8613Y-18650D01*
X8593Y-18699D01*
X8593Y-18751D01*
X8593Y-19301D01*
X8613Y-19350D01*
X8650Y-19387D01*
X8699Y-19407D01*
X8751Y-19407D01*
X9301Y-19407D01*
X9350Y-19387D01*
X9387Y-19350D01*
X9407Y-19301D01*
X9407Y-19919D01*
X9345Y-19770D01*
X9231Y-19655D01*
X9081Y-19593D01*
X8919Y-19593D01*
X8770Y-19655D01*
X8655Y-19769D01*
X8593Y-19919D01*
X8593Y-20081D01*
X8655Y-20230D01*
X8769Y-20345D01*
X8919Y-20407D01*
X9081Y-20407D01*
X9230Y-20345D01*
X9345Y-20231D01*
X9407Y-20081D01*
X9407Y-21919D01*
X9345Y-21770D01*
X9231Y-21655D01*
X9081Y-21593D01*
X8919Y-21593D01*
X8770Y-21655D01*
X8655Y-21769D01*
X8593Y-21919D01*
X8593Y-22081D01*
X8655Y-22230D01*
X8769Y-22345D01*
X8919Y-22407D01*
X9081Y-22407D01*
X9230Y-22345D01*
X9345Y-22231D01*
X9407Y-22081D01*
X9407Y-22919D01*
X9345Y-22770D01*
X9231Y-22655D01*
X9081Y-22593D01*
X8919Y-22593D01*
X8770Y-22655D01*
X8655Y-22769D01*
X8593Y-22919D01*
X8593Y-23081D01*
X8655Y-23230D01*
X8769Y-23345D01*
X8919Y-23407D01*
X9081Y-23407D01*
X9230Y-23345D01*
X9345Y-23231D01*
X9407Y-23081D01*
X9407Y-23919D01*
X9345Y-23770D01*
X9231Y-23655D01*
X9081Y-23593D01*
X8919Y-23593D01*
X8770Y-23655D01*
X8655Y-23769D01*
X8593Y-23919D01*
X8593Y-24081D01*
X8655Y-24230D01*
X8769Y-24345D01*
X8919Y-24407D01*
X9081Y-24407D01*
X9230Y-24345D01*
X9345Y-24231D01*
X9407Y-24081D01*
X9407Y-24919D01*
X9345Y-24770D01*
X9231Y-24655D01*
X9081Y-24593D01*
X8919Y-24593D01*
X8770Y-24655D01*
X8655Y-24769D01*
X8593Y-24919D01*
X8593Y-25081D01*
X8655Y-25230D01*
X8769Y-25345D01*
X8919Y-25407D01*
X9081Y-25407D01*
X9230Y-25345D01*
X9345Y-25231D01*
X9407Y-25081D01*
X9407Y-25919D01*
X9345Y-25770D01*
X9231Y-25655D01*
X9081Y-25593D01*
X8919Y-25593D01*
X8770Y-25655D01*
X8655Y-25769D01*
X8593Y-25919D01*
X8593Y-26081D01*
X8655Y-26230D01*
X8769Y-26345D01*
X8919Y-26407D01*
X9081Y-26407D01*
X9230Y-26345D01*
X9345Y-26231D01*
X9407Y-26081D01*
X9407Y-26699D01*
X9387Y-26650D01*
X9350Y-26613D01*
X9301Y-26593D01*
X9249Y-26593D01*
X8699Y-26593D01*
X8650Y-26613D01*
X8613Y-26650D01*
X8593Y-26699D01*
X8593Y-26751D01*
X8593Y-27301D01*
X8613Y-27350D01*
X8650Y-27387D01*
X8699Y-27407D01*
X8751Y-27407D01*
X9301Y-27407D01*
X9350Y-27387D01*
X9387Y-27350D01*
X9407Y-27301D01*
X9407Y-35824D01*
X9257Y-35886D01*
X8887Y-36255D01*
X8687Y-36738D01*
X8687Y-37260D01*
X8886Y-37743D01*
X9255Y-38113D01*
X9738Y-38313D01*
X10260Y-38313D01*
X10743Y-38114D01*
X11113Y-37745D01*
X11313Y-37262D01*
X11313Y-38825D01*
X8310Y-38825D01*
X8310Y-10462D01*
X8310Y-10339D01*
X8263Y-10225D01*
X8176Y-10137D01*
X8062Y-10090D01*
X7939Y-10090D01*
X7825Y-10137D01*
X7737Y-10224D01*
X7690Y-10338D01*
X7690Y-10461D01*
X7737Y-10575D01*
X7769Y-10607D01*
X7769Y-11004D01*
X7554Y-11219D01*
X7310Y-11219D01*
X7310Y-6062D01*
X7310Y-5939D01*
X7263Y-5825D01*
X7176Y-5737D01*
X7175Y-5736D01*
X7175Y-2602D01*
X7175Y-2479D01*
X7128Y-2365D01*
X7041Y-2277D01*
X6927Y-2230D01*
X6804Y-2230D01*
X6690Y-2277D01*
X6602Y-2364D01*
X6555Y-2478D01*
X6555Y-2601D01*
X6602Y-2715D01*
X6689Y-2803D01*
X6803Y-2850D01*
X6926Y-2850D01*
X7040Y-2803D01*
X7128Y-2716D01*
X7175Y-2602D01*
X7175Y-5736D01*
X7062Y-5690D01*
X6939Y-5690D01*
X6825Y-5737D01*
X6753Y-5808D01*
X5746Y-5808D01*
X5676Y-5737D01*
X5562Y-5690D01*
X5444Y-5690D01*
X5444Y-2602D01*
X5444Y-2479D01*
X5397Y-2365D01*
X5310Y-2277D01*
X5196Y-2230D01*
X5073Y-2230D01*
X4959Y-2277D01*
X4871Y-2364D01*
X4824Y-2478D01*
X4824Y-2601D01*
X4871Y-2715D01*
X4958Y-2803D01*
X5072Y-2850D01*
X5195Y-2850D01*
X5309Y-2803D01*
X5397Y-2716D01*
X5444Y-2602D01*
X5444Y-5690D01*
X5439Y-5690D01*
X5325Y-5737D01*
X5237Y-5824D01*
X5190Y-5938D01*
X5190Y-6061D01*
X5237Y-6175D01*
X5324Y-6263D01*
X5438Y-6310D01*
X5561Y-6310D01*
X5675Y-6263D01*
X5746Y-6192D01*
X6753Y-6192D01*
X6824Y-6263D01*
X6938Y-6310D01*
X7061Y-6310D01*
X7175Y-6263D01*
X7263Y-6176D01*
X7310Y-6062D01*
X7310Y-11219D01*
X6300Y-11219D01*
X6226Y-11234D01*
X6211Y-11237D01*
X6136Y-11287D01*
X5337Y-12087D01*
X5287Y-12162D01*
X5269Y-12250D01*
X5269Y-12769D01*
X5082Y-12769D01*
X5082Y-12664D01*
X5062Y-12615D01*
X5025Y-12578D01*
X4976Y-12558D01*
X4924Y-12558D01*
X4024Y-12558D01*
X3975Y-12578D01*
X3938Y-12615D01*
X3918Y-12664D01*
X3918Y-12716D01*
X3918Y-13336D01*
X3938Y-13385D01*
X3975Y-13422D01*
X4024Y-13442D01*
X4076Y-13442D01*
X4976Y-13442D01*
X5025Y-13422D01*
X5062Y-13385D01*
X5082Y-13336D01*
X5082Y-13284D01*
X5082Y-13231D01*
X5269Y-13231D01*
X5269Y-13500D01*
X5269Y-26905D01*
X5094Y-27080D01*
X5094Y-26000D01*
X5094Y-25000D01*
X5094Y-24000D01*
X5094Y-23000D01*
X5094Y-22000D01*
X5094Y-21000D01*
X5094Y-19000D01*
X5094Y-18000D01*
X5094Y-17000D01*
X5094Y-16000D01*
X5094Y-15000D01*
X5094Y-14000D01*
X5060Y-13830D01*
X4964Y-13687D01*
X4821Y-13591D01*
X4651Y-13557D01*
X4349Y-13557D01*
X4179Y-13591D01*
X4036Y-13687D01*
X3940Y-13830D01*
X3907Y-13995D01*
X3907Y-6301D01*
X3907Y-6249D01*
X3907Y-5699D01*
X3887Y-5650D01*
X3850Y-5613D01*
X3801Y-5593D01*
X3749Y-5593D01*
X3313Y-5593D01*
X3313Y-2262D01*
X3313Y-1740D01*
X3114Y-1257D01*
X2745Y-887D01*
X2262Y-687D01*
X1740Y-687D01*
X1257Y-886D01*
X887Y-1255D01*
X687Y-1738D01*
X687Y-2260D01*
X886Y-2743D01*
X1255Y-3113D01*
X1738Y-3313D01*
X2260Y-3313D01*
X2743Y-3114D01*
X3113Y-2745D01*
X3313Y-2262D01*
X3313Y-5593D01*
X3199Y-5593D01*
X3150Y-5613D01*
X3113Y-5650D01*
X3093Y-5699D01*
X3093Y-5751D01*
X3093Y-6301D01*
X3113Y-6350D01*
X3150Y-6387D01*
X3199Y-6407D01*
X3251Y-6407D01*
X3801Y-6407D01*
X3850Y-6387D01*
X3887Y-6350D01*
X3907Y-6301D01*
X3907Y-13995D01*
X3906Y-14000D01*
X3940Y-14170D01*
X4036Y-14313D01*
X4179Y-14409D01*
X4349Y-14443D01*
X4651Y-14443D01*
X4821Y-14409D01*
X4964Y-14313D01*
X5060Y-14170D01*
X5094Y-14000D01*
X5094Y-15000D01*
X5060Y-14830D01*
X4964Y-14687D01*
X4821Y-14591D01*
X4651Y-14557D01*
X4349Y-14557D01*
X4179Y-14591D01*
X4036Y-14687D01*
X3940Y-14830D01*
X3906Y-15000D01*
X3940Y-15170D01*
X4036Y-15313D01*
X4179Y-15409D01*
X4349Y-15443D01*
X4651Y-15443D01*
X4821Y-15409D01*
X4964Y-15313D01*
X5060Y-15170D01*
X5094Y-15000D01*
X5094Y-16000D01*
X5060Y-15830D01*
X4964Y-15687D01*
X4821Y-15591D01*
X4651Y-15557D01*
X4349Y-15557D01*
X4179Y-15591D01*
X4036Y-15687D01*
X3940Y-15830D01*
X3906Y-16000D01*
X3940Y-16170D01*
X4036Y-16313D01*
X4179Y-16409D01*
X4349Y-16443D01*
X4651Y-16443D01*
X4821Y-16409D01*
X4964Y-16313D01*
X5060Y-16170D01*
X5094Y-16000D01*
X5094Y-17000D01*
X5060Y-16830D01*
X4964Y-16687D01*
X4821Y-16591D01*
X4651Y-16557D01*
X4349Y-16557D01*
X4179Y-16591D01*
X4036Y-16687D01*
X3940Y-16830D01*
X3906Y-17000D01*
X3940Y-17170D01*
X4036Y-17313D01*
X4179Y-17409D01*
X4349Y-17443D01*
X4651Y-17443D01*
X4821Y-17409D01*
X4964Y-17313D01*
X5060Y-17170D01*
X5094Y-17000D01*
X5094Y-18000D01*
X5060Y-17830D01*
X4964Y-17687D01*
X4821Y-17591D01*
X4651Y-17557D01*
X4349Y-17557D01*
X4179Y-17591D01*
X4036Y-17687D01*
X3940Y-17830D01*
X3906Y-18000D01*
X3940Y-18170D01*
X4036Y-18313D01*
X4179Y-18409D01*
X4349Y-18443D01*
X4651Y-18443D01*
X4821Y-18409D01*
X4964Y-18313D01*
X5060Y-18170D01*
X5094Y-18000D01*
X5094Y-19000D01*
X5060Y-18830D01*
X4964Y-18687D01*
X4821Y-18591D01*
X4651Y-18557D01*
X4349Y-18557D01*
X4179Y-18591D01*
X4036Y-18687D01*
X3940Y-18830D01*
X3906Y-19000D01*
X3940Y-19170D01*
X4036Y-19313D01*
X4179Y-19409D01*
X4349Y-19443D01*
X4651Y-19443D01*
X4821Y-19409D01*
X4964Y-19313D01*
X5060Y-19170D01*
X5094Y-19000D01*
X5094Y-21000D01*
X5060Y-20830D01*
X4992Y-20728D01*
X4992Y-20155D01*
X4992Y-19845D01*
X4990Y-19788D01*
X4927Y-19694D01*
X4788Y-19608D01*
X4725Y-19615D01*
X4725Y-19845D01*
X4992Y-19845D01*
X4992Y-20155D01*
X4725Y-20155D01*
X4725Y-20385D01*
X4788Y-20392D01*
X4927Y-20306D01*
X4990Y-20212D01*
X4992Y-20155D01*
X4992Y-20728D01*
X4964Y-20687D01*
X4821Y-20591D01*
X4651Y-20557D01*
X4349Y-20557D01*
X4275Y-20571D01*
X4275Y-20385D01*
X4275Y-20155D01*
X4275Y-19845D01*
X4275Y-19615D01*
X4212Y-19608D01*
X4073Y-19694D01*
X4010Y-19788D01*
X4008Y-19845D01*
X4275Y-19845D01*
X4275Y-20155D01*
X4008Y-20155D01*
X4010Y-20212D01*
X4073Y-20306D01*
X4212Y-20392D01*
X4275Y-20385D01*
X4275Y-20571D01*
X4179Y-20591D01*
X4036Y-20687D01*
X3940Y-20830D01*
X3906Y-21000D01*
X3940Y-21170D01*
X4036Y-21313D01*
X4179Y-21409D01*
X4349Y-21443D01*
X4651Y-21443D01*
X4821Y-21409D01*
X4964Y-21313D01*
X5060Y-21170D01*
X5094Y-21000D01*
X5094Y-22000D01*
X5060Y-21830D01*
X4964Y-21687D01*
X4821Y-21591D01*
X4651Y-21557D01*
X4349Y-21557D01*
X4179Y-21591D01*
X4036Y-21687D01*
X3940Y-21830D01*
X3906Y-22000D01*
X3940Y-22170D01*
X4036Y-22313D01*
X4179Y-22409D01*
X4349Y-22443D01*
X4651Y-22443D01*
X4821Y-22409D01*
X4964Y-22313D01*
X5060Y-22170D01*
X5094Y-22000D01*
X5094Y-23000D01*
X5060Y-22830D01*
X4964Y-22687D01*
X4821Y-22591D01*
X4651Y-22557D01*
X4349Y-22557D01*
X4179Y-22591D01*
X4036Y-22687D01*
X3940Y-22830D01*
X3906Y-23000D01*
X3940Y-23170D01*
X4036Y-23313D01*
X4179Y-23409D01*
X4349Y-23443D01*
X4651Y-23443D01*
X4821Y-23409D01*
X4964Y-23313D01*
X5060Y-23170D01*
X5094Y-23000D01*
X5094Y-24000D01*
X5060Y-23830D01*
X4964Y-23687D01*
X4821Y-23591D01*
X4651Y-23557D01*
X4349Y-23557D01*
X4179Y-23591D01*
X4036Y-23687D01*
X3940Y-23830D01*
X3906Y-24000D01*
X3940Y-24170D01*
X4036Y-24313D01*
X4179Y-24409D01*
X4349Y-24443D01*
X4651Y-24443D01*
X4821Y-24409D01*
X4964Y-24313D01*
X5060Y-24170D01*
X5094Y-24000D01*
X5094Y-25000D01*
X5060Y-24830D01*
X4964Y-24687D01*
X4821Y-24591D01*
X4651Y-24557D01*
X4349Y-24557D01*
X4179Y-24591D01*
X4036Y-24687D01*
X3940Y-24830D01*
X3906Y-25000D01*
X3940Y-25170D01*
X4036Y-25313D01*
X4179Y-25409D01*
X4349Y-25443D01*
X4651Y-25443D01*
X4821Y-25409D01*
X4964Y-25313D01*
X5060Y-25170D01*
X5094Y-25000D01*
X5094Y-26000D01*
X5060Y-25830D01*
X4964Y-25687D01*
X4821Y-25591D01*
X4651Y-25557D01*
X4349Y-25557D01*
X4179Y-25591D01*
X4036Y-25687D01*
X3940Y-25830D01*
X3906Y-26000D01*
X3940Y-26170D01*
X4036Y-26313D01*
X4179Y-26409D01*
X4349Y-26443D01*
X4651Y-26443D01*
X4821Y-26409D01*
X4964Y-26313D01*
X5060Y-26170D01*
X5094Y-26000D01*
X5094Y-27080D01*
X4905Y-27269D01*
X3407Y-27269D01*
X3407Y-26581D01*
X3407Y-26419D01*
X3407Y-25581D01*
X3407Y-25419D01*
X3407Y-24801D01*
X3407Y-24749D01*
X3407Y-24199D01*
X3407Y-18081D01*
X3407Y-17919D01*
X3407Y-17081D01*
X3407Y-16919D01*
X3407Y-16081D01*
X3407Y-15919D01*
X3407Y-15081D01*
X3407Y-14919D01*
X3407Y-14301D01*
X3407Y-14249D01*
X3407Y-13699D01*
X3387Y-13650D01*
X3350Y-13613D01*
X3301Y-13593D01*
X3249Y-13593D01*
X2907Y-13593D01*
X2907Y-6081D01*
X2907Y-5919D01*
X2845Y-5770D01*
X2731Y-5655D01*
X2581Y-5593D01*
X2419Y-5593D01*
X2270Y-5655D01*
X2155Y-5769D01*
X2093Y-5919D01*
X2093Y-6081D01*
X2155Y-6230D01*
X2269Y-6345D01*
X2419Y-6407D01*
X2581Y-6407D01*
X2730Y-6345D01*
X2845Y-6231D01*
X2907Y-6081D01*
X2907Y-13593D01*
X2699Y-13593D01*
X2650Y-13613D01*
X2613Y-13650D01*
X2593Y-13699D01*
X2593Y-13751D01*
X2593Y-14301D01*
X2613Y-14350D01*
X2650Y-14387D01*
X2699Y-14407D01*
X2751Y-14407D01*
X3301Y-14407D01*
X3350Y-14387D01*
X3387Y-14350D01*
X3407Y-14301D01*
X3407Y-14919D01*
X3345Y-14770D01*
X3231Y-14655D01*
X3081Y-14593D01*
X2919Y-14593D01*
X2770Y-14655D01*
X2655Y-14769D01*
X2593Y-14919D01*
X2593Y-15081D01*
X2655Y-15230D01*
X2769Y-15345D01*
X2919Y-15407D01*
X3081Y-15407D01*
X3230Y-15345D01*
X3345Y-15231D01*
X3407Y-15081D01*
X3407Y-15919D01*
X3345Y-15770D01*
X3231Y-15655D01*
X3081Y-15593D01*
X2919Y-15593D01*
X2770Y-15655D01*
X2655Y-15769D01*
X2593Y-15919D01*
X2593Y-16081D01*
X2655Y-16230D01*
X2769Y-16345D01*
X2919Y-16407D01*
X3081Y-16407D01*
X3230Y-16345D01*
X3345Y-16231D01*
X3407Y-16081D01*
X3407Y-16919D01*
X3345Y-16770D01*
X3231Y-16655D01*
X3081Y-16593D01*
X2919Y-16593D01*
X2770Y-16655D01*
X2655Y-16769D01*
X2593Y-16919D01*
X2593Y-17081D01*
X2655Y-17230D01*
X2769Y-17345D01*
X2919Y-17407D01*
X3081Y-17407D01*
X3230Y-17345D01*
X3345Y-17231D01*
X3407Y-17081D01*
X3407Y-17919D01*
X3345Y-17770D01*
X3231Y-17655D01*
X3081Y-17593D01*
X2919Y-17593D01*
X2770Y-17655D01*
X2655Y-17769D01*
X2593Y-17919D01*
X2593Y-18081D01*
X2655Y-18230D01*
X2769Y-18345D01*
X2919Y-18407D01*
X3081Y-18407D01*
X3230Y-18345D01*
X3345Y-18231D01*
X3407Y-18081D01*
X3407Y-24199D01*
X3387Y-24150D01*
X3350Y-24113D01*
X3301Y-24093D01*
X3249Y-24093D01*
X2913Y-24093D01*
X2913Y-22582D01*
X2913Y-22418D01*
X2913Y-20582D01*
X2913Y-20418D01*
X2850Y-20266D01*
X2734Y-20150D01*
X2582Y-20087D01*
X2418Y-20087D01*
X2266Y-20150D01*
X2150Y-20266D01*
X2087Y-20418D01*
X2087Y-20582D01*
X2150Y-20734D01*
X2266Y-20850D01*
X2418Y-20913D01*
X2582Y-20913D01*
X2734Y-20850D01*
X2850Y-20734D01*
X2913Y-20582D01*
X2913Y-22418D01*
X2850Y-22266D01*
X2734Y-22150D01*
X2582Y-22087D01*
X2418Y-22087D01*
X2266Y-22150D01*
X2150Y-22266D01*
X2087Y-22418D01*
X2087Y-22582D01*
X2150Y-22734D01*
X2266Y-22850D01*
X2418Y-22913D01*
X2582Y-22913D01*
X2734Y-22850D01*
X2850Y-22734D01*
X2913Y-22582D01*
X2913Y-24093D01*
X2699Y-24093D01*
X2650Y-24113D01*
X2613Y-24150D01*
X2593Y-24199D01*
X2593Y-24251D01*
X2593Y-24801D01*
X2613Y-24850D01*
X2650Y-24887D01*
X2699Y-24907D01*
X2751Y-24907D01*
X3301Y-24907D01*
X3350Y-24887D01*
X3387Y-24850D01*
X3407Y-24801D01*
X3407Y-25419D01*
X3345Y-25270D01*
X3231Y-25155D01*
X3081Y-25093D01*
X2919Y-25093D01*
X2770Y-25155D01*
X2655Y-25269D01*
X2593Y-25419D01*
X2593Y-25581D01*
X2655Y-25730D01*
X2769Y-25845D01*
X2919Y-25907D01*
X3081Y-25907D01*
X3230Y-25845D01*
X3345Y-25731D01*
X3407Y-25581D01*
X3407Y-26419D01*
X3345Y-26270D01*
X3231Y-26155D01*
X3081Y-26093D01*
X2919Y-26093D01*
X2770Y-26155D01*
X2655Y-26269D01*
X2593Y-26419D01*
X2593Y-26581D01*
X2655Y-26730D01*
X2769Y-26845D01*
X2919Y-26907D01*
X3081Y-26907D01*
X3230Y-26845D01*
X3345Y-26731D01*
X3407Y-26581D01*
X3407Y-27269D01*
X3344Y-27269D01*
X3231Y-27155D01*
X3081Y-27093D01*
X2919Y-27093D01*
X2770Y-27155D01*
X2655Y-27269D01*
X2593Y-27419D01*
X2593Y-27581D01*
X2655Y-27730D01*
X2769Y-27845D01*
X2919Y-27907D01*
X3081Y-27907D01*
X3230Y-27845D01*
X3345Y-27731D01*
X4769Y-27731D01*
X4769Y-28127D01*
X4755Y-28133D01*
X4634Y-28255D01*
X4568Y-28414D01*
X4567Y-28586D01*
X4633Y-28745D01*
X4755Y-28866D01*
X4914Y-28932D01*
X5086Y-28933D01*
X5245Y-28867D01*
X5366Y-28745D01*
X5432Y-28586D01*
X5433Y-28414D01*
X5367Y-28255D01*
X5245Y-28134D01*
X5231Y-28128D01*
X5231Y-27595D01*
X5663Y-27163D01*
X5713Y-27088D01*
X5730Y-27000D01*
X5731Y-27000D01*
X5731Y-13500D01*
X5731Y-13000D01*
X5731Y-12345D01*
X6395Y-11681D01*
X7650Y-11681D01*
X7738Y-11663D01*
X7813Y-11613D01*
X8163Y-11264D01*
X8163Y-11263D01*
X8195Y-11214D01*
X8212Y-11189D01*
X8213Y-11188D01*
X8230Y-11101D01*
X8231Y-11100D01*
X8231Y-10607D01*
X8263Y-10576D01*
X8310Y-10462D01*
X8310Y-38825D01*
X8094Y-38825D01*
X8094Y-26000D01*
X8094Y-25000D01*
X8094Y-24000D01*
X8060Y-23830D01*
X7964Y-23687D01*
X7821Y-23591D01*
X7651Y-23557D01*
X7349Y-23557D01*
X7179Y-23591D01*
X7036Y-23687D01*
X6954Y-23808D01*
X6950Y-23808D01*
X6877Y-23823D01*
X6814Y-23864D01*
X6812Y-23866D01*
X6442Y-24236D01*
X6442Y-23380D01*
X6630Y-23192D01*
X6954Y-23192D01*
X7036Y-23313D01*
X7179Y-23409D01*
X7349Y-23443D01*
X7651Y-23443D01*
X7821Y-23409D01*
X7964Y-23313D01*
X8060Y-23170D01*
X8094Y-23000D01*
X8060Y-22830D01*
X7964Y-22687D01*
X7821Y-22591D01*
X7651Y-22557D01*
X7349Y-22557D01*
X7179Y-22591D01*
X7036Y-22687D01*
X6954Y-22808D01*
X6550Y-22808D01*
X6476Y-22823D01*
X6414Y-22864D01*
X6192Y-23086D01*
X6192Y-22580D01*
X6580Y-22192D01*
X6954Y-22192D01*
X7036Y-22313D01*
X7179Y-22409D01*
X7349Y-22443D01*
X7651Y-22443D01*
X7821Y-22409D01*
X7964Y-22313D01*
X8060Y-22170D01*
X8094Y-22000D01*
X8094Y-21000D01*
X8094Y-20000D01*
X8094Y-18000D01*
X8094Y-17000D01*
X8094Y-16000D01*
X8094Y-15000D01*
X8094Y-14000D01*
X8094Y-13000D01*
X8060Y-12830D01*
X7964Y-12687D01*
X7821Y-12591D01*
X7651Y-12557D01*
X7349Y-12557D01*
X7179Y-12591D01*
X7036Y-12687D01*
X6940Y-12830D01*
X6906Y-13000D01*
X6940Y-13170D01*
X7036Y-13313D01*
X7179Y-13409D01*
X7349Y-13443D01*
X7651Y-13443D01*
X7821Y-13409D01*
X7964Y-13313D01*
X8060Y-13170D01*
X8094Y-13000D01*
X8094Y-14000D01*
X8060Y-13830D01*
X7964Y-13687D01*
X7821Y-13591D01*
X7651Y-13557D01*
X7349Y-13557D01*
X7179Y-13591D01*
X7036Y-13687D01*
X6940Y-13830D01*
X6906Y-14000D01*
X6940Y-14170D01*
X7036Y-14313D01*
X7179Y-14409D01*
X7349Y-14443D01*
X7651Y-14443D01*
X7821Y-14409D01*
X7964Y-14313D01*
X8060Y-14170D01*
X8094Y-14000D01*
X8094Y-15000D01*
X8060Y-14830D01*
X7964Y-14687D01*
X7821Y-14591D01*
X7651Y-14557D01*
X7349Y-14557D01*
X7179Y-14591D01*
X7036Y-14687D01*
X6940Y-14830D01*
X6906Y-15000D01*
X6940Y-15170D01*
X7036Y-15313D01*
X7179Y-15409D01*
X7349Y-15443D01*
X7651Y-15443D01*
X7821Y-15409D01*
X7964Y-15313D01*
X8060Y-15170D01*
X8094Y-15000D01*
X8094Y-16000D01*
X8060Y-15830D01*
X7964Y-15687D01*
X7821Y-15591D01*
X7651Y-15557D01*
X7349Y-15557D01*
X7179Y-15591D01*
X7036Y-15687D01*
X6940Y-15830D01*
X6906Y-16000D01*
X6940Y-16170D01*
X7036Y-16313D01*
X7179Y-16409D01*
X7349Y-16443D01*
X7651Y-16443D01*
X7821Y-16409D01*
X7964Y-16313D01*
X8060Y-16170D01*
X8094Y-16000D01*
X8094Y-17000D01*
X8060Y-16830D01*
X7964Y-16687D01*
X7821Y-16591D01*
X7651Y-16557D01*
X7349Y-16557D01*
X7179Y-16591D01*
X7036Y-16687D01*
X6940Y-16830D01*
X6906Y-17000D01*
X6940Y-17170D01*
X7036Y-17313D01*
X7179Y-17409D01*
X7349Y-17443D01*
X7651Y-17443D01*
X7821Y-17409D01*
X7964Y-17313D01*
X8060Y-17170D01*
X8094Y-17000D01*
X8094Y-18000D01*
X8060Y-17830D01*
X7964Y-17687D01*
X7821Y-17591D01*
X7651Y-17557D01*
X7349Y-17557D01*
X7179Y-17591D01*
X7036Y-17687D01*
X6940Y-17830D01*
X6906Y-18000D01*
X6940Y-18170D01*
X7036Y-18313D01*
X7179Y-18409D01*
X7349Y-18443D01*
X7651Y-18443D01*
X7821Y-18409D01*
X7964Y-18313D01*
X8060Y-18170D01*
X8094Y-18000D01*
X8094Y-20000D01*
X8060Y-19830D01*
X7992Y-19728D01*
X7992Y-19155D01*
X7992Y-18845D01*
X7990Y-18788D01*
X7927Y-18694D01*
X7788Y-18608D01*
X7725Y-18615D01*
X7725Y-18845D01*
X7992Y-18845D01*
X7992Y-19155D01*
X7725Y-19155D01*
X7725Y-19385D01*
X7788Y-19392D01*
X7927Y-19306D01*
X7990Y-19212D01*
X7992Y-19155D01*
X7992Y-19728D01*
X7964Y-19687D01*
X7821Y-19591D01*
X7651Y-19557D01*
X7349Y-19557D01*
X7275Y-19571D01*
X7275Y-19385D01*
X7275Y-19155D01*
X7275Y-18845D01*
X7275Y-18615D01*
X7212Y-18608D01*
X7073Y-18694D01*
X7010Y-18788D01*
X7008Y-18845D01*
X7275Y-18845D01*
X7275Y-19155D01*
X7008Y-19155D01*
X7010Y-19212D01*
X7073Y-19306D01*
X7212Y-19392D01*
X7275Y-19385D01*
X7275Y-19571D01*
X7179Y-19591D01*
X7036Y-19687D01*
X6940Y-19830D01*
X6906Y-20000D01*
X6940Y-20170D01*
X7036Y-20313D01*
X7179Y-20409D01*
X7349Y-20443D01*
X7651Y-20443D01*
X7821Y-20409D01*
X7964Y-20313D01*
X8060Y-20170D01*
X8094Y-20000D01*
X8094Y-21000D01*
X8060Y-20830D01*
X7964Y-20687D01*
X7821Y-20591D01*
X7651Y-20557D01*
X7349Y-20557D01*
X7179Y-20591D01*
X7036Y-20687D01*
X6940Y-20830D01*
X6906Y-21000D01*
X6940Y-21170D01*
X7036Y-21313D01*
X7179Y-21409D01*
X7349Y-21443D01*
X7651Y-21443D01*
X7821Y-21409D01*
X7964Y-21313D01*
X8060Y-21170D01*
X8094Y-21000D01*
X8094Y-22000D01*
X8060Y-21830D01*
X7964Y-21687D01*
X7821Y-21591D01*
X7651Y-21557D01*
X7349Y-21557D01*
X7179Y-21591D01*
X7036Y-21687D01*
X6954Y-21808D01*
X6500Y-21808D01*
X6426Y-21823D01*
X6364Y-21864D01*
X5864Y-22364D01*
X5823Y-22426D01*
X5808Y-22500D01*
X5808Y-28111D01*
X5755Y-28133D01*
X5634Y-28255D01*
X5568Y-28414D01*
X5567Y-28586D01*
X5633Y-28745D01*
X5755Y-28866D01*
X5914Y-28932D01*
X6086Y-28933D01*
X6245Y-28867D01*
X6366Y-28745D01*
X6432Y-28586D01*
X6433Y-28414D01*
X6367Y-28255D01*
X6245Y-28134D01*
X6192Y-28112D01*
X6192Y-27463D01*
X6796Y-28068D01*
X6674Y-28068D01*
X6625Y-28088D01*
X6588Y-28125D01*
X6568Y-28174D01*
X6568Y-28226D01*
X6568Y-28826D01*
X6588Y-28875D01*
X6625Y-28912D01*
X6674Y-28932D01*
X6726Y-28932D01*
X7326Y-28932D01*
X7375Y-28912D01*
X7412Y-28875D01*
X7432Y-28826D01*
X7432Y-28774D01*
X7432Y-28174D01*
X7412Y-28125D01*
X7375Y-28088D01*
X7326Y-28068D01*
X7274Y-28068D01*
X7192Y-28068D01*
X7192Y-28000D01*
X7177Y-27927D01*
X7176Y-27926D01*
X7136Y-27864D01*
X7133Y-27862D01*
X6442Y-27170D01*
X6442Y-27113D01*
X7608Y-28279D01*
X7608Y-30020D01*
X7470Y-30158D01*
X7433Y-30158D01*
X7433Y-29414D01*
X7367Y-29255D01*
X7245Y-29134D01*
X7086Y-29068D01*
X6914Y-29067D01*
X6755Y-29133D01*
X6634Y-29255D01*
X6568Y-29414D01*
X6567Y-29586D01*
X6633Y-29745D01*
X6755Y-29866D01*
X6914Y-29932D01*
X7086Y-29933D01*
X7245Y-29867D01*
X7366Y-29745D01*
X7432Y-29586D01*
X7433Y-29414D01*
X7433Y-30158D01*
X6380Y-30158D01*
X6192Y-29970D01*
X6192Y-29889D01*
X6245Y-29867D01*
X6366Y-29745D01*
X6432Y-29586D01*
X6433Y-29414D01*
X6367Y-29255D01*
X6245Y-29134D01*
X6086Y-29068D01*
X5914Y-29067D01*
X5755Y-29133D01*
X5634Y-29255D01*
X5568Y-29414D01*
X5567Y-29586D01*
X5633Y-29745D01*
X5755Y-29866D01*
X5808Y-29888D01*
X5808Y-30050D01*
X5823Y-30124D01*
X5864Y-30186D01*
X6164Y-30486D01*
X6226Y-30527D01*
X6227Y-30527D01*
X6300Y-30542D01*
X7550Y-30542D01*
X7623Y-30527D01*
X7624Y-30527D01*
X7686Y-30486D01*
X7933Y-30237D01*
X7935Y-30236D01*
X7936Y-30236D01*
X7976Y-30174D01*
X7977Y-30173D01*
X7992Y-30100D01*
X7992Y-28200D01*
X7977Y-28127D01*
X7976Y-28126D01*
X7936Y-28064D01*
X7933Y-28062D01*
X6692Y-26820D01*
X6692Y-24529D01*
X6984Y-24236D01*
X7036Y-24313D01*
X7179Y-24409D01*
X7349Y-24443D01*
X7651Y-24443D01*
X7821Y-24409D01*
X7964Y-24313D01*
X8060Y-24170D01*
X8094Y-24000D01*
X8094Y-25000D01*
X8060Y-24830D01*
X7964Y-24687D01*
X7821Y-24591D01*
X7651Y-24557D01*
X7349Y-24557D01*
X7179Y-24591D01*
X7036Y-24687D01*
X6940Y-24830D01*
X6906Y-25000D01*
X6940Y-25170D01*
X7036Y-25313D01*
X7179Y-25409D01*
X7349Y-25443D01*
X7651Y-25443D01*
X7821Y-25409D01*
X7964Y-25313D01*
X8060Y-25170D01*
X8094Y-25000D01*
X8094Y-26000D01*
X8060Y-25830D01*
X7964Y-25687D01*
X7821Y-25591D01*
X7651Y-25557D01*
X7349Y-25557D01*
X7179Y-25591D01*
X7036Y-25687D01*
X6940Y-25830D01*
X6906Y-26000D01*
X6940Y-26170D01*
X7036Y-26313D01*
X7179Y-26409D01*
X7349Y-26443D01*
X7651Y-26443D01*
X7821Y-26409D01*
X7964Y-26313D01*
X8060Y-26170D01*
X8094Y-26000D01*
X8094Y-38825D01*
X7633Y-38825D01*
X7633Y-37375D01*
X7537Y-37142D01*
X7359Y-36964D01*
X7126Y-36868D01*
X6875Y-36867D01*
X6642Y-36963D01*
X6464Y-37141D01*
X6368Y-37374D01*
X6367Y-37625D01*
X6463Y-37858D01*
X6641Y-38036D01*
X6874Y-38132D01*
X7125Y-38133D01*
X7358Y-38037D01*
X7536Y-37859D01*
X7632Y-37626D01*
X7633Y-37375D01*
X7633Y-38825D01*
X5600Y-38825D01*
X5600Y-37775D01*
X5600Y-37225D01*
X5599Y-37020D01*
X5599Y-36981D01*
X5584Y-36944D01*
X5556Y-36916D01*
X5520Y-36901D01*
X5402Y-36900D01*
X5402Y-29443D01*
X5394Y-29399D01*
X5354Y-29358D01*
X5212Y-29500D01*
X5354Y-29642D01*
X5394Y-29601D01*
X5402Y-29443D01*
X5402Y-36900D01*
X5275Y-36900D01*
X5250Y-36925D01*
X5250Y-37250D01*
X5575Y-37250D01*
X5600Y-37225D01*
X5600Y-37775D01*
X5575Y-37750D01*
X5250Y-37750D01*
X5250Y-38075D01*
X5275Y-38100D01*
X5520Y-38099D01*
X5556Y-38084D01*
X5584Y-38056D01*
X5599Y-38019D01*
X5599Y-37980D01*
X5600Y-37775D01*
X5600Y-38825D01*
X5142Y-38825D01*
X5142Y-29854D01*
X5142Y-29146D01*
X5101Y-29106D01*
X4943Y-29098D01*
X4899Y-29106D01*
X4858Y-29146D01*
X5000Y-29288D01*
X5142Y-29146D01*
X5142Y-29854D01*
X5000Y-29712D01*
X4858Y-29854D01*
X4899Y-29894D01*
X5057Y-29902D01*
X5101Y-29894D01*
X5142Y-29854D01*
X5142Y-38825D01*
X4788Y-38825D01*
X4788Y-29500D01*
X4646Y-29358D01*
X4606Y-29399D01*
X4598Y-29557D01*
X4606Y-29601D01*
X4646Y-29642D01*
X4788Y-29500D01*
X4788Y-38825D01*
X4750Y-38825D01*
X4750Y-38075D01*
X4750Y-37750D01*
X4750Y-37250D01*
X4750Y-36925D01*
X4725Y-36900D01*
X4480Y-36901D01*
X4444Y-36916D01*
X4416Y-36944D01*
X4401Y-36981D01*
X4401Y-37020D01*
X4400Y-37225D01*
X4425Y-37250D01*
X4750Y-37250D01*
X4750Y-37750D01*
X4425Y-37750D01*
X4400Y-37775D01*
X4401Y-37980D01*
X4401Y-38019D01*
X4416Y-38056D01*
X4444Y-38084D01*
X4480Y-38099D01*
X4725Y-38100D01*
X4750Y-38075D01*
X4750Y-38825D01*
X3407Y-38825D01*
X3407Y-30581D01*
X3407Y-30419D01*
X3345Y-30270D01*
X3231Y-30155D01*
X3081Y-30093D01*
X2919Y-30093D01*
X2770Y-30155D01*
X2655Y-30269D01*
X2593Y-30419D01*
X2593Y-30581D01*
X2655Y-30730D01*
X2769Y-30845D01*
X2919Y-30907D01*
X3081Y-30907D01*
X3230Y-30845D01*
X3345Y-30731D01*
X3407Y-30581D01*
X3407Y-38825D01*
X3313Y-38825D01*
X3313Y-37262D01*
X3313Y-36740D01*
X3114Y-36257D01*
X2745Y-35887D01*
X2407Y-35747D01*
X2407Y-26581D01*
X2407Y-26419D01*
X2407Y-25581D01*
X2407Y-25419D01*
X2407Y-24801D01*
X2407Y-24749D01*
X2407Y-24199D01*
X2387Y-24150D01*
X2350Y-24113D01*
X2301Y-24093D01*
X2249Y-24093D01*
X2231Y-24093D01*
X2231Y-23500D01*
X2213Y-23412D01*
X2163Y-23337D01*
X1731Y-22905D01*
X1731Y-20095D01*
X2163Y-19663D01*
X2213Y-19588D01*
X2230Y-19500D01*
X2231Y-19500D01*
X2231Y-18344D01*
X2345Y-18231D01*
X2407Y-18081D01*
X2407Y-17919D01*
X2407Y-17081D01*
X2407Y-16919D01*
X2407Y-16081D01*
X2407Y-15919D01*
X2407Y-15081D01*
X2407Y-14919D01*
X2407Y-14301D01*
X2407Y-14249D01*
X2407Y-13699D01*
X2387Y-13650D01*
X2350Y-13613D01*
X2301Y-13593D01*
X2249Y-13593D01*
X1699Y-13593D01*
X1650Y-13613D01*
X1613Y-13650D01*
X1593Y-13699D01*
X1593Y-13751D01*
X1593Y-14301D01*
X1613Y-14350D01*
X1650Y-14387D01*
X1699Y-14407D01*
X1751Y-14407D01*
X2301Y-14407D01*
X2350Y-14387D01*
X2387Y-14350D01*
X2407Y-14301D01*
X2407Y-14919D01*
X2345Y-14770D01*
X2231Y-14655D01*
X2081Y-14593D01*
X1919Y-14593D01*
X1770Y-14655D01*
X1655Y-14769D01*
X1593Y-14919D01*
X1593Y-15081D01*
X1655Y-15230D01*
X1769Y-15345D01*
X1919Y-15407D01*
X2081Y-15407D01*
X2230Y-15345D01*
X2345Y-15231D01*
X2407Y-15081D01*
X2407Y-15919D01*
X2345Y-15770D01*
X2231Y-15655D01*
X2081Y-15593D01*
X1919Y-15593D01*
X1770Y-15655D01*
X1655Y-15769D01*
X1593Y-15919D01*
X1593Y-16081D01*
X1655Y-16230D01*
X1769Y-16345D01*
X1919Y-16407D01*
X2081Y-16407D01*
X2230Y-16345D01*
X2345Y-16231D01*
X2407Y-16081D01*
X2407Y-16919D01*
X2345Y-16770D01*
X2231Y-16655D01*
X2081Y-16593D01*
X1919Y-16593D01*
X1770Y-16655D01*
X1655Y-16769D01*
X1593Y-16919D01*
X1593Y-17081D01*
X1655Y-17230D01*
X1769Y-17345D01*
X1919Y-17407D01*
X2081Y-17407D01*
X2230Y-17345D01*
X2345Y-17231D01*
X2407Y-17081D01*
X2407Y-17919D01*
X2345Y-17770D01*
X2231Y-17655D01*
X2081Y-17593D01*
X1919Y-17593D01*
X1770Y-17655D01*
X1655Y-17769D01*
X1593Y-17919D01*
X1593Y-18081D01*
X1655Y-18230D01*
X1769Y-18345D01*
X1769Y-19405D01*
X1378Y-19796D01*
X1378Y-17950D01*
X1378Y-16950D01*
X1378Y-15950D01*
X1378Y-14950D01*
X1375Y-14935D01*
X1375Y-14162D01*
X1375Y-13838D01*
X1374Y-13705D01*
X1359Y-13669D01*
X1331Y-13641D01*
X1294Y-13626D01*
X1255Y-13626D01*
X1162Y-13625D01*
X1137Y-13650D01*
X1137Y-13863D01*
X1350Y-13863D01*
X1375Y-13838D01*
X1375Y-14162D01*
X1350Y-14137D01*
X1137Y-14137D01*
X1137Y-14350D01*
X1162Y-14375D01*
X1255Y-14374D01*
X1294Y-14374D01*
X1331Y-14359D01*
X1359Y-14331D01*
X1374Y-14295D01*
X1375Y-14162D01*
X1375Y-14935D01*
X1368Y-14902D01*
X1330Y-14864D01*
X1194Y-15000D01*
X1330Y-15136D01*
X1368Y-15098D01*
X1378Y-14950D01*
X1378Y-15950D01*
X1368Y-15902D01*
X1330Y-15864D01*
X1194Y-16000D01*
X1330Y-16136D01*
X1368Y-16098D01*
X1378Y-15950D01*
X1378Y-16950D01*
X1368Y-16902D01*
X1330Y-16864D01*
X1194Y-17000D01*
X1330Y-17136D01*
X1368Y-17098D01*
X1378Y-16950D01*
X1378Y-17950D01*
X1368Y-17902D01*
X1330Y-17864D01*
X1194Y-18000D01*
X1330Y-18136D01*
X1368Y-18098D01*
X1378Y-17950D01*
X1378Y-19796D01*
X1337Y-19837D01*
X1287Y-19912D01*
X1269Y-20000D01*
X1269Y-23000D01*
X1287Y-23088D01*
X1337Y-23163D01*
X1769Y-23595D01*
X1769Y-24093D01*
X1699Y-24093D01*
X1650Y-24113D01*
X1613Y-24150D01*
X1593Y-24199D01*
X1593Y-24251D01*
X1593Y-24801D01*
X1613Y-24850D01*
X1650Y-24887D01*
X1699Y-24907D01*
X1751Y-24907D01*
X2301Y-24907D01*
X2350Y-24887D01*
X2387Y-24850D01*
X2407Y-24801D01*
X2407Y-25419D01*
X2345Y-25270D01*
X2231Y-25155D01*
X2081Y-25093D01*
X1919Y-25093D01*
X1770Y-25155D01*
X1655Y-25269D01*
X1593Y-25419D01*
X1593Y-25581D01*
X1655Y-25730D01*
X1769Y-25845D01*
X1919Y-25907D01*
X2081Y-25907D01*
X2230Y-25845D01*
X2345Y-25731D01*
X2407Y-25581D01*
X2407Y-26419D01*
X2345Y-26270D01*
X2231Y-26155D01*
X2081Y-26093D01*
X1919Y-26093D01*
X1770Y-26155D01*
X1655Y-26269D01*
X1593Y-26419D01*
X1593Y-26581D01*
X1655Y-26730D01*
X1769Y-26845D01*
X1919Y-26907D01*
X2081Y-26907D01*
X2230Y-26845D01*
X2345Y-26731D01*
X2407Y-26581D01*
X2407Y-35747D01*
X2262Y-35687D01*
X1740Y-35687D01*
X1378Y-35836D01*
X1378Y-30450D01*
X1378Y-27450D01*
X1378Y-26450D01*
X1378Y-25450D01*
X1375Y-25435D01*
X1375Y-24662D01*
X1375Y-24338D01*
X1374Y-24205D01*
X1359Y-24169D01*
X1331Y-24141D01*
X1294Y-24126D01*
X1255Y-24126D01*
X1162Y-24125D01*
X1137Y-24150D01*
X1137Y-24363D01*
X1350Y-24363D01*
X1375Y-24338D01*
X1375Y-24662D01*
X1350Y-24637D01*
X1137Y-24637D01*
X1137Y-24850D01*
X1162Y-24875D01*
X1255Y-24874D01*
X1294Y-24874D01*
X1331Y-24859D01*
X1359Y-24831D01*
X1374Y-24795D01*
X1375Y-24662D01*
X1375Y-25435D01*
X1368Y-25402D01*
X1330Y-25364D01*
X1194Y-25500D01*
X1330Y-25636D01*
X1368Y-25598D01*
X1378Y-25450D01*
X1378Y-26450D01*
X1368Y-26402D01*
X1330Y-26364D01*
X1194Y-26500D01*
X1330Y-26636D01*
X1368Y-26598D01*
X1378Y-26450D01*
X1378Y-27450D01*
X1368Y-27402D01*
X1330Y-27364D01*
X1194Y-27500D01*
X1330Y-27636D01*
X1368Y-27598D01*
X1378Y-27450D01*
X1378Y-30450D01*
X1368Y-30402D01*
X1330Y-30364D01*
X1194Y-30500D01*
X1330Y-30636D01*
X1368Y-30598D01*
X1378Y-30450D01*
X1378Y-35836D01*
X1257Y-35886D01*
X1136Y-36006D01*
X1136Y-30830D01*
X1136Y-30170D01*
X1136Y-27830D01*
X1136Y-27170D01*
X1136Y-26830D01*
X1136Y-26170D01*
X1136Y-25830D01*
X1136Y-25170D01*
X1136Y-18330D01*
X1136Y-17670D01*
X1136Y-17330D01*
X1136Y-16670D01*
X1136Y-16330D01*
X1136Y-15670D01*
X1136Y-15330D01*
X1136Y-14670D01*
X1098Y-14632D01*
X950Y-14622D01*
X902Y-14632D01*
X864Y-14670D01*
X1000Y-14806D01*
X1136Y-14670D01*
X1136Y-15330D01*
X1000Y-15194D01*
X864Y-15330D01*
X902Y-15368D01*
X1050Y-15378D01*
X1098Y-15368D01*
X1136Y-15330D01*
X1136Y-15670D01*
X1098Y-15632D01*
X950Y-15622D01*
X902Y-15632D01*
X864Y-15670D01*
X1000Y-15806D01*
X1136Y-15670D01*
X1136Y-16330D01*
X1000Y-16194D01*
X864Y-16330D01*
X902Y-16368D01*
X1050Y-16378D01*
X1098Y-16368D01*
X1136Y-16330D01*
X1136Y-16670D01*
X1098Y-16632D01*
X950Y-16622D01*
X902Y-16632D01*
X864Y-16670D01*
X1000Y-16806D01*
X1136Y-16670D01*
X1136Y-17330D01*
X1000Y-17194D01*
X864Y-17330D01*
X902Y-17368D01*
X1050Y-17378D01*
X1098Y-17368D01*
X1136Y-17330D01*
X1136Y-17670D01*
X1098Y-17632D01*
X950Y-17622D01*
X902Y-17632D01*
X864Y-17670D01*
X1000Y-17806D01*
X1136Y-17670D01*
X1136Y-18330D01*
X1000Y-18194D01*
X864Y-18330D01*
X902Y-18368D01*
X1050Y-18378D01*
X1098Y-18368D01*
X1136Y-18330D01*
X1136Y-25170D01*
X1098Y-25132D01*
X950Y-25122D01*
X902Y-25132D01*
X864Y-25170D01*
X1000Y-25306D01*
X1136Y-25170D01*
X1136Y-25830D01*
X1000Y-25694D01*
X864Y-25830D01*
X902Y-25868D01*
X1050Y-25878D01*
X1098Y-25868D01*
X1136Y-25830D01*
X1136Y-26170D01*
X1098Y-26132D01*
X950Y-26122D01*
X902Y-26132D01*
X864Y-26170D01*
X1000Y-26306D01*
X1136Y-26170D01*
X1136Y-26830D01*
X1000Y-26694D01*
X864Y-26830D01*
X902Y-26868D01*
X1050Y-26878D01*
X1098Y-26868D01*
X1136Y-26830D01*
X1136Y-27170D01*
X1098Y-27132D01*
X950Y-27122D01*
X902Y-27132D01*
X864Y-27170D01*
X1000Y-27306D01*
X1136Y-27170D01*
X1136Y-27830D01*
X1000Y-27694D01*
X864Y-27830D01*
X902Y-27868D01*
X1050Y-27878D01*
X1098Y-27868D01*
X1136Y-27830D01*
X1136Y-30170D01*
X1098Y-30132D01*
X950Y-30122D01*
X902Y-30132D01*
X864Y-30170D01*
X1000Y-30306D01*
X1136Y-30170D01*
X1136Y-30830D01*
X1000Y-30694D01*
X864Y-30830D01*
X902Y-30868D01*
X1050Y-30878D01*
X1098Y-30868D01*
X1136Y-30830D01*
X1136Y-36006D01*
X887Y-36255D01*
X863Y-36312D01*
X863Y-24850D01*
X863Y-24637D01*
X863Y-24363D01*
X863Y-24150D01*
X863Y-14350D01*
X863Y-14137D01*
X863Y-13863D01*
X863Y-13650D01*
X838Y-13625D01*
X745Y-13626D01*
X706Y-13626D01*
X669Y-13641D01*
X641Y-13669D01*
X626Y-13705D01*
X625Y-13838D01*
X650Y-13863D01*
X863Y-13863D01*
X863Y-14137D01*
X650Y-14137D01*
X625Y-14162D01*
X626Y-14295D01*
X641Y-14331D01*
X669Y-14359D01*
X706Y-14374D01*
X745Y-14374D01*
X838Y-14375D01*
X863Y-14350D01*
X863Y-24150D01*
X838Y-24125D01*
X806Y-24125D01*
X806Y-18000D01*
X806Y-17000D01*
X806Y-16000D01*
X806Y-15000D01*
X670Y-14864D01*
X632Y-14902D01*
X622Y-15050D01*
X632Y-15098D01*
X670Y-15136D01*
X806Y-15000D01*
X806Y-16000D01*
X670Y-15864D01*
X632Y-15902D01*
X622Y-16050D01*
X632Y-16098D01*
X670Y-16136D01*
X806Y-16000D01*
X806Y-17000D01*
X670Y-16864D01*
X632Y-16902D01*
X622Y-17050D01*
X632Y-17098D01*
X670Y-17136D01*
X806Y-17000D01*
X806Y-18000D01*
X670Y-17864D01*
X632Y-17902D01*
X622Y-18050D01*
X632Y-18098D01*
X670Y-18136D01*
X806Y-18000D01*
X806Y-24125D01*
X745Y-24126D01*
X706Y-24126D01*
X669Y-24141D01*
X641Y-24169D01*
X626Y-24205D01*
X625Y-24338D01*
X650Y-24363D01*
X863Y-24363D01*
X863Y-24637D01*
X650Y-24637D01*
X625Y-24662D01*
X626Y-24795D01*
X641Y-24831D01*
X669Y-24859D01*
X706Y-24874D01*
X745Y-24874D01*
X838Y-24875D01*
X863Y-24850D01*
X863Y-36312D01*
X806Y-36450D01*
X806Y-30500D01*
X806Y-27500D01*
X806Y-26500D01*
X806Y-25500D01*
X670Y-25364D01*
X632Y-25402D01*
X622Y-25550D01*
X632Y-25598D01*
X670Y-25636D01*
X806Y-25500D01*
X806Y-26500D01*
X670Y-26364D01*
X632Y-26402D01*
X622Y-26550D01*
X632Y-26598D01*
X670Y-26636D01*
X806Y-26500D01*
X806Y-27500D01*
X670Y-27364D01*
X632Y-27402D01*
X622Y-27550D01*
X632Y-27598D01*
X670Y-27636D01*
X806Y-27500D01*
X806Y-30500D01*
X670Y-30364D01*
X632Y-30402D01*
X622Y-30550D01*
X632Y-30598D01*
X670Y-30636D01*
X806Y-30500D01*
X806Y-36450D01*
X687Y-36738D01*
X687Y-37260D01*
X886Y-37743D01*
X1255Y-38113D01*
X1738Y-38313D01*
X2260Y-38313D01*
X2743Y-38114D01*
X3113Y-37745D01*
X3313Y-37262D01*
X3313Y-38825D01*
X175Y-38825D01*
X175Y-175D01*
X11825Y-175D01*
X11825Y-38825D01*
X11825Y-38825D01*
G37*
G54D24*
X11825Y-38825D02*
X11378Y-38825D01*
X11378Y-25950D01*
X11378Y-24950D01*
X11378Y-23950D01*
X11378Y-22950D01*
X11378Y-21950D01*
X11378Y-16950D01*
X11378Y-15950D01*
X11378Y-14950D01*
X11378Y-13950D01*
X11378Y-12950D01*
X11368Y-12902D01*
X11330Y-12864D01*
X11313Y-12881D01*
X11313Y-2262D01*
X11313Y-1740D01*
X11114Y-1257D01*
X10745Y-887D01*
X10262Y-687D01*
X9740Y-687D01*
X9257Y-886D01*
X8887Y-1255D01*
X8687Y-1738D01*
X8687Y-2260D01*
X8886Y-2743D01*
X9255Y-3113D01*
X9738Y-3313D01*
X10260Y-3313D01*
X10743Y-3114D01*
X11113Y-2745D01*
X11313Y-2262D01*
X11313Y-12881D01*
X11194Y-13000D01*
X11330Y-13136D01*
X11368Y-13098D01*
X11378Y-12950D01*
X11378Y-13950D01*
X11368Y-13902D01*
X11330Y-13864D01*
X11194Y-14000D01*
X11330Y-14136D01*
X11368Y-14098D01*
X11378Y-13950D01*
X11378Y-14950D01*
X11368Y-14902D01*
X11330Y-14864D01*
X11194Y-15000D01*
X11330Y-15136D01*
X11368Y-15098D01*
X11378Y-14950D01*
X11378Y-15950D01*
X11368Y-15902D01*
X11330Y-15864D01*
X11194Y-16000D01*
X11330Y-16136D01*
X11368Y-16098D01*
X11378Y-15950D01*
X11378Y-16950D01*
X11368Y-16902D01*
X11330Y-16864D01*
X11194Y-17000D01*
X11330Y-17136D01*
X11368Y-17098D01*
X11378Y-16950D01*
X11378Y-21950D01*
X11375Y-21935D01*
X11375Y-18162D01*
X11375Y-17838D01*
X11374Y-17705D01*
X11359Y-17669D01*
X11331Y-17641D01*
X11294Y-17626D01*
X11255Y-17626D01*
X11162Y-17625D01*
X11137Y-17650D01*
X11137Y-17863D01*
X11350Y-17863D01*
X11375Y-17838D01*
X11375Y-18162D01*
X11350Y-18137D01*
X11137Y-18137D01*
X11137Y-18350D01*
X11162Y-18375D01*
X11255Y-18374D01*
X11294Y-18374D01*
X11331Y-18359D01*
X11359Y-18331D01*
X11374Y-18295D01*
X11375Y-18162D01*
X11375Y-21935D01*
X11368Y-21902D01*
X11330Y-21864D01*
X11194Y-22000D01*
X11330Y-22136D01*
X11368Y-22098D01*
X11378Y-21950D01*
X11378Y-22950D01*
X11368Y-22902D01*
X11330Y-22864D01*
X11194Y-23000D01*
X11330Y-23136D01*
X11368Y-23098D01*
X11378Y-22950D01*
X11378Y-23950D01*
X11368Y-23902D01*
X11330Y-23864D01*
X11194Y-24000D01*
X11330Y-24136D01*
X11368Y-24098D01*
X11378Y-23950D01*
X11378Y-24950D01*
X11368Y-24902D01*
X11330Y-24864D01*
X11194Y-25000D01*
X11330Y-25136D01*
X11368Y-25098D01*
X11378Y-24950D01*
X11378Y-25950D01*
X11368Y-25902D01*
X11330Y-25864D01*
X11194Y-26000D01*
X11330Y-26136D01*
X11368Y-26098D01*
X11378Y-25950D01*
X11378Y-38825D01*
X11375Y-38825D01*
X11375Y-27162D01*
X11375Y-26838D01*
X11374Y-26705D01*
X11359Y-26669D01*
X11331Y-26641D01*
X11294Y-26626D01*
X11255Y-26626D01*
X11162Y-26625D01*
X11137Y-26650D01*
X11137Y-26863D01*
X11350Y-26863D01*
X11375Y-26838D01*
X11375Y-27162D01*
X11350Y-27137D01*
X11137Y-27137D01*
X11137Y-27350D01*
X11162Y-27375D01*
X11255Y-27374D01*
X11294Y-27374D01*
X11331Y-27359D01*
X11359Y-27331D01*
X11374Y-27295D01*
X11375Y-27162D01*
X11375Y-38825D01*
X11313Y-38825D01*
X11313Y-37262D01*
X11313Y-36740D01*
X11136Y-36310D01*
X11136Y-26330D01*
X11136Y-25670D01*
X11136Y-25330D01*
X11136Y-24670D01*
X11136Y-24330D01*
X11136Y-23670D01*
X11136Y-23330D01*
X11136Y-22670D01*
X11136Y-22330D01*
X11136Y-21670D01*
X11136Y-17330D01*
X11136Y-16670D01*
X11136Y-16330D01*
X11136Y-15670D01*
X11136Y-15330D01*
X11136Y-14670D01*
X11136Y-14330D01*
X11136Y-13670D01*
X11136Y-13330D01*
X11136Y-12670D01*
X11098Y-12632D01*
X10950Y-12622D01*
X10902Y-12632D01*
X10864Y-12670D01*
X11000Y-12806D01*
X11136Y-12670D01*
X11136Y-13330D01*
X11000Y-13194D01*
X10864Y-13330D01*
X10902Y-13368D01*
X11050Y-13378D01*
X11098Y-13368D01*
X11136Y-13330D01*
X11136Y-13670D01*
X11098Y-13632D01*
X10950Y-13622D01*
X10902Y-13632D01*
X10864Y-13670D01*
X11000Y-13806D01*
X11136Y-13670D01*
X11136Y-14330D01*
X11000Y-14194D01*
X10864Y-14330D01*
X10902Y-14368D01*
X11050Y-14378D01*
X11098Y-14368D01*
X11136Y-14330D01*
X11136Y-14670D01*
X11098Y-14632D01*
X10950Y-14622D01*
X10902Y-14632D01*
X10864Y-14670D01*
X11000Y-14806D01*
X11136Y-14670D01*
X11136Y-15330D01*
X11000Y-15194D01*
X10864Y-15330D01*
X10902Y-15368D01*
X11050Y-15378D01*
X11098Y-15368D01*
X11136Y-15330D01*
X11136Y-15670D01*
X11098Y-15632D01*
X10950Y-15622D01*
X10902Y-15632D01*
X10864Y-15670D01*
X11000Y-15806D01*
X11136Y-15670D01*
X11136Y-16330D01*
X11000Y-16194D01*
X10864Y-16330D01*
X10902Y-16368D01*
X11050Y-16378D01*
X11098Y-16368D01*
X11136Y-16330D01*
X11136Y-16670D01*
X11098Y-16632D01*
X10950Y-16622D01*
X10902Y-16632D01*
X10864Y-16670D01*
X11000Y-16806D01*
X11136Y-16670D01*
X11136Y-17330D01*
X11000Y-17194D01*
X10864Y-17330D01*
X10902Y-17368D01*
X11050Y-17378D01*
X11098Y-17368D01*
X11136Y-17330D01*
X11136Y-21670D01*
X11098Y-21632D01*
X10950Y-21622D01*
X10902Y-21632D01*
X10864Y-21670D01*
X11000Y-21806D01*
X11136Y-21670D01*
X11136Y-22330D01*
X11000Y-22194D01*
X10864Y-22330D01*
X10902Y-22368D01*
X11050Y-22378D01*
X11098Y-22368D01*
X11136Y-22330D01*
X11136Y-22670D01*
X11098Y-22632D01*
X10950Y-22622D01*
X10902Y-22632D01*
X10864Y-22670D01*
X11000Y-22806D01*
X11136Y-22670D01*
X11136Y-23330D01*
X11000Y-23194D01*
X10864Y-23330D01*
X10902Y-23368D01*
X11050Y-23378D01*
X11098Y-23368D01*
X11136Y-23330D01*
X11136Y-23670D01*
X11098Y-23632D01*
X10950Y-23622D01*
X10902Y-23632D01*
X10864Y-23670D01*
X11000Y-23806D01*
X11136Y-23670D01*
X11136Y-24330D01*
X11000Y-24194D01*
X10864Y-24330D01*
X10902Y-24368D01*
X11050Y-24378D01*
X11098Y-24368D01*
X11136Y-24330D01*
X11136Y-24670D01*
X11098Y-24632D01*
X10950Y-24622D01*
X10902Y-24632D01*
X10864Y-24670D01*
X11000Y-24806D01*
X11136Y-24670D01*
X11136Y-25330D01*
X11000Y-25194D01*
X10864Y-25330D01*
X10902Y-25368D01*
X11050Y-25378D01*
X11098Y-25368D01*
X11136Y-25330D01*
X11136Y-25670D01*
X11098Y-25632D01*
X10950Y-25622D01*
X10902Y-25632D01*
X10864Y-25670D01*
X11000Y-25806D01*
X11136Y-25670D01*
X11136Y-26330D01*
X11000Y-26194D01*
X10864Y-26330D01*
X10902Y-26368D01*
X11050Y-26378D01*
X11098Y-26368D01*
X11136Y-26330D01*
X11136Y-36310D01*
X11114Y-36257D01*
X10863Y-36005D01*
X10863Y-27350D01*
X10863Y-27137D01*
X10863Y-26863D01*
X10863Y-26650D01*
X10863Y-18350D01*
X10863Y-18137D01*
X10863Y-17863D01*
X10863Y-17650D01*
X10838Y-17625D01*
X10806Y-17625D01*
X10806Y-17000D01*
X10806Y-16000D01*
X10806Y-15000D01*
X10806Y-14000D01*
X10806Y-13000D01*
X10670Y-12864D01*
X10632Y-12902D01*
X10622Y-13050D01*
X10632Y-13098D01*
X10670Y-13136D01*
X10806Y-13000D01*
X10806Y-14000D01*
X10670Y-13864D01*
X10632Y-13902D01*
X10622Y-14050D01*
X10632Y-14098D01*
X10670Y-14136D01*
X10806Y-14000D01*
X10806Y-15000D01*
X10670Y-14864D01*
X10632Y-14902D01*
X10622Y-15050D01*
X10632Y-15098D01*
X10670Y-15136D01*
X10806Y-15000D01*
X10806Y-16000D01*
X10670Y-15864D01*
X10632Y-15902D01*
X10622Y-16050D01*
X10632Y-16098D01*
X10670Y-16136D01*
X10806Y-16000D01*
X10806Y-17000D01*
X10670Y-16864D01*
X10632Y-16902D01*
X10622Y-17050D01*
X10632Y-17098D01*
X10670Y-17136D01*
X10806Y-17000D01*
X10806Y-17625D01*
X10745Y-17626D01*
X10706Y-17626D01*
X10669Y-17641D01*
X10641Y-17669D01*
X10626Y-17705D01*
X10625Y-17838D01*
X10650Y-17863D01*
X10863Y-17863D01*
X10863Y-18137D01*
X10650Y-18137D01*
X10625Y-18162D01*
X10626Y-18295D01*
X10641Y-18331D01*
X10669Y-18359D01*
X10706Y-18374D01*
X10745Y-18374D01*
X10838Y-18375D01*
X10863Y-18350D01*
X10863Y-26650D01*
X10838Y-26625D01*
X10806Y-26625D01*
X10806Y-26000D01*
X10806Y-25000D01*
X10806Y-24000D01*
X10806Y-23000D01*
X10806Y-22000D01*
X10670Y-21864D01*
X10632Y-21902D01*
X10622Y-22050D01*
X10632Y-22098D01*
X10670Y-22136D01*
X10806Y-22000D01*
X10806Y-23000D01*
X10670Y-22864D01*
X10632Y-22902D01*
X10622Y-23050D01*
X10632Y-23098D01*
X10670Y-23136D01*
X10806Y-23000D01*
X10806Y-24000D01*
X10670Y-23864D01*
X10632Y-23902D01*
X10622Y-24050D01*
X10632Y-24098D01*
X10670Y-24136D01*
X10806Y-24000D01*
X10806Y-25000D01*
X10670Y-24864D01*
X10632Y-24902D01*
X10622Y-25050D01*
X10632Y-25098D01*
X10670Y-25136D01*
X10806Y-25000D01*
X10806Y-26000D01*
X10670Y-25864D01*
X10632Y-25902D01*
X10622Y-26050D01*
X10632Y-26098D01*
X10670Y-26136D01*
X10806Y-26000D01*
X10806Y-26625D01*
X10745Y-26626D01*
X10706Y-26626D01*
X10669Y-26641D01*
X10641Y-26669D01*
X10626Y-26705D01*
X10625Y-26838D01*
X10650Y-26863D01*
X10863Y-26863D01*
X10863Y-27137D01*
X10650Y-27137D01*
X10625Y-27162D01*
X10626Y-27295D01*
X10641Y-27331D01*
X10669Y-27359D01*
X10706Y-27374D01*
X10745Y-27374D01*
X10838Y-27375D01*
X10863Y-27350D01*
X10863Y-36005D01*
X10745Y-35887D01*
X10407Y-35747D01*
X10407Y-27301D01*
X10407Y-27249D01*
X10407Y-26699D01*
X10407Y-26081D01*
X10407Y-25919D01*
X10407Y-25081D01*
X10407Y-24919D01*
X10407Y-24081D01*
X10407Y-23919D01*
X10407Y-23081D01*
X10407Y-22919D01*
X10407Y-22081D01*
X10407Y-21919D01*
X10407Y-18301D01*
X10407Y-18249D01*
X10407Y-17699D01*
X10407Y-17081D01*
X10407Y-16919D01*
X10407Y-16081D01*
X10407Y-15919D01*
X10407Y-15081D01*
X10407Y-14919D01*
X10407Y-14081D01*
X10407Y-13919D01*
X10407Y-13081D01*
X10407Y-12919D01*
X10345Y-12770D01*
X10231Y-12655D01*
X10081Y-12593D01*
X9919Y-12593D01*
X9907Y-12597D01*
X9907Y-6081D01*
X9907Y-5919D01*
X9845Y-5770D01*
X9731Y-5655D01*
X9581Y-5593D01*
X9419Y-5593D01*
X9270Y-5655D01*
X9155Y-5769D01*
X9093Y-5919D01*
X9093Y-6081D01*
X9155Y-6230D01*
X9269Y-6345D01*
X9419Y-6407D01*
X9581Y-6407D01*
X9730Y-6345D01*
X9845Y-6231D01*
X9907Y-6081D01*
X9907Y-12597D01*
X9770Y-12655D01*
X9655Y-12769D01*
X9593Y-12919D01*
X9593Y-13081D01*
X9655Y-13230D01*
X9769Y-13345D01*
X9919Y-13407D01*
X10081Y-13407D01*
X10230Y-13345D01*
X10345Y-13231D01*
X10407Y-13081D01*
X10407Y-13919D01*
X10345Y-13770D01*
X10231Y-13655D01*
X10081Y-13593D01*
X9919Y-13593D01*
X9770Y-13655D01*
X9655Y-13769D01*
X9593Y-13919D01*
X9593Y-14081D01*
X9655Y-14230D01*
X9769Y-14345D01*
X9919Y-14407D01*
X10081Y-14407D01*
X10230Y-14345D01*
X10345Y-14231D01*
X10407Y-14081D01*
X10407Y-14919D01*
X10345Y-14770D01*
X10231Y-14655D01*
X10081Y-14593D01*
X9919Y-14593D01*
X9770Y-14655D01*
X9655Y-14769D01*
X9593Y-14919D01*
X9593Y-15081D01*
X9655Y-15230D01*
X9769Y-15345D01*
X9919Y-15407D01*
X10081Y-15407D01*
X10230Y-15345D01*
X10345Y-15231D01*
X10407Y-15081D01*
X10407Y-15919D01*
X10345Y-15770D01*
X10231Y-15655D01*
X10081Y-15593D01*
X9919Y-15593D01*
X9770Y-15655D01*
X9655Y-15769D01*
X9593Y-15919D01*
X9593Y-16081D01*
X9655Y-16230D01*
X9769Y-16345D01*
X9919Y-16407D01*
X10081Y-16407D01*
X10230Y-16345D01*
X10345Y-16231D01*
X10407Y-16081D01*
X10407Y-16919D01*
X10345Y-16770D01*
X10231Y-16655D01*
X10081Y-16593D01*
X9919Y-16593D01*
X9770Y-16655D01*
X9655Y-16769D01*
X9593Y-16919D01*
X9593Y-17081D01*
X9655Y-17230D01*
X9769Y-17345D01*
X9919Y-17407D01*
X10081Y-17407D01*
X10230Y-17345D01*
X10345Y-17231D01*
X10407Y-17081D01*
X10407Y-17699D01*
X10387Y-17650D01*
X10350Y-17613D01*
X10301Y-17593D01*
X10249Y-17593D01*
X9699Y-17593D01*
X9650Y-17613D01*
X9613Y-17650D01*
X9593Y-17699D01*
X9593Y-17751D01*
X9593Y-18301D01*
X9613Y-18350D01*
X9650Y-18387D01*
X9699Y-18407D01*
X9751Y-18407D01*
X10301Y-18407D01*
X10350Y-18387D01*
X10387Y-18350D01*
X10407Y-18301D01*
X10407Y-21919D01*
X10345Y-21770D01*
X10231Y-21655D01*
X10081Y-21593D01*
X9919Y-21593D01*
X9770Y-21655D01*
X9655Y-21769D01*
X9593Y-21919D01*
X9593Y-22081D01*
X9655Y-22230D01*
X9769Y-22345D01*
X9919Y-22407D01*
X10081Y-22407D01*
X10230Y-22345D01*
X10345Y-22231D01*
X10407Y-22081D01*
X10407Y-22919D01*
X10345Y-22770D01*
X10231Y-22655D01*
X10081Y-22593D01*
X9919Y-22593D01*
X9770Y-22655D01*
X9655Y-22769D01*
X9593Y-22919D01*
X9593Y-23081D01*
X9655Y-23230D01*
X9769Y-23345D01*
X9919Y-23407D01*
X10081Y-23407D01*
X10230Y-23345D01*
X10345Y-23231D01*
X10407Y-23081D01*
X10407Y-23919D01*
X10345Y-23770D01*
X10231Y-23655D01*
X10081Y-23593D01*
X9919Y-23593D01*
X9770Y-23655D01*
X9655Y-23769D01*
X9593Y-23919D01*
X9593Y-24081D01*
X9655Y-24230D01*
X9769Y-24345D01*
X9919Y-24407D01*
X10081Y-24407D01*
X10230Y-24345D01*
X10345Y-24231D01*
X10407Y-24081D01*
X10407Y-24919D01*
X10345Y-24770D01*
X10231Y-24655D01*
X10081Y-24593D01*
X9919Y-24593D01*
X9770Y-24655D01*
X9655Y-24769D01*
X9593Y-24919D01*
X9593Y-25081D01*
X9655Y-25230D01*
X9769Y-25345D01*
X9919Y-25407D01*
X10081Y-25407D01*
X10230Y-25345D01*
X10345Y-25231D01*
X10407Y-25081D01*
X10407Y-25919D01*
X10345Y-25770D01*
X10231Y-25655D01*
X10081Y-25593D01*
X9919Y-25593D01*
X9770Y-25655D01*
X9655Y-25769D01*
X9593Y-25919D01*
X9593Y-26081D01*
X9655Y-26230D01*
X9769Y-26345D01*
X9919Y-26407D01*
X10081Y-26407D01*
X10230Y-26345D01*
X10345Y-26231D01*
X10407Y-26081D01*
X10407Y-26699D01*
X10387Y-26650D01*
X10350Y-26613D01*
X10301Y-26593D01*
X10249Y-26593D01*
X9699Y-26593D01*
X9650Y-26613D01*
X9613Y-26650D01*
X9593Y-26699D01*
X9593Y-26751D01*
X9593Y-27301D01*
X9613Y-27350D01*
X9650Y-27387D01*
X9699Y-27407D01*
X9751Y-27407D01*
X10301Y-27407D01*
X10350Y-27387D01*
X10387Y-27350D01*
X10407Y-27301D01*
X10407Y-35747D01*
X10262Y-35687D01*
X9740Y-35687D01*
X9407Y-35824D01*
X9407Y-27301D01*
X9407Y-27249D01*
X9407Y-26699D01*
X9407Y-26081D01*
X9407Y-25919D01*
X9407Y-25081D01*
X9407Y-24919D01*
X9407Y-24081D01*
X9407Y-23919D01*
X9407Y-23081D01*
X9407Y-22919D01*
X9407Y-22081D01*
X9407Y-21919D01*
X9407Y-20081D01*
X9407Y-19919D01*
X9407Y-19301D01*
X9407Y-19249D01*
X9407Y-18699D01*
X9407Y-18301D01*
X9407Y-18249D01*
X9407Y-17699D01*
X9407Y-17081D01*
X9407Y-16919D01*
X9407Y-16081D01*
X9407Y-15919D01*
X9407Y-15081D01*
X9407Y-14919D01*
X9407Y-14081D01*
X9407Y-13919D01*
X9407Y-13081D01*
X9407Y-12919D01*
X9345Y-12770D01*
X9231Y-12655D01*
X9081Y-12593D01*
X8919Y-12593D01*
X8907Y-12597D01*
X8907Y-6301D01*
X8907Y-6249D01*
X8907Y-5699D01*
X8887Y-5650D01*
X8850Y-5613D01*
X8801Y-5593D01*
X8749Y-5593D01*
X8199Y-5593D01*
X8150Y-5613D01*
X8113Y-5650D01*
X8093Y-5699D01*
X8093Y-5751D01*
X8093Y-6301D01*
X8113Y-6350D01*
X8150Y-6387D01*
X8199Y-6407D01*
X8251Y-6407D01*
X8801Y-6407D01*
X8850Y-6387D01*
X8887Y-6350D01*
X8907Y-6301D01*
X8907Y-12597D01*
X8770Y-12655D01*
X8655Y-12769D01*
X8593Y-12919D01*
X8593Y-13081D01*
X8655Y-13230D01*
X8769Y-13345D01*
X8919Y-13407D01*
X9081Y-13407D01*
X9230Y-13345D01*
X9345Y-13231D01*
X9407Y-13081D01*
X9407Y-13919D01*
X9345Y-13770D01*
X9231Y-13655D01*
X9081Y-13593D01*
X8919Y-13593D01*
X8770Y-13655D01*
X8655Y-13769D01*
X8593Y-13919D01*
X8593Y-14081D01*
X8655Y-14230D01*
X8769Y-14345D01*
X8919Y-14407D01*
X9081Y-14407D01*
X9230Y-14345D01*
X9345Y-14231D01*
X9407Y-14081D01*
X9407Y-14919D01*
X9345Y-14770D01*
X9231Y-14655D01*
X9081Y-14593D01*
X8919Y-14593D01*
X8770Y-14655D01*
X8655Y-14769D01*
X8593Y-14919D01*
X8593Y-15081D01*
X8655Y-15230D01*
X8769Y-15345D01*
X8919Y-15407D01*
X9081Y-15407D01*
X9230Y-15345D01*
X9345Y-15231D01*
X9407Y-15081D01*
X9407Y-15919D01*
X9345Y-15770D01*
X9231Y-15655D01*
X9081Y-15593D01*
X8919Y-15593D01*
X8770Y-15655D01*
X8655Y-15769D01*
X8593Y-15919D01*
X8593Y-16081D01*
X8655Y-16230D01*
X8769Y-16345D01*
X8919Y-16407D01*
X9081Y-16407D01*
X9230Y-16345D01*
X9345Y-16231D01*
X9407Y-16081D01*
X9407Y-16919D01*
X9345Y-16770D01*
X9231Y-16655D01*
X9081Y-16593D01*
X8919Y-16593D01*
X8770Y-16655D01*
X8655Y-16769D01*
X8593Y-16919D01*
X8593Y-17081D01*
X8655Y-17230D01*
X8769Y-17345D01*
X8919Y-17407D01*
X9081Y-17407D01*
X9230Y-17345D01*
X9345Y-17231D01*
X9407Y-17081D01*
X9407Y-17699D01*
X9387Y-17650D01*
X9350Y-17613D01*
X9301Y-17593D01*
X9249Y-17593D01*
X8699Y-17593D01*
X8650Y-17613D01*
X8613Y-17650D01*
X8593Y-17699D01*
X8593Y-17751D01*
X8593Y-18301D01*
X8613Y-18350D01*
X8650Y-18387D01*
X8699Y-18407D01*
X8751Y-18407D01*
X9301Y-18407D01*
X9350Y-18387D01*
X9387Y-18350D01*
X9407Y-18301D01*
X9407Y-18699D01*
X9387Y-18650D01*
X9350Y-18613D01*
X9301Y-18593D01*
X9249Y-18593D01*
X8699Y-18593D01*
X8650Y-18613D01*
X8613Y-18650D01*
X8593Y-18699D01*
X8593Y-18751D01*
X8593Y-19301D01*
X8613Y-19350D01*
X8650Y-19387D01*
X8699Y-19407D01*
X8751Y-19407D01*
X9301Y-19407D01*
X9350Y-19387D01*
X9387Y-19350D01*
X9407Y-19301D01*
X9407Y-19919D01*
X9345Y-19770D01*
X9231Y-19655D01*
X9081Y-19593D01*
X8919Y-19593D01*
X8770Y-19655D01*
X8655Y-19769D01*
X8593Y-19919D01*
X8593Y-20081D01*
X8655Y-20230D01*
X8769Y-20345D01*
X8919Y-20407D01*
X9081Y-20407D01*
X9230Y-20345D01*
X9345Y-20231D01*
X9407Y-20081D01*
X9407Y-21919D01*
X9345Y-21770D01*
X9231Y-21655D01*
X9081Y-21593D01*
X8919Y-21593D01*
X8770Y-21655D01*
X8655Y-21769D01*
X8593Y-21919D01*
X8593Y-22081D01*
X8655Y-22230D01*
X8769Y-22345D01*
X8919Y-22407D01*
X9081Y-22407D01*
X9230Y-22345D01*
X9345Y-22231D01*
X9407Y-22081D01*
X9407Y-22919D01*
X9345Y-22770D01*
X9231Y-22655D01*
X9081Y-22593D01*
X8919Y-22593D01*
X8770Y-22655D01*
X8655Y-22769D01*
X8593Y-22919D01*
X8593Y-23081D01*
X8655Y-23230D01*
X8769Y-23345D01*
X8919Y-23407D01*
X9081Y-23407D01*
X9230Y-23345D01*
X9345Y-23231D01*
X9407Y-23081D01*
X9407Y-23919D01*
X9345Y-23770D01*
X9231Y-23655D01*
X9081Y-23593D01*
X8919Y-23593D01*
X8770Y-23655D01*
X8655Y-23769D01*
X8593Y-23919D01*
X8593Y-24081D01*
X8655Y-24230D01*
X8769Y-24345D01*
X8919Y-24407D01*
X9081Y-24407D01*
X9230Y-24345D01*
X9345Y-24231D01*
X9407Y-24081D01*
X9407Y-24919D01*
X9345Y-24770D01*
X9231Y-24655D01*
X9081Y-24593D01*
X8919Y-24593D01*
X8770Y-24655D01*
X8655Y-24769D01*
X8593Y-24919D01*
X8593Y-25081D01*
X8655Y-25230D01*
X8769Y-25345D01*
X8919Y-25407D01*
X9081Y-25407D01*
X9230Y-25345D01*
X9345Y-25231D01*
X9407Y-25081D01*
X9407Y-25919D01*
X9345Y-25770D01*
X9231Y-25655D01*
X9081Y-25593D01*
X8919Y-25593D01*
X8770Y-25655D01*
X8655Y-25769D01*
X8593Y-25919D01*
X8593Y-26081D01*
X8655Y-26230D01*
X8769Y-26345D01*
X8919Y-26407D01*
X9081Y-26407D01*
X9230Y-26345D01*
X9345Y-26231D01*
X9407Y-26081D01*
X9407Y-26699D01*
X9387Y-26650D01*
X9350Y-26613D01*
X9301Y-26593D01*
X9249Y-26593D01*
X8699Y-26593D01*
X8650Y-26613D01*
X8613Y-26650D01*
X8593Y-26699D01*
X8593Y-26751D01*
X8593Y-27301D01*
X8613Y-27350D01*
X8650Y-27387D01*
X8699Y-27407D01*
X8751Y-27407D01*
X9301Y-27407D01*
X9350Y-27387D01*
X9387Y-27350D01*
X9407Y-27301D01*
X9407Y-35824D01*
X9257Y-35886D01*
X8887Y-36255D01*
X8687Y-36738D01*
X8687Y-37260D01*
X8886Y-37743D01*
X9255Y-38113D01*
X9738Y-38313D01*
X10260Y-38313D01*
X10743Y-38114D01*
X11113Y-37745D01*
X11313Y-37262D01*
X11313Y-38825D01*
X8310Y-38825D01*
X8310Y-10462D01*
X8310Y-10339D01*
X8263Y-10225D01*
X8176Y-10137D01*
X8062Y-10090D01*
X7939Y-10090D01*
X7825Y-10137D01*
X7737Y-10224D01*
X7690Y-10338D01*
X7690Y-10461D01*
X7737Y-10575D01*
X7769Y-10607D01*
X7769Y-11004D01*
X7554Y-11219D01*
X7310Y-11219D01*
X7310Y-6062D01*
X7310Y-5939D01*
X7263Y-5825D01*
X7176Y-5737D01*
X7175Y-5736D01*
X7175Y-2602D01*
X7175Y-2479D01*
X7128Y-2365D01*
X7041Y-2277D01*
X6927Y-2230D01*
X6804Y-2230D01*
X6690Y-2277D01*
X6602Y-2364D01*
X6555Y-2478D01*
X6555Y-2601D01*
X6602Y-2715D01*
X6689Y-2803D01*
X6803Y-2850D01*
X6926Y-2850D01*
X7040Y-2803D01*
X7128Y-2716D01*
X7175Y-2602D01*
X7175Y-5736D01*
X7062Y-5690D01*
X6939Y-5690D01*
X6825Y-5737D01*
X6753Y-5808D01*
X5746Y-5808D01*
X5676Y-5737D01*
X5562Y-5690D01*
X5444Y-5690D01*
X5444Y-2602D01*
X5444Y-2479D01*
X5397Y-2365D01*
X5310Y-2277D01*
X5196Y-2230D01*
X5073Y-2230D01*
X4959Y-2277D01*
X4871Y-2364D01*
X4824Y-2478D01*
X4824Y-2601D01*
X4871Y-2715D01*
X4958Y-2803D01*
X5072Y-2850D01*
X5195Y-2850D01*
X5309Y-2803D01*
X5397Y-2716D01*
X5444Y-2602D01*
X5444Y-5690D01*
X5439Y-5690D01*
X5325Y-5737D01*
X5237Y-5824D01*
X5190Y-5938D01*
X5190Y-6061D01*
X5237Y-6175D01*
X5324Y-6263D01*
X5438Y-6310D01*
X5561Y-6310D01*
X5675Y-6263D01*
X5746Y-6192D01*
X6753Y-6192D01*
X6824Y-6263D01*
X6938Y-6310D01*
X7061Y-6310D01*
X7175Y-6263D01*
X7263Y-6176D01*
X7310Y-6062D01*
X7310Y-11219D01*
X6300Y-11219D01*
X6226Y-11234D01*
X6211Y-11237D01*
X6136Y-11287D01*
X5337Y-12087D01*
X5287Y-12162D01*
X5269Y-12250D01*
X5269Y-12769D01*
X5082Y-12769D01*
X5082Y-12664D01*
X5062Y-12615D01*
X5025Y-12578D01*
X4976Y-12558D01*
X4924Y-12558D01*
X4024Y-12558D01*
X3975Y-12578D01*
X3938Y-12615D01*
X3918Y-12664D01*
X3918Y-12716D01*
X3918Y-13336D01*
X3938Y-13385D01*
X3975Y-13422D01*
X4024Y-13442D01*
X4076Y-13442D01*
X4976Y-13442D01*
X5025Y-13422D01*
X5062Y-13385D01*
X5082Y-13336D01*
X5082Y-13284D01*
X5082Y-13231D01*
X5269Y-13231D01*
X5269Y-13500D01*
X5269Y-26905D01*
X5094Y-27080D01*
X5094Y-26000D01*
X5094Y-25000D01*
X5094Y-24000D01*
X5094Y-23000D01*
X5094Y-22000D01*
X5094Y-21000D01*
X5094Y-19000D01*
X5094Y-18000D01*
X5094Y-17000D01*
X5094Y-16000D01*
X5094Y-15000D01*
X5094Y-14000D01*
X5060Y-13830D01*
X4964Y-13687D01*
X4821Y-13591D01*
X4651Y-13557D01*
X4349Y-13557D01*
X4179Y-13591D01*
X4036Y-13687D01*
X3940Y-13830D01*
X3907Y-13995D01*
X3907Y-6301D01*
X3907Y-6249D01*
X3907Y-5699D01*
X3887Y-5650D01*
X3850Y-5613D01*
X3801Y-5593D01*
X3749Y-5593D01*
X3313Y-5593D01*
X3313Y-2262D01*
X3313Y-1740D01*
X3114Y-1257D01*
X2745Y-887D01*
X2262Y-687D01*
X1740Y-687D01*
X1257Y-886D01*
X887Y-1255D01*
X687Y-1738D01*
X687Y-2260D01*
X886Y-2743D01*
X1255Y-3113D01*
X1738Y-3313D01*
X2260Y-3313D01*
X2743Y-3114D01*
X3113Y-2745D01*
X3313Y-2262D01*
X3313Y-5593D01*
X3199Y-5593D01*
X3150Y-5613D01*
X3113Y-5650D01*
X3093Y-5699D01*
X3093Y-5751D01*
X3093Y-6301D01*
X3113Y-6350D01*
X3150Y-6387D01*
X3199Y-6407D01*
X3251Y-6407D01*
X3801Y-6407D01*
X3850Y-6387D01*
X3887Y-6350D01*
X3907Y-6301D01*
X3907Y-13995D01*
X3906Y-14000D01*
X3940Y-14170D01*
X4036Y-14313D01*
X4179Y-14409D01*
X4349Y-14443D01*
X4651Y-14443D01*
X4821Y-14409D01*
X4964Y-14313D01*
X5060Y-14170D01*
X5094Y-14000D01*
X5094Y-15000D01*
X5060Y-14830D01*
X4964Y-14687D01*
X4821Y-14591D01*
X4651Y-14557D01*
X4349Y-14557D01*
X4179Y-14591D01*
X4036Y-14687D01*
X3940Y-14830D01*
X3906Y-15000D01*
X3940Y-15170D01*
X4036Y-15313D01*
X4179Y-15409D01*
X4349Y-15443D01*
X4651Y-15443D01*
X4821Y-15409D01*
X4964Y-15313D01*
X5060Y-15170D01*
X5094Y-15000D01*
X5094Y-16000D01*
X5060Y-15830D01*
X4964Y-15687D01*
X4821Y-15591D01*
X4651Y-15557D01*
X4349Y-15557D01*
X4179Y-15591D01*
X4036Y-15687D01*
X3940Y-15830D01*
X3906Y-16000D01*
X3940Y-16170D01*
X4036Y-16313D01*
X4179Y-16409D01*
X4349Y-16443D01*
X4651Y-16443D01*
X4821Y-16409D01*
X4964Y-16313D01*
X5060Y-16170D01*
X5094Y-16000D01*
X5094Y-17000D01*
X5060Y-16830D01*
X4964Y-16687D01*
X4821Y-16591D01*
X4651Y-16557D01*
X4349Y-16557D01*
X4179Y-16591D01*
X4036Y-16687D01*
X3940Y-16830D01*
X3906Y-17000D01*
X3940Y-17170D01*
X4036Y-17313D01*
X4179Y-17409D01*
X4349Y-17443D01*
X4651Y-17443D01*
X4821Y-17409D01*
X4964Y-17313D01*
X5060Y-17170D01*
X5094Y-17000D01*
X5094Y-18000D01*
X5060Y-17830D01*
X4964Y-17687D01*
X4821Y-17591D01*
X4651Y-17557D01*
X4349Y-17557D01*
X4179Y-17591D01*
X4036Y-17687D01*
X3940Y-17830D01*
X3906Y-18000D01*
X3940Y-18170D01*
X4036Y-18313D01*
X4179Y-18409D01*
X4349Y-18443D01*
X4651Y-18443D01*
X4821Y-18409D01*
X4964Y-18313D01*
X5060Y-18170D01*
X5094Y-18000D01*
X5094Y-19000D01*
X5060Y-18830D01*
X4964Y-18687D01*
X4821Y-18591D01*
X4651Y-18557D01*
X4349Y-18557D01*
X4179Y-18591D01*
X4036Y-18687D01*
X3940Y-18830D01*
X3906Y-19000D01*
X3940Y-19170D01*
X4036Y-19313D01*
X4179Y-19409D01*
X4349Y-19443D01*
X4651Y-19443D01*
X4821Y-19409D01*
X4964Y-19313D01*
X5060Y-19170D01*
X5094Y-19000D01*
X5094Y-21000D01*
X5060Y-20830D01*
X4992Y-20728D01*
X4992Y-20155D01*
X4992Y-19845D01*
X4990Y-19788D01*
X4927Y-19694D01*
X4788Y-19608D01*
X4725Y-19615D01*
X4725Y-19845D01*
X4992Y-19845D01*
X4992Y-20155D01*
X4725Y-20155D01*
X4725Y-20385D01*
X4788Y-20392D01*
X4927Y-20306D01*
X4990Y-20212D01*
X4992Y-20155D01*
X4992Y-20728D01*
X4964Y-20687D01*
X4821Y-20591D01*
X4651Y-20557D01*
X4349Y-20557D01*
X4275Y-20571D01*
X4275Y-20385D01*
X4275Y-20155D01*
X4275Y-19845D01*
X4275Y-19615D01*
X4212Y-19608D01*
X4073Y-19694D01*
X4010Y-19788D01*
X4008Y-19845D01*
X4275Y-19845D01*
X4275Y-20155D01*
X4008Y-20155D01*
X4010Y-20212D01*
X4073Y-20306D01*
X4212Y-20392D01*
X4275Y-20385D01*
X4275Y-20571D01*
X4179Y-20591D01*
X4036Y-20687D01*
X3940Y-20830D01*
X3906Y-21000D01*
X3940Y-21170D01*
X4036Y-21313D01*
X4179Y-21409D01*
X4349Y-21443D01*
X4651Y-21443D01*
X4821Y-21409D01*
X4964Y-21313D01*
X5060Y-21170D01*
X5094Y-21000D01*
X5094Y-22000D01*
X5060Y-21830D01*
X4964Y-21687D01*
X4821Y-21591D01*
X4651Y-21557D01*
X4349Y-21557D01*
X4179Y-21591D01*
X4036Y-21687D01*
X3940Y-21830D01*
X3906Y-22000D01*
X3940Y-22170D01*
X4036Y-22313D01*
X4179Y-22409D01*
X4349Y-22443D01*
X4651Y-22443D01*
X4821Y-22409D01*
X4964Y-22313D01*
X5060Y-22170D01*
X5094Y-22000D01*
X5094Y-23000D01*
X5060Y-22830D01*
X4964Y-22687D01*
X4821Y-22591D01*
X4651Y-22557D01*
X4349Y-22557D01*
X4179Y-22591D01*
X4036Y-22687D01*
X3940Y-22830D01*
X3906Y-23000D01*
X3940Y-23170D01*
X4036Y-23313D01*
X4179Y-23409D01*
X4349Y-23443D01*
X4651Y-23443D01*
X4821Y-23409D01*
X4964Y-23313D01*
X5060Y-23170D01*
X5094Y-23000D01*
X5094Y-24000D01*
X5060Y-23830D01*
X4964Y-23687D01*
X4821Y-23591D01*
X4651Y-23557D01*
X4349Y-23557D01*
X4179Y-23591D01*
X4036Y-23687D01*
X3940Y-23830D01*
X3906Y-24000D01*
X3940Y-24170D01*
X4036Y-24313D01*
X4179Y-24409D01*
X4349Y-24443D01*
X4651Y-24443D01*
X4821Y-24409D01*
X4964Y-24313D01*
X5060Y-24170D01*
X5094Y-24000D01*
X5094Y-25000D01*
X5060Y-24830D01*
X4964Y-24687D01*
X4821Y-24591D01*
X4651Y-24557D01*
X4349Y-24557D01*
X4179Y-24591D01*
X4036Y-24687D01*
X3940Y-24830D01*
X3906Y-25000D01*
X3940Y-25170D01*
X4036Y-25313D01*
X4179Y-25409D01*
X4349Y-25443D01*
X4651Y-25443D01*
X4821Y-25409D01*
X4964Y-25313D01*
X5060Y-25170D01*
X5094Y-25000D01*
X5094Y-26000D01*
X5060Y-25830D01*
X4964Y-25687D01*
X4821Y-25591D01*
X4651Y-25557D01*
X4349Y-25557D01*
X4179Y-25591D01*
X4036Y-25687D01*
X3940Y-25830D01*
X3906Y-26000D01*
X3940Y-26170D01*
X4036Y-26313D01*
X4179Y-26409D01*
X4349Y-26443D01*
X4651Y-26443D01*
X4821Y-26409D01*
X4964Y-26313D01*
X5060Y-26170D01*
X5094Y-26000D01*
X5094Y-27080D01*
X4905Y-27269D01*
X3407Y-27269D01*
X3407Y-26581D01*
X3407Y-26419D01*
X3407Y-25581D01*
X3407Y-25419D01*
X3407Y-24801D01*
X3407Y-24749D01*
X3407Y-24199D01*
X3407Y-18081D01*
X3407Y-17919D01*
X3407Y-17081D01*
X3407Y-16919D01*
X3407Y-16081D01*
X3407Y-15919D01*
X3407Y-15081D01*
X3407Y-14919D01*
X3407Y-14301D01*
X3407Y-14249D01*
X3407Y-13699D01*
X3387Y-13650D01*
X3350Y-13613D01*
X3301Y-13593D01*
X3249Y-13593D01*
X2907Y-13593D01*
X2907Y-6081D01*
X2907Y-5919D01*
X2845Y-5770D01*
X2731Y-5655D01*
X2581Y-5593D01*
X2419Y-5593D01*
X2270Y-5655D01*
X2155Y-5769D01*
X2093Y-5919D01*
X2093Y-6081D01*
X2155Y-6230D01*
X2269Y-6345D01*
X2419Y-6407D01*
X2581Y-6407D01*
X2730Y-6345D01*
X2845Y-6231D01*
X2907Y-6081D01*
X2907Y-13593D01*
X2699Y-13593D01*
X2650Y-13613D01*
X2613Y-13650D01*
X2593Y-13699D01*
X2593Y-13751D01*
X2593Y-14301D01*
X2613Y-14350D01*
X2650Y-14387D01*
X2699Y-14407D01*
X2751Y-14407D01*
X3301Y-14407D01*
X3350Y-14387D01*
X3387Y-14350D01*
X3407Y-14301D01*
X3407Y-14919D01*
X3345Y-14770D01*
X3231Y-14655D01*
X3081Y-14593D01*
X2919Y-14593D01*
X2770Y-14655D01*
X2655Y-14769D01*
X2593Y-14919D01*
X2593Y-15081D01*
X2655Y-15230D01*
X2769Y-15345D01*
X2919Y-15407D01*
X3081Y-15407D01*
X3230Y-15345D01*
X3345Y-15231D01*
X3407Y-15081D01*
X3407Y-15919D01*
X3345Y-15770D01*
X3231Y-15655D01*
X3081Y-15593D01*
X2919Y-15593D01*
X2770Y-15655D01*
X2655Y-15769D01*
X2593Y-15919D01*
X2593Y-16081D01*
X2655Y-16230D01*
X2769Y-16345D01*
X2919Y-16407D01*
X3081Y-16407D01*
X3230Y-16345D01*
X3345Y-16231D01*
X3407Y-16081D01*
X3407Y-16919D01*
X3345Y-16770D01*
X3231Y-16655D01*
X3081Y-16593D01*
X2919Y-16593D01*
X2770Y-16655D01*
X2655Y-16769D01*
X2593Y-16919D01*
X2593Y-17081D01*
X2655Y-17230D01*
X2769Y-17345D01*
X2919Y-17407D01*
X3081Y-17407D01*
X3230Y-17345D01*
X3345Y-17231D01*
X3407Y-17081D01*
X3407Y-17919D01*
X3345Y-17770D01*
X3231Y-17655D01*
X3081Y-17593D01*
X2919Y-17593D01*
X2770Y-17655D01*
X2655Y-17769D01*
X2593Y-17919D01*
X2593Y-18081D01*
X2655Y-18230D01*
X2769Y-18345D01*
X2919Y-18407D01*
X3081Y-18407D01*
X3230Y-18345D01*
X3345Y-18231D01*
X3407Y-18081D01*
X3407Y-24199D01*
X3387Y-24150D01*
X3350Y-24113D01*
X3301Y-24093D01*
X3249Y-24093D01*
X2913Y-24093D01*
X2913Y-22582D01*
X2913Y-22418D01*
X2913Y-20582D01*
X2913Y-20418D01*
X2850Y-20266D01*
X2734Y-20150D01*
X2582Y-20087D01*
X2418Y-20087D01*
X2266Y-20150D01*
X2150Y-20266D01*
X2087Y-20418D01*
X2087Y-20582D01*
X2150Y-20734D01*
X2266Y-20850D01*
X2418Y-20913D01*
X2582Y-20913D01*
X2734Y-20850D01*
X2850Y-20734D01*
X2913Y-20582D01*
X2913Y-22418D01*
X2850Y-22266D01*
X2734Y-22150D01*
X2582Y-22087D01*
X2418Y-22087D01*
X2266Y-22150D01*
X2150Y-22266D01*
X2087Y-22418D01*
X2087Y-22582D01*
X2150Y-22734D01*
X2266Y-22850D01*
X2418Y-22913D01*
X2582Y-22913D01*
X2734Y-22850D01*
X2850Y-22734D01*
X2913Y-22582D01*
X2913Y-24093D01*
X2699Y-24093D01*
X2650Y-24113D01*
X2613Y-24150D01*
X2593Y-24199D01*
X2593Y-24251D01*
X2593Y-24801D01*
X2613Y-24850D01*
X2650Y-24887D01*
X2699Y-24907D01*
X2751Y-24907D01*
X3301Y-24907D01*
X3350Y-24887D01*
X3387Y-24850D01*
X3407Y-24801D01*
X3407Y-25419D01*
X3345Y-25270D01*
X3231Y-25155D01*
X3081Y-25093D01*
X2919Y-25093D01*
X2770Y-25155D01*
X2655Y-25269D01*
X2593Y-25419D01*
X2593Y-25581D01*
X2655Y-25730D01*
X2769Y-25845D01*
X2919Y-25907D01*
X3081Y-25907D01*
X3230Y-25845D01*
X3345Y-25731D01*
X3407Y-25581D01*
X3407Y-26419D01*
X3345Y-26270D01*
X3231Y-26155D01*
X3081Y-26093D01*
X2919Y-26093D01*
X2770Y-26155D01*
X2655Y-26269D01*
X2593Y-26419D01*
X2593Y-26581D01*
X2655Y-26730D01*
X2769Y-26845D01*
X2919Y-26907D01*
X3081Y-26907D01*
X3230Y-26845D01*
X3345Y-26731D01*
X3407Y-26581D01*
X3407Y-27269D01*
X3344Y-27269D01*
X3231Y-27155D01*
X3081Y-27093D01*
X2919Y-27093D01*
X2770Y-27155D01*
X2655Y-27269D01*
X2593Y-27419D01*
X2593Y-27581D01*
X2655Y-27730D01*
X2769Y-27845D01*
X2919Y-27907D01*
X3081Y-27907D01*
X3230Y-27845D01*
X3345Y-27731D01*
X4769Y-27731D01*
X4769Y-28127D01*
X4755Y-28133D01*
X4634Y-28255D01*
X4568Y-28414D01*
X4567Y-28586D01*
X4633Y-28745D01*
X4755Y-28866D01*
X4914Y-28932D01*
X5086Y-28933D01*
X5245Y-28867D01*
X5366Y-28745D01*
X5432Y-28586D01*
X5433Y-28414D01*
X5367Y-28255D01*
X5245Y-28134D01*
X5231Y-28128D01*
X5231Y-27595D01*
X5663Y-27163D01*
X5713Y-27088D01*
X5730Y-27000D01*
X5731Y-27000D01*
X5731Y-13500D01*
X5731Y-13000D01*
X5731Y-12345D01*
X6395Y-11681D01*
X7650Y-11681D01*
X7738Y-11663D01*
X7813Y-11613D01*
X8163Y-11264D01*
X8163Y-11263D01*
X8195Y-11214D01*
X8212Y-11189D01*
X8213Y-11188D01*
X8230Y-11101D01*
X8231Y-11100D01*
X8231Y-10607D01*
X8263Y-10576D01*
X8310Y-10462D01*
X8310Y-38825D01*
X8094Y-38825D01*
X8094Y-26000D01*
X8094Y-25000D01*
X8094Y-24000D01*
X8060Y-23830D01*
X7964Y-23687D01*
X7821Y-23591D01*
X7651Y-23557D01*
X7349Y-23557D01*
X7179Y-23591D01*
X7036Y-23687D01*
X6954Y-23808D01*
X6950Y-23808D01*
X6877Y-23823D01*
X6814Y-23864D01*
X6812Y-23866D01*
X6442Y-24236D01*
X6442Y-23380D01*
X6630Y-23192D01*
X6954Y-23192D01*
X7036Y-23313D01*
X7179Y-23409D01*
X7349Y-23443D01*
X7651Y-23443D01*
X7821Y-23409D01*
X7964Y-23313D01*
X8060Y-23170D01*
X8094Y-23000D01*
X8060Y-22830D01*
X7964Y-22687D01*
X7821Y-22591D01*
X7651Y-22557D01*
X7349Y-22557D01*
X7179Y-22591D01*
X7036Y-22687D01*
X6954Y-22808D01*
X6550Y-22808D01*
X6476Y-22823D01*
X6414Y-22864D01*
X6192Y-23086D01*
X6192Y-22580D01*
X6580Y-22192D01*
X6954Y-22192D01*
X7036Y-22313D01*
X7179Y-22409D01*
X7349Y-22443D01*
X7651Y-22443D01*
X7821Y-22409D01*
X7964Y-22313D01*
X8060Y-22170D01*
X8094Y-22000D01*
X8094Y-21000D01*
X8094Y-20000D01*
X8094Y-18000D01*
X8094Y-17000D01*
X8094Y-16000D01*
X8094Y-15000D01*
X8094Y-14000D01*
X8094Y-13000D01*
X8060Y-12830D01*
X7964Y-12687D01*
X7821Y-12591D01*
X7651Y-12557D01*
X7349Y-12557D01*
X7179Y-12591D01*
X7036Y-12687D01*
X6940Y-12830D01*
X6906Y-13000D01*
X6940Y-13170D01*
X7036Y-13313D01*
X7179Y-13409D01*
X7349Y-13443D01*
X7651Y-13443D01*
X7821Y-13409D01*
X7964Y-13313D01*
X8060Y-13170D01*
X8094Y-13000D01*
X8094Y-14000D01*
X8060Y-13830D01*
X7964Y-13687D01*
X7821Y-13591D01*
X7651Y-13557D01*
X7349Y-13557D01*
X7179Y-13591D01*
X7036Y-13687D01*
X6940Y-13830D01*
X6906Y-14000D01*
X6940Y-14170D01*
X7036Y-14313D01*
X7179Y-14409D01*
X7349Y-14443D01*
X7651Y-14443D01*
X7821Y-14409D01*
X7964Y-14313D01*
X8060Y-14170D01*
X8094Y-14000D01*
X8094Y-15000D01*
X8060Y-14830D01*
X7964Y-14687D01*
X7821Y-14591D01*
X7651Y-14557D01*
X7349Y-14557D01*
X7179Y-14591D01*
X7036Y-14687D01*
X6940Y-14830D01*
X6906Y-15000D01*
X6940Y-15170D01*
X7036Y-15313D01*
X7179Y-15409D01*
X7349Y-15443D01*
X7651Y-15443D01*
X7821Y-15409D01*
X7964Y-15313D01*
X8060Y-15170D01*
X8094Y-15000D01*
X8094Y-16000D01*
X8060Y-15830D01*
X7964Y-15687D01*
X7821Y-15591D01*
X7651Y-15557D01*
X7349Y-15557D01*
X7179Y-15591D01*
X7036Y-15687D01*
X6940Y-15830D01*
X6906Y-16000D01*
X6940Y-16170D01*
X7036Y-16313D01*
X7179Y-16409D01*
X7349Y-16443D01*
X7651Y-16443D01*
X7821Y-16409D01*
X7964Y-16313D01*
X8060Y-16170D01*
X8094Y-16000D01*
X8094Y-17000D01*
X8060Y-16830D01*
X7964Y-16687D01*
X7821Y-16591D01*
X7651Y-16557D01*
X7349Y-16557D01*
X7179Y-16591D01*
X7036Y-16687D01*
X6940Y-16830D01*
X6906Y-17000D01*
X6940Y-17170D01*
X7036Y-17313D01*
X7179Y-17409D01*
X7349Y-17443D01*
X7651Y-17443D01*
X7821Y-17409D01*
X7964Y-17313D01*
X8060Y-17170D01*
X8094Y-17000D01*
X8094Y-18000D01*
X8060Y-17830D01*
X7964Y-17687D01*
X7821Y-17591D01*
X7651Y-17557D01*
X7349Y-17557D01*
X7179Y-17591D01*
X7036Y-17687D01*
X6940Y-17830D01*
X6906Y-18000D01*
X6940Y-18170D01*
X7036Y-18313D01*
X7179Y-18409D01*
X7349Y-18443D01*
X7651Y-18443D01*
X7821Y-18409D01*
X7964Y-18313D01*
X8060Y-18170D01*
X8094Y-18000D01*
X8094Y-20000D01*
X8060Y-19830D01*
X7992Y-19728D01*
X7992Y-19155D01*
X7992Y-18845D01*
X7990Y-18788D01*
X7927Y-18694D01*
X7788Y-18608D01*
X7725Y-18615D01*
X7725Y-18845D01*
X7992Y-18845D01*
X7992Y-19155D01*
X7725Y-19155D01*
X7725Y-19385D01*
X7788Y-19392D01*
X7927Y-19306D01*
X7990Y-19212D01*
X7992Y-19155D01*
X7992Y-19728D01*
X7964Y-19687D01*
X7821Y-19591D01*
X7651Y-19557D01*
X7349Y-19557D01*
X7275Y-19571D01*
X7275Y-19385D01*
X7275Y-19155D01*
X7275Y-18845D01*
X7275Y-18615D01*
X7212Y-18608D01*
X7073Y-18694D01*
X7010Y-18788D01*
X7008Y-18845D01*
X7275Y-18845D01*
X7275Y-19155D01*
X7008Y-19155D01*
X7010Y-19212D01*
X7073Y-19306D01*
X7212Y-19392D01*
X7275Y-19385D01*
X7275Y-19571D01*
X7179Y-19591D01*
X7036Y-19687D01*
X6940Y-19830D01*
X6906Y-20000D01*
X6940Y-20170D01*
X7036Y-20313D01*
X7179Y-20409D01*
X7349Y-20443D01*
X7651Y-20443D01*
X7821Y-20409D01*
X7964Y-20313D01*
X8060Y-20170D01*
X8094Y-20000D01*
X8094Y-21000D01*
X8060Y-20830D01*
X7964Y-20687D01*
X7821Y-20591D01*
X7651Y-20557D01*
X7349Y-20557D01*
X7179Y-20591D01*
X7036Y-20687D01*
X6940Y-20830D01*
X6906Y-21000D01*
X6940Y-21170D01*
X7036Y-21313D01*
X7179Y-21409D01*
X7349Y-21443D01*
X7651Y-21443D01*
X7821Y-21409D01*
X7964Y-21313D01*
X8060Y-21170D01*
X8094Y-21000D01*
X8094Y-22000D01*
X8060Y-21830D01*
X7964Y-21687D01*
X7821Y-21591D01*
X7651Y-21557D01*
X7349Y-21557D01*
X7179Y-21591D01*
X7036Y-21687D01*
X6954Y-21808D01*
X6500Y-21808D01*
X6426Y-21823D01*
X6364Y-21864D01*
X5864Y-22364D01*
X5823Y-22426D01*
X5808Y-22500D01*
X5808Y-28111D01*
X5755Y-28133D01*
X5634Y-28255D01*
X5568Y-28414D01*
X5567Y-28586D01*
X5633Y-28745D01*
X5755Y-28866D01*
X5914Y-28932D01*
X6086Y-28933D01*
X6245Y-28867D01*
X6366Y-28745D01*
X6432Y-28586D01*
X6433Y-28414D01*
X6367Y-28255D01*
X6245Y-28134D01*
X6192Y-28112D01*
X6192Y-27463D01*
X6796Y-28068D01*
X6674Y-28068D01*
X6625Y-28088D01*
X6588Y-28125D01*
X6568Y-28174D01*
X6568Y-28226D01*
X6568Y-28826D01*
X6588Y-28875D01*
X6625Y-28912D01*
X6674Y-28932D01*
X6726Y-28932D01*
X7326Y-28932D01*
X7375Y-28912D01*
X7412Y-28875D01*
X7432Y-28826D01*
X7432Y-28774D01*
X7432Y-28174D01*
X7412Y-28125D01*
X7375Y-28088D01*
X7326Y-28068D01*
X7274Y-28068D01*
X7192Y-28068D01*
X7192Y-28000D01*
X7177Y-27927D01*
X7176Y-27926D01*
X7136Y-27864D01*
X7133Y-27862D01*
X6442Y-27170D01*
X6442Y-27113D01*
X7608Y-28279D01*
X7608Y-30020D01*
X7470Y-30158D01*
X7433Y-30158D01*
X7433Y-29414D01*
X7367Y-29255D01*
X7245Y-29134D01*
X7086Y-29068D01*
X6914Y-29067D01*
X6755Y-29133D01*
X6634Y-29255D01*
X6568Y-29414D01*
X6567Y-29586D01*
X6633Y-29745D01*
X6755Y-29866D01*
X6914Y-29932D01*
X7086Y-29933D01*
X7245Y-29867D01*
X7366Y-29745D01*
X7432Y-29586D01*
X7433Y-29414D01*
X7433Y-30158D01*
X6380Y-30158D01*
X6192Y-29970D01*
X6192Y-29889D01*
X6245Y-29867D01*
X6366Y-29745D01*
X6432Y-29586D01*
X6433Y-29414D01*
X6367Y-29255D01*
X6245Y-29134D01*
X6086Y-29068D01*
X5914Y-29067D01*
X5755Y-29133D01*
X5634Y-29255D01*
X5568Y-29414D01*
X5567Y-29586D01*
X5633Y-29745D01*
X5755Y-29866D01*
X5808Y-29888D01*
X5808Y-30050D01*
X5823Y-30124D01*
X5864Y-30186D01*
X6164Y-30486D01*
X6226Y-30527D01*
X6227Y-30527D01*
X6300Y-30542D01*
X7550Y-30542D01*
X7623Y-30527D01*
X7624Y-30527D01*
X7686Y-30486D01*
X7933Y-30237D01*
X7935Y-30236D01*
X7936Y-30236D01*
X7976Y-30174D01*
X7977Y-30173D01*
X7992Y-30100D01*
X7992Y-28200D01*
X7977Y-28127D01*
X7976Y-28126D01*
X7936Y-28064D01*
X7933Y-28062D01*
X6692Y-26820D01*
X6692Y-24529D01*
X6984Y-24236D01*
X7036Y-24313D01*
X7179Y-24409D01*
X7349Y-24443D01*
X7651Y-24443D01*
X7821Y-24409D01*
X7964Y-24313D01*
X8060Y-24170D01*
X8094Y-24000D01*
X8094Y-25000D01*
X8060Y-24830D01*
X7964Y-24687D01*
X7821Y-24591D01*
X7651Y-24557D01*
X7349Y-24557D01*
X7179Y-24591D01*
X7036Y-24687D01*
X6940Y-24830D01*
X6906Y-25000D01*
X6940Y-25170D01*
X7036Y-25313D01*
X7179Y-25409D01*
X7349Y-25443D01*
X7651Y-25443D01*
X7821Y-25409D01*
X7964Y-25313D01*
X8060Y-25170D01*
X8094Y-25000D01*
X8094Y-26000D01*
X8060Y-25830D01*
X7964Y-25687D01*
X7821Y-25591D01*
X7651Y-25557D01*
X7349Y-25557D01*
X7179Y-25591D01*
X7036Y-25687D01*
X6940Y-25830D01*
X6906Y-26000D01*
X6940Y-26170D01*
X7036Y-26313D01*
X7179Y-26409D01*
X7349Y-26443D01*
X7651Y-26443D01*
X7821Y-26409D01*
X7964Y-26313D01*
X8060Y-26170D01*
X8094Y-26000D01*
X8094Y-38825D01*
X7633Y-38825D01*
X7633Y-37375D01*
X7537Y-37142D01*
X7359Y-36964D01*
X7126Y-36868D01*
X6875Y-36867D01*
X6642Y-36963D01*
X6464Y-37141D01*
X6368Y-37374D01*
X6367Y-37625D01*
X6463Y-37858D01*
X6641Y-38036D01*
X6874Y-38132D01*
X7125Y-38133D01*
X7358Y-38037D01*
X7536Y-37859D01*
X7632Y-37626D01*
X7633Y-37375D01*
X7633Y-38825D01*
X5600Y-38825D01*
X5600Y-37775D01*
X5600Y-37225D01*
X5599Y-37020D01*
X5599Y-36981D01*
X5584Y-36944D01*
X5556Y-36916D01*
X5520Y-36901D01*
X5402Y-36900D01*
X5402Y-29443D01*
X5394Y-29399D01*
X5354Y-29358D01*
X5212Y-29500D01*
X5354Y-29642D01*
X5394Y-29601D01*
X5402Y-29443D01*
X5402Y-36900D01*
X5275Y-36900D01*
X5250Y-36925D01*
X5250Y-37250D01*
X5575Y-37250D01*
X5600Y-37225D01*
X5600Y-37775D01*
X5575Y-37750D01*
X5250Y-37750D01*
X5250Y-38075D01*
X5275Y-38100D01*
X5520Y-38099D01*
X5556Y-38084D01*
X5584Y-38056D01*
X5599Y-38019D01*
X5599Y-37980D01*
X5600Y-37775D01*
X5600Y-38825D01*
X5142Y-38825D01*
X5142Y-29854D01*
X5142Y-29146D01*
X5101Y-29106D01*
X4943Y-29098D01*
X4899Y-29106D01*
X4858Y-29146D01*
X5000Y-29288D01*
X5142Y-29146D01*
X5142Y-29854D01*
X5000Y-29712D01*
X4858Y-29854D01*
X4899Y-29894D01*
X5057Y-29902D01*
X5101Y-29894D01*
X5142Y-29854D01*
X5142Y-38825D01*
X4788Y-38825D01*
X4788Y-29500D01*
X4646Y-29358D01*
X4606Y-29399D01*
X4598Y-29557D01*
X4606Y-29601D01*
X4646Y-29642D01*
X4788Y-29500D01*
X4788Y-38825D01*
X4750Y-38825D01*
X4750Y-38075D01*
X4750Y-37750D01*
X4750Y-37250D01*
X4750Y-36925D01*
X4725Y-36900D01*
X4480Y-36901D01*
X4444Y-36916D01*
X4416Y-36944D01*
X4401Y-36981D01*
X4401Y-37020D01*
X4400Y-37225D01*
X4425Y-37250D01*
X4750Y-37250D01*
X4750Y-37750D01*
X4425Y-37750D01*
X4400Y-37775D01*
X4401Y-37980D01*
X4401Y-38019D01*
X4416Y-38056D01*
X4444Y-38084D01*
X4480Y-38099D01*
X4725Y-38100D01*
X4750Y-38075D01*
X4750Y-38825D01*
X3407Y-38825D01*
X3407Y-30581D01*
X3407Y-30419D01*
X3345Y-30270D01*
X3231Y-30155D01*
X3081Y-30093D01*
X2919Y-30093D01*
X2770Y-30155D01*
X2655Y-30269D01*
X2593Y-30419D01*
X2593Y-30581D01*
X2655Y-30730D01*
X2769Y-30845D01*
X2919Y-30907D01*
X3081Y-30907D01*
X3230Y-30845D01*
X3345Y-30731D01*
X3407Y-30581D01*
X3407Y-38825D01*
X3313Y-38825D01*
X3313Y-37262D01*
X3313Y-36740D01*
X3114Y-36257D01*
X2745Y-35887D01*
X2407Y-35747D01*
X2407Y-26581D01*
X2407Y-26419D01*
X2407Y-25581D01*
X2407Y-25419D01*
X2407Y-24801D01*
X2407Y-24749D01*
X2407Y-24199D01*
X2387Y-24150D01*
X2350Y-24113D01*
X2301Y-24093D01*
X2249Y-24093D01*
X2231Y-24093D01*
X2231Y-23500D01*
X2213Y-23412D01*
X2163Y-23337D01*
X1731Y-22905D01*
X1731Y-20095D01*
X2163Y-19663D01*
X2213Y-19588D01*
X2230Y-19500D01*
X2231Y-19500D01*
X2231Y-18344D01*
X2345Y-18231D01*
X2407Y-18081D01*
X2407Y-17919D01*
X2407Y-17081D01*
X2407Y-16919D01*
X2407Y-16081D01*
X2407Y-15919D01*
X2407Y-15081D01*
X2407Y-14919D01*
X2407Y-14301D01*
X2407Y-14249D01*
X2407Y-13699D01*
X2387Y-13650D01*
X2350Y-13613D01*
X2301Y-13593D01*
X2249Y-13593D01*
X1699Y-13593D01*
X1650Y-13613D01*
X1613Y-13650D01*
X1593Y-13699D01*
X1593Y-13751D01*
X1593Y-14301D01*
X1613Y-14350D01*
X1650Y-14387D01*
X1699Y-14407D01*
X1751Y-14407D01*
X2301Y-14407D01*
X2350Y-14387D01*
X2387Y-14350D01*
X2407Y-14301D01*
X2407Y-14919D01*
X2345Y-14770D01*
X2231Y-14655D01*
X2081Y-14593D01*
X1919Y-14593D01*
X1770Y-14655D01*
X1655Y-14769D01*
X1593Y-14919D01*
X1593Y-15081D01*
X1655Y-15230D01*
X1769Y-15345D01*
X1919Y-15407D01*
X2081Y-15407D01*
X2230Y-15345D01*
X2345Y-15231D01*
X2407Y-15081D01*
X2407Y-15919D01*
X2345Y-15770D01*
X2231Y-15655D01*
X2081Y-15593D01*
X1919Y-15593D01*
X1770Y-15655D01*
X1655Y-15769D01*
X1593Y-15919D01*
X1593Y-16081D01*
X1655Y-16230D01*
X1769Y-16345D01*
X1919Y-16407D01*
X2081Y-16407D01*
X2230Y-16345D01*
X2345Y-16231D01*
X2407Y-16081D01*
X2407Y-16919D01*
X2345Y-16770D01*
X2231Y-16655D01*
X2081Y-16593D01*
X1919Y-16593D01*
X1770Y-16655D01*
X1655Y-16769D01*
X1593Y-16919D01*
X1593Y-17081D01*
X1655Y-17230D01*
X1769Y-17345D01*
X1919Y-17407D01*
X2081Y-17407D01*
X2230Y-17345D01*
X2345Y-17231D01*
X2407Y-17081D01*
X2407Y-17919D01*
X2345Y-17770D01*
X2231Y-17655D01*
X2081Y-17593D01*
X1919Y-17593D01*
X1770Y-17655D01*
X1655Y-17769D01*
X1593Y-17919D01*
X1593Y-18081D01*
X1655Y-18230D01*
X1769Y-18345D01*
X1769Y-19405D01*
X1378Y-19796D01*
X1378Y-17950D01*
X1378Y-16950D01*
X1378Y-15950D01*
X1378Y-14950D01*
X1375Y-14935D01*
X1375Y-14162D01*
X1375Y-13838D01*
X1374Y-13705D01*
X1359Y-13669D01*
X1331Y-13641D01*
X1294Y-13626D01*
X1255Y-13626D01*
X1162Y-13625D01*
X1137Y-13650D01*
X1137Y-13863D01*
X1350Y-13863D01*
X1375Y-13838D01*
X1375Y-14162D01*
X1350Y-14137D01*
X1137Y-14137D01*
X1137Y-14350D01*
X1162Y-14375D01*
X1255Y-14374D01*
X1294Y-14374D01*
X1331Y-14359D01*
X1359Y-14331D01*
X1374Y-14295D01*
X1375Y-14162D01*
X1375Y-14935D01*
X1368Y-14902D01*
X1330Y-14864D01*
X1194Y-15000D01*
X1330Y-15136D01*
X1368Y-15098D01*
X1378Y-14950D01*
X1378Y-15950D01*
X1368Y-15902D01*
X1330Y-15864D01*
X1194Y-16000D01*
X1330Y-16136D01*
X1368Y-16098D01*
X1378Y-15950D01*
X1378Y-16950D01*
X1368Y-16902D01*
X1330Y-16864D01*
X1194Y-17000D01*
X1330Y-17136D01*
X1368Y-17098D01*
X1378Y-16950D01*
X1378Y-17950D01*
X1368Y-17902D01*
X1330Y-17864D01*
X1194Y-18000D01*
X1330Y-18136D01*
X1368Y-18098D01*
X1378Y-17950D01*
X1378Y-19796D01*
X1337Y-19837D01*
X1287Y-19912D01*
X1269Y-20000D01*
X1269Y-23000D01*
X1287Y-23088D01*
X1337Y-23163D01*
X1769Y-23595D01*
X1769Y-24093D01*
X1699Y-24093D01*
X1650Y-24113D01*
X1613Y-24150D01*
X1593Y-24199D01*
X1593Y-24251D01*
X1593Y-24801D01*
X1613Y-24850D01*
X1650Y-24887D01*
X1699Y-24907D01*
X1751Y-24907D01*
X2301Y-24907D01*
X2350Y-24887D01*
X2387Y-24850D01*
X2407Y-24801D01*
X2407Y-25419D01*
X2345Y-25270D01*
X2231Y-25155D01*
X2081Y-25093D01*
X1919Y-25093D01*
X1770Y-25155D01*
X1655Y-25269D01*
X1593Y-25419D01*
X1593Y-25581D01*
X1655Y-25730D01*
X1769Y-25845D01*
X1919Y-25907D01*
X2081Y-25907D01*
X2230Y-25845D01*
X2345Y-25731D01*
X2407Y-25581D01*
X2407Y-26419D01*
X2345Y-26270D01*
X2231Y-26155D01*
X2081Y-26093D01*
X1919Y-26093D01*
X1770Y-26155D01*
X1655Y-26269D01*
X1593Y-26419D01*
X1593Y-26581D01*
X1655Y-26730D01*
X1769Y-26845D01*
X1919Y-26907D01*
X2081Y-26907D01*
X2230Y-26845D01*
X2345Y-26731D01*
X2407Y-26581D01*
X2407Y-35747D01*
X2262Y-35687D01*
X1740Y-35687D01*
X1378Y-35836D01*
X1378Y-30450D01*
X1378Y-27450D01*
X1378Y-26450D01*
X1378Y-25450D01*
X1375Y-25435D01*
X1375Y-24662D01*
X1375Y-24338D01*
X1374Y-24205D01*
X1359Y-24169D01*
X1331Y-24141D01*
X1294Y-24126D01*
X1255Y-24126D01*
X1162Y-24125D01*
X1137Y-24150D01*
X1137Y-24363D01*
X1350Y-24363D01*
X1375Y-24338D01*
X1375Y-24662D01*
X1350Y-24637D01*
X1137Y-24637D01*
X1137Y-24850D01*
X1162Y-24875D01*
X1255Y-24874D01*
X1294Y-24874D01*
X1331Y-24859D01*
X1359Y-24831D01*
X1374Y-24795D01*
X1375Y-24662D01*
X1375Y-25435D01*
X1368Y-25402D01*
X1330Y-25364D01*
X1194Y-25500D01*
X1330Y-25636D01*
X1368Y-25598D01*
X1378Y-25450D01*
X1378Y-26450D01*
X1368Y-26402D01*
X1330Y-26364D01*
X1194Y-26500D01*
X1330Y-26636D01*
X1368Y-26598D01*
X1378Y-26450D01*
X1378Y-27450D01*
X1368Y-27402D01*
X1330Y-27364D01*
X1194Y-27500D01*
X1330Y-27636D01*
X1368Y-27598D01*
X1378Y-27450D01*
X1378Y-30450D01*
X1368Y-30402D01*
X1330Y-30364D01*
X1194Y-30500D01*
X1330Y-30636D01*
X1368Y-30598D01*
X1378Y-30450D01*
X1378Y-35836D01*
X1257Y-35886D01*
X1136Y-36006D01*
X1136Y-30830D01*
X1136Y-30170D01*
X1136Y-27830D01*
X1136Y-27170D01*
X1136Y-26830D01*
X1136Y-26170D01*
X1136Y-25830D01*
X1136Y-25170D01*
X1136Y-18330D01*
X1136Y-17670D01*
X1136Y-17330D01*
X1136Y-16670D01*
X1136Y-16330D01*
X1136Y-15670D01*
X1136Y-15330D01*
X1136Y-14670D01*
X1098Y-14632D01*
X950Y-14622D01*
X902Y-14632D01*
X864Y-14670D01*
X1000Y-14806D01*
X1136Y-14670D01*
X1136Y-15330D01*
X1000Y-15194D01*
X864Y-15330D01*
X902Y-15368D01*
X1050Y-15378D01*
X1098Y-15368D01*
X1136Y-15330D01*
X1136Y-15670D01*
X1098Y-15632D01*
X950Y-15622D01*
X902Y-15632D01*
X864Y-15670D01*
X1000Y-15806D01*
X1136Y-15670D01*
X1136Y-16330D01*
X1000Y-16194D01*
X864Y-16330D01*
X902Y-16368D01*
X1050Y-16378D01*
X1098Y-16368D01*
X1136Y-16330D01*
X1136Y-16670D01*
X1098Y-16632D01*
X950Y-16622D01*
X902Y-16632D01*
X864Y-16670D01*
X1000Y-16806D01*
X1136Y-16670D01*
X1136Y-17330D01*
X1000Y-17194D01*
X864Y-17330D01*
X902Y-17368D01*
X1050Y-17378D01*
X1098Y-17368D01*
X1136Y-17330D01*
X1136Y-17670D01*
X1098Y-17632D01*
X950Y-17622D01*
X902Y-17632D01*
X864Y-17670D01*
X1000Y-17806D01*
X1136Y-17670D01*
X1136Y-18330D01*
X1000Y-18194D01*
X864Y-18330D01*
X902Y-18368D01*
X1050Y-18378D01*
X1098Y-18368D01*
X1136Y-18330D01*
X1136Y-25170D01*
X1098Y-25132D01*
X950Y-25122D01*
X902Y-25132D01*
X864Y-25170D01*
X1000Y-25306D01*
X1136Y-25170D01*
X1136Y-25830D01*
X1000Y-25694D01*
X864Y-25830D01*
X902Y-25868D01*
X1050Y-25878D01*
X1098Y-25868D01*
X1136Y-25830D01*
X1136Y-26170D01*
X1098Y-26132D01*
X950Y-26122D01*
X902Y-26132D01*
X864Y-26170D01*
X1000Y-26306D01*
X1136Y-26170D01*
X1136Y-26830D01*
X1000Y-26694D01*
X864Y-26830D01*
X902Y-26868D01*
X1050Y-26878D01*
X1098Y-26868D01*
X1136Y-26830D01*
X1136Y-27170D01*
X1098Y-27132D01*
X950Y-27122D01*
X902Y-27132D01*
X864Y-27170D01*
X1000Y-27306D01*
X1136Y-27170D01*
X1136Y-27830D01*
X1000Y-27694D01*
X864Y-27830D01*
X902Y-27868D01*
X1050Y-27878D01*
X1098Y-27868D01*
X1136Y-27830D01*
X1136Y-30170D01*
X1098Y-30132D01*
X950Y-30122D01*
X902Y-30132D01*
X864Y-30170D01*
X1000Y-30306D01*
X1136Y-30170D01*
X1136Y-30830D01*
X1000Y-30694D01*
X864Y-30830D01*
X902Y-30868D01*
X1050Y-30878D01*
X1098Y-30868D01*
X1136Y-30830D01*
X1136Y-36006D01*
X887Y-36255D01*
X863Y-36312D01*
X863Y-24850D01*
X863Y-24637D01*
X863Y-24363D01*
X863Y-24150D01*
X863Y-14350D01*
X863Y-14137D01*
X863Y-13863D01*
X863Y-13650D01*
X838Y-13625D01*
X745Y-13626D01*
X706Y-13626D01*
X669Y-13641D01*
X641Y-13669D01*
X626Y-13705D01*
X625Y-13838D01*
X650Y-13863D01*
X863Y-13863D01*
X863Y-14137D01*
X650Y-14137D01*
X625Y-14162D01*
X626Y-14295D01*
X641Y-14331D01*
X669Y-14359D01*
X706Y-14374D01*
X745Y-14374D01*
X838Y-14375D01*
X863Y-14350D01*
X863Y-24150D01*
X838Y-24125D01*
X806Y-24125D01*
X806Y-18000D01*
X806Y-17000D01*
X806Y-16000D01*
X806Y-15000D01*
X670Y-14864D01*
X632Y-14902D01*
X622Y-15050D01*
X632Y-15098D01*
X670Y-15136D01*
X806Y-15000D01*
X806Y-16000D01*
X670Y-15864D01*
X632Y-15902D01*
X622Y-16050D01*
X632Y-16098D01*
X670Y-16136D01*
X806Y-16000D01*
X806Y-17000D01*
X670Y-16864D01*
X632Y-16902D01*
X622Y-17050D01*
X632Y-17098D01*
X670Y-17136D01*
X806Y-17000D01*
X806Y-18000D01*
X670Y-17864D01*
X632Y-17902D01*
X622Y-18050D01*
X632Y-18098D01*
X670Y-18136D01*
X806Y-18000D01*
X806Y-24125D01*
X745Y-24126D01*
X706Y-24126D01*
X669Y-24141D01*
X641Y-24169D01*
X626Y-24205D01*
X625Y-24338D01*
X650Y-24363D01*
X863Y-24363D01*
X863Y-24637D01*
X650Y-24637D01*
X625Y-24662D01*
X626Y-24795D01*
X641Y-24831D01*
X669Y-24859D01*
X706Y-24874D01*
X745Y-24874D01*
X838Y-24875D01*
X863Y-24850D01*
X863Y-36312D01*
X806Y-36450D01*
X806Y-30500D01*
X806Y-27500D01*
X806Y-26500D01*
X806Y-25500D01*
X670Y-25364D01*
X632Y-25402D01*
X622Y-25550D01*
X632Y-25598D01*
X670Y-25636D01*
X806Y-25500D01*
X806Y-26500D01*
X670Y-26364D01*
X632Y-26402D01*
X622Y-26550D01*
X632Y-26598D01*
X670Y-26636D01*
X806Y-26500D01*
X806Y-27500D01*
X670Y-27364D01*
X632Y-27402D01*
X622Y-27550D01*
X632Y-27598D01*
X670Y-27636D01*
X806Y-27500D01*
X806Y-30500D01*
X670Y-30364D01*
X632Y-30402D01*
X622Y-30550D01*
X632Y-30598D01*
X670Y-30636D01*
X806Y-30500D01*
X806Y-36450D01*
X687Y-36738D01*
X687Y-37260D01*
X886Y-37743D01*
X1255Y-38113D01*
X1738Y-38313D01*
X2260Y-38313D01*
X2743Y-38114D01*
X3113Y-37745D01*
X3313Y-37262D01*
X3313Y-38825D01*
X175Y-38825D01*
X175Y-175D01*
X11825Y-175D01*
X11825Y-38825D01*
M02*
