G04 (created by PCBNEW (2012-12-10 BZR 3844)-stable) date Tue 11 Dec 2012 11:45:49 AM CET*
%MOIN*%
G04 Gerber Fmt 3.4, Leading zero omitted, Abs format*
%FSLAX34Y34*%
G01*
G70*
G90*
G04 APERTURE LIST*
%ADD10C,0.006*%
%ADD11C,0.012*%
%ADD12C,0.0099*%
%ADD13C,0.015*%
%ADD14C,0.005*%
%ADD15C,0.008*%
%ADD16C,0.0079*%
%ADD17C,0.0107*%
%ADD18C,0.0045*%
%ADD19C,0.0106*%
%ADD20C,0.0113*%
%ADD21C,0.0047*%
%ADD22C,0.0039*%
%ADD23C,0.0077*%
%ADD24C,0.0078*%
G04 APERTURE END LIST*
G54D10*
G54D11*
X51222Y-33100D02*
X51251Y-33062D01*
X51308Y-33024D01*
X51451Y-33024D01*
X51508Y-33062D01*
X51537Y-33100D01*
X51565Y-33176D01*
X51565Y-33252D01*
X51537Y-33367D01*
X51194Y-33824D01*
X51565Y-33824D01*
X51936Y-33024D02*
X51993Y-33024D01*
X52050Y-33062D01*
X52079Y-33100D01*
X52108Y-33176D01*
X52136Y-33329D01*
X52136Y-33519D01*
X52108Y-33671D01*
X52079Y-33748D01*
X52050Y-33786D01*
X51993Y-33824D01*
X51936Y-33824D01*
X51879Y-33786D01*
X51850Y-33748D01*
X51822Y-33671D01*
X51793Y-33519D01*
X51793Y-33329D01*
X51822Y-33176D01*
X51850Y-33100D01*
X51879Y-33062D01*
X51936Y-33024D01*
X52707Y-33824D02*
X52364Y-33824D01*
X52536Y-33824D02*
X52536Y-33024D01*
X52479Y-33138D01*
X52421Y-33214D01*
X52364Y-33252D01*
X52935Y-33100D02*
X52964Y-33062D01*
X53021Y-33024D01*
X53164Y-33024D01*
X53221Y-33062D01*
X53250Y-33100D01*
X53278Y-33176D01*
X53278Y-33252D01*
X53250Y-33367D01*
X52907Y-33824D01*
X53278Y-33824D01*
G54D12*
X60261Y-60509D02*
X60289Y-60453D01*
X60289Y-60359D01*
X60261Y-60321D01*
X60232Y-60303D01*
X60176Y-60284D01*
X60120Y-60284D01*
X60064Y-60303D01*
X60035Y-60321D01*
X60007Y-60359D01*
X59979Y-60434D01*
X59951Y-60471D01*
X59923Y-60490D01*
X59867Y-60509D01*
X59810Y-60509D01*
X59754Y-60490D01*
X59726Y-60471D01*
X59698Y-60434D01*
X59698Y-60340D01*
X59726Y-60284D01*
X60261Y-59965D02*
X60289Y-60003D01*
X60289Y-60078D01*
X60261Y-60115D01*
X60204Y-60134D01*
X59979Y-60134D01*
X59923Y-60115D01*
X59895Y-60078D01*
X59895Y-60003D01*
X59923Y-59965D01*
X59979Y-59946D01*
X60035Y-59946D01*
X60092Y-60134D01*
X60289Y-59777D02*
X59698Y-59777D01*
X59923Y-59777D02*
X59895Y-59740D01*
X59895Y-59665D01*
X59923Y-59627D01*
X59951Y-59608D01*
X60007Y-59590D01*
X60176Y-59590D01*
X60232Y-59608D01*
X60261Y-59627D01*
X60289Y-59665D01*
X60289Y-59740D01*
X60261Y-59777D01*
X60289Y-59252D02*
X59979Y-59252D01*
X59923Y-59271D01*
X59895Y-59309D01*
X59895Y-59384D01*
X59923Y-59421D01*
X60261Y-59252D02*
X60289Y-59290D01*
X60289Y-59384D01*
X60261Y-59421D01*
X60204Y-59440D01*
X60148Y-59440D01*
X60092Y-59421D01*
X60064Y-59384D01*
X60064Y-59290D01*
X60035Y-59252D01*
X60261Y-59084D02*
X60289Y-59046D01*
X60289Y-58971D01*
X60261Y-58934D01*
X60204Y-58915D01*
X60176Y-58915D01*
X60120Y-58934D01*
X60092Y-58971D01*
X60092Y-59028D01*
X60064Y-59065D01*
X60007Y-59084D01*
X59979Y-59084D01*
X59923Y-59065D01*
X59895Y-59028D01*
X59895Y-58971D01*
X59923Y-58934D01*
X59895Y-58802D02*
X59895Y-58652D01*
X59698Y-58746D02*
X60204Y-58746D01*
X60261Y-58727D01*
X60289Y-58690D01*
X60289Y-58652D01*
X60289Y-58521D02*
X59895Y-58521D01*
X59698Y-58521D02*
X59726Y-58540D01*
X59754Y-58521D01*
X59726Y-58502D01*
X59698Y-58521D01*
X59754Y-58521D01*
X60289Y-58164D02*
X59979Y-58164D01*
X59923Y-58183D01*
X59895Y-58221D01*
X59895Y-58296D01*
X59923Y-58333D01*
X60261Y-58164D02*
X60289Y-58202D01*
X60289Y-58296D01*
X60261Y-58333D01*
X60204Y-58352D01*
X60148Y-58352D01*
X60092Y-58333D01*
X60064Y-58296D01*
X60064Y-58202D01*
X60035Y-58164D01*
X59895Y-57977D02*
X60289Y-57977D01*
X59951Y-57977D02*
X59923Y-57958D01*
X59895Y-57921D01*
X59895Y-57865D01*
X59923Y-57827D01*
X59979Y-57808D01*
X60289Y-57808D01*
X61187Y-60228D02*
X61215Y-60172D01*
X61215Y-60078D01*
X61187Y-60040D01*
X61158Y-60022D01*
X61102Y-60003D01*
X61046Y-60003D01*
X60990Y-60022D01*
X60961Y-60040D01*
X60933Y-60078D01*
X60905Y-60153D01*
X60877Y-60190D01*
X60849Y-60209D01*
X60793Y-60228D01*
X60736Y-60228D01*
X60680Y-60209D01*
X60652Y-60190D01*
X60624Y-60153D01*
X60624Y-60059D01*
X60652Y-60003D01*
X61187Y-59665D02*
X61215Y-59703D01*
X61215Y-59778D01*
X61187Y-59815D01*
X61158Y-59834D01*
X61102Y-59853D01*
X60933Y-59853D01*
X60877Y-59834D01*
X60849Y-59815D01*
X60821Y-59778D01*
X60821Y-59703D01*
X60849Y-59665D01*
X61215Y-59496D02*
X60624Y-59496D01*
X61215Y-59327D02*
X60905Y-59327D01*
X60849Y-59346D01*
X60821Y-59384D01*
X60821Y-59440D01*
X60849Y-59477D01*
X60877Y-59496D01*
X60821Y-58971D02*
X61215Y-58971D01*
X60821Y-59140D02*
X61130Y-59140D01*
X61187Y-59121D01*
X61215Y-59084D01*
X61215Y-59028D01*
X61187Y-58990D01*
X61158Y-58971D01*
X61215Y-58784D02*
X60821Y-58784D01*
X60877Y-58784D02*
X60849Y-58765D01*
X60821Y-58728D01*
X60821Y-58672D01*
X60849Y-58634D01*
X60905Y-58615D01*
X61215Y-58615D01*
X60905Y-58615D02*
X60849Y-58597D01*
X60821Y-58559D01*
X60821Y-58503D01*
X60849Y-58465D01*
X60905Y-58446D01*
X61215Y-58446D01*
X61215Y-58259D02*
X60624Y-58259D01*
X60849Y-58259D02*
X60821Y-58222D01*
X60821Y-58147D01*
X60849Y-58109D01*
X60877Y-58090D01*
X60933Y-58072D01*
X61102Y-58072D01*
X61158Y-58090D01*
X61187Y-58109D01*
X61215Y-58147D01*
X61215Y-58222D01*
X61187Y-58259D01*
X52698Y-63700D02*
X53289Y-63569D01*
X52698Y-63438D01*
X53261Y-63156D02*
X53289Y-63194D01*
X53289Y-63269D01*
X53261Y-63306D01*
X53204Y-63325D01*
X52979Y-63325D01*
X52923Y-63306D01*
X52895Y-63269D01*
X52895Y-63194D01*
X52923Y-63156D01*
X52979Y-63137D01*
X53035Y-63137D01*
X53092Y-63325D01*
X53289Y-62968D02*
X52895Y-62968D01*
X53007Y-62968D02*
X52951Y-62949D01*
X52923Y-62931D01*
X52895Y-62893D01*
X52895Y-62856D01*
X53261Y-62743D02*
X53289Y-62705D01*
X53289Y-62630D01*
X53261Y-62593D01*
X53204Y-62574D01*
X53176Y-62574D01*
X53120Y-62593D01*
X53092Y-62630D01*
X53092Y-62687D01*
X53064Y-62724D01*
X53007Y-62743D01*
X52979Y-62743D01*
X52923Y-62724D01*
X52895Y-62687D01*
X52895Y-62630D01*
X52923Y-62593D01*
X53289Y-62405D02*
X52895Y-62405D01*
X52698Y-62405D02*
X52726Y-62424D01*
X52754Y-62405D01*
X52726Y-62386D01*
X52698Y-62405D01*
X52754Y-62405D01*
X53289Y-62161D02*
X53261Y-62198D01*
X53232Y-62217D01*
X53176Y-62236D01*
X53007Y-62236D01*
X52951Y-62217D01*
X52923Y-62198D01*
X52895Y-62161D01*
X52895Y-62105D01*
X52923Y-62067D01*
X52951Y-62048D01*
X53007Y-62030D01*
X53176Y-62030D01*
X53232Y-62048D01*
X53261Y-62067D01*
X53289Y-62105D01*
X53289Y-62161D01*
X52895Y-61861D02*
X53289Y-61861D01*
X52951Y-61861D02*
X52923Y-61842D01*
X52895Y-61805D01*
X52895Y-61749D01*
X52923Y-61711D01*
X52979Y-61692D01*
X53289Y-61692D01*
X53289Y-60999D02*
X53289Y-61224D01*
X53289Y-61111D02*
X52698Y-61111D01*
X52782Y-61149D01*
X52838Y-61186D01*
X52867Y-61224D01*
X53232Y-60830D02*
X53261Y-60811D01*
X53289Y-60830D01*
X53261Y-60849D01*
X53232Y-60830D01*
X53289Y-60830D01*
X52698Y-60567D02*
X52698Y-60530D01*
X52726Y-60492D01*
X52754Y-60473D01*
X52810Y-60455D01*
X52923Y-60436D01*
X53064Y-60436D01*
X53176Y-60455D01*
X53232Y-60473D01*
X53261Y-60492D01*
X53289Y-60530D01*
X53289Y-60567D01*
X53261Y-60605D01*
X53232Y-60623D01*
X53176Y-60642D01*
X53064Y-60661D01*
X52923Y-60661D01*
X52810Y-60642D01*
X52754Y-60623D01*
X52726Y-60605D01*
X52698Y-60567D01*
G54D13*
X51924Y-63650D02*
X51124Y-63650D01*
X51924Y-63307D02*
X51467Y-63564D01*
X51124Y-63307D02*
X51581Y-63650D01*
X51924Y-62793D02*
X51505Y-62793D01*
X51429Y-62822D01*
X51390Y-62879D01*
X51390Y-62993D01*
X51429Y-63050D01*
X51886Y-62793D02*
X51924Y-62850D01*
X51924Y-62993D01*
X51886Y-63050D01*
X51810Y-63079D01*
X51733Y-63079D01*
X51657Y-63050D01*
X51619Y-62993D01*
X51619Y-62850D01*
X51581Y-62793D01*
X51924Y-62507D02*
X51124Y-62507D01*
X51429Y-62507D02*
X51390Y-62450D01*
X51390Y-62336D01*
X51429Y-62279D01*
X51467Y-62250D01*
X51543Y-62221D01*
X51771Y-62221D01*
X51848Y-62250D01*
X51886Y-62279D01*
X51924Y-62336D01*
X51924Y-62450D01*
X51886Y-62507D01*
X51924Y-61878D02*
X51886Y-61936D01*
X51848Y-61964D01*
X51771Y-61993D01*
X51543Y-61993D01*
X51467Y-61964D01*
X51429Y-61936D01*
X51390Y-61878D01*
X51390Y-61793D01*
X51429Y-61736D01*
X51467Y-61707D01*
X51543Y-61678D01*
X51771Y-61678D01*
X51848Y-61707D01*
X51886Y-61736D01*
X51924Y-61793D01*
X51924Y-61878D01*
X51924Y-61164D02*
X51505Y-61164D01*
X51429Y-61193D01*
X51390Y-61250D01*
X51390Y-61364D01*
X51429Y-61421D01*
X51886Y-61164D02*
X51924Y-61221D01*
X51924Y-61364D01*
X51886Y-61421D01*
X51810Y-61450D01*
X51733Y-61450D01*
X51657Y-61421D01*
X51619Y-61364D01*
X51619Y-61221D01*
X51581Y-61164D01*
X51924Y-60878D02*
X51390Y-60878D01*
X51543Y-60878D02*
X51467Y-60850D01*
X51429Y-60821D01*
X51390Y-60764D01*
X51390Y-60707D01*
X51924Y-60250D02*
X51124Y-60250D01*
X51886Y-60250D02*
X51924Y-60307D01*
X51924Y-60421D01*
X51886Y-60479D01*
X51848Y-60507D01*
X51771Y-60536D01*
X51543Y-60536D01*
X51467Y-60507D01*
X51429Y-60479D01*
X51390Y-60421D01*
X51390Y-60307D01*
X51429Y-60250D01*
X52500Y-51500D02*
X52500Y-49600D01*
X53500Y-49500D02*
X53500Y-51600D01*
X52900Y-49001D02*
G75*
G03X52501Y-49600I100J-499D01*
G74*
G01*
X53500Y-49500D02*
G75*
G03X53000Y-49000I-500J0D01*
G74*
G01*
X52900Y-51999D02*
G75*
G03X53499Y-51600I100J499D01*
G74*
G01*
X52500Y-51500D02*
G75*
G03X53000Y-52000I500J0D01*
G74*
G01*
G54D14*
X61935Y-61490D02*
X61935Y-62710D01*
X61935Y-62710D02*
X61230Y-62710D01*
X61935Y-61490D02*
X61230Y-61490D01*
X59065Y-62845D02*
X59065Y-63165D01*
X59065Y-63165D02*
X59770Y-63165D01*
X59065Y-62845D02*
X59770Y-62845D01*
X59065Y-61940D02*
X59770Y-61940D01*
X59065Y-62260D02*
X59770Y-62260D01*
X59065Y-61940D02*
X59065Y-62260D01*
X59065Y-61035D02*
X59065Y-61355D01*
X59065Y-61355D02*
X59770Y-61355D01*
X59065Y-61035D02*
X59770Y-61035D01*
X59770Y-63420D02*
X59770Y-60780D01*
X59770Y-60780D02*
X61230Y-60780D01*
X61230Y-60780D02*
X61230Y-63420D01*
X61230Y-63420D02*
X59770Y-63420D01*
G54D11*
X54500Y-34500D02*
X54500Y-35500D01*
X54500Y-35500D02*
X52500Y-35500D01*
X52500Y-35500D02*
X52500Y-34500D01*
X52500Y-34500D02*
X54500Y-34500D01*
G54D14*
X53500Y-58000D02*
G75*
G03X53500Y-58000I-1000J0D01*
G74*
G01*
X51000Y-59500D02*
X51000Y-56500D01*
X51000Y-56500D02*
X54000Y-56500D01*
X54000Y-56500D02*
X54000Y-59500D01*
X51000Y-59500D02*
X54000Y-59500D01*
X57491Y-39800D02*
G75*
G03X57491Y-39800I-141J0D01*
G74*
G01*
X56250Y-40000D02*
X56250Y-39700D01*
X56250Y-39700D02*
X56750Y-39700D01*
X56750Y-39700D02*
X56750Y-40000D01*
X57550Y-35950D02*
X57550Y-40000D01*
X55450Y-40000D02*
X55450Y-35950D01*
X55450Y-40000D02*
X57550Y-40000D01*
X55450Y-35950D02*
X57550Y-35950D01*
X57250Y-34100D02*
G75*
G03X57250Y-34100I-50J0D01*
G74*
G01*
X57650Y-34100D02*
X57250Y-34100D01*
X57250Y-34100D02*
X57250Y-33500D01*
X57250Y-33500D02*
X57650Y-33500D01*
X58050Y-33500D02*
X58450Y-33500D01*
X58450Y-33500D02*
X58450Y-34100D01*
X58450Y-34100D02*
X58050Y-34100D01*
X53000Y-38600D02*
X53900Y-38600D01*
X53900Y-38600D02*
X53900Y-39100D01*
X53900Y-39100D02*
X53000Y-39100D01*
X53000Y-39100D02*
X53000Y-38600D01*
X52350Y-41750D02*
X53250Y-41750D01*
X53250Y-41750D02*
X53250Y-42250D01*
X53250Y-42250D02*
X52350Y-42250D01*
X52350Y-42250D02*
X52350Y-41750D01*
X54250Y-56250D02*
X55150Y-56250D01*
X55150Y-56250D02*
X55150Y-56750D01*
X55150Y-56750D02*
X54250Y-56750D01*
X54250Y-56750D02*
X54250Y-56250D01*
X55600Y-35250D02*
X54700Y-35250D01*
X54700Y-35250D02*
X54700Y-34750D01*
X54700Y-34750D02*
X55600Y-34750D01*
X55600Y-34750D02*
X55600Y-35250D01*
X55000Y-34250D02*
X54100Y-34250D01*
X54100Y-34250D02*
X54100Y-33750D01*
X54100Y-33750D02*
X55000Y-33750D01*
X55000Y-33750D02*
X55000Y-34250D01*
X53000Y-37850D02*
X53900Y-37850D01*
X53900Y-37850D02*
X53900Y-38350D01*
X53900Y-38350D02*
X53000Y-38350D01*
X53000Y-38350D02*
X53000Y-37850D01*
X51800Y-37850D02*
X52700Y-37850D01*
X52700Y-37850D02*
X52700Y-38350D01*
X52700Y-38350D02*
X51800Y-38350D01*
X51800Y-38350D02*
X51800Y-37850D01*
X60350Y-49750D02*
X61250Y-49750D01*
X61250Y-49750D02*
X61250Y-50250D01*
X61250Y-50250D02*
X60350Y-50250D01*
X60350Y-50250D02*
X60350Y-49750D01*
X60700Y-47850D02*
X60700Y-48750D01*
X60700Y-48750D02*
X60200Y-48750D01*
X60200Y-48750D02*
X60200Y-47850D01*
X60200Y-47850D02*
X60700Y-47850D01*
X51250Y-50250D02*
X51250Y-49350D01*
X51250Y-49350D02*
X51750Y-49350D01*
X51750Y-49350D02*
X51750Y-50250D01*
X51750Y-50250D02*
X51250Y-50250D01*
X51750Y-50750D02*
X51750Y-51650D01*
X51750Y-51650D02*
X51250Y-51650D01*
X51250Y-51650D02*
X51250Y-50750D01*
X51250Y-50750D02*
X51750Y-50750D01*
X58450Y-39050D02*
X58450Y-38150D01*
X58450Y-38150D02*
X58950Y-38150D01*
X58950Y-38150D02*
X58950Y-39050D01*
X58950Y-39050D02*
X58450Y-39050D01*
X59200Y-39050D02*
X59200Y-38150D01*
X59200Y-38150D02*
X59700Y-38150D01*
X59700Y-38150D02*
X59700Y-39050D01*
X59700Y-39050D02*
X59200Y-39050D01*
X54400Y-37050D02*
X53500Y-37050D01*
X53500Y-37050D02*
X53500Y-36550D01*
X53500Y-36550D02*
X54400Y-36550D01*
X54400Y-36550D02*
X54400Y-37050D01*
X51800Y-38600D02*
X52700Y-38600D01*
X52700Y-38600D02*
X52700Y-39100D01*
X52700Y-39100D02*
X51800Y-39100D01*
X51800Y-39100D02*
X51800Y-38600D01*
G54D11*
X60000Y-56500D02*
X59000Y-56500D01*
X59000Y-56500D02*
X59000Y-50500D01*
X59000Y-50500D02*
X60000Y-50500D01*
X60000Y-50500D02*
X60000Y-56500D01*
X60000Y-55500D02*
X59000Y-55500D01*
X60000Y-47500D02*
X59000Y-47500D01*
X59000Y-47500D02*
X59000Y-41500D01*
X59000Y-41500D02*
X60000Y-41500D01*
X60000Y-41500D02*
X60000Y-47500D01*
X60000Y-46500D02*
X59000Y-46500D01*
X61000Y-56500D02*
X60000Y-56500D01*
X60000Y-56500D02*
X60000Y-50500D01*
X60000Y-50500D02*
X61000Y-50500D01*
X61000Y-50500D02*
X61000Y-56500D01*
X61000Y-55500D02*
X60000Y-55500D01*
X62000Y-56500D02*
X61000Y-56500D01*
X61000Y-56500D02*
X61000Y-50500D01*
X61000Y-50500D02*
X62000Y-50500D01*
X62000Y-50500D02*
X62000Y-56500D01*
X62000Y-55500D02*
X61000Y-55500D01*
X61000Y-47500D02*
X60000Y-47500D01*
X60000Y-47500D02*
X60000Y-41500D01*
X60000Y-41500D02*
X61000Y-41500D01*
X61000Y-41500D02*
X61000Y-47500D01*
X61000Y-46500D02*
X60000Y-46500D01*
X62000Y-47500D02*
X61000Y-47500D01*
X61000Y-47500D02*
X61000Y-41500D01*
X61000Y-41500D02*
X62000Y-41500D01*
X62000Y-41500D02*
X62000Y-47500D01*
X62000Y-46500D02*
X61000Y-46500D01*
X53000Y-42500D02*
X54000Y-42500D01*
X54000Y-42500D02*
X54000Y-47500D01*
X54000Y-47500D02*
X53000Y-47500D01*
X53000Y-47500D02*
X53000Y-42500D01*
X53000Y-43500D02*
X54000Y-43500D01*
X52000Y-42500D02*
X53000Y-42500D01*
X53000Y-42500D02*
X53000Y-47500D01*
X53000Y-47500D02*
X52000Y-47500D01*
X52000Y-47500D02*
X52000Y-42500D01*
X52000Y-43500D02*
X53000Y-43500D01*
X51000Y-42500D02*
X52000Y-42500D01*
X52000Y-42500D02*
X52000Y-47500D01*
X52000Y-47500D02*
X51000Y-47500D01*
X51000Y-47500D02*
X51000Y-42500D01*
X51000Y-43500D02*
X52000Y-43500D01*
X51000Y-53000D02*
X52000Y-53000D01*
X52000Y-53000D02*
X52000Y-56000D01*
X52000Y-56000D02*
X51000Y-56000D01*
X51000Y-56000D02*
X51000Y-53000D01*
X52000Y-54000D02*
X51000Y-54000D01*
X52000Y-53000D02*
X53000Y-53000D01*
X53000Y-53000D02*
X53000Y-56000D01*
X53000Y-56000D02*
X52000Y-56000D01*
X52000Y-56000D02*
X52000Y-53000D01*
X53000Y-54000D02*
X52000Y-54000D01*
X53000Y-53000D02*
X54000Y-53000D01*
X54000Y-53000D02*
X54000Y-56000D01*
X54000Y-56000D02*
X53000Y-56000D01*
X53000Y-56000D02*
X53000Y-53000D01*
X54000Y-54000D02*
X53000Y-54000D01*
X58500Y-35500D02*
X58500Y-34500D01*
X58500Y-34500D02*
X60500Y-34500D01*
X60500Y-34500D02*
X60500Y-35500D01*
X60500Y-35500D02*
X58500Y-35500D01*
X59000Y-47500D02*
X60000Y-47500D01*
X60000Y-47500D02*
X60000Y-49500D01*
X60000Y-49500D02*
X59000Y-49500D01*
X59000Y-49500D02*
X59000Y-47500D01*
G54D13*
X57500Y-41000D02*
X57500Y-56000D01*
X57500Y-56000D02*
X55500Y-56000D01*
X55500Y-56000D02*
X55500Y-41000D01*
X55500Y-41000D02*
X57500Y-41000D01*
X57000Y-41000D02*
X57000Y-41500D01*
X57000Y-41500D02*
X56000Y-41500D01*
X56000Y-41500D02*
X56000Y-41000D01*
G54D14*
X57900Y-61100D02*
X57900Y-60200D01*
X57900Y-60200D02*
X58400Y-60200D01*
X58400Y-60200D02*
X58400Y-61100D01*
X58400Y-61100D02*
X57900Y-61100D01*
X51800Y-39350D02*
X52700Y-39350D01*
X52700Y-39350D02*
X52700Y-39850D01*
X52700Y-39850D02*
X51800Y-39850D01*
X51800Y-39850D02*
X51800Y-39350D01*
X53000Y-39350D02*
X53900Y-39350D01*
X53900Y-39350D02*
X53900Y-39850D01*
X53900Y-39850D02*
X53000Y-39850D01*
X53000Y-39850D02*
X53000Y-39350D01*
G54D11*
X58500Y-67500D02*
X54500Y-67500D01*
X58500Y-68000D02*
X58500Y-65000D01*
X58500Y-65000D02*
X54500Y-65000D01*
X54500Y-65000D02*
X54500Y-68000D01*
X54500Y-68000D02*
X58500Y-68000D01*
G54D14*
X56500Y-62150D02*
X56500Y-63850D01*
X54050Y-62150D02*
X54050Y-63850D01*
X54050Y-63850D02*
X56950Y-63850D01*
X56950Y-63850D02*
X56950Y-62150D01*
X56950Y-62150D02*
X54050Y-62150D01*
X56500Y-60150D02*
X56500Y-61850D01*
X54050Y-60150D02*
X54050Y-61850D01*
X54050Y-61850D02*
X56950Y-61850D01*
X56950Y-61850D02*
X56950Y-60150D01*
X56950Y-60150D02*
X54050Y-60150D01*
X57835Y-62704D02*
X58465Y-62704D01*
X58465Y-62744D02*
X57835Y-62744D01*
X58465Y-61799D02*
X58465Y-62901D01*
X58465Y-62901D02*
X57835Y-62901D01*
X57835Y-62901D02*
X57835Y-61799D01*
X57835Y-61799D02*
X58465Y-61799D01*
G54D13*
X53400Y-31000D02*
G75*
G03X53400Y-31000I-900J0D01*
G74*
G01*
X61400Y-31000D02*
G75*
G03X61400Y-31000I-900J0D01*
G74*
G01*
X53400Y-66000D02*
G75*
G03X53400Y-66000I-900J0D01*
G74*
G01*
X61400Y-66000D02*
G75*
G03X61400Y-66000I-900J0D01*
G74*
G01*
G54D14*
X59625Y-37875D02*
X59625Y-36625D01*
X61650Y-37875D02*
X61650Y-36625D01*
X61650Y-36625D02*
X59250Y-36625D01*
X59250Y-36625D02*
X59250Y-37875D01*
X59250Y-37875D02*
X61650Y-37875D01*
G54D11*
X58035Y-32734D02*
X58469Y-32734D01*
X58469Y-32734D02*
X58469Y-32143D01*
X58469Y-32143D02*
X58035Y-32143D01*
X54531Y-32142D02*
X54965Y-32142D01*
X54531Y-32733D02*
X54531Y-32142D01*
X54965Y-32733D02*
X54531Y-32733D01*
X54965Y-30567D02*
X54531Y-30567D01*
X54531Y-30567D02*
X54531Y-29976D01*
X54531Y-29976D02*
X54965Y-29976D01*
X58035Y-30567D02*
X58469Y-30567D01*
X58469Y-30567D02*
X58469Y-29976D01*
X58469Y-29976D02*
X58035Y-29976D01*
X58035Y-29031D02*
X54965Y-29031D01*
X54965Y-29031D02*
X54965Y-32969D01*
X54965Y-32969D02*
X58035Y-32969D01*
X58035Y-32969D02*
X58035Y-29031D01*
G54D15*
X55000Y-57000D02*
X58000Y-57000D01*
X58000Y-59000D02*
X55000Y-59000D01*
X55000Y-59000D02*
X55000Y-57000D01*
X58000Y-57000D02*
X58000Y-59000D01*
G54D11*
X52643Y-50935D02*
X53243Y-50535D01*
X52643Y-50535D02*
X53243Y-50935D01*
X53243Y-49993D02*
X53243Y-50336D01*
X53243Y-50164D02*
X52643Y-50164D01*
X52729Y-50221D01*
X52786Y-50279D01*
X52814Y-50336D01*
G54D16*
X60150Y-63565D02*
X60150Y-63884D01*
X60169Y-63922D01*
X60187Y-63941D01*
X60225Y-63959D01*
X60300Y-63959D01*
X60337Y-63941D01*
X60356Y-63922D01*
X60375Y-63884D01*
X60375Y-63565D01*
X60544Y-63603D02*
X60563Y-63584D01*
X60600Y-63565D01*
X60694Y-63565D01*
X60732Y-63584D01*
X60750Y-63603D01*
X60769Y-63641D01*
X60769Y-63678D01*
X60750Y-63734D01*
X60525Y-63959D01*
X60769Y-63959D01*
G54D17*
X51243Y-34594D02*
X51243Y-35081D01*
X51223Y-35178D01*
X51182Y-35243D01*
X51121Y-35275D01*
X51080Y-35275D01*
X51447Y-35275D02*
X51447Y-34594D01*
X51610Y-34594D01*
X51651Y-34627D01*
X51671Y-34659D01*
X51691Y-34724D01*
X51691Y-34821D01*
X51671Y-34886D01*
X51651Y-34918D01*
X51610Y-34951D01*
X51447Y-34951D01*
X51855Y-34659D02*
X51875Y-34627D01*
X51916Y-34594D01*
X52018Y-34594D01*
X52058Y-34627D01*
X52079Y-34659D01*
X52099Y-34724D01*
X52099Y-34789D01*
X52079Y-34886D01*
X51834Y-35275D01*
X52099Y-35275D01*
G54D15*
X52643Y-58533D02*
X52662Y-58476D01*
X52662Y-58380D01*
X52643Y-58342D01*
X52624Y-58323D01*
X52586Y-58304D01*
X52548Y-58304D01*
X52510Y-58323D01*
X52490Y-58342D01*
X52471Y-58380D01*
X52452Y-58457D01*
X52433Y-58495D01*
X52414Y-58514D01*
X52376Y-58533D01*
X52338Y-58533D01*
X52300Y-58514D01*
X52281Y-58495D01*
X52262Y-58457D01*
X52262Y-58361D01*
X52281Y-58304D01*
X52262Y-58171D02*
X52662Y-58076D01*
X52376Y-57999D01*
X52662Y-57923D01*
X52262Y-57828D01*
X52662Y-57466D02*
X52662Y-57695D01*
X52662Y-57581D02*
X52262Y-57581D01*
X52319Y-57619D01*
X52357Y-57657D01*
X52376Y-57695D01*
G54D14*
X55721Y-38179D02*
X55964Y-38179D01*
X55993Y-38164D01*
X56007Y-38150D01*
X56021Y-38121D01*
X56021Y-38064D01*
X56007Y-38036D01*
X55993Y-38021D01*
X55964Y-38007D01*
X55721Y-38007D01*
X56021Y-37707D02*
X56021Y-37879D01*
X56021Y-37793D02*
X55721Y-37793D01*
X55764Y-37822D01*
X55793Y-37850D01*
X55807Y-37879D01*
X56914Y-38772D02*
X56914Y-38872D01*
X57071Y-38872D02*
X56771Y-38872D01*
X56771Y-38729D01*
X56771Y-38657D02*
X56771Y-38486D01*
X57071Y-38572D02*
X56771Y-38572D01*
X56800Y-38400D02*
X56786Y-38386D01*
X56771Y-38357D01*
X56771Y-38286D01*
X56786Y-38257D01*
X56800Y-38243D01*
X56829Y-38228D01*
X56857Y-38228D01*
X56900Y-38243D01*
X57071Y-38414D01*
X57071Y-38228D01*
X56771Y-38128D02*
X56771Y-37942D01*
X56886Y-38042D01*
X56886Y-38000D01*
X56900Y-37971D01*
X56914Y-37957D01*
X56943Y-37942D01*
X57014Y-37942D01*
X57043Y-37957D01*
X57057Y-37971D01*
X57071Y-38000D01*
X57071Y-38085D01*
X57057Y-38114D01*
X57043Y-38128D01*
X56800Y-37828D02*
X56786Y-37814D01*
X56771Y-37785D01*
X56771Y-37714D01*
X56786Y-37685D01*
X56800Y-37671D01*
X56829Y-37656D01*
X56857Y-37656D01*
X56900Y-37671D01*
X57071Y-37842D01*
X57071Y-37656D01*
X57071Y-37356D02*
X56929Y-37456D01*
X57071Y-37528D02*
X56771Y-37528D01*
X56771Y-37413D01*
X56786Y-37385D01*
X56800Y-37370D01*
X56829Y-37356D01*
X56871Y-37356D01*
X56900Y-37370D01*
X56914Y-37385D01*
X56929Y-37413D01*
X56929Y-37528D01*
X57071Y-37085D02*
X57071Y-37228D01*
X56771Y-37228D01*
X57809Y-34501D02*
X57690Y-34501D01*
X57690Y-34251D01*
X58022Y-34501D02*
X57880Y-34501D01*
X57951Y-34501D02*
X57951Y-34251D01*
X57927Y-34287D01*
X57903Y-34311D01*
X57880Y-34323D01*
G54D18*
X54185Y-38931D02*
X54125Y-38836D01*
X54082Y-38931D02*
X54082Y-38731D01*
X54150Y-38731D01*
X54168Y-38740D01*
X54176Y-38750D01*
X54185Y-38769D01*
X54185Y-38798D01*
X54176Y-38817D01*
X54168Y-38826D01*
X54150Y-38836D01*
X54082Y-38836D01*
X54356Y-38931D02*
X54253Y-38931D01*
X54305Y-38931D02*
X54305Y-38731D01*
X54288Y-38760D01*
X54270Y-38779D01*
X54253Y-38788D01*
X54467Y-38731D02*
X54484Y-38731D01*
X54501Y-38740D01*
X54510Y-38750D01*
X54519Y-38769D01*
X54527Y-38807D01*
X54527Y-38855D01*
X54519Y-38893D01*
X54510Y-38912D01*
X54501Y-38921D01*
X54484Y-38931D01*
X54467Y-38931D01*
X54450Y-38921D01*
X54441Y-38912D01*
X54433Y-38893D01*
X54424Y-38855D01*
X54424Y-38807D01*
X54433Y-38769D01*
X54441Y-38750D01*
X54450Y-38740D01*
X54467Y-38731D01*
X52771Y-41631D02*
X52711Y-41536D01*
X52668Y-41631D02*
X52668Y-41431D01*
X52736Y-41431D01*
X52754Y-41440D01*
X52762Y-41450D01*
X52771Y-41469D01*
X52771Y-41498D01*
X52762Y-41517D01*
X52754Y-41526D01*
X52736Y-41536D01*
X52668Y-41536D01*
X52942Y-41631D02*
X52839Y-41631D01*
X52891Y-41631D02*
X52891Y-41431D01*
X52874Y-41460D01*
X52856Y-41479D01*
X52839Y-41488D01*
X54671Y-56062D02*
X54662Y-56071D01*
X54636Y-56081D01*
X54619Y-56081D01*
X54594Y-56071D01*
X54576Y-56052D01*
X54568Y-56033D01*
X54559Y-55995D01*
X54559Y-55967D01*
X54568Y-55929D01*
X54576Y-55910D01*
X54594Y-55890D01*
X54619Y-55881D01*
X54636Y-55881D01*
X54662Y-55890D01*
X54671Y-55900D01*
X54842Y-56081D02*
X54739Y-56081D01*
X54791Y-56081D02*
X54791Y-55881D01*
X54774Y-55910D01*
X54756Y-55929D01*
X54739Y-55938D01*
X55121Y-35581D02*
X55061Y-35486D01*
X55018Y-35581D02*
X55018Y-35381D01*
X55086Y-35381D01*
X55104Y-35390D01*
X55112Y-35400D01*
X55121Y-35419D01*
X55121Y-35448D01*
X55112Y-35467D01*
X55104Y-35476D01*
X55086Y-35486D01*
X55018Y-35486D01*
X55224Y-35467D02*
X55206Y-35457D01*
X55198Y-35448D01*
X55189Y-35429D01*
X55189Y-35419D01*
X55198Y-35400D01*
X55206Y-35390D01*
X55224Y-35381D01*
X55258Y-35381D01*
X55275Y-35390D01*
X55284Y-35400D01*
X55292Y-35419D01*
X55292Y-35429D01*
X55284Y-35448D01*
X55275Y-35457D01*
X55258Y-35467D01*
X55224Y-35467D01*
X55206Y-35476D01*
X55198Y-35486D01*
X55189Y-35505D01*
X55189Y-35543D01*
X55198Y-35562D01*
X55206Y-35571D01*
X55224Y-35581D01*
X55258Y-35581D01*
X55275Y-35571D01*
X55284Y-35562D01*
X55292Y-35543D01*
X55292Y-35505D01*
X55284Y-35486D01*
X55275Y-35476D01*
X55258Y-35467D01*
X54521Y-33631D02*
X54461Y-33536D01*
X54418Y-33631D02*
X54418Y-33431D01*
X54486Y-33431D01*
X54504Y-33440D01*
X54512Y-33450D01*
X54521Y-33469D01*
X54521Y-33498D01*
X54512Y-33517D01*
X54504Y-33526D01*
X54486Y-33536D01*
X54418Y-33536D01*
X54606Y-33631D02*
X54641Y-33631D01*
X54658Y-33621D01*
X54666Y-33612D01*
X54684Y-33583D01*
X54692Y-33545D01*
X54692Y-33469D01*
X54684Y-33450D01*
X54675Y-33440D01*
X54658Y-33431D01*
X54624Y-33431D01*
X54606Y-33440D01*
X54598Y-33450D01*
X54589Y-33469D01*
X54589Y-33517D01*
X54598Y-33536D01*
X54606Y-33545D01*
X54624Y-33555D01*
X54658Y-33555D01*
X54675Y-33545D01*
X54684Y-33536D01*
X54692Y-33517D01*
X54185Y-38181D02*
X54125Y-38086D01*
X54082Y-38181D02*
X54082Y-37981D01*
X54150Y-37981D01*
X54168Y-37990D01*
X54176Y-38000D01*
X54185Y-38019D01*
X54185Y-38048D01*
X54176Y-38067D01*
X54168Y-38076D01*
X54150Y-38086D01*
X54082Y-38086D01*
X54356Y-38181D02*
X54253Y-38181D01*
X54305Y-38181D02*
X54305Y-37981D01*
X54288Y-38010D01*
X54270Y-38029D01*
X54253Y-38038D01*
X54527Y-38181D02*
X54424Y-38181D01*
X54476Y-38181D02*
X54476Y-37981D01*
X54459Y-38010D01*
X54441Y-38029D01*
X54424Y-38038D01*
X51368Y-38181D02*
X51368Y-37981D01*
X51411Y-37981D01*
X51436Y-37990D01*
X51454Y-38010D01*
X51462Y-38029D01*
X51471Y-38067D01*
X51471Y-38095D01*
X51462Y-38133D01*
X51454Y-38152D01*
X51436Y-38171D01*
X51411Y-38181D01*
X51368Y-38181D01*
X51531Y-37981D02*
X51651Y-37981D01*
X51574Y-38181D01*
X61571Y-50062D02*
X61562Y-50071D01*
X61536Y-50081D01*
X61519Y-50081D01*
X61494Y-50071D01*
X61476Y-50052D01*
X61468Y-50033D01*
X61459Y-49995D01*
X61459Y-49967D01*
X61468Y-49929D01*
X61476Y-49910D01*
X61494Y-49890D01*
X61519Y-49881D01*
X61536Y-49881D01*
X61562Y-49890D01*
X61571Y-49900D01*
X61639Y-49900D02*
X61648Y-49890D01*
X61665Y-49881D01*
X61708Y-49881D01*
X61725Y-49890D01*
X61734Y-49900D01*
X61742Y-49919D01*
X61742Y-49938D01*
X61734Y-49967D01*
X61631Y-50081D01*
X61742Y-50081D01*
X61112Y-48329D02*
X61121Y-48338D01*
X61131Y-48364D01*
X61131Y-48381D01*
X61121Y-48406D01*
X61102Y-48424D01*
X61083Y-48432D01*
X61045Y-48441D01*
X61017Y-48441D01*
X60979Y-48432D01*
X60960Y-48424D01*
X60940Y-48406D01*
X60931Y-48381D01*
X60931Y-48364D01*
X60940Y-48338D01*
X60950Y-48329D01*
X60931Y-48269D02*
X60931Y-48158D01*
X61007Y-48218D01*
X61007Y-48192D01*
X61017Y-48175D01*
X61026Y-48166D01*
X61045Y-48158D01*
X61093Y-48158D01*
X61112Y-48166D01*
X61121Y-48175D01*
X61131Y-48192D01*
X61131Y-48244D01*
X61121Y-48261D01*
X61112Y-48269D01*
X51112Y-49829D02*
X51121Y-49838D01*
X51131Y-49864D01*
X51131Y-49881D01*
X51121Y-49906D01*
X51102Y-49924D01*
X51083Y-49932D01*
X51045Y-49941D01*
X51017Y-49941D01*
X50979Y-49932D01*
X50960Y-49924D01*
X50940Y-49906D01*
X50931Y-49881D01*
X50931Y-49864D01*
X50940Y-49838D01*
X50950Y-49829D01*
X50998Y-49675D02*
X51131Y-49675D01*
X50921Y-49718D02*
X51064Y-49761D01*
X51064Y-49649D01*
X51112Y-51229D02*
X51121Y-51238D01*
X51131Y-51264D01*
X51131Y-51281D01*
X51121Y-51306D01*
X51102Y-51324D01*
X51083Y-51332D01*
X51045Y-51341D01*
X51017Y-51341D01*
X50979Y-51332D01*
X50960Y-51324D01*
X50940Y-51306D01*
X50931Y-51281D01*
X50931Y-51264D01*
X50940Y-51238D01*
X50950Y-51229D01*
X50931Y-51066D02*
X50931Y-51152D01*
X51026Y-51161D01*
X51017Y-51152D01*
X51007Y-51135D01*
X51007Y-51092D01*
X51017Y-51075D01*
X51026Y-51066D01*
X51045Y-51058D01*
X51093Y-51058D01*
X51112Y-51066D01*
X51121Y-51075D01*
X51131Y-51092D01*
X51131Y-51135D01*
X51121Y-51152D01*
X51112Y-51161D01*
X58762Y-37879D02*
X58771Y-37888D01*
X58781Y-37914D01*
X58781Y-37931D01*
X58771Y-37956D01*
X58752Y-37974D01*
X58733Y-37982D01*
X58695Y-37991D01*
X58667Y-37991D01*
X58629Y-37982D01*
X58610Y-37974D01*
X58590Y-37956D01*
X58581Y-37931D01*
X58581Y-37914D01*
X58590Y-37888D01*
X58600Y-37879D01*
X58667Y-37776D02*
X58657Y-37794D01*
X58648Y-37802D01*
X58629Y-37811D01*
X58619Y-37811D01*
X58600Y-37802D01*
X58590Y-37794D01*
X58581Y-37776D01*
X58581Y-37742D01*
X58590Y-37725D01*
X58600Y-37716D01*
X58619Y-37708D01*
X58629Y-37708D01*
X58648Y-37716D01*
X58657Y-37725D01*
X58667Y-37742D01*
X58667Y-37776D01*
X58676Y-37794D01*
X58686Y-37802D01*
X58705Y-37811D01*
X58743Y-37811D01*
X58762Y-37802D01*
X58771Y-37794D01*
X58781Y-37776D01*
X58781Y-37742D01*
X58771Y-37725D01*
X58762Y-37716D01*
X58743Y-37708D01*
X58705Y-37708D01*
X58686Y-37716D01*
X58676Y-37725D01*
X58667Y-37742D01*
X60012Y-38629D02*
X60021Y-38638D01*
X60031Y-38664D01*
X60031Y-38681D01*
X60021Y-38706D01*
X60002Y-38724D01*
X59983Y-38732D01*
X59945Y-38741D01*
X59917Y-38741D01*
X59879Y-38732D01*
X59860Y-38724D01*
X59840Y-38706D01*
X59831Y-38681D01*
X59831Y-38664D01*
X59840Y-38638D01*
X59850Y-38629D01*
X60031Y-38544D02*
X60031Y-38509D01*
X60021Y-38492D01*
X60012Y-38484D01*
X59983Y-38466D01*
X59945Y-38458D01*
X59869Y-38458D01*
X59850Y-38466D01*
X59840Y-38475D01*
X59831Y-38492D01*
X59831Y-38526D01*
X59840Y-38544D01*
X59850Y-38552D01*
X59869Y-38561D01*
X59917Y-38561D01*
X59936Y-38552D01*
X59945Y-38544D01*
X59955Y-38526D01*
X59955Y-38492D01*
X59945Y-38475D01*
X59936Y-38466D01*
X59917Y-38458D01*
X53835Y-36412D02*
X53826Y-36421D01*
X53800Y-36431D01*
X53783Y-36431D01*
X53758Y-36421D01*
X53740Y-36402D01*
X53732Y-36383D01*
X53723Y-36345D01*
X53723Y-36317D01*
X53732Y-36279D01*
X53740Y-36260D01*
X53758Y-36240D01*
X53783Y-36231D01*
X53800Y-36231D01*
X53826Y-36240D01*
X53835Y-36250D01*
X54006Y-36431D02*
X53903Y-36431D01*
X53955Y-36431D02*
X53955Y-36231D01*
X53938Y-36260D01*
X53920Y-36279D01*
X53903Y-36288D01*
X54117Y-36231D02*
X54134Y-36231D01*
X54151Y-36240D01*
X54160Y-36250D01*
X54169Y-36269D01*
X54177Y-36307D01*
X54177Y-36355D01*
X54169Y-36393D01*
X54160Y-36412D01*
X54151Y-36421D01*
X54134Y-36431D01*
X54117Y-36431D01*
X54100Y-36421D01*
X54091Y-36412D01*
X54083Y-36393D01*
X54074Y-36355D01*
X54074Y-36307D01*
X54083Y-36269D01*
X54091Y-36250D01*
X54100Y-36240D01*
X54117Y-36231D01*
X51368Y-38881D02*
X51368Y-38681D01*
X51411Y-38681D01*
X51436Y-38690D01*
X51454Y-38710D01*
X51462Y-38729D01*
X51471Y-38767D01*
X51471Y-38795D01*
X51462Y-38833D01*
X51454Y-38852D01*
X51436Y-38871D01*
X51411Y-38881D01*
X51368Y-38881D01*
X51625Y-38681D02*
X51591Y-38681D01*
X51574Y-38690D01*
X51565Y-38700D01*
X51548Y-38729D01*
X51539Y-38767D01*
X51539Y-38843D01*
X51548Y-38862D01*
X51556Y-38871D01*
X51574Y-38881D01*
X51608Y-38881D01*
X51625Y-38871D01*
X51634Y-38862D01*
X51642Y-38843D01*
X51642Y-38795D01*
X51634Y-38776D01*
X51625Y-38767D01*
X51608Y-38757D01*
X51574Y-38757D01*
X51556Y-38767D01*
X51548Y-38776D01*
X51539Y-38795D01*
G54D17*
X59775Y-57466D02*
X59094Y-57466D01*
X59094Y-57303D01*
X59127Y-57262D01*
X59159Y-57242D01*
X59224Y-57222D01*
X59321Y-57222D01*
X59386Y-57242D01*
X59418Y-57262D01*
X59451Y-57303D01*
X59451Y-57466D01*
X59775Y-56814D02*
X59775Y-57058D01*
X59775Y-56936D02*
X59094Y-56936D01*
X59191Y-56977D01*
X59256Y-57018D01*
X59289Y-57058D01*
X59775Y-41216D02*
X59094Y-41216D01*
X59094Y-41053D01*
X59127Y-41012D01*
X59159Y-40992D01*
X59224Y-40972D01*
X59321Y-40972D01*
X59386Y-40992D01*
X59418Y-41012D01*
X59451Y-41053D01*
X59451Y-41216D01*
X59159Y-40808D02*
X59127Y-40788D01*
X59094Y-40747D01*
X59094Y-40645D01*
X59127Y-40605D01*
X59159Y-40584D01*
X59224Y-40564D01*
X59289Y-40564D01*
X59386Y-40584D01*
X59775Y-40829D01*
X59775Y-40564D01*
X60775Y-57466D02*
X60094Y-57466D01*
X60094Y-57303D01*
X60127Y-57262D01*
X60159Y-57242D01*
X60224Y-57222D01*
X60321Y-57222D01*
X60386Y-57242D01*
X60418Y-57262D01*
X60451Y-57303D01*
X60451Y-57466D01*
X60094Y-57079D02*
X60094Y-56814D01*
X60354Y-56957D01*
X60354Y-56895D01*
X60386Y-56855D01*
X60418Y-56834D01*
X60483Y-56814D01*
X60645Y-56814D01*
X60710Y-56834D01*
X60743Y-56855D01*
X60775Y-56895D01*
X60775Y-57018D01*
X60743Y-57058D01*
X60710Y-57079D01*
X61775Y-57466D02*
X61094Y-57466D01*
X61094Y-57303D01*
X61127Y-57262D01*
X61159Y-57242D01*
X61224Y-57222D01*
X61321Y-57222D01*
X61386Y-57242D01*
X61418Y-57262D01*
X61451Y-57303D01*
X61451Y-57466D01*
X61321Y-56855D02*
X61775Y-56855D01*
X61062Y-56957D02*
X61548Y-57058D01*
X61548Y-56794D01*
X60775Y-41216D02*
X60094Y-41216D01*
X60094Y-41053D01*
X60127Y-41012D01*
X60159Y-40992D01*
X60224Y-40972D01*
X60321Y-40972D01*
X60386Y-40992D01*
X60418Y-41012D01*
X60451Y-41053D01*
X60451Y-41216D01*
X60094Y-40605D02*
X60094Y-40686D01*
X60127Y-40727D01*
X60159Y-40747D01*
X60256Y-40788D01*
X60386Y-40808D01*
X60645Y-40808D01*
X60710Y-40788D01*
X60743Y-40768D01*
X60775Y-40727D01*
X60775Y-40645D01*
X60743Y-40605D01*
X60710Y-40584D01*
X60645Y-40564D01*
X60483Y-40564D01*
X60418Y-40584D01*
X60386Y-40605D01*
X60354Y-40645D01*
X60354Y-40727D01*
X60386Y-40768D01*
X60418Y-40788D01*
X60483Y-40808D01*
X61775Y-41216D02*
X61094Y-41216D01*
X61094Y-41053D01*
X61127Y-41012D01*
X61159Y-40992D01*
X61224Y-40972D01*
X61321Y-40972D01*
X61386Y-40992D01*
X61418Y-41012D01*
X61451Y-41053D01*
X61451Y-41216D01*
X61386Y-40727D02*
X61354Y-40768D01*
X61321Y-40788D01*
X61256Y-40808D01*
X61224Y-40808D01*
X61159Y-40788D01*
X61127Y-40768D01*
X61094Y-40727D01*
X61094Y-40645D01*
X61127Y-40605D01*
X61159Y-40584D01*
X61224Y-40564D01*
X61256Y-40564D01*
X61321Y-40584D01*
X61354Y-40605D01*
X61386Y-40645D01*
X61386Y-40727D01*
X61418Y-40768D01*
X61451Y-40788D01*
X61516Y-40808D01*
X61645Y-40808D01*
X61710Y-40788D01*
X61743Y-40768D01*
X61775Y-40727D01*
X61775Y-40645D01*
X61743Y-40605D01*
X61710Y-40584D01*
X61645Y-40564D01*
X61516Y-40564D01*
X61451Y-40584D01*
X61418Y-40605D01*
X61386Y-40645D01*
X53825Y-48366D02*
X53144Y-48366D01*
X53144Y-48203D01*
X53177Y-48162D01*
X53209Y-48142D01*
X53274Y-48122D01*
X53371Y-48122D01*
X53436Y-48142D01*
X53468Y-48162D01*
X53501Y-48203D01*
X53501Y-48366D01*
X53144Y-47734D02*
X53144Y-47938D01*
X53468Y-47958D01*
X53436Y-47938D01*
X53404Y-47897D01*
X53404Y-47795D01*
X53436Y-47755D01*
X53468Y-47734D01*
X53533Y-47714D01*
X53695Y-47714D01*
X53760Y-47734D01*
X53793Y-47755D01*
X53825Y-47795D01*
X53825Y-47897D01*
X53793Y-47938D01*
X53760Y-47958D01*
X52775Y-48366D02*
X52094Y-48366D01*
X52094Y-48203D01*
X52127Y-48162D01*
X52159Y-48142D01*
X52224Y-48122D01*
X52321Y-48122D01*
X52386Y-48142D01*
X52418Y-48162D01*
X52451Y-48203D01*
X52451Y-48366D01*
X52094Y-47979D02*
X52094Y-47694D01*
X52775Y-47877D01*
X51775Y-48366D02*
X51094Y-48366D01*
X51094Y-48203D01*
X51127Y-48162D01*
X51159Y-48142D01*
X51224Y-48122D01*
X51321Y-48122D01*
X51386Y-48142D01*
X51418Y-48162D01*
X51451Y-48203D01*
X51451Y-48366D01*
X51775Y-47918D02*
X51775Y-47836D01*
X51743Y-47795D01*
X51710Y-47775D01*
X51613Y-47734D01*
X51483Y-47714D01*
X51224Y-47714D01*
X51159Y-47734D01*
X51127Y-47755D01*
X51094Y-47795D01*
X51094Y-47877D01*
X51127Y-47918D01*
X51159Y-47938D01*
X51224Y-47958D01*
X51386Y-47958D01*
X51451Y-47938D01*
X51483Y-47918D01*
X51516Y-47877D01*
X51516Y-47795D01*
X51483Y-47755D01*
X51451Y-47734D01*
X51386Y-47714D01*
G54D19*
X51835Y-52813D02*
X51130Y-52813D01*
X51835Y-52571D02*
X51432Y-52752D01*
X51130Y-52571D02*
X51533Y-52813D01*
X51130Y-52429D02*
X51130Y-52167D01*
X51398Y-52308D01*
X51398Y-52248D01*
X51432Y-52207D01*
X51466Y-52187D01*
X51533Y-52167D01*
X51701Y-52167D01*
X51768Y-52187D01*
X51801Y-52207D01*
X51835Y-52248D01*
X51835Y-52369D01*
X51801Y-52409D01*
X51768Y-52429D01*
X52785Y-52813D02*
X52080Y-52813D01*
X52785Y-52571D02*
X52382Y-52752D01*
X52080Y-52571D02*
X52483Y-52813D01*
X52147Y-52409D02*
X52113Y-52389D01*
X52080Y-52349D01*
X52080Y-52248D01*
X52113Y-52207D01*
X52147Y-52187D01*
X52214Y-52167D01*
X52281Y-52167D01*
X52382Y-52187D01*
X52785Y-52429D01*
X52785Y-52167D01*
X53735Y-52763D02*
X53030Y-52763D01*
X53735Y-52521D02*
X53332Y-52702D01*
X53030Y-52521D02*
X53433Y-52763D01*
X53735Y-52117D02*
X53735Y-52359D01*
X53735Y-52238D02*
X53030Y-52238D01*
X53131Y-52278D01*
X53198Y-52319D01*
X53231Y-52359D01*
G54D17*
X60843Y-34644D02*
X60843Y-35131D01*
X60823Y-35228D01*
X60782Y-35293D01*
X60721Y-35325D01*
X60680Y-35325D01*
X61047Y-35325D02*
X61047Y-34644D01*
X61210Y-34644D01*
X61251Y-34677D01*
X61271Y-34709D01*
X61291Y-34774D01*
X61291Y-34871D01*
X61271Y-34936D01*
X61251Y-34968D01*
X61210Y-35001D01*
X61047Y-35001D01*
X61434Y-34644D02*
X61699Y-34644D01*
X61556Y-34904D01*
X61618Y-34904D01*
X61658Y-34936D01*
X61679Y-34968D01*
X61699Y-35033D01*
X61699Y-35195D01*
X61679Y-35260D01*
X61658Y-35293D01*
X61618Y-35325D01*
X61495Y-35325D01*
X61455Y-35293D01*
X61434Y-35260D01*
X60343Y-48894D02*
X60343Y-49381D01*
X60323Y-49478D01*
X60282Y-49543D01*
X60221Y-49575D01*
X60180Y-49575D01*
X60547Y-49575D02*
X60547Y-48894D01*
X60710Y-48894D01*
X60751Y-48927D01*
X60771Y-48959D01*
X60791Y-49024D01*
X60791Y-49121D01*
X60771Y-49186D01*
X60751Y-49218D01*
X60710Y-49251D01*
X60547Y-49251D01*
X61199Y-49575D02*
X60955Y-49575D01*
X61077Y-49575D02*
X61077Y-48894D01*
X61036Y-48991D01*
X60995Y-49056D01*
X60955Y-49089D01*
G54D20*
X56743Y-48939D02*
X56143Y-48939D01*
X56686Y-48468D02*
X56714Y-48489D01*
X56743Y-48553D01*
X56743Y-48596D01*
X56714Y-48661D01*
X56657Y-48703D01*
X56600Y-48725D01*
X56486Y-48746D01*
X56400Y-48746D01*
X56286Y-48725D01*
X56229Y-48703D01*
X56171Y-48661D01*
X56143Y-48596D01*
X56143Y-48553D01*
X56171Y-48489D01*
X56200Y-48468D01*
X56743Y-48039D02*
X56743Y-48296D01*
X56743Y-48168D02*
X56143Y-48168D01*
X56229Y-48211D01*
X56286Y-48253D01*
X56314Y-48296D01*
G54D18*
X58212Y-60765D02*
X58221Y-60774D01*
X58231Y-60800D01*
X58231Y-60817D01*
X58221Y-60842D01*
X58202Y-60860D01*
X58183Y-60868D01*
X58145Y-60877D01*
X58117Y-60877D01*
X58079Y-60868D01*
X58060Y-60860D01*
X58040Y-60842D01*
X58031Y-60817D01*
X58031Y-60800D01*
X58040Y-60774D01*
X58050Y-60765D01*
X58231Y-60594D02*
X58231Y-60697D01*
X58231Y-60645D02*
X58031Y-60645D01*
X58060Y-60662D01*
X58079Y-60680D01*
X58088Y-60697D01*
X58050Y-60526D02*
X58040Y-60517D01*
X58031Y-60500D01*
X58031Y-60457D01*
X58040Y-60440D01*
X58050Y-60431D01*
X58069Y-60423D01*
X58088Y-60423D01*
X58117Y-60431D01*
X58231Y-60534D01*
X58231Y-60423D01*
X51471Y-39681D02*
X51411Y-39586D01*
X51368Y-39681D02*
X51368Y-39481D01*
X51436Y-39481D01*
X51454Y-39490D01*
X51462Y-39500D01*
X51471Y-39519D01*
X51471Y-39548D01*
X51462Y-39567D01*
X51454Y-39576D01*
X51436Y-39586D01*
X51368Y-39586D01*
X51539Y-39500D02*
X51548Y-39490D01*
X51565Y-39481D01*
X51608Y-39481D01*
X51625Y-39490D01*
X51634Y-39500D01*
X51642Y-39519D01*
X51642Y-39538D01*
X51634Y-39567D01*
X51531Y-39681D01*
X51642Y-39681D01*
X54118Y-39681D02*
X54118Y-39481D01*
X54161Y-39481D01*
X54186Y-39490D01*
X54204Y-39510D01*
X54212Y-39529D01*
X54221Y-39567D01*
X54221Y-39595D01*
X54212Y-39633D01*
X54204Y-39652D01*
X54186Y-39671D01*
X54161Y-39681D01*
X54118Y-39681D01*
X54392Y-39681D02*
X54289Y-39681D01*
X54341Y-39681D02*
X54341Y-39481D01*
X54324Y-39510D01*
X54306Y-39529D01*
X54289Y-39538D01*
G54D11*
X55772Y-64743D02*
X55772Y-64143D01*
X56000Y-64143D01*
X56058Y-64171D01*
X56086Y-64200D01*
X56115Y-64257D01*
X56115Y-64343D01*
X56086Y-64400D01*
X56058Y-64429D01*
X56000Y-64457D01*
X55772Y-64457D01*
X56686Y-64743D02*
X56343Y-64743D01*
X56515Y-64743D02*
X56515Y-64143D01*
X56458Y-64229D01*
X56400Y-64286D01*
X56343Y-64314D01*
X57057Y-64143D02*
X57114Y-64143D01*
X57171Y-64171D01*
X57200Y-64200D01*
X57229Y-64257D01*
X57257Y-64371D01*
X57257Y-64514D01*
X57229Y-64629D01*
X57200Y-64686D01*
X57171Y-64714D01*
X57114Y-64743D01*
X57057Y-64743D01*
X57000Y-64714D01*
X56971Y-64686D01*
X56943Y-64629D01*
X56914Y-64514D01*
X56914Y-64371D01*
X56943Y-64257D01*
X56971Y-64200D01*
X57000Y-64171D01*
X57057Y-64143D01*
X55229Y-68686D02*
X55200Y-68714D01*
X55114Y-68743D01*
X55057Y-68743D01*
X54972Y-68714D01*
X54914Y-68657D01*
X54886Y-68600D01*
X54857Y-68486D01*
X54857Y-68400D01*
X54886Y-68286D01*
X54914Y-68229D01*
X54972Y-68171D01*
X55057Y-68143D01*
X55114Y-68143D01*
X55200Y-68171D01*
X55229Y-68200D01*
X55600Y-68143D02*
X55714Y-68143D01*
X55772Y-68171D01*
X55829Y-68229D01*
X55857Y-68343D01*
X55857Y-68543D01*
X55829Y-68657D01*
X55772Y-68714D01*
X55714Y-68743D01*
X55600Y-68743D01*
X55543Y-68714D01*
X55486Y-68657D01*
X55457Y-68543D01*
X55457Y-68343D01*
X55486Y-68229D01*
X55543Y-68171D01*
X55600Y-68143D01*
X56115Y-68743D02*
X56115Y-68143D01*
X56458Y-68743D01*
X56458Y-68143D01*
X56744Y-68743D02*
X56744Y-68143D01*
X57087Y-68743D01*
X57087Y-68143D01*
X57230Y-68800D02*
X57687Y-68800D01*
X57801Y-68200D02*
X57830Y-68171D01*
X57887Y-68143D01*
X58030Y-68143D01*
X58087Y-68171D01*
X58116Y-68200D01*
X58144Y-68257D01*
X58144Y-68314D01*
X58116Y-68400D01*
X57773Y-68743D01*
X58144Y-68743D01*
G54D21*
X55467Y-64160D02*
X55458Y-64170D01*
X55430Y-64179D01*
X55411Y-64179D01*
X55383Y-64170D01*
X55364Y-64151D01*
X55355Y-64132D01*
X55346Y-64095D01*
X55346Y-64067D01*
X55355Y-64029D01*
X55364Y-64010D01*
X55383Y-63992D01*
X55411Y-63982D01*
X55430Y-63982D01*
X55458Y-63992D01*
X55467Y-64001D01*
X55636Y-63982D02*
X55599Y-63982D01*
X55580Y-63992D01*
X55571Y-64001D01*
X55552Y-64029D01*
X55543Y-64067D01*
X55543Y-64142D01*
X55552Y-64160D01*
X55561Y-64170D01*
X55580Y-64179D01*
X55618Y-64179D01*
X55636Y-64170D01*
X55646Y-64160D01*
X55655Y-64142D01*
X55655Y-64095D01*
X55646Y-64076D01*
X55636Y-64067D01*
X55618Y-64057D01*
X55580Y-64057D01*
X55561Y-64067D01*
X55552Y-64076D01*
X55543Y-64095D01*
X55373Y-60060D02*
X55364Y-60070D01*
X55336Y-60079D01*
X55317Y-60079D01*
X55289Y-60070D01*
X55270Y-60051D01*
X55261Y-60032D01*
X55252Y-59995D01*
X55252Y-59967D01*
X55261Y-59929D01*
X55270Y-59910D01*
X55289Y-59892D01*
X55317Y-59882D01*
X55336Y-59882D01*
X55364Y-59892D01*
X55373Y-59901D01*
X55561Y-60079D02*
X55449Y-60079D01*
X55505Y-60079D02*
X55505Y-59882D01*
X55486Y-59910D01*
X55467Y-59929D01*
X55449Y-59939D01*
X55749Y-60079D02*
X55637Y-60079D01*
X55693Y-60079D02*
X55693Y-59882D01*
X55674Y-59910D01*
X55655Y-59929D01*
X55637Y-59939D01*
G54D22*
X57713Y-62466D02*
X57556Y-62466D01*
X57556Y-62428D01*
X57564Y-62406D01*
X57578Y-62391D01*
X57593Y-62383D01*
X57623Y-62376D01*
X57646Y-62376D01*
X57676Y-62383D01*
X57691Y-62391D01*
X57706Y-62406D01*
X57713Y-62428D01*
X57713Y-62466D01*
X57571Y-62316D02*
X57564Y-62309D01*
X57556Y-62294D01*
X57556Y-62256D01*
X57564Y-62241D01*
X57571Y-62234D01*
X57586Y-62226D01*
X57601Y-62226D01*
X57623Y-62234D01*
X57713Y-62324D01*
X57713Y-62226D01*
G54D21*
X61467Y-38210D02*
X61458Y-38220D01*
X61430Y-38229D01*
X61411Y-38229D01*
X61383Y-38220D01*
X61364Y-38201D01*
X61355Y-38182D01*
X61346Y-38145D01*
X61346Y-38117D01*
X61355Y-38079D01*
X61364Y-38060D01*
X61383Y-38042D01*
X61411Y-38032D01*
X61430Y-38032D01*
X61458Y-38042D01*
X61467Y-38051D01*
X61533Y-38032D02*
X61664Y-38032D01*
X61580Y-38229D01*
G54D23*
X56370Y-31366D02*
X56370Y-31646D01*
X56351Y-31702D01*
X56314Y-31740D01*
X56258Y-31759D01*
X56220Y-31759D01*
X56762Y-31759D02*
X56538Y-31759D01*
X56650Y-31759D02*
X56650Y-31366D01*
X56613Y-31422D01*
X56575Y-31459D01*
X56538Y-31478D01*
G54D24*
X56005Y-30816D02*
X56005Y-31134D01*
X56023Y-31171D01*
X56042Y-31190D01*
X56079Y-31209D01*
X56154Y-31209D01*
X56192Y-31190D01*
X56210Y-31171D01*
X56229Y-31134D01*
X56229Y-30816D01*
X56398Y-31190D02*
X56454Y-31209D01*
X56548Y-31209D01*
X56585Y-31190D01*
X56604Y-31171D01*
X56622Y-31134D01*
X56622Y-31096D01*
X56604Y-31059D01*
X56585Y-31040D01*
X56548Y-31021D01*
X56473Y-31003D01*
X56435Y-30984D01*
X56417Y-30965D01*
X56398Y-30928D01*
X56398Y-30890D01*
X56417Y-30853D01*
X56435Y-30834D01*
X56473Y-30816D01*
X56566Y-30816D01*
X56622Y-30834D01*
X56922Y-31003D02*
X56978Y-31021D01*
X56996Y-31040D01*
X57015Y-31078D01*
X57015Y-31134D01*
X56996Y-31171D01*
X56978Y-31190D01*
X56940Y-31209D01*
X56791Y-31209D01*
X56791Y-30816D01*
X56922Y-30816D01*
X56959Y-30834D01*
X56978Y-30853D01*
X56996Y-30890D01*
X56996Y-30928D01*
X56978Y-30965D01*
X56959Y-30984D01*
X56922Y-31003D01*
X56791Y-31003D01*
G54D15*
X56014Y-59662D02*
X56014Y-59262D01*
X56167Y-59262D01*
X56205Y-59281D01*
X56224Y-59300D01*
X56243Y-59338D01*
X56243Y-59395D01*
X56224Y-59433D01*
X56205Y-59452D01*
X56167Y-59471D01*
X56014Y-59471D01*
X56624Y-59662D02*
X56395Y-59662D01*
X56509Y-59662D02*
X56509Y-59262D01*
X56471Y-59319D01*
X56433Y-59357D01*
X56395Y-59376D01*
X57005Y-59662D02*
X56776Y-59662D01*
X56890Y-59662D02*
X56890Y-59262D01*
X56852Y-59319D01*
X56814Y-59357D01*
X56776Y-59376D01*
M02*
