G04 (created by PCBNEW (2012-12-10 BZR 3844)-stable) date Thu 10 Jan 2013 10:49:57 AM CET*
%MOIN*%
G04 Gerber Fmt 3.4, Leading zero omitted, Abs format*
%FSLAX34Y34*%
G01*
G70*
G90*
G04 APERTURE LIST*
%ADD10C,0.006*%
%ADD11C,0.012*%
%ADD12C,0.0099*%
%ADD13C,0.015*%
%ADD14C,0.005*%
%ADD15C,0.008*%
%ADD16C,0.0049*%
%ADD17C,0.0079*%
%ADD18C,0.0045*%
%ADD19C,0.0113*%
%ADD20C,0.0039*%
%ADD21C,0.0077*%
%ADD22C,0.0078*%
%ADD23C,0.0047*%
%ADD24C,0.01*%
G04 APERTURE END LIST*
G54D10*
G54D11*
X922Y-4150D02*
X951Y-4112D01*
X1008Y-4074D01*
X1151Y-4074D01*
X1208Y-4112D01*
X1237Y-4150D01*
X1265Y-4226D01*
X1265Y-4302D01*
X1237Y-4417D01*
X894Y-4874D01*
X1265Y-4874D01*
X1636Y-4074D02*
X1693Y-4074D01*
X1750Y-4112D01*
X1779Y-4150D01*
X1808Y-4226D01*
X1836Y-4379D01*
X1836Y-4569D01*
X1808Y-4721D01*
X1779Y-4798D01*
X1750Y-4836D01*
X1693Y-4874D01*
X1636Y-4874D01*
X1579Y-4836D01*
X1550Y-4798D01*
X1522Y-4721D01*
X1493Y-4569D01*
X1493Y-4379D01*
X1522Y-4226D01*
X1550Y-4150D01*
X1579Y-4112D01*
X1636Y-4074D01*
X2407Y-4874D02*
X2064Y-4874D01*
X2236Y-4874D02*
X2236Y-4074D01*
X2179Y-4188D01*
X2121Y-4264D01*
X2064Y-4302D01*
X2635Y-4150D02*
X2664Y-4112D01*
X2721Y-4074D01*
X2864Y-4074D01*
X2921Y-4112D01*
X2950Y-4150D01*
X2978Y-4226D01*
X2978Y-4302D01*
X2950Y-4417D01*
X2607Y-4874D01*
X2978Y-4874D01*
G54D12*
X9761Y-31509D02*
X9789Y-31453D01*
X9789Y-31359D01*
X9761Y-31321D01*
X9732Y-31303D01*
X9676Y-31284D01*
X9620Y-31284D01*
X9564Y-31303D01*
X9535Y-31321D01*
X9507Y-31359D01*
X9479Y-31434D01*
X9451Y-31471D01*
X9423Y-31490D01*
X9367Y-31509D01*
X9310Y-31509D01*
X9254Y-31490D01*
X9226Y-31471D01*
X9198Y-31434D01*
X9198Y-31340D01*
X9226Y-31284D01*
X9761Y-30965D02*
X9789Y-31003D01*
X9789Y-31078D01*
X9761Y-31115D01*
X9704Y-31134D01*
X9479Y-31134D01*
X9423Y-31115D01*
X9395Y-31078D01*
X9395Y-31003D01*
X9423Y-30965D01*
X9479Y-30946D01*
X9535Y-30946D01*
X9592Y-31134D01*
X9789Y-30777D02*
X9198Y-30777D01*
X9423Y-30777D02*
X9395Y-30740D01*
X9395Y-30665D01*
X9423Y-30627D01*
X9451Y-30608D01*
X9507Y-30590D01*
X9676Y-30590D01*
X9732Y-30608D01*
X9761Y-30627D01*
X9789Y-30665D01*
X9789Y-30740D01*
X9761Y-30777D01*
X9789Y-30252D02*
X9479Y-30252D01*
X9423Y-30271D01*
X9395Y-30309D01*
X9395Y-30384D01*
X9423Y-30421D01*
X9761Y-30252D02*
X9789Y-30290D01*
X9789Y-30384D01*
X9761Y-30421D01*
X9704Y-30440D01*
X9648Y-30440D01*
X9592Y-30421D01*
X9564Y-30384D01*
X9564Y-30290D01*
X9535Y-30252D01*
X9761Y-30084D02*
X9789Y-30046D01*
X9789Y-29971D01*
X9761Y-29934D01*
X9704Y-29915D01*
X9676Y-29915D01*
X9620Y-29934D01*
X9592Y-29971D01*
X9592Y-30028D01*
X9564Y-30065D01*
X9507Y-30084D01*
X9479Y-30084D01*
X9423Y-30065D01*
X9395Y-30028D01*
X9395Y-29971D01*
X9423Y-29934D01*
X9395Y-29802D02*
X9395Y-29652D01*
X9198Y-29746D02*
X9704Y-29746D01*
X9761Y-29727D01*
X9789Y-29690D01*
X9789Y-29652D01*
X9789Y-29521D02*
X9395Y-29521D01*
X9198Y-29521D02*
X9226Y-29540D01*
X9254Y-29521D01*
X9226Y-29502D01*
X9198Y-29521D01*
X9254Y-29521D01*
X9789Y-29164D02*
X9479Y-29164D01*
X9423Y-29183D01*
X9395Y-29221D01*
X9395Y-29296D01*
X9423Y-29333D01*
X9761Y-29164D02*
X9789Y-29202D01*
X9789Y-29296D01*
X9761Y-29333D01*
X9704Y-29352D01*
X9648Y-29352D01*
X9592Y-29333D01*
X9564Y-29296D01*
X9564Y-29202D01*
X9535Y-29164D01*
X9395Y-28977D02*
X9789Y-28977D01*
X9451Y-28977D02*
X9423Y-28958D01*
X9395Y-28921D01*
X9395Y-28865D01*
X9423Y-28827D01*
X9479Y-28808D01*
X9789Y-28808D01*
X10687Y-31228D02*
X10715Y-31172D01*
X10715Y-31078D01*
X10687Y-31040D01*
X10658Y-31022D01*
X10602Y-31003D01*
X10546Y-31003D01*
X10490Y-31022D01*
X10461Y-31040D01*
X10433Y-31078D01*
X10405Y-31153D01*
X10377Y-31190D01*
X10349Y-31209D01*
X10293Y-31228D01*
X10236Y-31228D01*
X10180Y-31209D01*
X10152Y-31190D01*
X10124Y-31153D01*
X10124Y-31059D01*
X10152Y-31003D01*
X10687Y-30665D02*
X10715Y-30703D01*
X10715Y-30778D01*
X10687Y-30815D01*
X10658Y-30834D01*
X10602Y-30853D01*
X10433Y-30853D01*
X10377Y-30834D01*
X10349Y-30815D01*
X10321Y-30778D01*
X10321Y-30703D01*
X10349Y-30665D01*
X10715Y-30496D02*
X10124Y-30496D01*
X10715Y-30327D02*
X10405Y-30327D01*
X10349Y-30346D01*
X10321Y-30384D01*
X10321Y-30440D01*
X10349Y-30477D01*
X10377Y-30496D01*
X10321Y-29971D02*
X10715Y-29971D01*
X10321Y-30140D02*
X10630Y-30140D01*
X10687Y-30121D01*
X10715Y-30084D01*
X10715Y-30028D01*
X10687Y-29990D01*
X10658Y-29971D01*
X10715Y-29784D02*
X10321Y-29784D01*
X10377Y-29784D02*
X10349Y-29765D01*
X10321Y-29728D01*
X10321Y-29672D01*
X10349Y-29634D01*
X10405Y-29615D01*
X10715Y-29615D01*
X10405Y-29615D02*
X10349Y-29597D01*
X10321Y-29559D01*
X10321Y-29503D01*
X10349Y-29465D01*
X10405Y-29446D01*
X10715Y-29446D01*
X10715Y-29259D02*
X10124Y-29259D01*
X10349Y-29259D02*
X10321Y-29222D01*
X10321Y-29147D01*
X10349Y-29109D01*
X10377Y-29090D01*
X10433Y-29072D01*
X10602Y-29072D01*
X10658Y-29090D01*
X10687Y-29109D01*
X10715Y-29147D01*
X10715Y-29222D01*
X10687Y-29259D01*
X2198Y-34700D02*
X2789Y-34569D01*
X2198Y-34438D01*
X2761Y-34156D02*
X2789Y-34194D01*
X2789Y-34269D01*
X2761Y-34306D01*
X2704Y-34325D01*
X2479Y-34325D01*
X2423Y-34306D01*
X2395Y-34269D01*
X2395Y-34194D01*
X2423Y-34156D01*
X2479Y-34137D01*
X2535Y-34137D01*
X2592Y-34325D01*
X2789Y-33968D02*
X2395Y-33968D01*
X2507Y-33968D02*
X2451Y-33949D01*
X2423Y-33931D01*
X2395Y-33893D01*
X2395Y-33856D01*
X2761Y-33743D02*
X2789Y-33705D01*
X2789Y-33630D01*
X2761Y-33593D01*
X2704Y-33574D01*
X2676Y-33574D01*
X2620Y-33593D01*
X2592Y-33630D01*
X2592Y-33687D01*
X2564Y-33724D01*
X2507Y-33743D01*
X2479Y-33743D01*
X2423Y-33724D01*
X2395Y-33687D01*
X2395Y-33630D01*
X2423Y-33593D01*
X2789Y-33405D02*
X2395Y-33405D01*
X2198Y-33405D02*
X2226Y-33424D01*
X2254Y-33405D01*
X2226Y-33386D01*
X2198Y-33405D01*
X2254Y-33405D01*
X2789Y-33161D02*
X2761Y-33198D01*
X2732Y-33217D01*
X2676Y-33236D01*
X2507Y-33236D01*
X2451Y-33217D01*
X2423Y-33198D01*
X2395Y-33161D01*
X2395Y-33105D01*
X2423Y-33067D01*
X2451Y-33048D01*
X2507Y-33030D01*
X2676Y-33030D01*
X2732Y-33048D01*
X2761Y-33067D01*
X2789Y-33105D01*
X2789Y-33161D01*
X2395Y-32861D02*
X2789Y-32861D01*
X2451Y-32861D02*
X2423Y-32842D01*
X2395Y-32805D01*
X2395Y-32749D01*
X2423Y-32711D01*
X2479Y-32692D01*
X2789Y-32692D01*
X2789Y-31999D02*
X2789Y-32224D01*
X2789Y-32111D02*
X2198Y-32111D01*
X2282Y-32149D01*
X2338Y-32186D01*
X2367Y-32224D01*
X2732Y-31830D02*
X2761Y-31811D01*
X2789Y-31830D01*
X2761Y-31849D01*
X2732Y-31830D01*
X2789Y-31830D01*
X2789Y-31436D02*
X2789Y-31661D01*
X2789Y-31548D02*
X2198Y-31548D01*
X2282Y-31586D01*
X2338Y-31623D01*
X2367Y-31661D01*
G54D13*
X1424Y-34650D02*
X624Y-34650D01*
X1424Y-34307D02*
X967Y-34564D01*
X624Y-34307D02*
X1081Y-34650D01*
X1424Y-33793D02*
X1005Y-33793D01*
X929Y-33822D01*
X890Y-33879D01*
X890Y-33993D01*
X929Y-34050D01*
X1386Y-33793D02*
X1424Y-33850D01*
X1424Y-33993D01*
X1386Y-34050D01*
X1310Y-34079D01*
X1233Y-34079D01*
X1157Y-34050D01*
X1119Y-33993D01*
X1119Y-33850D01*
X1081Y-33793D01*
X1424Y-33507D02*
X624Y-33507D01*
X929Y-33507D02*
X890Y-33450D01*
X890Y-33336D01*
X929Y-33279D01*
X967Y-33250D01*
X1043Y-33221D01*
X1271Y-33221D01*
X1348Y-33250D01*
X1386Y-33279D01*
X1424Y-33336D01*
X1424Y-33450D01*
X1386Y-33507D01*
X1424Y-32878D02*
X1386Y-32936D01*
X1348Y-32964D01*
X1271Y-32993D01*
X1043Y-32993D01*
X967Y-32964D01*
X929Y-32936D01*
X890Y-32878D01*
X890Y-32793D01*
X929Y-32736D01*
X967Y-32707D01*
X1043Y-32678D01*
X1271Y-32678D01*
X1348Y-32707D01*
X1386Y-32736D01*
X1424Y-32793D01*
X1424Y-32878D01*
X1424Y-32164D02*
X1005Y-32164D01*
X929Y-32193D01*
X890Y-32250D01*
X890Y-32364D01*
X929Y-32421D01*
X1386Y-32164D02*
X1424Y-32221D01*
X1424Y-32364D01*
X1386Y-32421D01*
X1310Y-32450D01*
X1233Y-32450D01*
X1157Y-32421D01*
X1119Y-32364D01*
X1119Y-32221D01*
X1081Y-32164D01*
X1424Y-31878D02*
X890Y-31878D01*
X1043Y-31878D02*
X967Y-31850D01*
X929Y-31821D01*
X890Y-31764D01*
X890Y-31707D01*
X1424Y-31250D02*
X624Y-31250D01*
X1386Y-31250D02*
X1424Y-31307D01*
X1424Y-31421D01*
X1386Y-31479D01*
X1348Y-31507D01*
X1271Y-31536D01*
X1043Y-31536D01*
X967Y-31507D01*
X929Y-31479D01*
X890Y-31421D01*
X890Y-31307D01*
X929Y-31250D01*
X2000Y-22500D02*
X2000Y-20600D01*
X3000Y-20500D02*
X3000Y-22600D01*
X2400Y-20001D02*
G75*
G03X2001Y-20600I100J-499D01*
G74*
G01*
X3000Y-20500D02*
G75*
G03X2500Y-20000I-500J0D01*
G74*
G01*
X2400Y-22999D02*
G75*
G03X2999Y-22600I100J499D01*
G74*
G01*
X2000Y-22500D02*
G75*
G03X2500Y-23000I500J0D01*
G74*
G01*
G54D14*
X11435Y-32490D02*
X11435Y-33710D01*
X11435Y-33710D02*
X10730Y-33710D01*
X11435Y-32490D02*
X10730Y-32490D01*
X8565Y-33845D02*
X8565Y-34165D01*
X8565Y-34165D02*
X9270Y-34165D01*
X8565Y-33845D02*
X9270Y-33845D01*
X8565Y-32940D02*
X9270Y-32940D01*
X8565Y-33260D02*
X9270Y-33260D01*
X8565Y-32940D02*
X8565Y-33260D01*
X8565Y-32035D02*
X8565Y-32355D01*
X8565Y-32355D02*
X9270Y-32355D01*
X8565Y-32035D02*
X9270Y-32035D01*
X9270Y-34420D02*
X9270Y-31780D01*
X9270Y-31780D02*
X10730Y-31780D01*
X10730Y-31780D02*
X10730Y-34420D01*
X10730Y-34420D02*
X9270Y-34420D01*
G54D11*
X4000Y-5500D02*
X4000Y-6500D01*
X4000Y-6500D02*
X2000Y-6500D01*
X2000Y-6500D02*
X2000Y-5500D01*
X2000Y-5500D02*
X4000Y-5500D01*
G54D14*
X3000Y-29000D02*
G75*
G03X3000Y-29000I-1000J0D01*
G74*
G01*
X500Y-30500D02*
X500Y-27500D01*
X500Y-27500D02*
X3500Y-27500D01*
X3500Y-27500D02*
X3500Y-30500D01*
X500Y-30500D02*
X3500Y-30500D01*
X6991Y-10800D02*
G75*
G03X6991Y-10800I-141J0D01*
G74*
G01*
X5750Y-11000D02*
X5750Y-10700D01*
X5750Y-10700D02*
X6250Y-10700D01*
X6250Y-10700D02*
X6250Y-11000D01*
X7050Y-6950D02*
X7050Y-11000D01*
X4950Y-11000D02*
X4950Y-6950D01*
X4950Y-11000D02*
X7050Y-11000D01*
X4950Y-6950D02*
X7050Y-6950D01*
X6750Y-5100D02*
G75*
G03X6750Y-5100I-50J0D01*
G74*
G01*
X7150Y-5100D02*
X6750Y-5100D01*
X6750Y-5100D02*
X6750Y-4500D01*
X6750Y-4500D02*
X7150Y-4500D01*
X7550Y-4500D02*
X7950Y-4500D01*
X7950Y-4500D02*
X7950Y-5100D01*
X7950Y-5100D02*
X7550Y-5100D01*
X2500Y-9600D02*
X3400Y-9600D01*
X3400Y-9600D02*
X3400Y-10100D01*
X3400Y-10100D02*
X2500Y-10100D01*
X2500Y-10100D02*
X2500Y-9600D01*
X1850Y-12750D02*
X2750Y-12750D01*
X2750Y-12750D02*
X2750Y-13250D01*
X2750Y-13250D02*
X1850Y-13250D01*
X1850Y-13250D02*
X1850Y-12750D01*
X3750Y-27250D02*
X4650Y-27250D01*
X4650Y-27250D02*
X4650Y-27750D01*
X4650Y-27750D02*
X3750Y-27750D01*
X3750Y-27750D02*
X3750Y-27250D01*
X5100Y-6250D02*
X4200Y-6250D01*
X4200Y-6250D02*
X4200Y-5750D01*
X4200Y-5750D02*
X5100Y-5750D01*
X5100Y-5750D02*
X5100Y-6250D01*
X4500Y-5250D02*
X3600Y-5250D01*
X3600Y-5250D02*
X3600Y-4750D01*
X3600Y-4750D02*
X4500Y-4750D01*
X4500Y-4750D02*
X4500Y-5250D01*
X2500Y-8850D02*
X3400Y-8850D01*
X3400Y-8850D02*
X3400Y-9350D01*
X3400Y-9350D02*
X2500Y-9350D01*
X2500Y-9350D02*
X2500Y-8850D01*
X1300Y-8850D02*
X2200Y-8850D01*
X2200Y-8850D02*
X2200Y-9350D01*
X2200Y-9350D02*
X1300Y-9350D01*
X1300Y-9350D02*
X1300Y-8850D01*
X9850Y-20750D02*
X10750Y-20750D01*
X10750Y-20750D02*
X10750Y-21250D01*
X10750Y-21250D02*
X9850Y-21250D01*
X9850Y-21250D02*
X9850Y-20750D01*
X10200Y-18850D02*
X10200Y-19750D01*
X10200Y-19750D02*
X9700Y-19750D01*
X9700Y-19750D02*
X9700Y-18850D01*
X9700Y-18850D02*
X10200Y-18850D01*
X750Y-21250D02*
X750Y-20350D01*
X750Y-20350D02*
X1250Y-20350D01*
X1250Y-20350D02*
X1250Y-21250D01*
X1250Y-21250D02*
X750Y-21250D01*
X1250Y-21750D02*
X1250Y-22650D01*
X1250Y-22650D02*
X750Y-22650D01*
X750Y-22650D02*
X750Y-21750D01*
X750Y-21750D02*
X1250Y-21750D01*
X7950Y-10050D02*
X7950Y-9150D01*
X7950Y-9150D02*
X8450Y-9150D01*
X8450Y-9150D02*
X8450Y-10050D01*
X8450Y-10050D02*
X7950Y-10050D01*
X8700Y-10050D02*
X8700Y-9150D01*
X8700Y-9150D02*
X9200Y-9150D01*
X9200Y-9150D02*
X9200Y-10050D01*
X9200Y-10050D02*
X8700Y-10050D01*
X3900Y-8050D02*
X3000Y-8050D01*
X3000Y-8050D02*
X3000Y-7550D01*
X3000Y-7550D02*
X3900Y-7550D01*
X3900Y-7550D02*
X3900Y-8050D01*
X1300Y-9600D02*
X2200Y-9600D01*
X2200Y-9600D02*
X2200Y-10100D01*
X2200Y-10100D02*
X1300Y-10100D01*
X1300Y-10100D02*
X1300Y-9600D01*
G54D11*
X9500Y-27500D02*
X8500Y-27500D01*
X8500Y-27500D02*
X8500Y-21500D01*
X8500Y-21500D02*
X9500Y-21500D01*
X9500Y-21500D02*
X9500Y-27500D01*
X9500Y-26500D02*
X8500Y-26500D01*
X9500Y-18500D02*
X8500Y-18500D01*
X8500Y-18500D02*
X8500Y-12500D01*
X8500Y-12500D02*
X9500Y-12500D01*
X9500Y-12500D02*
X9500Y-18500D01*
X9500Y-17500D02*
X8500Y-17500D01*
X10500Y-27500D02*
X9500Y-27500D01*
X9500Y-27500D02*
X9500Y-21500D01*
X9500Y-21500D02*
X10500Y-21500D01*
X10500Y-21500D02*
X10500Y-27500D01*
X10500Y-26500D02*
X9500Y-26500D01*
X11500Y-27500D02*
X10500Y-27500D01*
X10500Y-27500D02*
X10500Y-21500D01*
X10500Y-21500D02*
X11500Y-21500D01*
X11500Y-21500D02*
X11500Y-27500D01*
X11500Y-26500D02*
X10500Y-26500D01*
X10500Y-18500D02*
X9500Y-18500D01*
X9500Y-18500D02*
X9500Y-12500D01*
X9500Y-12500D02*
X10500Y-12500D01*
X10500Y-12500D02*
X10500Y-18500D01*
X10500Y-17500D02*
X9500Y-17500D01*
X11500Y-18500D02*
X10500Y-18500D01*
X10500Y-18500D02*
X10500Y-12500D01*
X10500Y-12500D02*
X11500Y-12500D01*
X11500Y-12500D02*
X11500Y-18500D01*
X11500Y-17500D02*
X10500Y-17500D01*
X2500Y-13500D02*
X3500Y-13500D01*
X3500Y-13500D02*
X3500Y-18500D01*
X3500Y-18500D02*
X2500Y-18500D01*
X2500Y-18500D02*
X2500Y-13500D01*
X2500Y-14500D02*
X3500Y-14500D01*
X1500Y-13500D02*
X2500Y-13500D01*
X2500Y-13500D02*
X2500Y-18500D01*
X2500Y-18500D02*
X1500Y-18500D01*
X1500Y-18500D02*
X1500Y-13500D01*
X1500Y-14500D02*
X2500Y-14500D01*
X500Y-13500D02*
X1500Y-13500D01*
X1500Y-13500D02*
X1500Y-18500D01*
X1500Y-18500D02*
X500Y-18500D01*
X500Y-18500D02*
X500Y-13500D01*
X500Y-14500D02*
X1500Y-14500D01*
X500Y-24000D02*
X1500Y-24000D01*
X1500Y-24000D02*
X1500Y-27000D01*
X1500Y-27000D02*
X500Y-27000D01*
X500Y-27000D02*
X500Y-24000D01*
X1500Y-25000D02*
X500Y-25000D01*
X1500Y-24000D02*
X2500Y-24000D01*
X2500Y-24000D02*
X2500Y-27000D01*
X2500Y-27000D02*
X1500Y-27000D01*
X1500Y-27000D02*
X1500Y-24000D01*
X2500Y-25000D02*
X1500Y-25000D01*
X2500Y-24000D02*
X3500Y-24000D01*
X3500Y-24000D02*
X3500Y-27000D01*
X3500Y-27000D02*
X2500Y-27000D01*
X2500Y-27000D02*
X2500Y-24000D01*
X3500Y-25000D02*
X2500Y-25000D01*
X8000Y-6500D02*
X8000Y-5500D01*
X8000Y-5500D02*
X10000Y-5500D01*
X10000Y-5500D02*
X10000Y-6500D01*
X10000Y-6500D02*
X8000Y-6500D01*
X8500Y-18500D02*
X9500Y-18500D01*
X9500Y-18500D02*
X9500Y-20500D01*
X9500Y-20500D02*
X8500Y-20500D01*
X8500Y-20500D02*
X8500Y-18500D01*
G54D13*
X7000Y-12000D02*
X7000Y-27000D01*
X7000Y-27000D02*
X5000Y-27000D01*
X5000Y-27000D02*
X5000Y-12000D01*
X5000Y-12000D02*
X7000Y-12000D01*
X6500Y-12000D02*
X6500Y-12500D01*
X6500Y-12500D02*
X5500Y-12500D01*
X5500Y-12500D02*
X5500Y-12000D01*
G54D14*
X7400Y-31650D02*
X7400Y-30750D01*
X7400Y-30750D02*
X7900Y-30750D01*
X7900Y-30750D02*
X7900Y-31650D01*
X7900Y-31650D02*
X7400Y-31650D01*
X1300Y-10350D02*
X2200Y-10350D01*
X2200Y-10350D02*
X2200Y-10850D01*
X2200Y-10850D02*
X1300Y-10850D01*
X1300Y-10850D02*
X1300Y-10350D01*
X2500Y-10350D02*
X3400Y-10350D01*
X3400Y-10350D02*
X3400Y-10850D01*
X3400Y-10850D02*
X2500Y-10850D01*
X2500Y-10850D02*
X2500Y-10350D01*
G54D11*
X8000Y-38500D02*
X4000Y-38500D01*
X8000Y-39000D02*
X8000Y-36000D01*
X8000Y-36000D02*
X4000Y-36000D01*
X4000Y-36000D02*
X4000Y-39000D01*
X4000Y-39000D02*
X8000Y-39000D01*
G54D14*
X7335Y-33704D02*
X7965Y-33704D01*
X7965Y-33744D02*
X7335Y-33744D01*
X7965Y-32799D02*
X7965Y-33901D01*
X7965Y-33901D02*
X7335Y-33901D01*
X7335Y-33901D02*
X7335Y-32799D01*
X7335Y-32799D02*
X7965Y-32799D01*
G54D13*
X2900Y-2000D02*
G75*
G03X2900Y-2000I-900J0D01*
G74*
G01*
X10900Y-2000D02*
G75*
G03X10900Y-2000I-900J0D01*
G74*
G01*
X2900Y-37000D02*
G75*
G03X2900Y-37000I-900J0D01*
G74*
G01*
X10900Y-37000D02*
G75*
G03X10900Y-37000I-900J0D01*
G74*
G01*
G54D11*
X7535Y-3734D02*
X7969Y-3734D01*
X7969Y-3734D02*
X7969Y-3143D01*
X7969Y-3143D02*
X7535Y-3143D01*
X4031Y-3142D02*
X4465Y-3142D01*
X4031Y-3733D02*
X4031Y-3142D01*
X4465Y-3733D02*
X4031Y-3733D01*
X4465Y-1567D02*
X4031Y-1567D01*
X4031Y-1567D02*
X4031Y-976D01*
X4031Y-976D02*
X4465Y-976D01*
X7535Y-1567D02*
X7969Y-1567D01*
X7969Y-1567D02*
X7969Y-976D01*
X7969Y-976D02*
X7535Y-976D01*
X7535Y-31D02*
X4465Y-31D01*
X4465Y-31D02*
X4465Y-3969D01*
X4465Y-3969D02*
X7535Y-3969D01*
X7535Y-3969D02*
X7535Y-31D01*
G54D15*
X4500Y-28000D02*
X7500Y-28000D01*
X7500Y-30000D02*
X4500Y-30000D01*
X4500Y-30000D02*
X4500Y-28000D01*
X7500Y-28000D02*
X7500Y-30000D01*
G54D14*
X4100Y-33750D02*
X4100Y-34300D01*
X4150Y-33650D02*
X4150Y-34350D01*
X4200Y-33500D02*
X4200Y-34500D01*
X4250Y-34550D02*
X4250Y-33450D01*
X4300Y-33400D02*
X4300Y-34600D01*
X4350Y-34650D02*
X4350Y-33350D01*
X4400Y-33300D02*
X4400Y-34700D01*
X5950Y-34000D02*
G75*
G03X5950Y-34000I-950J0D01*
G74*
G01*
X3950Y-32950D02*
X5750Y-32950D01*
X5750Y-32950D02*
X6050Y-33250D01*
X6050Y-33250D02*
X6050Y-34750D01*
X6050Y-34750D02*
X5750Y-35050D01*
X5750Y-35050D02*
X3950Y-35050D01*
X3950Y-35050D02*
X3950Y-32950D01*
X5850Y-34000D02*
X5550Y-34000D01*
X5700Y-33850D02*
X5700Y-34150D01*
X4100Y-31250D02*
X4100Y-31800D01*
X4150Y-31150D02*
X4150Y-31850D01*
X4200Y-31000D02*
X4200Y-32000D01*
X4250Y-32050D02*
X4250Y-30950D01*
X4300Y-30900D02*
X4300Y-32100D01*
X4350Y-32150D02*
X4350Y-30850D01*
X4400Y-30800D02*
X4400Y-32200D01*
X5950Y-31500D02*
G75*
G03X5950Y-31500I-950J0D01*
G74*
G01*
X3950Y-30450D02*
X5750Y-30450D01*
X5750Y-30450D02*
X6050Y-30750D01*
X6050Y-30750D02*
X6050Y-32250D01*
X6050Y-32250D02*
X5750Y-32550D01*
X5750Y-32550D02*
X3950Y-32550D01*
X3950Y-32550D02*
X3950Y-30450D01*
X5850Y-31500D02*
X5550Y-31500D01*
X5700Y-31350D02*
X5700Y-31650D01*
X9950Y-7850D02*
X9650Y-7850D01*
X9800Y-7700D02*
X9800Y-8000D01*
X9900Y-8750D02*
X8400Y-8750D01*
X10200Y-7250D02*
X10200Y-8450D01*
X9900Y-8750D02*
X10200Y-8450D01*
X9900Y-6950D02*
X8400Y-6950D01*
X9900Y-6950D02*
X10200Y-7250D01*
X8500Y-7900D02*
X8500Y-7800D01*
X8550Y-7600D02*
X8550Y-8100D01*
X8600Y-8200D02*
X8600Y-7500D01*
X8650Y-8300D02*
X8650Y-7400D01*
X8700Y-7350D02*
X8700Y-8350D01*
X8750Y-8400D02*
X8750Y-7300D01*
X8800Y-7250D02*
X8800Y-8450D01*
X8850Y-7200D02*
X8850Y-8500D01*
X10100Y-7850D02*
G75*
G03X10100Y-7850I-800J0D01*
G74*
G01*
X8400Y-6950D02*
X8400Y-8750D01*
X8450Y-10250D02*
X8450Y-11150D01*
X8450Y-11150D02*
X7950Y-11150D01*
X7950Y-11150D02*
X7950Y-10250D01*
X7950Y-10250D02*
X8450Y-10250D01*
G54D16*
X2265Y-21610D02*
X2659Y-21479D01*
X2265Y-21479D02*
X2659Y-21610D01*
X2659Y-21300D02*
X2659Y-21412D01*
X2659Y-21356D02*
X2265Y-21356D01*
X2322Y-21375D01*
X2359Y-21394D01*
X2378Y-21412D01*
G54D17*
X9650Y-34565D02*
X9650Y-34884D01*
X9669Y-34922D01*
X9687Y-34941D01*
X9725Y-34959D01*
X9800Y-34959D01*
X9837Y-34941D01*
X9856Y-34922D01*
X9875Y-34884D01*
X9875Y-34565D01*
X10044Y-34603D02*
X10063Y-34584D01*
X10100Y-34565D01*
X10194Y-34565D01*
X10232Y-34584D01*
X10250Y-34603D01*
X10269Y-34641D01*
X10269Y-34678D01*
X10250Y-34734D01*
X10025Y-34959D01*
X10269Y-34959D01*
G54D16*
X1386Y-5765D02*
X1386Y-6047D01*
X1377Y-6103D01*
X1358Y-6141D01*
X1330Y-6159D01*
X1311Y-6159D01*
X1480Y-6159D02*
X1480Y-5765D01*
X1555Y-5765D01*
X1574Y-5784D01*
X1583Y-5803D01*
X1592Y-5841D01*
X1592Y-5897D01*
X1583Y-5934D01*
X1574Y-5953D01*
X1555Y-5972D01*
X1480Y-5972D01*
X1668Y-5803D02*
X1677Y-5784D01*
X1696Y-5765D01*
X1743Y-5765D01*
X1761Y-5784D01*
X1771Y-5803D01*
X1780Y-5841D01*
X1780Y-5878D01*
X1771Y-5934D01*
X1658Y-6159D01*
X1780Y-6159D01*
G54D15*
X2143Y-29533D02*
X2162Y-29476D01*
X2162Y-29380D01*
X2143Y-29342D01*
X2124Y-29323D01*
X2086Y-29304D01*
X2048Y-29304D01*
X2010Y-29323D01*
X1990Y-29342D01*
X1971Y-29380D01*
X1952Y-29457D01*
X1933Y-29495D01*
X1914Y-29514D01*
X1876Y-29533D01*
X1838Y-29533D01*
X1800Y-29514D01*
X1781Y-29495D01*
X1762Y-29457D01*
X1762Y-29361D01*
X1781Y-29304D01*
X1762Y-29171D02*
X2162Y-29076D01*
X1876Y-28999D01*
X2162Y-28923D01*
X1762Y-28828D01*
X2162Y-28466D02*
X2162Y-28695D01*
X2162Y-28581D02*
X1762Y-28581D01*
X1819Y-28619D01*
X1857Y-28657D01*
X1876Y-28695D01*
G54D14*
X5221Y-9179D02*
X5464Y-9179D01*
X5493Y-9164D01*
X5507Y-9150D01*
X5521Y-9121D01*
X5521Y-9064D01*
X5507Y-9036D01*
X5493Y-9021D01*
X5464Y-9007D01*
X5221Y-9007D01*
X5521Y-8707D02*
X5521Y-8879D01*
X5521Y-8793D02*
X5221Y-8793D01*
X5264Y-8822D01*
X5293Y-8850D01*
X5307Y-8879D01*
X6414Y-9772D02*
X6414Y-9872D01*
X6571Y-9872D02*
X6271Y-9872D01*
X6271Y-9729D01*
X6271Y-9657D02*
X6271Y-9486D01*
X6571Y-9572D02*
X6271Y-9572D01*
X6300Y-9400D02*
X6286Y-9386D01*
X6271Y-9357D01*
X6271Y-9286D01*
X6286Y-9257D01*
X6300Y-9243D01*
X6329Y-9228D01*
X6357Y-9228D01*
X6400Y-9243D01*
X6571Y-9414D01*
X6571Y-9228D01*
X6271Y-9128D02*
X6271Y-8942D01*
X6386Y-9042D01*
X6386Y-9000D01*
X6400Y-8971D01*
X6414Y-8957D01*
X6443Y-8942D01*
X6514Y-8942D01*
X6543Y-8957D01*
X6557Y-8971D01*
X6571Y-9000D01*
X6571Y-9085D01*
X6557Y-9114D01*
X6543Y-9128D01*
X6300Y-8828D02*
X6286Y-8814D01*
X6271Y-8785D01*
X6271Y-8714D01*
X6286Y-8685D01*
X6300Y-8671D01*
X6329Y-8656D01*
X6357Y-8656D01*
X6400Y-8671D01*
X6571Y-8842D01*
X6571Y-8656D01*
X6571Y-8356D02*
X6429Y-8456D01*
X6571Y-8528D02*
X6271Y-8528D01*
X6271Y-8413D01*
X6286Y-8385D01*
X6300Y-8370D01*
X6329Y-8356D01*
X6371Y-8356D01*
X6400Y-8370D01*
X6414Y-8385D01*
X6429Y-8413D01*
X6429Y-8528D01*
X6571Y-8085D02*
X6571Y-8228D01*
X6271Y-8228D01*
X7309Y-5501D02*
X7190Y-5501D01*
X7190Y-5251D01*
X7522Y-5501D02*
X7380Y-5501D01*
X7451Y-5501D02*
X7451Y-5251D01*
X7427Y-5287D01*
X7403Y-5311D01*
X7380Y-5323D01*
G54D18*
X3685Y-9931D02*
X3625Y-9836D01*
X3582Y-9931D02*
X3582Y-9731D01*
X3650Y-9731D01*
X3668Y-9740D01*
X3676Y-9750D01*
X3685Y-9769D01*
X3685Y-9798D01*
X3676Y-9817D01*
X3668Y-9826D01*
X3650Y-9836D01*
X3582Y-9836D01*
X3856Y-9931D02*
X3753Y-9931D01*
X3805Y-9931D02*
X3805Y-9731D01*
X3788Y-9760D01*
X3770Y-9779D01*
X3753Y-9788D01*
X3967Y-9731D02*
X3984Y-9731D01*
X4001Y-9740D01*
X4010Y-9750D01*
X4019Y-9769D01*
X4027Y-9807D01*
X4027Y-9855D01*
X4019Y-9893D01*
X4010Y-9912D01*
X4001Y-9921D01*
X3984Y-9931D01*
X3967Y-9931D01*
X3950Y-9921D01*
X3941Y-9912D01*
X3933Y-9893D01*
X3924Y-9855D01*
X3924Y-9807D01*
X3933Y-9769D01*
X3941Y-9750D01*
X3950Y-9740D01*
X3967Y-9731D01*
X2271Y-12631D02*
X2211Y-12536D01*
X2168Y-12631D02*
X2168Y-12431D01*
X2236Y-12431D01*
X2254Y-12440D01*
X2262Y-12450D01*
X2271Y-12469D01*
X2271Y-12498D01*
X2262Y-12517D01*
X2254Y-12526D01*
X2236Y-12536D01*
X2168Y-12536D01*
X2442Y-12631D02*
X2339Y-12631D01*
X2391Y-12631D02*
X2391Y-12431D01*
X2374Y-12460D01*
X2356Y-12479D01*
X2339Y-12488D01*
X4171Y-27062D02*
X4162Y-27071D01*
X4136Y-27081D01*
X4119Y-27081D01*
X4094Y-27071D01*
X4076Y-27052D01*
X4068Y-27033D01*
X4059Y-26995D01*
X4059Y-26967D01*
X4068Y-26929D01*
X4076Y-26910D01*
X4094Y-26890D01*
X4119Y-26881D01*
X4136Y-26881D01*
X4162Y-26890D01*
X4171Y-26900D01*
X4342Y-27081D02*
X4239Y-27081D01*
X4291Y-27081D02*
X4291Y-26881D01*
X4274Y-26910D01*
X4256Y-26929D01*
X4239Y-26938D01*
X4621Y-6581D02*
X4561Y-6486D01*
X4518Y-6581D02*
X4518Y-6381D01*
X4586Y-6381D01*
X4604Y-6390D01*
X4612Y-6400D01*
X4621Y-6419D01*
X4621Y-6448D01*
X4612Y-6467D01*
X4604Y-6476D01*
X4586Y-6486D01*
X4518Y-6486D01*
X4724Y-6467D02*
X4706Y-6457D01*
X4698Y-6448D01*
X4689Y-6429D01*
X4689Y-6419D01*
X4698Y-6400D01*
X4706Y-6390D01*
X4724Y-6381D01*
X4758Y-6381D01*
X4775Y-6390D01*
X4784Y-6400D01*
X4792Y-6419D01*
X4792Y-6429D01*
X4784Y-6448D01*
X4775Y-6457D01*
X4758Y-6467D01*
X4724Y-6467D01*
X4706Y-6476D01*
X4698Y-6486D01*
X4689Y-6505D01*
X4689Y-6543D01*
X4698Y-6562D01*
X4706Y-6571D01*
X4724Y-6581D01*
X4758Y-6581D01*
X4775Y-6571D01*
X4784Y-6562D01*
X4792Y-6543D01*
X4792Y-6505D01*
X4784Y-6486D01*
X4775Y-6476D01*
X4758Y-6467D01*
X4021Y-4631D02*
X3961Y-4536D01*
X3918Y-4631D02*
X3918Y-4431D01*
X3986Y-4431D01*
X4004Y-4440D01*
X4012Y-4450D01*
X4021Y-4469D01*
X4021Y-4498D01*
X4012Y-4517D01*
X4004Y-4526D01*
X3986Y-4536D01*
X3918Y-4536D01*
X4106Y-4631D02*
X4141Y-4631D01*
X4158Y-4621D01*
X4166Y-4612D01*
X4184Y-4583D01*
X4192Y-4545D01*
X4192Y-4469D01*
X4184Y-4450D01*
X4175Y-4440D01*
X4158Y-4431D01*
X4124Y-4431D01*
X4106Y-4440D01*
X4098Y-4450D01*
X4089Y-4469D01*
X4089Y-4517D01*
X4098Y-4536D01*
X4106Y-4545D01*
X4124Y-4555D01*
X4158Y-4555D01*
X4175Y-4545D01*
X4184Y-4536D01*
X4192Y-4517D01*
X3685Y-9181D02*
X3625Y-9086D01*
X3582Y-9181D02*
X3582Y-8981D01*
X3650Y-8981D01*
X3668Y-8990D01*
X3676Y-9000D01*
X3685Y-9019D01*
X3685Y-9048D01*
X3676Y-9067D01*
X3668Y-9076D01*
X3650Y-9086D01*
X3582Y-9086D01*
X3856Y-9181D02*
X3753Y-9181D01*
X3805Y-9181D02*
X3805Y-8981D01*
X3788Y-9010D01*
X3770Y-9029D01*
X3753Y-9038D01*
X4027Y-9181D02*
X3924Y-9181D01*
X3976Y-9181D02*
X3976Y-8981D01*
X3959Y-9010D01*
X3941Y-9029D01*
X3924Y-9038D01*
X868Y-9181D02*
X868Y-8981D01*
X911Y-8981D01*
X936Y-8990D01*
X954Y-9010D01*
X962Y-9029D01*
X971Y-9067D01*
X971Y-9095D01*
X962Y-9133D01*
X954Y-9152D01*
X936Y-9171D01*
X911Y-9181D01*
X868Y-9181D01*
X1031Y-8981D02*
X1151Y-8981D01*
X1074Y-9181D01*
X11071Y-21062D02*
X11062Y-21071D01*
X11036Y-21081D01*
X11019Y-21081D01*
X10994Y-21071D01*
X10976Y-21052D01*
X10968Y-21033D01*
X10959Y-20995D01*
X10959Y-20967D01*
X10968Y-20929D01*
X10976Y-20910D01*
X10994Y-20890D01*
X11019Y-20881D01*
X11036Y-20881D01*
X11062Y-20890D01*
X11071Y-20900D01*
X11139Y-20900D02*
X11148Y-20890D01*
X11165Y-20881D01*
X11208Y-20881D01*
X11225Y-20890D01*
X11234Y-20900D01*
X11242Y-20919D01*
X11242Y-20938D01*
X11234Y-20967D01*
X11131Y-21081D01*
X11242Y-21081D01*
X10612Y-19329D02*
X10621Y-19338D01*
X10631Y-19364D01*
X10631Y-19381D01*
X10621Y-19406D01*
X10602Y-19424D01*
X10583Y-19432D01*
X10545Y-19441D01*
X10517Y-19441D01*
X10479Y-19432D01*
X10460Y-19424D01*
X10440Y-19406D01*
X10431Y-19381D01*
X10431Y-19364D01*
X10440Y-19338D01*
X10450Y-19329D01*
X10431Y-19269D02*
X10431Y-19158D01*
X10507Y-19218D01*
X10507Y-19192D01*
X10517Y-19175D01*
X10526Y-19166D01*
X10545Y-19158D01*
X10593Y-19158D01*
X10612Y-19166D01*
X10621Y-19175D01*
X10631Y-19192D01*
X10631Y-19244D01*
X10621Y-19261D01*
X10612Y-19269D01*
X612Y-20829D02*
X621Y-20838D01*
X631Y-20864D01*
X631Y-20881D01*
X621Y-20906D01*
X602Y-20924D01*
X583Y-20932D01*
X545Y-20941D01*
X517Y-20941D01*
X479Y-20932D01*
X460Y-20924D01*
X440Y-20906D01*
X431Y-20881D01*
X431Y-20864D01*
X440Y-20838D01*
X450Y-20829D01*
X498Y-20675D02*
X631Y-20675D01*
X421Y-20718D02*
X564Y-20761D01*
X564Y-20649D01*
X612Y-22229D02*
X621Y-22238D01*
X631Y-22264D01*
X631Y-22281D01*
X621Y-22306D01*
X602Y-22324D01*
X583Y-22332D01*
X545Y-22341D01*
X517Y-22341D01*
X479Y-22332D01*
X460Y-22324D01*
X440Y-22306D01*
X431Y-22281D01*
X431Y-22264D01*
X440Y-22238D01*
X450Y-22229D01*
X431Y-22066D02*
X431Y-22152D01*
X526Y-22161D01*
X517Y-22152D01*
X507Y-22135D01*
X507Y-22092D01*
X517Y-22075D01*
X526Y-22066D01*
X545Y-22058D01*
X593Y-22058D01*
X612Y-22066D01*
X621Y-22075D01*
X631Y-22092D01*
X631Y-22135D01*
X621Y-22152D01*
X612Y-22161D01*
X8262Y-8879D02*
X8271Y-8888D01*
X8281Y-8914D01*
X8281Y-8931D01*
X8271Y-8956D01*
X8252Y-8974D01*
X8233Y-8982D01*
X8195Y-8991D01*
X8167Y-8991D01*
X8129Y-8982D01*
X8110Y-8974D01*
X8090Y-8956D01*
X8081Y-8931D01*
X8081Y-8914D01*
X8090Y-8888D01*
X8100Y-8879D01*
X8167Y-8776D02*
X8157Y-8794D01*
X8148Y-8802D01*
X8129Y-8811D01*
X8119Y-8811D01*
X8100Y-8802D01*
X8090Y-8794D01*
X8081Y-8776D01*
X8081Y-8742D01*
X8090Y-8725D01*
X8100Y-8716D01*
X8119Y-8708D01*
X8129Y-8708D01*
X8148Y-8716D01*
X8157Y-8725D01*
X8167Y-8742D01*
X8167Y-8776D01*
X8176Y-8794D01*
X8186Y-8802D01*
X8205Y-8811D01*
X8243Y-8811D01*
X8262Y-8802D01*
X8271Y-8794D01*
X8281Y-8776D01*
X8281Y-8742D01*
X8271Y-8725D01*
X8262Y-8716D01*
X8243Y-8708D01*
X8205Y-8708D01*
X8186Y-8716D01*
X8176Y-8725D01*
X8167Y-8742D01*
X9512Y-9629D02*
X9521Y-9638D01*
X9531Y-9664D01*
X9531Y-9681D01*
X9521Y-9706D01*
X9502Y-9724D01*
X9483Y-9732D01*
X9445Y-9741D01*
X9417Y-9741D01*
X9379Y-9732D01*
X9360Y-9724D01*
X9340Y-9706D01*
X9331Y-9681D01*
X9331Y-9664D01*
X9340Y-9638D01*
X9350Y-9629D01*
X9531Y-9544D02*
X9531Y-9509D01*
X9521Y-9492D01*
X9512Y-9484D01*
X9483Y-9466D01*
X9445Y-9458D01*
X9369Y-9458D01*
X9350Y-9466D01*
X9340Y-9475D01*
X9331Y-9492D01*
X9331Y-9526D01*
X9340Y-9544D01*
X9350Y-9552D01*
X9369Y-9561D01*
X9417Y-9561D01*
X9436Y-9552D01*
X9445Y-9544D01*
X9455Y-9526D01*
X9455Y-9492D01*
X9445Y-9475D01*
X9436Y-9466D01*
X9417Y-9458D01*
X3335Y-7412D02*
X3326Y-7421D01*
X3300Y-7431D01*
X3283Y-7431D01*
X3258Y-7421D01*
X3240Y-7402D01*
X3232Y-7383D01*
X3223Y-7345D01*
X3223Y-7317D01*
X3232Y-7279D01*
X3240Y-7260D01*
X3258Y-7240D01*
X3283Y-7231D01*
X3300Y-7231D01*
X3326Y-7240D01*
X3335Y-7250D01*
X3506Y-7431D02*
X3403Y-7431D01*
X3455Y-7431D02*
X3455Y-7231D01*
X3438Y-7260D01*
X3420Y-7279D01*
X3403Y-7288D01*
X3617Y-7231D02*
X3634Y-7231D01*
X3651Y-7240D01*
X3660Y-7250D01*
X3669Y-7269D01*
X3677Y-7307D01*
X3677Y-7355D01*
X3669Y-7393D01*
X3660Y-7412D01*
X3651Y-7421D01*
X3634Y-7431D01*
X3617Y-7431D01*
X3600Y-7421D01*
X3591Y-7412D01*
X3583Y-7393D01*
X3574Y-7355D01*
X3574Y-7307D01*
X3583Y-7269D01*
X3591Y-7250D01*
X3600Y-7240D01*
X3617Y-7231D01*
X868Y-9881D02*
X868Y-9681D01*
X911Y-9681D01*
X936Y-9690D01*
X954Y-9710D01*
X962Y-9729D01*
X971Y-9767D01*
X971Y-9795D01*
X962Y-9833D01*
X954Y-9852D01*
X936Y-9871D01*
X911Y-9881D01*
X868Y-9881D01*
X1125Y-9681D02*
X1091Y-9681D01*
X1074Y-9690D01*
X1065Y-9700D01*
X1048Y-9729D01*
X1039Y-9767D01*
X1039Y-9843D01*
X1048Y-9862D01*
X1056Y-9871D01*
X1074Y-9881D01*
X1108Y-9881D01*
X1125Y-9871D01*
X1134Y-9862D01*
X1142Y-9843D01*
X1142Y-9795D01*
X1134Y-9776D01*
X1125Y-9767D01*
X1108Y-9757D01*
X1074Y-9757D01*
X1056Y-9767D01*
X1048Y-9776D01*
X1039Y-9795D01*
G54D16*
X9159Y-27945D02*
X8765Y-27945D01*
X8765Y-27870D01*
X8784Y-27851D01*
X8803Y-27842D01*
X8841Y-27833D01*
X8897Y-27833D01*
X8934Y-27842D01*
X8953Y-27851D01*
X8972Y-27870D01*
X8972Y-27945D01*
X9159Y-27645D02*
X9159Y-27757D01*
X9159Y-27701D02*
X8765Y-27701D01*
X8822Y-27720D01*
X8859Y-27739D01*
X8878Y-27757D01*
X9159Y-12345D02*
X8765Y-12345D01*
X8765Y-12270D01*
X8784Y-12251D01*
X8803Y-12242D01*
X8841Y-12233D01*
X8897Y-12233D01*
X8934Y-12242D01*
X8953Y-12251D01*
X8972Y-12270D01*
X8972Y-12345D01*
X8803Y-12157D02*
X8784Y-12148D01*
X8765Y-12129D01*
X8765Y-12082D01*
X8784Y-12064D01*
X8803Y-12054D01*
X8841Y-12045D01*
X8878Y-12045D01*
X8934Y-12054D01*
X9159Y-12167D01*
X9159Y-12045D01*
X10209Y-27945D02*
X9815Y-27945D01*
X9815Y-27870D01*
X9834Y-27851D01*
X9853Y-27842D01*
X9891Y-27833D01*
X9947Y-27833D01*
X9984Y-27842D01*
X10003Y-27851D01*
X10022Y-27870D01*
X10022Y-27945D01*
X9815Y-27767D02*
X9815Y-27645D01*
X9966Y-27711D01*
X9966Y-27682D01*
X9984Y-27664D01*
X10003Y-27654D01*
X10041Y-27645D01*
X10134Y-27645D01*
X10172Y-27654D01*
X10191Y-27664D01*
X10209Y-27682D01*
X10209Y-27739D01*
X10191Y-27757D01*
X10172Y-27767D01*
X11159Y-27945D02*
X10765Y-27945D01*
X10765Y-27870D01*
X10784Y-27851D01*
X10803Y-27842D01*
X10841Y-27833D01*
X10897Y-27833D01*
X10934Y-27842D01*
X10953Y-27851D01*
X10972Y-27870D01*
X10972Y-27945D01*
X10897Y-27664D02*
X11159Y-27664D01*
X10747Y-27711D02*
X11028Y-27757D01*
X11028Y-27636D01*
X10159Y-12345D02*
X9765Y-12345D01*
X9765Y-12270D01*
X9784Y-12251D01*
X9803Y-12242D01*
X9841Y-12233D01*
X9897Y-12233D01*
X9934Y-12242D01*
X9953Y-12251D01*
X9972Y-12270D01*
X9972Y-12345D01*
X9765Y-12064D02*
X9765Y-12101D01*
X9784Y-12120D01*
X9803Y-12129D01*
X9859Y-12148D01*
X9934Y-12157D01*
X10084Y-12157D01*
X10122Y-12148D01*
X10141Y-12139D01*
X10159Y-12120D01*
X10159Y-12082D01*
X10141Y-12064D01*
X10122Y-12054D01*
X10084Y-12045D01*
X9991Y-12045D01*
X9953Y-12054D01*
X9934Y-12064D01*
X9916Y-12082D01*
X9916Y-12120D01*
X9934Y-12139D01*
X9953Y-12148D01*
X9991Y-12157D01*
X11159Y-12345D02*
X10765Y-12345D01*
X10765Y-12270D01*
X10784Y-12251D01*
X10803Y-12242D01*
X10841Y-12233D01*
X10897Y-12233D01*
X10934Y-12242D01*
X10953Y-12251D01*
X10972Y-12270D01*
X10972Y-12345D01*
X10934Y-12120D02*
X10916Y-12139D01*
X10897Y-12148D01*
X10859Y-12157D01*
X10841Y-12157D01*
X10803Y-12148D01*
X10784Y-12139D01*
X10765Y-12120D01*
X10765Y-12082D01*
X10784Y-12064D01*
X10803Y-12054D01*
X10841Y-12045D01*
X10859Y-12045D01*
X10897Y-12054D01*
X10916Y-12064D01*
X10934Y-12082D01*
X10934Y-12120D01*
X10953Y-12139D01*
X10972Y-12148D01*
X11009Y-12157D01*
X11084Y-12157D01*
X11122Y-12148D01*
X11141Y-12139D01*
X11159Y-12120D01*
X11159Y-12082D01*
X11141Y-12064D01*
X11122Y-12054D01*
X11084Y-12045D01*
X11009Y-12045D01*
X10972Y-12054D01*
X10953Y-12064D01*
X10934Y-12082D01*
X3209Y-19045D02*
X2815Y-19045D01*
X2815Y-18970D01*
X2834Y-18951D01*
X2853Y-18942D01*
X2891Y-18933D01*
X2947Y-18933D01*
X2984Y-18942D01*
X3003Y-18951D01*
X3022Y-18970D01*
X3022Y-19045D01*
X2815Y-18754D02*
X2815Y-18848D01*
X3003Y-18857D01*
X2984Y-18848D01*
X2966Y-18829D01*
X2966Y-18782D01*
X2984Y-18764D01*
X3003Y-18754D01*
X3041Y-18745D01*
X3134Y-18745D01*
X3172Y-18754D01*
X3191Y-18764D01*
X3209Y-18782D01*
X3209Y-18829D01*
X3191Y-18848D01*
X3172Y-18857D01*
X2159Y-19045D02*
X1765Y-19045D01*
X1765Y-18970D01*
X1784Y-18951D01*
X1803Y-18942D01*
X1841Y-18933D01*
X1897Y-18933D01*
X1934Y-18942D01*
X1953Y-18951D01*
X1972Y-18970D01*
X1972Y-19045D01*
X1765Y-18867D02*
X1765Y-18736D01*
X2159Y-18820D01*
X1159Y-19045D02*
X765Y-19045D01*
X765Y-18970D01*
X784Y-18951D01*
X803Y-18942D01*
X841Y-18933D01*
X897Y-18933D01*
X934Y-18942D01*
X953Y-18951D01*
X972Y-18970D01*
X972Y-19045D01*
X1159Y-18839D02*
X1159Y-18801D01*
X1141Y-18782D01*
X1122Y-18773D01*
X1066Y-18754D01*
X991Y-18745D01*
X841Y-18745D01*
X803Y-18754D01*
X784Y-18764D01*
X765Y-18782D01*
X765Y-18820D01*
X784Y-18839D01*
X803Y-18848D01*
X841Y-18857D01*
X934Y-18857D01*
X972Y-18848D01*
X991Y-18839D01*
X1009Y-18820D01*
X1009Y-18782D01*
X991Y-18764D01*
X972Y-18754D01*
X934Y-18745D01*
X1209Y-23795D02*
X815Y-23795D01*
X1209Y-23683D02*
X984Y-23767D01*
X815Y-23683D02*
X1041Y-23795D01*
X815Y-23617D02*
X815Y-23495D01*
X966Y-23561D01*
X966Y-23532D01*
X984Y-23514D01*
X1003Y-23504D01*
X1041Y-23495D01*
X1134Y-23495D01*
X1172Y-23504D01*
X1191Y-23514D01*
X1209Y-23532D01*
X1209Y-23589D01*
X1191Y-23607D01*
X1172Y-23617D01*
X2159Y-23795D02*
X1765Y-23795D01*
X2159Y-23683D02*
X1934Y-23767D01*
X1765Y-23683D02*
X1991Y-23795D01*
X1803Y-23607D02*
X1784Y-23598D01*
X1765Y-23579D01*
X1765Y-23532D01*
X1784Y-23514D01*
X1803Y-23504D01*
X1841Y-23495D01*
X1878Y-23495D01*
X1934Y-23504D01*
X2159Y-23617D01*
X2159Y-23495D01*
X3109Y-23795D02*
X2715Y-23795D01*
X3109Y-23683D02*
X2884Y-23767D01*
X2715Y-23683D02*
X2941Y-23795D01*
X3109Y-23495D02*
X3109Y-23607D01*
X3109Y-23551D02*
X2715Y-23551D01*
X2772Y-23570D01*
X2809Y-23589D01*
X2828Y-23607D01*
X10236Y-5815D02*
X10236Y-6097D01*
X10227Y-6153D01*
X10208Y-6191D01*
X10180Y-6209D01*
X10161Y-6209D01*
X10330Y-6209D02*
X10330Y-5815D01*
X10405Y-5815D01*
X10424Y-5834D01*
X10433Y-5853D01*
X10442Y-5891D01*
X10442Y-5947D01*
X10433Y-5984D01*
X10424Y-6003D01*
X10405Y-6022D01*
X10330Y-6022D01*
X10508Y-5815D02*
X10630Y-5815D01*
X10564Y-5966D01*
X10593Y-5966D01*
X10611Y-5984D01*
X10621Y-6003D01*
X10630Y-6041D01*
X10630Y-6134D01*
X10621Y-6172D01*
X10611Y-6191D01*
X10593Y-6209D01*
X10536Y-6209D01*
X10518Y-6191D01*
X10508Y-6172D01*
X8836Y-20765D02*
X8836Y-21047D01*
X8827Y-21103D01*
X8808Y-21141D01*
X8780Y-21159D01*
X8761Y-21159D01*
X8930Y-21159D02*
X8930Y-20765D01*
X9005Y-20765D01*
X9024Y-20784D01*
X9033Y-20803D01*
X9042Y-20841D01*
X9042Y-20897D01*
X9033Y-20934D01*
X9024Y-20953D01*
X9005Y-20972D01*
X8930Y-20972D01*
X9230Y-21159D02*
X9118Y-21159D01*
X9174Y-21159D02*
X9174Y-20765D01*
X9155Y-20822D01*
X9136Y-20859D01*
X9118Y-20878D01*
G54D19*
X6243Y-19939D02*
X5643Y-19939D01*
X6186Y-19468D02*
X6214Y-19489D01*
X6243Y-19553D01*
X6243Y-19596D01*
X6214Y-19661D01*
X6157Y-19703D01*
X6100Y-19725D01*
X5986Y-19746D01*
X5900Y-19746D01*
X5786Y-19725D01*
X5729Y-19703D01*
X5671Y-19661D01*
X5643Y-19596D01*
X5643Y-19553D01*
X5671Y-19489D01*
X5700Y-19468D01*
X6243Y-19039D02*
X6243Y-19296D01*
X6243Y-19168D02*
X5643Y-19168D01*
X5729Y-19211D01*
X5786Y-19253D01*
X5814Y-19296D01*
G54D18*
X7712Y-31315D02*
X7721Y-31324D01*
X7731Y-31350D01*
X7731Y-31367D01*
X7721Y-31392D01*
X7702Y-31410D01*
X7683Y-31418D01*
X7645Y-31427D01*
X7617Y-31427D01*
X7579Y-31418D01*
X7560Y-31410D01*
X7540Y-31392D01*
X7531Y-31367D01*
X7531Y-31350D01*
X7540Y-31324D01*
X7550Y-31315D01*
X7731Y-31144D02*
X7731Y-31247D01*
X7731Y-31195D02*
X7531Y-31195D01*
X7560Y-31212D01*
X7579Y-31230D01*
X7588Y-31247D01*
X7550Y-31076D02*
X7540Y-31067D01*
X7531Y-31050D01*
X7531Y-31007D01*
X7540Y-30990D01*
X7550Y-30981D01*
X7569Y-30973D01*
X7588Y-30973D01*
X7617Y-30981D01*
X7731Y-31084D01*
X7731Y-30973D01*
X971Y-10681D02*
X911Y-10586D01*
X868Y-10681D02*
X868Y-10481D01*
X936Y-10481D01*
X954Y-10490D01*
X962Y-10500D01*
X971Y-10519D01*
X971Y-10548D01*
X962Y-10567D01*
X954Y-10576D01*
X936Y-10586D01*
X868Y-10586D01*
X1039Y-10500D02*
X1048Y-10490D01*
X1065Y-10481D01*
X1108Y-10481D01*
X1125Y-10490D01*
X1134Y-10500D01*
X1142Y-10519D01*
X1142Y-10538D01*
X1134Y-10567D01*
X1031Y-10681D01*
X1142Y-10681D01*
X3618Y-10681D02*
X3618Y-10481D01*
X3661Y-10481D01*
X3686Y-10490D01*
X3704Y-10510D01*
X3712Y-10529D01*
X3721Y-10567D01*
X3721Y-10595D01*
X3712Y-10633D01*
X3704Y-10652D01*
X3686Y-10671D01*
X3661Y-10681D01*
X3618Y-10681D01*
X3892Y-10681D02*
X3789Y-10681D01*
X3841Y-10681D02*
X3841Y-10481D01*
X3824Y-10510D01*
X3806Y-10529D01*
X3789Y-10538D01*
G54D12*
X5522Y-35859D02*
X5522Y-35465D01*
X5672Y-35465D01*
X5709Y-35484D01*
X5728Y-35503D01*
X5747Y-35541D01*
X5747Y-35597D01*
X5728Y-35634D01*
X5709Y-35653D01*
X5672Y-35672D01*
X5522Y-35672D01*
X6122Y-35859D02*
X5897Y-35859D01*
X6010Y-35859D02*
X6010Y-35465D01*
X5972Y-35522D01*
X5935Y-35559D01*
X5897Y-35578D01*
X6366Y-35465D02*
X6403Y-35465D01*
X6441Y-35484D01*
X6460Y-35503D01*
X6478Y-35541D01*
X6497Y-35616D01*
X6497Y-35709D01*
X6478Y-35784D01*
X6460Y-35822D01*
X6441Y-35841D01*
X6403Y-35859D01*
X6366Y-35859D01*
X6328Y-35841D01*
X6310Y-35822D01*
X6291Y-35784D01*
X6272Y-35709D01*
X6272Y-35616D01*
X6291Y-35541D01*
X6310Y-35503D01*
X6328Y-35484D01*
X6366Y-35465D01*
G54D11*
X4729Y-39686D02*
X4700Y-39714D01*
X4614Y-39743D01*
X4557Y-39743D01*
X4472Y-39714D01*
X4414Y-39657D01*
X4386Y-39600D01*
X4357Y-39486D01*
X4357Y-39400D01*
X4386Y-39286D01*
X4414Y-39229D01*
X4472Y-39171D01*
X4557Y-39143D01*
X4614Y-39143D01*
X4700Y-39171D01*
X4729Y-39200D01*
X5100Y-39143D02*
X5214Y-39143D01*
X5272Y-39171D01*
X5329Y-39229D01*
X5357Y-39343D01*
X5357Y-39543D01*
X5329Y-39657D01*
X5272Y-39714D01*
X5214Y-39743D01*
X5100Y-39743D01*
X5043Y-39714D01*
X4986Y-39657D01*
X4957Y-39543D01*
X4957Y-39343D01*
X4986Y-39229D01*
X5043Y-39171D01*
X5100Y-39143D01*
X5615Y-39743D02*
X5615Y-39143D01*
X5958Y-39743D01*
X5958Y-39143D01*
X6244Y-39743D02*
X6244Y-39143D01*
X6587Y-39743D01*
X6587Y-39143D01*
X6730Y-39800D02*
X7187Y-39800D01*
X7301Y-39200D02*
X7330Y-39171D01*
X7387Y-39143D01*
X7530Y-39143D01*
X7587Y-39171D01*
X7616Y-39200D01*
X7644Y-39257D01*
X7644Y-39314D01*
X7616Y-39400D01*
X7273Y-39743D01*
X7644Y-39743D01*
G54D20*
X7213Y-33466D02*
X7056Y-33466D01*
X7056Y-33428D01*
X7064Y-33406D01*
X7078Y-33391D01*
X7093Y-33383D01*
X7123Y-33376D01*
X7146Y-33376D01*
X7176Y-33383D01*
X7191Y-33391D01*
X7206Y-33406D01*
X7213Y-33428D01*
X7213Y-33466D01*
X7071Y-33316D02*
X7064Y-33309D01*
X7056Y-33294D01*
X7056Y-33256D01*
X7064Y-33241D01*
X7071Y-33234D01*
X7086Y-33226D01*
X7101Y-33226D01*
X7123Y-33234D01*
X7213Y-33324D01*
X7213Y-33226D01*
G54D21*
X5870Y-2366D02*
X5870Y-2646D01*
X5851Y-2702D01*
X5814Y-2740D01*
X5758Y-2759D01*
X5720Y-2759D01*
X6262Y-2759D02*
X6038Y-2759D01*
X6150Y-2759D02*
X6150Y-2366D01*
X6113Y-2422D01*
X6075Y-2459D01*
X6038Y-2478D01*
G54D22*
X5505Y-1816D02*
X5505Y-2134D01*
X5523Y-2171D01*
X5542Y-2190D01*
X5579Y-2209D01*
X5654Y-2209D01*
X5692Y-2190D01*
X5710Y-2171D01*
X5729Y-2134D01*
X5729Y-1816D01*
X5898Y-2190D02*
X5954Y-2209D01*
X6048Y-2209D01*
X6085Y-2190D01*
X6104Y-2171D01*
X6122Y-2134D01*
X6122Y-2096D01*
X6104Y-2059D01*
X6085Y-2040D01*
X6048Y-2021D01*
X5973Y-2003D01*
X5935Y-1984D01*
X5917Y-1965D01*
X5898Y-1928D01*
X5898Y-1890D01*
X5917Y-1853D01*
X5935Y-1834D01*
X5973Y-1816D01*
X6066Y-1816D01*
X6122Y-1834D01*
X6422Y-2003D02*
X6478Y-2021D01*
X6496Y-2040D01*
X6515Y-2078D01*
X6515Y-2134D01*
X6496Y-2171D01*
X6478Y-2190D01*
X6440Y-2209D01*
X6291Y-2209D01*
X6291Y-1816D01*
X6422Y-1816D01*
X6459Y-1834D01*
X6478Y-1853D01*
X6496Y-1890D01*
X6496Y-1928D01*
X6478Y-1965D01*
X6459Y-1984D01*
X6422Y-2003D01*
X6291Y-2003D01*
G54D15*
X5614Y-27812D02*
X5614Y-27412D01*
X5767Y-27412D01*
X5805Y-27431D01*
X5824Y-27450D01*
X5843Y-27488D01*
X5843Y-27545D01*
X5824Y-27583D01*
X5805Y-27602D01*
X5767Y-27621D01*
X5614Y-27621D01*
X6224Y-27812D02*
X5995Y-27812D01*
X6109Y-27812D02*
X6109Y-27412D01*
X6071Y-27469D01*
X6033Y-27507D01*
X5995Y-27526D01*
X6605Y-27812D02*
X6376Y-27812D01*
X6490Y-27812D02*
X6490Y-27412D01*
X6452Y-27469D01*
X6414Y-27507D01*
X6376Y-27526D01*
G54D23*
X3617Y-34910D02*
X3608Y-34920D01*
X3580Y-34929D01*
X3561Y-34929D01*
X3533Y-34920D01*
X3514Y-34901D01*
X3505Y-34882D01*
X3496Y-34845D01*
X3496Y-34817D01*
X3505Y-34779D01*
X3514Y-34760D01*
X3533Y-34742D01*
X3561Y-34732D01*
X3580Y-34732D01*
X3608Y-34742D01*
X3617Y-34751D01*
X3786Y-34732D02*
X3749Y-34732D01*
X3730Y-34742D01*
X3721Y-34751D01*
X3702Y-34779D01*
X3693Y-34817D01*
X3693Y-34892D01*
X3702Y-34910D01*
X3711Y-34920D01*
X3730Y-34929D01*
X3768Y-34929D01*
X3786Y-34920D01*
X3796Y-34910D01*
X3805Y-34892D01*
X3805Y-34845D01*
X3796Y-34826D01*
X3786Y-34817D01*
X3768Y-34807D01*
X3730Y-34807D01*
X3711Y-34817D01*
X3702Y-34826D01*
X3693Y-34845D01*
X3523Y-32360D02*
X3514Y-32370D01*
X3486Y-32379D01*
X3467Y-32379D01*
X3439Y-32370D01*
X3420Y-32351D01*
X3411Y-32332D01*
X3402Y-32295D01*
X3402Y-32267D01*
X3411Y-32229D01*
X3420Y-32210D01*
X3439Y-32192D01*
X3467Y-32182D01*
X3486Y-32182D01*
X3514Y-32192D01*
X3523Y-32201D01*
X3711Y-32379D02*
X3599Y-32379D01*
X3655Y-32379D02*
X3655Y-32182D01*
X3636Y-32210D01*
X3617Y-32229D01*
X3599Y-32239D01*
X3899Y-32379D02*
X3787Y-32379D01*
X3843Y-32379D02*
X3843Y-32182D01*
X3824Y-32210D01*
X3805Y-32229D01*
X3787Y-32239D01*
X10317Y-8810D02*
X10308Y-8820D01*
X10280Y-8829D01*
X10261Y-8829D01*
X10233Y-8820D01*
X10214Y-8801D01*
X10205Y-8782D01*
X10196Y-8745D01*
X10196Y-8717D01*
X10205Y-8679D01*
X10214Y-8660D01*
X10233Y-8642D01*
X10261Y-8632D01*
X10280Y-8632D01*
X10308Y-8642D01*
X10317Y-8651D01*
X10383Y-8632D02*
X10514Y-8632D01*
X10430Y-8829D01*
G54D18*
X8262Y-10815D02*
X8271Y-10824D01*
X8281Y-10850D01*
X8281Y-10867D01*
X8271Y-10892D01*
X8252Y-10910D01*
X8233Y-10918D01*
X8195Y-10927D01*
X8167Y-10927D01*
X8129Y-10918D01*
X8110Y-10910D01*
X8090Y-10892D01*
X8081Y-10867D01*
X8081Y-10850D01*
X8090Y-10824D01*
X8100Y-10815D01*
X8281Y-10644D02*
X8281Y-10747D01*
X8281Y-10695D02*
X8081Y-10695D01*
X8110Y-10712D01*
X8129Y-10730D01*
X8138Y-10747D01*
X8081Y-10584D02*
X8081Y-10473D01*
X8157Y-10533D01*
X8157Y-10507D01*
X8167Y-10490D01*
X8176Y-10481D01*
X8195Y-10473D01*
X8243Y-10473D01*
X8262Y-10481D01*
X8271Y-10490D01*
X8281Y-10507D01*
X8281Y-10559D01*
X8271Y-10576D01*
X8262Y-10584D01*
G54D10*
G36*
X8200Y-28712D02*
X7847Y-28500D01*
X8200Y-28288D01*
X8200Y-28712D01*
X8200Y-28712D01*
G37*
G54D24*
X8200Y-28712D02*
X7847Y-28500D01*
X8200Y-28288D01*
X8200Y-28712D01*
M02*
