<?xml version="1.0" standalone="no"?>
 <!DOCTYPE svg PUBLIC "-//W3C//DTD SVG 1.1//EN" 
 "http://www.w3.org/Graphics/SVG/1.1/DTD/svg11.dtd"> 
<svg xmlns="http://www.w3.org/2000/svg" version="1.1" 
    width="29.7002cm" height="21.0007cm" viewBox="0 0 116930 82680 ">
<title>SVG Picture created as plot-SoldP_Front.svg date 2013/01/14 19:31:10 </title>
  <desc>Picture generated by PCBNEW </desc>
<g style="fill:#000000; fill-opacity:1;stroke:#000000; stroke-opacity:1;
stroke-linecap:round; stroke-linejoin:round; "
 transform="translate(0 0) scale(1 1)">
</g>
<g style="fill:#000000; fill-opacity:0.0; 
stroke:#000000; stroke-width:60; stroke-opacity:1; 
stroke-linecap:round; stroke-linejoin:round;">
<path d="M4000 4000
L112930 4000
L112930 78680
L4000 78680
L4000 4000
" />
<path d="M4700 4700
L112230 4700
L112230 77980
L4700 77980
L4700 4700
" />
<path d="M25780 4000
L25780 4700
" />
<path d="M15033 4552
L14747 4552
" />
<path d="M14890 4552
L14890 4052
L14842 4124
L14795 4171
L14747 4195
" />
<path d="M25780 78680
L25780 77980
" />
<path d="M15033 78532
L14747 78532
" />
<path d="M14890 78532
L14890 78032
L14842 78104
L14795 78151
L14747 78175
" />
<path d="M47560 4000
L47560 4700
" />
<path d="M36527 4100
L36551 4076
L36599 4052
L36718 4052
L36765 4076
L36789 4100
L36813 4148
L36813 4195
L36789 4267
L36503 4552
L36813 4552
" />
<path d="M47560 78680
L47560 77980
" />
<path d="M36527 78080
L36551 78056
L36599 78032
L36718 78032
L36765 78056
L36789 78080
L36813 78128
L36813 78175
L36789 78247
L36503 78532
L36813 78532
" />
<path d="M69340 4000
L69340 4700
" />
<path d="M58283 4052
L58593 4052
L58426 4243
L58498 4243
L58545 4267
L58569 4290
L58593 4338
L58593 4457
L58569 4505
L58545 4529
L58498 4552
L58355 4552
L58307 4529
L58283 4505
" />
<path d="M69340 78680
L69340 77980
" />
<path d="M58283 78032
L58593 78032
L58426 78223
L58498 78223
L58545 78247
L58569 78270
L58593 78318
L58593 78437
L58569 78485
L58545 78509
L58498 78532
L58355 78532
L58307 78509
L58283 78485
" />
<path d="M91120 4000
L91120 4700
" />
<path d="M80325 4219
L80325 4552
" />
<path d="M80206 4029
L80087 4386
L80397 4386
" />
<path d="M91120 78680
L91120 77980
" />
<path d="M80325 78199
L80325 78532
" />
<path d="M80206 78009
L80087 78366
L80397 78366
" />
<path d="M102129 4052
L101891 4052
L101867 4290
L101891 4267
L101939 4243
L102058 4243
L102105 4267
L102129 4290
L102153 4338
L102153 4457
L102129 4505
L102105 4529
L102058 4552
L101939 4552
L101891 4529
L101867 4505
" />
<path d="M102129 78032
L101891 78032
L101867 78270
L101891 78247
L101939 78223
L102058 78223
L102105 78247
L102129 78270
L102153 78318
L102153 78437
L102129 78485
L102105 78509
L102058 78532
L101939 78532
L101891 78509
L101867 78485
" />
<path d="M4000 28890
L4700 28890
" />
<path d="M4231 16510
L4469 16510
" />
<path d="M4184 16652
L4350 16152
L4517 16652
" />
<path d="M112930 28890
L112230 28890
" />
<path d="M112461 16510
L112699 16510
" />
<path d="M112414 16652
L112580 16152
L112747 16652
" />
<path d="M4000 53780
L4700 53780
" />
<path d="M4386 41280
L4457 41304
L4481 41328
L4505 41376
L4505 41447
L4481 41495
L4457 41519
L4410 41542
L4219 41542
L4219 41042
L4386 41042
L4433 41066
L4457 41090
L4481 41138
L4481 41185
L4457 41233
L4433 41257
L4386 41280
L4219 41280
" />
<path d="M112930 53780
L112230 53780
" />
<path d="M112616 41280
L112687 41304
L112711 41328
L112735 41376
L112735 41447
L112711 41495
L112687 41519
L112640 41542
L112449 41542
L112449 41042
L112616 41042
L112663 41066
L112687 41090
L112711 41138
L112711 41185
L112687 41233
L112663 41257
L112616 41280
L112449 41280
" />
<path d="M4505 66385
L4481 66409
L4410 66432
L4362 66432
L4290 66409
L4243 66361
L4219 66313
L4195 66218
L4195 66147
L4219 66051
L4243 66004
L4290 65956
L4362 65932
L4410 65932
L4481 65956
L4505 65980
" />
<path d="M112735 66385
L112711 66409
L112640 66432
L112592 66432
L112520 66409
L112473 66361
L112449 66313
L112425 66218
L112425 66147
L112449 66051
L112473 66004
L112520 65956
L112592 65932
L112640 65932
L112711 65956
L112735 65980
" />
<path d="M79380 76423
L79455 75823
L79598 75823
L79680 75851
L79730 75909
L79751 75966
L79766 76080
L79755 76166
L79712 76280
L79677 76337
L79612 76394
L79523 76423
L79380 76423
" />
<path d="M80237 76423
L80276 76109
L80255 76051
L80201 76023
L80087 76023
L80027 76051
" />
<path d="M80241 76394
L80180 76423
L80037 76423
L79984 76394
L79962 76337
L79969 76280
L80005 76223
L80066 76194
L80209 76194
L80269 76166
" />
<path d="M80487 76023
L80716 76023
" />
<path d="M80598 75823
L80534 76337
L80555 76394
L80609 76423
L80666 76423
" />
<path d="M81098 76394
L81037 76423
L80923 76423
L80870 76394
L80848 76337
L80876 76109
L80913 76051
L80973 76023
L81087 76023
L81141 76051
L81162 76109
L81155 76166
L80862 76223
" />
<path d="M81387 76366
L81412 76394
L81380 76423
L81355 76394
L81387 76366
L81380 76423
" />
<path d="M81427 76051
L81451 76080
L81419 76109
L81394 76080
L81427 76051
L81419 76109
" />
<path d="M82437 76423
L82094 76423
" />
<path d="M82266 76423
L82341 75823
L82273 75909
L82208 75966
L82148 75994
" />
<path d="M82823 76080
L82769 76051
L82744 76023
L82722 75966
L82726 75937
L82762 75880
L82794 75851
L82855 75823
L82969 75823
L83023 75851
L83048 75880
L83069 75937
L83065 75966
L83030 76023
L82998 76051
L82937 76080
L82823 76080
L82761 76109
L82730 76137
L82694 76194
L82679 76309
L82701 76366
L82726 76394
L82780 76423
L82894 76423
L82955 76394
L82987 76366
L83022 76309
L83037 76194
L83016 76137
L82990 76109
L82937 76080
" />
<path d="M83979 76423
L84054 75823
" />
<path d="M83983 76394
L83922 76423
L83808 76423
L83754 76394
L83729 76366
L83707 76309
L83729 76137
L83765 76080
L83797 76051
L83858 76023
L83972 76023
L84026 76051
" />
<path d="M84497 76394
L84436 76423
L84322 76423
L84269 76394
L84247 76337
L84275 76109
L84312 76051
L84372 76023
L84486 76023
L84540 76051
L84561 76109
L84554 76166
L84261 76223
" />
<path d="M85040 76394
L84979 76423
L84865 76423
L84811 76394
L84786 76366
L84764 76309
L84786 76137
L84822 76080
L84854 76051
L84915 76023
L85029 76023
L85083 76051
" />
<path d="M85789 75880
L85822 75851
L85882 75823
L86025 75823
L86079 75851
L86104 75880
L86125 75937
L86118 75994
L86079 76080
L85693 76423
L86064 76423
" />
<path d="M86510 75823
L86567 75823
L86621 75851
L86646 75880
L86668 75937
L86682 76051
L86664 76194
L86621 76309
L86585 76366
L86553 76394
L86492 76423
L86435 76423
L86382 76394
L86356 76366
L86335 76309
L86321 76194
L86339 76051
L86382 75937
L86417 75880
L86450 75851
L86510 75823
" />
<path d="M87206 76423
L86863 76423
" />
<path d="M87035 76423
L87110 75823
L87042 75909
L86977 75966
L86917 75994
" />
<path d="M87502 75880
L87535 75851
L87595 75823
L87738 75823
L87792 75851
L87817 75880
L87838 75937
L87831 75994
L87792 76080
L87406 76423
L87777 76423
" />
<path d="M70973 77623
L70973 77023
" />
<path d="M71316 77623
L71059 77280
" />
<path d="M71316 77023
L70973 77366
" />
<path d="M71573 77623
L71573 77223
" />
<path d="M71573 77023
L71544 77051
L71573 77080
L71601 77051
L71573 77023
L71573 77080
" />
<path d="M72202 77566
L72173 77594
L72087 77623
L72030 77623
L71945 77594
L71887 77537
L71859 77480
L71830 77366
L71830 77280
L71859 77166
L71887 77109
L71945 77051
L72030 77023
L72087 77023
L72173 77051
L72202 77080
" />
<path d="M72716 77623
L72716 77309
L72687 77251
L72630 77223
L72516 77223
L72459 77251
" />
<path d="M72716 77594
L72659 77623
L72516 77623
L72459 77594
L72430 77537
L72430 77480
L72459 77423
L72516 77394
L72659 77394
L72716 77366
" />
<path d="M73259 77623
L73259 77023
" />
<path d="M73259 77594
L73202 77623
L73088 77623
L73030 77594
L73002 77566
L72973 77509
L72973 77337
L73002 77280
L73030 77251
L73088 77223
L73202 77223
L73259 77251
" />
<path d="M74002 77309
L74202 77309
" />
<path d="M74288 77623
L74002 77623
L74002 77023
L74288 77023
" />
<path d="M74545 77566
L74573 77594
L74545 77623
L74516 77594
L74545 77566
L74545 77623
" />
<path d="M74831 77623
L74831 77023
L74974 77023
L75059 77051
L75117 77109
L75145 77166
L75174 77280
L75174 77366
L75145 77480
L75117 77537
L75059 77594
L74974 77623
L74831 77623
" />
<path d="M75431 77566
L75459 77594
L75431 77623
L75402 77594
L75431 77566
L75431 77623
" />
<path d="M75688 77451
L75974 77451
" />
<path d="M75631 77623
L75831 77023
L76031 77623
" />
<path d="M76231 77566
L76259 77594
L76231 77623
L76202 77594
L76231 77566
L76231 77623
" />
<path d="M104523 76423
L104359 76137
" />
<path d="M104180 76423
L104255 75823
L104483 75823
L104538 75851
L104562 75880
L104584 75937
L104573 76023
L104537 76080
L104505 76109
L104444 76137
L104216 76137
" />
<path d="M105012 76394
L104951 76423
L104837 76423
L104784 76394
L104762 76337
L104790 76109
L104827 76051
L104887 76023
L105001 76023
L105055 76051
L105076 76109
L105069 76166
L104776 76223
" />
<path d="M105287 76023
L105380 76423
L105572 76023
" />
<path d="M105758 76366
L105783 76394
L105751 76423
L105726 76394
L105758 76366
L105751 76423
" />
<path d="M105798 76051
L105822 76080
L105790 76109
L105765 76080
L105798 76051
L105790 76109
" />
<path d="M70944 76394
L71030 76423
L71173 76423
L71230 76394
L71259 76366
L71287 76309
L71287 76251
L71259 76194
L71230 76166
L71173 76137
L71059 76109
L71001 76080
L70973 76051
L70944 75994
L70944 75937
L70973 75880
L71001 75851
L71059 75823
L71201 75823
L71287 75851
" />
<path d="M71544 76423
L71544 76023
" />
<path d="M71544 75823
L71515 75851
L71544 75880
L71572 75851
L71544 75823
L71544 75880
" />
<path d="M71773 76023
L72087 76023
L71773 76423
L72087 76423
" />
<path d="M72544 76394
L72487 76423
L72373 76423
L72316 76394
L72287 76337
L72287 76109
L72316 76051
L72373 76023
L72487 76023
L72544 76051
L72573 76109
L72573 76166
L72287 76223
" />
<path d="M72830 76366
L72858 76394
L72830 76423
L72801 76394
L72830 76366
L72830 76423
" />
<path d="M72830 76051
L72858 76080
L72830 76109
L72801 76080
L72830 76051
L72830 76109
" />
<path d="M73544 76251
L73830 76251
" />
<path d="M73487 76423
L73687 75823
L73887 76423
" />
<path d="M74344 76023
L74344 76423
" />
<path d="M74201 75794
L74058 76223
L74430 76223
" />
<path d="M104173 77623
L104173 77023
" />
<path d="M104716 77623
L104716 77023
" />
<path d="M104716 77594
L104659 77623
L104545 77623
L104487 77594
L104459 77566
L104430 77509
L104430 77337
L104459 77280
L104487 77251
L104545 77223
L104659 77223
L104716 77251
" />
<path d="M105002 77566
L105030 77594
L105002 77623
L104973 77594
L105002 77566
L105002 77623
" />
<path d="M105002 77251
L105030 77280
L105002 77309
L104973 77280
L105002 77251
L105002 77309
" />
<path d="M106059 77623
L105716 77623
" />
<path d="M105888 77623
L105888 77023
L105831 77109
L105773 77166
L105716 77194
" />
<path d="M106744 76994
L106230 77766
" />
<path d="M107259 77623
L106916 77623
" />
<path d="M107088 77623
L107088 77023
L107031 77109
L106973 77166
L106916 77194
" />
<path d="M70969 74623
L71312 74623
" />
<path d="M71066 75223
L71141 74623
" />
<path d="M71437 75223
L71487 74823
" />
<path d="M71512 74623
L71480 74651
L71505 74680
L71537 74651
L71512 74623
L71505 74680
" />
<path d="M71687 74823
L71916 74823
" />
<path d="M71798 74623
L71734 75137
L71755 75194
L71809 75223
L71866 75223
" />
<path d="M72152 75223
L72098 75194
L72077 75137
L72141 74623
" />
<path d="M72612 75194
L72551 75223
L72437 75223
L72384 75194
L72362 75137
L72390 74909
L72427 74851
L72487 74823
L72601 74823
L72655 74851
L72676 74909
L72669 74966
L72376 75023
" />
<path d="M72901 75166
L72926 75194
L72894 75223
L72869 75194
L72901 75166
L72894 75223
" />
<path d="M72941 74851
L72965 74880
L72933 74909
L72908 74880
L72941 74851
L72933 74909
" />
<path d="M71173 72509
L70973 72509
" />
<path d="M70973 72823
L70973 72223
L71259 72223
" />
<path d="M71487 72823
L71487 72423
" />
<path d="M71487 72223
L71458 72251
L71487 72280
L71515 72251
L71487 72223
L71487 72280
" />
<path d="M71859 72823
L71801 72794
L71773 72737
L71773 72223
" />
<path d="M72315 72794
L72258 72823
L72144 72823
L72087 72794
L72058 72737
L72058 72509
L72087 72451
L72144 72423
L72258 72423
L72315 72451
L72344 72509
L72344 72566
L72058 72623
" />
<path d="M72601 72766
L72629 72794
L72601 72823
L72572 72794
L72601 72766
L72601 72823
" />
<path d="M72601 72451
L72629 72480
L72601 72509
L72572 72480
L72601 72451
L72601 72509
" />
<path d="M73344 72823
L73344 72223
" />
<path d="M73401 72594
L73572 72823
" />
<path d="M73572 72423
L73344 72651
" />
<path d="M74087 72823
L74087 72509
L74058 72451
L74001 72423
L73887 72423
L73830 72451
" />
<path d="M74087 72794
L74030 72823
L73887 72823
L73830 72794
L73801 72737
L73801 72680
L73830 72623
L73887 72594
L74030 72594
L74087 72566
" />
<path d="M74373 72823
L74373 72223
" />
<path d="M74373 72451
L74430 72423
L74544 72423
L74601 72451
L74630 72480
L74659 72537
L74659 72709
L74630 72766
L74601 72794
L74544 72823
L74430 72823
L74373 72794
" />
<path d="M75002 72823
L74944 72794
L74916 72766
L74887 72709
L74887 72537
L74916 72480
L74944 72451
L75002 72423
L75087 72423
L75144 72451
L75173 72480
L75202 72537
L75202 72709
L75173 72766
L75144 72794
L75087 72823
L75002 72823
" />
<path d="M75716 72823
L75716 72509
L75687 72451
L75630 72423
L75516 72423
L75459 72451
" />
<path d="M75716 72794
L75659 72823
L75516 72823
L75459 72794
L75430 72737
L75430 72680
L75459 72623
L75516 72594
L75659 72594
L75716 72566
" />
<path d="M76002 72823
L76002 72423
" />
<path d="M76002 72537
L76030 72480
L76059 72451
L76116 72423
L76173 72423
" />
<path d="M76630 72823
L76630 72223
" />
<path d="M76630 72794
L76573 72823
L76459 72823
L76401 72794
L76373 72766
L76344 72709
L76344 72537
L76373 72480
L76401 72451
L76459 72423
L76573 72423
L76630 72451
" />
<path d="M76916 72766
L76944 72794
L76916 72823
L76887 72794
L76916 72766
L76916 72823
" />
<path d="M77202 72823
L77202 72223
" />
<path d="M77202 72451
L77259 72423
L77373 72423
L77430 72451
L77459 72480
L77488 72537
L77488 72709
L77459 72766
L77430 72794
L77373 72823
L77259 72823
L77202 72794
" />
<path d="M77745 72823
L77745 72423
" />
<path d="M77745 72537
L77773 72480
L77802 72451
L77859 72423
L77916 72423
" />
<path d="M78373 72823
L78373 72223
" />
<path d="M78373 72794
L78316 72823
L78202 72823
L78144 72794
L78116 72766
L78087 72709
L78087 72537
L78116 72480
L78144 72451
L78202 72423
L78316 72423
L78373 72451
" />
<path d="M70944 73994
L71030 74023
L71173 74023
L71230 73994
L71259 73966
L71287 73909
L71287 73851
L71259 73794
L71230 73766
L71173 73737
L71059 73709
L71001 73680
L70973 73651
L70944 73594
L70944 73537
L70973 73480
L71001 73451
L71059 73423
L71201 73423
L71287 73451
" />
<path d="M71544 74023
L71544 73423
" />
<path d="M71801 74023
L71801 73709
L71772 73651
L71715 73623
L71630 73623
L71572 73651
L71544 73680
" />
<path d="M72315 73994
L72258 74023
L72144 74023
L72087 73994
L72058 73937
L72058 73709
L72087 73651
L72144 73623
L72258 73623
L72315 73651
L72344 73709
L72344 73766
L72058 73823
" />
<path d="M72829 73994
L72772 74023
L72658 74023
L72601 73994
L72572 73937
L72572 73709
L72601 73651
L72658 73623
L72772 73623
L72829 73651
L72858 73709
L72858 73766
L72572 73823
" />
<path d="M73029 73623
L73258 73623
" />
<path d="M73115 73423
L73115 73937
L73143 73994
L73201 74023
L73258 74023
" />
<path d="M73458 73966
L73486 73994
L73458 74023
L73429 73994
L73458 73966
L73458 74023
" />
<path d="M73458 73651
L73486 73680
L73458 73709
L73429 73680
L73458 73651
L73458 73709
" />
<path d="M70230 71980
L70230 77980
" />
<path d="M70230 71980
L112230 71980
" />
<path d="M70230 71980
L112230 71980
" />
<path d="M70230 74380
L112230 74380
" />
<path d="M103430 75580
L103430 77980
" />
<path d="M70230 76780
L112230 76780
" />
<path d="M70230 75580
L112230 75580
" />
<path d="M76830 75580
L76830 76780
" />
</g>
<g style="fill:#FFFF00; fill-opacity:0.0; 
stroke:#FFFF00; stroke-width:150; stroke-opacity:1; 
stroke-linecap:round; stroke-linejoin:round;">
<path d="M50500 68000
L62500 68000
" />
<path d="M62500 29000
L62500 68000
" />
<path d="M50500 29000
L62500 29000
" />
<path d="M50500 29000
L50500 68000
" />
</g>
<g style="fill:#A00000; fill-opacity:0.0; 
stroke:#A00000; stroke-width:60; stroke-opacity:1; 
stroke-linecap:round; stroke-linejoin:round;">
</g>
<g style="fill:#A00000; fill-opacity:1.0; 
stroke:#A00000; stroke-width:60; stroke-opacity:1; 
stroke-linecap:round; stroke-linejoin:round;">
<polyline style="fill-rule:evenodd;"
points="58995,60968
59643,60968
59643,61420
58995,61420
58995,60968
" /> 
<polyline style="fill-rule:evenodd;"
points="58995,61874
59643,61874
59643,62326
58995,62326
58995,61874
" /> 
<polyline style="fill-rule:evenodd;"
points="58995,62780
59643,62780
59643,63232
58995,63232
58995,62780
" /> 
<polyline style="fill-rule:evenodd;"
points="61357,61382
62005,61382
62005,62818
61357,62818
61357,61382
" /> 
<polyline style="fill-rule:evenodd;"
points="58120,39700
57680,39700
57680,39600
58120,39600
58120,39700
" /> 
<polyline style="fill-rule:evenodd;"
points="58120,39450
57680,39450
57680,39350
58120,39350
58120,39450
" /> 
<polyline style="fill-rule:evenodd;"
points="58120,39190
57680,39190
57680,39090
58120,39090
58120,39190
" /> 
<polyline style="fill-rule:evenodd;"
points="58120,38930
57680,38930
57680,38830
58120,38830
58120,38930
" /> 
<polyline style="fill-rule:evenodd;"
points="58120,38680
57680,38680
57680,38580
58120,38580
58120,38680
" /> 
<polyline style="fill-rule:evenodd;"
points="58120,38420
57680,38420
57680,38320
58120,38320
58120,38420
" /> 
<polyline style="fill-rule:evenodd;"
points="58120,38160
57680,38160
57680,38060
58120,38060
58120,38160
" /> 
<polyline style="fill-rule:evenodd;"
points="58120,37910
57680,37910
57680,37810
58120,37810
58120,37910
" /> 
<polyline style="fill-rule:evenodd;"
points="58120,37650
57680,37650
57680,37550
58120,37550
58120,37650
" /> 
<polyline style="fill-rule:evenodd;"
points="58120,37400
57680,37400
57680,37300
58120,37300
58120,37400
" /> 
<polyline style="fill-rule:evenodd;"
points="58120,37140
57680,37140
57680,37040
58120,37040
58120,37140
" /> 
<polyline style="fill-rule:evenodd;"
points="58120,36880
57680,36880
57680,36780
58120,36780
58120,36880
" /> 
<polyline style="fill-rule:evenodd;"
points="58120,36630
57680,36630
57680,36530
58120,36530
58120,36630
" /> 
<polyline style="fill-rule:evenodd;"
points="58120,36370
57680,36370
57680,36270
58120,36270
58120,36370
" /> 
<polyline style="fill-rule:evenodd;"
points="55320,36370
54880,36370
54880,36270
55320,36270
55320,36370
" /> 
<polyline style="fill-rule:evenodd;"
points="55320,36630
54880,36630
54880,36530
55320,36530
55320,36630
" /> 
<polyline style="fill-rule:evenodd;"
points="55320,36870
54880,36870
54880,36770
55320,36770
55320,36870
" /> 
<polyline style="fill-rule:evenodd;"
points="55320,37140
54880,37140
54880,37040
55320,37040
55320,37140
" /> 
<polyline style="fill-rule:evenodd;"
points="55320,37400
54880,37400
54880,37300
55320,37300
55320,37400
" /> 
<polyline style="fill-rule:evenodd;"
points="55320,37650
54880,37650
54880,37550
55320,37550
55320,37650
" /> 
<polyline style="fill-rule:evenodd;"
points="55320,37910
54880,37910
54880,37810
55320,37810
55320,37910
" /> 
<polyline style="fill-rule:evenodd;"
points="55320,38160
54880,38160
54880,38060
55320,38060
55320,38160
" /> 
<polyline style="fill-rule:evenodd;"
points="55320,38420
54880,38420
54880,38320
55320,38320
55320,38420
" /> 
<polyline style="fill-rule:evenodd;"
points="55320,38680
54880,38680
54880,38580
55320,38580
55320,38680
" /> 
<polyline style="fill-rule:evenodd;"
points="55320,38930
54880,38930
54880,38830
55320,38830
55320,38930
" /> 
<polyline style="fill-rule:evenodd;"
points="55320,39190
54880,39190
54880,39090
55320,39090
55320,39190
" /> 
<polyline style="fill-rule:evenodd;"
points="55320,39450
54880,39450
54880,39350
55320,39350
55320,39450
" /> 
<polyline style="fill-rule:evenodd;"
points="55320,39700
54880,39700
54880,39600
55320,39600
55320,39700
" /> 
<polyline style="fill-rule:evenodd;"
points="57330,34045
57330,33555
57620,33555
57620,34045
57330,34045
" /> 
<polyline style="fill-rule:evenodd;"
points="58080,34045
58080,33555
58370,33555
58370,34045
58080,34045
" /> 
<polyline style="fill-rule:evenodd;"
points="53055,39045
53055,38655
53245,38655
53245,39045
53055,39045
" /> 
<polyline style="fill-rule:evenodd;"
points="53655,39045
53655,38655
53845,38655
53845,39045
53655,39045
" /> 
<polyline style="fill-rule:evenodd;"
points="52405,42195
52405,41805
52595,41805
52595,42195
52405,42195
" /> 
<polyline style="fill-rule:evenodd;"
points="53005,42195
53005,41805
53195,41805
53195,42195
53005,42195
" /> 
<polyline style="fill-rule:evenodd;"
points="54305,56695
54305,56305
54495,56305
54495,56695
54305,56695
" /> 
<polyline style="fill-rule:evenodd;"
points="54905,56695
54905,56305
55095,56305
55095,56695
54905,56695
" /> 
<polyline style="fill-rule:evenodd;"
points="55545,34805
55545,35195
55355,35195
55355,34805
55545,34805
" /> 
<polyline style="fill-rule:evenodd;"
points="54945,34805
54945,35195
54755,35195
54755,34805
54945,34805
" /> 
<polyline style="fill-rule:evenodd;"
points="54945,33805
54945,34195
54755,34195
54755,33805
54945,33805
" /> 
<polyline style="fill-rule:evenodd;"
points="54345,33805
54345,34195
54155,34195
54155,33805
54345,33805
" /> 
<polyline style="fill-rule:evenodd;"
points="53055,38295
53055,37905
53245,37905
53245,38295
53055,38295
" /> 
<polyline style="fill-rule:evenodd;"
points="53655,38295
53655,37905
53845,37905
53845,38295
53655,38295
" /> 
<polyline style="fill-rule:evenodd;"
points="51855,38295
51855,37905
52045,37905
52045,38295
51855,38295
" /> 
<polyline style="fill-rule:evenodd;"
points="52455,38295
52455,37905
52645,37905
52645,38295
52455,38295
" /> 
<polyline style="fill-rule:evenodd;"
points="60405,50195
60405,49805
60595,49805
60595,50195
60405,50195
" /> 
<polyline style="fill-rule:evenodd;"
points="61005,50195
61005,49805
61195,49805
61195,50195
61005,50195
" /> 
<polyline style="fill-rule:evenodd;"
points="60255,47905
60645,47905
60645,48095
60255,48095
60255,47905
" /> 
<polyline style="fill-rule:evenodd;"
points="60255,48505
60645,48505
60645,48695
60255,48695
60255,48505
" /> 
<polyline style="fill-rule:evenodd;"
points="51695,50195
51305,50195
51305,50005
51695,50005
51695,50195
" /> 
<polyline style="fill-rule:evenodd;"
points="51695,49595
51305,49595
51305,49405
51695,49405
51695,49595
" /> 
<polyline style="fill-rule:evenodd;"
points="51305,50805
51695,50805
51695,50995
51305,50995
51305,50805
" /> 
<polyline style="fill-rule:evenodd;"
points="51305,51405
51695,51405
51695,51595
51305,51595
51305,51405
" /> 
<polyline style="fill-rule:evenodd;"
points="58895,38995
58505,38995
58505,38805
58895,38805
58895,38995
" /> 
<polyline style="fill-rule:evenodd;"
points="58895,38395
58505,38395
58505,38205
58895,38205
58895,38395
" /> 
<polyline style="fill-rule:evenodd;"
points="59645,38995
59255,38995
59255,38805
59645,38805
59645,38995
" /> 
<polyline style="fill-rule:evenodd;"
points="59645,38395
59255,38395
59255,38205
59645,38205
59645,38395
" /> 
<polyline style="fill-rule:evenodd;"
points="54345,36605
54345,36995
54155,36995
54155,36605
54345,36605
" /> 
<polyline style="fill-rule:evenodd;"
points="53745,36605
53745,36995
53555,36995
53555,36605
53745,36605
" /> 
<polyline style="fill-rule:evenodd;"
points="51855,39045
51855,38655
52045,38655
52045,39045
51855,39045
" /> 
<polyline style="fill-rule:evenodd;"
points="52455,39045
52455,38655
52645,38655
52645,39045
52455,39045
" /> 
<polyline style="fill-rule:evenodd;"
points="58345,60595
57955,60595
57955,60405
58345,60405
58345,60595
" /> 
<polyline style="fill-rule:evenodd;"
points="58345,59995
57955,59995
57955,59805
58345,59805
58345,59995
" /> 
<polyline style="fill-rule:evenodd;"
points="51855,39795
51855,39405
52045,39405
52045,39795
51855,39795
" /> 
<polyline style="fill-rule:evenodd;"
points="52455,39795
52455,39405
52645,39405
52645,39795
52455,39795
" /> 
<polyline style="fill-rule:evenodd;"
points="53055,39795
53055,39405
53245,39405
53245,39795
53055,39795
" /> 
<polyline style="fill-rule:evenodd;"
points="53655,39795
53655,39405
53845,39405
53845,39795
53655,39795
" /> 
<polyline style="fill-rule:evenodd;"
points="58013,62872
58287,62872
58287,63146
58013,63146
58013,62872
" /> 
<polyline style="fill-rule:evenodd;"
points="58013,61554
58287,61554
58287,61828
58013,61828
58013,61554
" /> 
<polyline style="fill-rule:evenodd;"
points="55158,32023
55158,32827
54354,32827
54354,32023
55158,32023
" /> 
<polyline style="fill-rule:evenodd;"
points="57197,32133
57197,32937
57061,32937
57061,32133
57197,32133
" /> 
<polyline style="fill-rule:evenodd;"
points="56882,32133
56882,32937
56746,32937
56746,32133
56882,32133
" /> 
<polyline style="fill-rule:evenodd;"
points="56568,32133
56568,32937
56432,32937
56432,32133
56568,32133
" /> 
<polyline style="fill-rule:evenodd;"
points="56254,32133
56254,32937
56118,32937
56118,32133
56254,32133
" /> 
<polyline style="fill-rule:evenodd;"
points="55939,32133
55939,32937
55803,32937
55803,32133
55939,32133
" /> 
<polyline style="fill-rule:evenodd;"
points="58646,32023
58646,32827
57842,32827
57842,32023
58646,32023
" /> 
<polyline style="fill-rule:evenodd;"
points="58646,29858
58646,30662
57842,30662
57842,29858
58646,29858
" /> 
<polyline style="fill-rule:evenodd;"
points="55158,29858
55158,30662
54354,30662
54354,29858
55158,29858
" /> 
<polyline style="fill-rule:evenodd;"
points="55806,63285
55806,62715
56926,62715
56926,63285
55806,63285
" /> 
<polyline style="fill-rule:evenodd;"
points="54074,63285
54074,62715
55194,62715
55194,63285
54074,63285
" /> 
<polyline style="fill-rule:evenodd;"
points="55806,60785
55806,60215
56926,60215
56926,60785
55806,60785
" /> 
<polyline style="fill-rule:evenodd;"
points="54074,60785
54074,60215
55194,60215
55194,60785
54074,60785
" /> 
<polyline style="fill-rule:evenodd;"
points="60027,37135
60027,36565
60991,36565
60991,37135
60027,37135
" /> 
<polyline style="fill-rule:evenodd;"
points="58609,37135
58609,36565
59573,36565
59573,37135
58609,37135
" /> 
</g>
<g style="fill:#FFFFFF; fill-opacity:1.0; 
stroke:#FFFFFF; stroke-width:60; stroke-opacity:1; 
stroke-linecap:round; stroke-linejoin:round;">
<circle cx="56000" cy="35000" r="70" /> 
<circle cx="57500" cy="35000" r="70" /> 
<circle cx="58500" cy="39400" r="70" /> 
<circle cx="53000" cy="49500" r="120" /> 
<circle cx="53000" cy="51500" r="120" /> 
<circle cx="54000" cy="35000" r="130" /> 
<circle cx="53000" cy="35000" r="130" /> 
<circle cx="51500" cy="56500" r="130" /> 
<circle cx="53500" cy="56500" r="130" /> 
<circle cx="51500" cy="59500" r="130" /> 
<circle cx="53500" cy="59500" r="130" /> 
<circle cx="59500" cy="56000" r="130" /> 
<circle cx="59500" cy="55000" r="130" /> 
<circle cx="59500" cy="54000" r="130" /> 
<circle cx="59500" cy="53000" r="130" /> 
<circle cx="59500" cy="52000" r="130" /> 
<circle cx="59500" cy="51000" r="130" /> 
<circle cx="59500" cy="47000" r="130" /> 
<circle cx="59500" cy="46000" r="130" /> 
<circle cx="59500" cy="45000" r="130" /> 
<circle cx="59500" cy="44000" r="130" /> 
<circle cx="59500" cy="43000" r="130" /> 
<circle cx="59500" cy="42000" r="130" /> 
<circle cx="60500" cy="56000" r="130" /> 
<circle cx="60500" cy="55000" r="130" /> 
<circle cx="60500" cy="54000" r="130" /> 
<circle cx="60500" cy="53000" r="130" /> 
<circle cx="60500" cy="52000" r="130" /> 
<circle cx="60500" cy="51000" r="130" /> 
<circle cx="61500" cy="56000" r="130" /> 
<circle cx="61500" cy="55000" r="130" /> 
<circle cx="61500" cy="54000" r="130" /> 
<circle cx="61500" cy="53000" r="130" /> 
<circle cx="61500" cy="52000" r="130" /> 
<circle cx="61500" cy="51000" r="130" /> 
<circle cx="60500" cy="47000" r="130" /> 
<circle cx="60500" cy="46000" r="130" /> 
<circle cx="60500" cy="45000" r="130" /> 
<circle cx="60500" cy="44000" r="130" /> 
<circle cx="60500" cy="43000" r="130" /> 
<circle cx="60500" cy="42000" r="130" /> 
<circle cx="61500" cy="47000" r="130" /> 
<circle cx="61500" cy="46000" r="130" /> 
<circle cx="61500" cy="45000" r="130" /> 
<circle cx="61500" cy="44000" r="130" /> 
<circle cx="61500" cy="43000" r="130" /> 
<circle cx="61500" cy="42000" r="130" /> 
<circle cx="53500" cy="43000" r="130" /> 
<circle cx="53500" cy="44000" r="130" /> 
<circle cx="53500" cy="45000" r="130" /> 
<circle cx="53500" cy="46000" r="130" /> 
<circle cx="53500" cy="47000" r="130" /> 
<circle cx="52500" cy="43000" r="130" /> 
<circle cx="52500" cy="44000" r="130" /> 
<circle cx="52500" cy="45000" r="130" /> 
<circle cx="52500" cy="46000" r="130" /> 
<circle cx="52500" cy="47000" r="130" /> 
<circle cx="51500" cy="43000" r="130" /> 
<circle cx="51500" cy="44000" r="130" /> 
<circle cx="51500" cy="45000" r="130" /> 
<circle cx="51500" cy="46000" r="130" /> 
<circle cx="51500" cy="47000" r="130" /> 
<circle cx="51500" cy="53500" r="130" /> 
<circle cx="51500" cy="54500" r="130" /> 
<circle cx="51500" cy="55500" r="130" /> 
<circle cx="52500" cy="53500" r="130" /> 
<circle cx="52500" cy="54500" r="130" /> 
<circle cx="52500" cy="55500" r="130" /> 
<circle cx="53500" cy="53500" r="130" /> 
<circle cx="53500" cy="54500" r="130" /> 
<circle cx="53500" cy="55500" r="130" /> 
<circle cx="59000" cy="35000" r="130" /> 
<circle cx="60000" cy="35000" r="130" /> 
<circle cx="59500" cy="48000" r="130" /> 
<circle cx="59500" cy="49000" r="130" /> 
<circle cx="55000" cy="43000" r="130" /> 
<circle cx="55000" cy="44000" r="130" /> 
<circle cx="55000" cy="45000" r="130" /> 
<circle cx="55000" cy="46000" r="130" /> 
<circle cx="55000" cy="47000" r="130" /> 
<circle cx="55000" cy="48000" r="130" /> 
<circle cx="55000" cy="49000" r="130" /> 
<circle cx="55000" cy="50000" r="130" /> 
<circle cx="55000" cy="51000" r="130" /> 
<circle cx="55000" cy="52000" r="130" /> 
<circle cx="55000" cy="53000" r="130" /> 
<circle cx="55000" cy="54000" r="130" /> 
<circle cx="55000" cy="55000" r="130" /> 
<circle cx="55000" cy="42000" r="130" /> 
<circle cx="58000" cy="55000" r="130" /> 
<circle cx="58000" cy="54000" r="130" /> 
<circle cx="58000" cy="53000" r="130" /> 
<circle cx="58000" cy="52000" r="130" /> 
<circle cx="58000" cy="51000" r="130" /> 
<circle cx="58000" cy="50000" r="130" /> 
<circle cx="58000" cy="49000" r="130" /> 
<circle cx="58000" cy="48000" r="130" /> 
<circle cx="58000" cy="47000" r="130" /> 
<circle cx="58000" cy="46000" r="130" /> 
<circle cx="58000" cy="45000" r="130" /> 
<circle cx="58000" cy="44000" r="130" /> 
<circle cx="58000" cy="43000" r="130" /> 
<circle cx="58000" cy="42000" r="130" /> 
<circle cx="55500" cy="66500" r="270" /> 
<circle cx="57500" cy="66500" r="270" /> 
<circle cx="52500" cy="31000" r="580" /> 
<circle cx="60500" cy="31000" r="580" /> 
<circle cx="52500" cy="66000" r="580" /> 
<circle cx="60500" cy="66000" r="580" /> 
<circle cx="57365" cy="31540" r="146.5" /> 
<circle cx="55634" cy="31540" r="146.5" /> 
<circle cx="57500" cy="57500" r="170" /> 
<circle cx="57500" cy="58500" r="170" /> 
<circle cx="56500" cy="57500" r="170" /> 
<circle cx="56500" cy="58500" r="170" /> 
<circle cx="55500" cy="57500" r="170" /> 
<circle cx="55500" cy="58500" r="170" /> 
</g> 
</svg>
