<?xml version="1.0" encoding="UTF-8" standalone="no"?>
<!-- Generator: Adobe Illustrator 13.0.2, SVG Export Plug-In . SVG Version: 6.00 Build 14948)  -->

<svg
   xmlns:osb="http://www.openswatchbook.org/uri/2009/osb"
   xmlns:dc="http://purl.org/dc/elements/1.1/"
   xmlns:cc="http://creativecommons.org/ns#"
   xmlns:rdf="http://www.w3.org/1999/02/22-rdf-syntax-ns#"
   xmlns:svg="http://www.w3.org/2000/svg"
   xmlns="http://www.w3.org/2000/svg"
   xmlns:xlink="http://www.w3.org/1999/xlink"
   xmlns:sodipodi="http://sodipodi.sourceforge.net/DTD/sodipodi-0.dtd"
   xmlns:inkscape="http://www.inkscape.org/namespaces/inkscape"
   version="1.2"
   id="Layer_1"
   x="0px"
   y="0px"
   viewBox="0 0 172.238 180.994"
   xml:space="preserve"
   inkscape:version="0.48.3.1 r9886"
   width="100%"
   height="100%"
   sodipodi:docname="logo.svg"><metadata
   id="metadata43"><rdf:RDF><cc:Work
       rdf:about=""><dc:format>image/svg+xml</dc:format><dc:type
         rdf:resource="http://purl.org/dc/dcmitype/StillImage" /><dc:title></dc:title></cc:Work></rdf:RDF></metadata><defs
   id="defs41"><linearGradient
     id="linearGradient3794"
     osb:paint="solid"><stop
       style="stop-color:#ffffff;stop-opacity:1;"
       offset="0"
       id="stop3796" /></linearGradient><linearGradient
     inkscape:collect="always"
     xlink:href="#linearGradient3794"
     id="linearGradient3798"
     x1="-153.8466"
     y1="-151.43727"
     x2="-40.726609"
     y2="-151.43727"
     gradientUnits="userSpaceOnUse" /></defs><sodipodi:namedview
   pagecolor="#ffffff"
   bordercolor="#666666"
   borderopacity="1"
   objecttolerance="10"
   gridtolerance="10"
   guidetolerance="10"
   inkscape:pageopacity="0"
   inkscape:pageshadow="2"
   inkscape:window-width="1280"
   inkscape:window-height="747"
   id="namedview39"
   showgrid="false"
   inkscape:zoom="1.8440081"
   inkscape:cx="54.794551"
   inkscape:cy="68.239364"
   inkscape:window-x="0"
   inkscape:window-y="31"
   inkscape:window-maximized="1"
   inkscape:current-layer="Layer_1" />
<path
   d="M 85.65625 0 L 83.21875 12.28125 C 83.21875 12.28125 79.655363 6.4905269 76.53125 2.09375 L 73.625 17.71875 C 73.549 18.11975 73.16925 18.5595 72.78125 18.6875 L 61.375 23.34375 C 61.009 23.52375 60.42875 23.51225 60.09375 23.28125 L 49.125 15.71875 L 49.46875 18.40625 L 44.125 14.28125 L 42.5 15.90625 L 50.21875 24.53125 L 39.625 18.78125 L 36.8125 21.59375 L 40.25 26.46875 L 34.90625 23.5 L 32.8125 25.59375 C 32.5245 25.88275 32.4565 26.38275 32.6875 26.71875 L 42.28125 40.6875 C 42.51125 41.0255 42.53075 41.60575 42.34375 41.96875 L 37.3125 53.71875 C 37.1785 54.10475 36.74575 54.4875 36.34375 54.5625 L 19.90625 57.59375 C 19.657823 57.640716 19.472429 57.814018 19.34375 58.03125 L 23.78125 61.34375 L 19.1875 64.4375 L 19.1875 68.9375 L 32.21875 65.5625 L 19.1875 71.5 L 19.1875 75.40625 C 19.1875 75.81425 19.50525 76.20825 19.90625 76.28125 L 35.9375 79.25 C 36.3385 79.323 36.78425 79.70475 36.90625 80.09375 L 41.90625 92.625 C 42.08525 92.992 42.0445 93.539 41.8125 93.875 L 32.6875 107.15625 C 32.4575 107.49225 32.5245 108.0235 32.8125 108.3125 L 33.59375 109.09375 L 39.5 105.84375 L 37.71875 113.21875 L 40 115.5 L 47.9375 108.90625 L 43.78125 119.28125 L 44.75 120.25 C 45.038 120.537 45.56925 120.604 45.90625 120.375 L 58.9375 111.40625 C 59.2735 111.17625 59.8365 111.17 60.1875 111.375 L 65.9375 114.4375 C 66.3015 114.6235 66.719 114.47075 66.875 114.09375 L 78.75 85.4375 C 78.907 85.0605 78.75425 84.588 78.40625 84.375 L 76.9375 83.5 C 76.708037 83.360252 76.416046 83.130258 76.15625 82.90625 L 70.9375 85.5 C 70.9375 85.5 72.181882 83.178649 73.28125 80.65625 C 71.492822 78.970695 70.047132 76.929958 69.03125 74.65625 C 64.278484 75.113623 58.28125 75.9375 58.28125 75.9375 L 60.59375 66.34375 L 67.46875 65.5 C 67.551736 64.481546 67.729179 63.497009 67.96875 62.53125 L 60.59375 53.6875 L 66.71875 44.09375 L 75.15625 47.9375 L 77.53125 50.4375 C 78.728768 49.817684 80.012696 49.320002 81.34375 48.96875 L 80.15625 43.34375 L 91.65625 43.71875 C 91.65625 43.71875 98.536445 42.955093 95.46875 46.40625 C 94.442115 47.561214 93.693764 48.693139 93.125 49.71875 C 94.393197 50.231711 95.60647 50.859845 96.71875 51.625 L 102 49.84375 L 108.90625 51.78125 L 104.6875 58.65625 L 121.5625 56.75 L 104.375 62.96875 C 104.503 63.54403 104.58256 64.124859 104.65625 64.71875 L 120.03125 64.40625 L 104.3125 71.40625 C 104.14486 72.103871 103.93093 72.804051 103.6875 73.46875 L 108.90625 81.28125 L 98.9375 84.75 L 93.5625 84.75 C 93.457236 84.970728 93.4064 85.2113 93.5 85.4375 L 105.34375 114.09375 C 105.49975 114.47075 105.9475 114.6225 106.3125 114.4375 L 112.0625 111.375 C 112.4145 111.17 112.9765 111.17525 113.3125 111.40625 L 126.34375 120.375 C 126.67975 120.604 127.18175 120.537 127.46875 120.25 L 139.4375 108.3125 C 139.7265 108.0235 139.76225 107.49225 139.53125 107.15625 L 130.4375 93.875 C 130.2075 93.539 130.16475 92.992 130.34375 92.625 L 135.34375 80.09375 C 135.46675 79.70475 135.9105 79.323 136.3125 79.25 L 148.5 77 L 148.03125 76.3125 L 145.34375 70.9375 L 149.9375 68.25 L 146.46875 61.75 L 150.28125 57.21875 L 135.90625 54.5625 C 135.50625 54.4875 135.0725 54.10475 134.9375 53.71875 L 129.875 41.96875 C 129.687 41.60575 129.73675 41.0255 129.96875 40.6875 L 137.96875 29 L 135.75 26.46875 L 131.15625 27.21875 L 130.75 23.40625 L 125.40625 23 L 128.0625 19.1875 L 123.5625 15.4375 L 112.125 23.28125 C 111.789 23.51225 111.20875 23.52375 110.84375 23.34375 L 99.46875 18.6875 C 99.08175 18.5595 98.701 18.11975 98.625 17.71875 L 97 8.96875 L 91.375 0 L 85.65625 0 z M 152.6875 57.78125 C 152.74822 57.86495 152.90649 58.027732 153 58.15625 C 152.93887 57.994859 152.82386 57.886955 152.6875 57.78125 z "
   transform="translate(-1.7276725e-6,0)"
   id="path3"
   inkscape:export-filename="/home/sebastian/projects/kaboard/artwork/text3828.png"
   inkscape:export-xdpi="2999.8286"
   inkscape:export-ydpi="2999.8286" />

















<text
   xml:space="preserve"
   style="font-size:29.68623161px;font-style:normal;font-variant:normal;font-weight:normal;font-stretch:normal;line-height:125%;letter-spacing:0px;word-spacing:0px;fill:#000000;fill-opacity:1;stroke:none;font-family:DejaVu Sans;-inkscape-font-specification:DejaVu Sans"
   x="33.288513"
   y="130.25398"
   id="text3828"
   sodipodi:linespacing="125%"
   transform="scale(0.82429276,1.2131612)"
   inkscape:export-xdpi="2999.8286"
   inkscape:export-ydpi="2999.8286"><tspan
     sodipodi:role="line"
     id="tspan3830"
     x="33.288513"
     y="130.25398"
     style="font-style:normal;font-variant:normal;font-weight:bold;font-stretch:normal;font-family:DejaVu Sans;-inkscape-font-specification:DejaVu Sans Bold">KaBoard</tspan></text>

</svg>