M48
;DRILL file {Pcbnew (2012-10-13 BZR 3765)-stable} date Tue 18 Dec 2012 05:56:45 PM CET
;FORMAT={-:-/ absolute / inch / decimal}
FMAT,2
INCH,TZ
T1C0.020
T2C0.030
T3C0.032
T4C0.035
T5C0.040
T6C0.060
T7C0.122
%
G90
G05
M72
T1
X0.6002Y-0.6259
X0.7502Y-0.6259
X0.8502Y-1.0659
X1.8993Y-0.6258
X2.0493Y-0.6258
X2.1493Y-1.0658
X3.2379Y-0.6259
X3.3879Y-0.6259
X3.4879Y-1.0659
T2
X0.3002Y-2.0759
X0.3002Y-2.2759
X1.5993Y-2.0758
X1.5993Y-2.2758
X2.9379Y-2.0759
X2.9379Y-2.2759
T3
X0.1502Y-1.4259
X0.1502Y-1.5259
X0.1502Y-1.6259
X0.1502Y-1.7259
X0.1502Y-1.8259
X0.1502Y-2.4759
X0.1502Y-2.5759
X0.1502Y-2.6759
X0.1502Y-2.7759
X0.1502Y-3.0759
X0.2502Y-1.4259
X0.2502Y-1.5259
X0.2502Y-1.6259
X0.2502Y-1.7259
X0.2502Y-1.8259
X0.2502Y-2.4759
X0.2502Y-2.5759
X0.2502Y-2.6759
X0.3002Y-0.6259
X0.3502Y-1.4259
X0.3502Y-1.5259
X0.3502Y-1.6259
X0.3502Y-1.7259
X0.3502Y-1.8259
X0.3502Y-2.4759
X0.3502Y-2.5759
X0.3502Y-2.6759
X0.3502Y-2.7759
X0.3502Y-3.0759
X0.4002Y-0.6259
X0.5002Y-1.3259
X0.5002Y-1.4259
X0.5002Y-1.5259
X0.5002Y-1.6259
X0.5002Y-1.7259
X0.5002Y-1.8259
X0.5002Y-1.9259
X0.5002Y-2.0259
X0.5002Y-2.1259
X0.5002Y-2.2259
X0.5002Y-2.3259
X0.5002Y-2.4259
X0.5002Y-2.5259
X0.5002Y-2.6259
X0.8002Y-1.3259
X0.8002Y-1.4259
X0.8002Y-1.5259
X0.8002Y-1.6259
X0.8002Y-1.7259
X0.8002Y-1.8259
X0.8002Y-1.9259
X0.8002Y-2.0259
X0.8002Y-2.1259
X0.8002Y-2.2259
X0.8002Y-2.3259
X0.8002Y-2.4259
X0.8002Y-2.5259
X0.8002Y-2.6259
X0.9002Y-0.6259
X0.9502Y-1.3259
X0.9502Y-1.4259
X0.9502Y-1.5259
X0.9502Y-1.6259
X0.9502Y-1.7259
X0.9502Y-1.8259
X0.9502Y-1.9259
X0.9502Y-2.0259
X0.9502Y-2.2259
X0.9502Y-2.3259
X0.9502Y-2.4259
X0.9502Y-2.5259
X0.9502Y-2.6259
X0.9502Y-2.7259
X1.0002Y-0.6259
X1.0502Y-1.3259
X1.0502Y-1.4259
X1.0502Y-1.5259
X1.0502Y-1.6259
X1.0502Y-1.7259
X1.0502Y-1.8259
X1.0502Y-2.2259
X1.0502Y-2.3259
X1.0502Y-2.4259
X1.0502Y-2.5259
X1.0502Y-2.6259
X1.0502Y-2.7259
X1.1502Y-1.3259
X1.1502Y-1.4259
X1.1502Y-1.5259
X1.1502Y-1.6259
X1.1502Y-1.7259
X1.1502Y-1.8259
X1.1502Y-2.2259
X1.1502Y-2.3259
X1.1502Y-2.4259
X1.1502Y-2.5259
X1.1502Y-2.6259
X1.1502Y-2.7259
X1.4493Y-1.4258
X1.4493Y-1.5258
X1.4493Y-1.6258
X1.4493Y-1.7258
X1.4493Y-1.8258
X1.4493Y-2.4758
X1.4493Y-2.5758
X1.4493Y-2.6758
X1.4493Y-2.7758
X1.4493Y-3.0758
X1.5493Y-1.4258
X1.5493Y-1.5258
X1.5493Y-1.6258
X1.5493Y-1.7258
X1.5493Y-1.8258
X1.5493Y-2.4758
X1.5493Y-2.5758
X1.5493Y-2.6758
X1.5993Y-0.6258
X1.6493Y-1.4258
X1.6493Y-1.5258
X1.6493Y-1.6258
X1.6493Y-1.7258
X1.6493Y-1.8258
X1.6493Y-2.4758
X1.6493Y-2.5758
X1.6493Y-2.6758
X1.6493Y-2.7758
X1.6493Y-3.0758
X1.6993Y-0.6258
X1.7993Y-1.3258
X1.7993Y-1.4258
X1.7993Y-1.5258
X1.7993Y-1.6258
X1.7993Y-1.7258
X1.7993Y-1.8258
X1.7993Y-1.9258
X1.7993Y-2.0258
X1.7993Y-2.1258
X1.7993Y-2.2258
X1.7993Y-2.3258
X1.7993Y-2.4258
X1.7993Y-2.5258
X1.7993Y-2.6258
X2.0993Y-1.3258
X2.0993Y-1.4258
X2.0993Y-1.5258
X2.0993Y-1.6258
X2.0993Y-1.7258
X2.0993Y-1.8258
X2.0993Y-1.9258
X2.0993Y-2.0258
X2.0993Y-2.1258
X2.0993Y-2.2258
X2.0993Y-2.3258
X2.0993Y-2.4258
X2.0993Y-2.5258
X2.0993Y-2.6258
X2.1993Y-0.6258
X2.2493Y-1.3258
X2.2493Y-1.4258
X2.2493Y-1.5258
X2.2493Y-1.6258
X2.2493Y-1.7258
X2.2493Y-1.8258
X2.2493Y-1.9258
X2.2493Y-2.0258
X2.2493Y-2.2258
X2.2493Y-2.3258
X2.2493Y-2.4258
X2.2493Y-2.5258
X2.2493Y-2.6258
X2.2493Y-2.7258
X2.2993Y-0.6258
X2.3493Y-1.3258
X2.3493Y-1.4258
X2.3493Y-1.5258
X2.3493Y-1.6258
X2.3493Y-1.7258
X2.3493Y-1.8258
X2.3493Y-2.2258
X2.3493Y-2.3258
X2.3493Y-2.4258
X2.3493Y-2.5258
X2.3493Y-2.6258
X2.3493Y-2.7258
X2.4493Y-1.3258
X2.4493Y-1.4258
X2.4493Y-1.5258
X2.4493Y-1.6258
X2.4493Y-1.7258
X2.4493Y-1.8258
X2.4493Y-2.2258
X2.4493Y-2.3258
X2.4493Y-2.4258
X2.4493Y-2.5258
X2.4493Y-2.6258
X2.4493Y-2.7258
X2.7879Y-1.4259
X2.7879Y-1.5259
X2.7879Y-1.6259
X2.7879Y-1.7259
X2.7879Y-1.8259
X2.7879Y-2.4759
X2.7879Y-2.5759
X2.7879Y-2.6759
X2.7879Y-2.7759
X2.7879Y-3.0759
X2.8879Y-1.4259
X2.8879Y-1.5259
X2.8879Y-1.6259
X2.8879Y-1.7259
X2.8879Y-1.8259
X2.8879Y-2.4759
X2.8879Y-2.5759
X2.8879Y-2.6759
X2.9379Y-0.6259
X2.9879Y-1.4259
X2.9879Y-1.5259
X2.9879Y-1.6259
X2.9879Y-1.7259
X2.9879Y-1.8259
X2.9879Y-2.4759
X2.9879Y-2.5759
X2.9879Y-2.6759
X2.9879Y-2.7759
X2.9879Y-3.0759
X3.0379Y-0.6259
X3.1379Y-1.3259
X3.1379Y-1.4259
X3.1379Y-1.5259
X3.1379Y-1.6259
X3.1379Y-1.7259
X3.1379Y-1.8259
X3.1379Y-1.9259
X3.1379Y-2.0259
X3.1379Y-2.1259
X3.1379Y-2.2259
X3.1379Y-2.3259
X3.1379Y-2.4259
X3.1379Y-2.5259
X3.1379Y-2.6259
X3.4379Y-1.3259
X3.4379Y-1.4259
X3.4379Y-1.5259
X3.4379Y-1.6259
X3.4379Y-1.7259
X3.4379Y-1.8259
X3.4379Y-1.9259
X3.4379Y-2.0259
X3.4379Y-2.1259
X3.4379Y-2.2259
X3.4379Y-2.3259
X3.4379Y-2.4259
X3.4379Y-2.5259
X3.4379Y-2.6259
X3.5379Y-0.6259
X3.5879Y-1.3259
X3.5879Y-1.4259
X3.5879Y-1.5259
X3.5879Y-1.6259
X3.5879Y-1.7259
X3.5879Y-1.8259
X3.5879Y-1.9259
X3.5879Y-2.0259
X3.5879Y-2.2259
X3.5879Y-2.3259
X3.5879Y-2.4259
X3.5879Y-2.5259
X3.5879Y-2.6259
X3.5879Y-2.7259
X3.6379Y-0.6259
X3.6879Y-1.3259
X3.6879Y-1.4259
X3.6879Y-1.5259
X3.6879Y-1.6259
X3.6879Y-1.7259
X3.6879Y-1.8259
X3.6879Y-2.2259
X3.6879Y-2.3259
X3.6879Y-2.4259
X3.6879Y-2.5259
X3.6879Y-2.6259
X3.6879Y-2.7259
X3.7879Y-1.3259
X3.7879Y-1.4259
X3.7879Y-1.5259
X3.7879Y-1.6259
X3.7879Y-1.7259
X3.7879Y-1.8259
X3.7879Y-2.2259
X3.7879Y-2.3259
X3.7879Y-2.4259
X3.7879Y-2.5259
X3.7879Y-2.6259
X3.7879Y-2.7259
T4
X0.5636Y-0.2799
X0.7367Y-0.2799
X1.8627Y-0.2798
X2.0358Y-0.2798
X3.2013Y-0.2799
X3.3744Y-0.2799
T5
X0.5502Y-2.8759
X0.5502Y-2.9759
X0.6502Y-2.8759
X0.6502Y-2.9759
X0.7502Y-2.8759
X0.7502Y-2.9759
X1.8493Y-2.8758
X1.8493Y-2.9758
X1.9493Y-2.8758
X1.9493Y-2.9758
X2.0493Y-2.8758
X2.0493Y-2.9758
X3.1879Y-2.8759
X3.1879Y-2.9759
X3.2879Y-2.8759
X3.2879Y-2.9759
X3.3879Y-2.8759
X3.3879Y-2.9759
T6
X0.5502Y-3.7759
X0.7502Y-3.7759
X1.8493Y-3.7758
X2.0493Y-3.7758
X3.1879Y-3.7759
X3.3879Y-3.7759
T7
X0.2502Y-0.2259
X0.2502Y-3.7259
X1.0502Y-0.2259
X1.0502Y-3.7259
X1.5493Y-0.2258
X1.5493Y-3.7258
X2.3493Y-0.2258
X2.3493Y-3.7258
X2.8879Y-0.2259
X2.8879Y-3.7259
X3.6879Y-0.2259
X3.6879Y-3.7259
T0
M30
