G04 (created by PCBNEW (2012-12-10 BZR 3844)-stable) date Tue 18 Dec 2012 09:43:10 AM CET*
%MOIN*%
G04 Gerber Fmt 3.4, Leading zero omitted, Abs format*
%FSLAX34Y34*%
G01*
G70*
G90*
G04 APERTURE LIST*
%ADD10C,0.006*%
%ADD11C,0.015*%
%ADD12C,0.0099*%
%ADD13C,0.012*%
%ADD14C,0.005*%
%ADD15C,0.008*%
%ADD16C,0.0047*%
%ADD17C,0.0077*%
%ADD18C,0.0078*%
%ADD19C,0.0039*%
%ADD20C,0.0045*%
%ADD21C,0.0113*%
%ADD22C,0.0049*%
%ADD23C,0.0079*%
%ADD24C,0.01*%
%ADD25R,0.1224X0.083*%
%ADD26R,0.1381X0.083*%
%ADD27R,0.08X0.08*%
%ADD28C,0.08*%
%ADD29R,0.1065X0.1065*%
%ADD30R,0.0396X0.1065*%
%ADD31C,0.0554*%
%ADD32C,0.2562*%
%ADD33R,0.0535X0.0535*%
%ADD34R,0.12X0.12*%
%ADD35C,0.12*%
%ADD36R,0.045X0.065*%
%ADD37R,0.065X0.045*%
%ADD38O,0.11X0.082*%
%ADD39R,0.11X0.082*%
%ADD40R,0.075X0.075*%
%ADD41C,0.075*%
%ADD42R,0.055X0.075*%
%ADD43R,0.07X0.036*%
%ADD44R,0.0909X0.0712*%
%ADD45R,0.0909X0.1696*%
%ADD46C,0.076*%
G04 APERTURE END LIST*
G54D10*
G54D11*
X14524Y-34908D02*
X13724Y-34908D01*
X14524Y-34565D02*
X14067Y-34822D01*
X13724Y-34565D02*
X14181Y-34908D01*
X14524Y-34051D02*
X14105Y-34051D01*
X14029Y-34080D01*
X13990Y-34137D01*
X13990Y-34251D01*
X14029Y-34308D01*
X14486Y-34051D02*
X14524Y-34108D01*
X14524Y-34251D01*
X14486Y-34308D01*
X14410Y-34337D01*
X14333Y-34337D01*
X14257Y-34308D01*
X14219Y-34251D01*
X14219Y-34108D01*
X14181Y-34051D01*
X14524Y-33765D02*
X13724Y-33765D01*
X14029Y-33765D02*
X13990Y-33708D01*
X13990Y-33594D01*
X14029Y-33537D01*
X14067Y-33508D01*
X14143Y-33479D01*
X14371Y-33479D01*
X14448Y-33508D01*
X14486Y-33537D01*
X14524Y-33594D01*
X14524Y-33708D01*
X14486Y-33765D01*
X14524Y-33136D02*
X14486Y-33194D01*
X14448Y-33222D01*
X14371Y-33251D01*
X14143Y-33251D01*
X14067Y-33222D01*
X14029Y-33194D01*
X13990Y-33136D01*
X13990Y-33051D01*
X14029Y-32994D01*
X14067Y-32965D01*
X14143Y-32936D01*
X14371Y-32936D01*
X14448Y-32965D01*
X14486Y-32994D01*
X14524Y-33051D01*
X14524Y-33136D01*
X14524Y-32422D02*
X14105Y-32422D01*
X14029Y-32451D01*
X13990Y-32508D01*
X13990Y-32622D01*
X14029Y-32679D01*
X14486Y-32422D02*
X14524Y-32479D01*
X14524Y-32622D01*
X14486Y-32679D01*
X14410Y-32708D01*
X14333Y-32708D01*
X14257Y-32679D01*
X14219Y-32622D01*
X14219Y-32479D01*
X14181Y-32422D01*
X14524Y-32136D02*
X13990Y-32136D01*
X14143Y-32136D02*
X14067Y-32108D01*
X14029Y-32079D01*
X13990Y-32022D01*
X13990Y-31965D01*
X14524Y-31508D02*
X13724Y-31508D01*
X14486Y-31508D02*
X14524Y-31565D01*
X14524Y-31679D01*
X14486Y-31737D01*
X14448Y-31765D01*
X14371Y-31794D01*
X14143Y-31794D01*
X14067Y-31765D01*
X14029Y-31737D01*
X13990Y-31679D01*
X13990Y-31565D01*
X14029Y-31508D01*
G54D12*
X15691Y-34958D02*
X16282Y-34827D01*
X15691Y-34696D01*
X16254Y-34414D02*
X16282Y-34452D01*
X16282Y-34527D01*
X16254Y-34564D01*
X16197Y-34583D01*
X15972Y-34583D01*
X15916Y-34564D01*
X15888Y-34527D01*
X15888Y-34452D01*
X15916Y-34414D01*
X15972Y-34395D01*
X16028Y-34395D01*
X16085Y-34583D01*
X16282Y-34226D02*
X15888Y-34226D01*
X16000Y-34226D02*
X15944Y-34207D01*
X15916Y-34189D01*
X15888Y-34151D01*
X15888Y-34114D01*
X16254Y-34001D02*
X16282Y-33963D01*
X16282Y-33888D01*
X16254Y-33851D01*
X16197Y-33832D01*
X16169Y-33832D01*
X16113Y-33851D01*
X16085Y-33888D01*
X16085Y-33945D01*
X16057Y-33982D01*
X16000Y-34001D01*
X15972Y-34001D01*
X15916Y-33982D01*
X15888Y-33945D01*
X15888Y-33888D01*
X15916Y-33851D01*
X16282Y-33663D02*
X15888Y-33663D01*
X15691Y-33663D02*
X15719Y-33682D01*
X15747Y-33663D01*
X15719Y-33644D01*
X15691Y-33663D01*
X15747Y-33663D01*
X16282Y-33419D02*
X16254Y-33456D01*
X16225Y-33475D01*
X16169Y-33494D01*
X16000Y-33494D01*
X15944Y-33475D01*
X15916Y-33456D01*
X15888Y-33419D01*
X15888Y-33363D01*
X15916Y-33325D01*
X15944Y-33306D01*
X16000Y-33288D01*
X16169Y-33288D01*
X16225Y-33306D01*
X16254Y-33325D01*
X16282Y-33363D01*
X16282Y-33419D01*
X15888Y-33119D02*
X16282Y-33119D01*
X15944Y-33119D02*
X15916Y-33100D01*
X15888Y-33063D01*
X15888Y-33007D01*
X15916Y-32969D01*
X15972Y-32950D01*
X16282Y-32950D01*
X16282Y-32257D02*
X16282Y-32482D01*
X16282Y-32369D02*
X15691Y-32369D01*
X15775Y-32407D01*
X15831Y-32444D01*
X15860Y-32482D01*
X16225Y-32088D02*
X16254Y-32069D01*
X16282Y-32088D01*
X16254Y-32107D01*
X16225Y-32088D01*
X16282Y-32088D01*
X15691Y-31825D02*
X15691Y-31788D01*
X15719Y-31750D01*
X15747Y-31731D01*
X15803Y-31713D01*
X15916Y-31694D01*
X16057Y-31694D01*
X16169Y-31713D01*
X16225Y-31731D01*
X16254Y-31750D01*
X16282Y-31788D01*
X16282Y-31825D01*
X16254Y-31863D01*
X16225Y-31881D01*
X16169Y-31900D01*
X16057Y-31919D01*
X15916Y-31919D01*
X15803Y-31900D01*
X15747Y-31881D01*
X15719Y-31863D01*
X15691Y-31825D01*
X23254Y-31767D02*
X23282Y-31711D01*
X23282Y-31617D01*
X23254Y-31579D01*
X23225Y-31561D01*
X23169Y-31542D01*
X23113Y-31542D01*
X23057Y-31561D01*
X23028Y-31579D01*
X23000Y-31617D01*
X22972Y-31692D01*
X22944Y-31729D01*
X22916Y-31748D01*
X22860Y-31767D01*
X22803Y-31767D01*
X22747Y-31748D01*
X22719Y-31729D01*
X22691Y-31692D01*
X22691Y-31598D01*
X22719Y-31542D01*
X23254Y-31223D02*
X23282Y-31261D01*
X23282Y-31336D01*
X23254Y-31373D01*
X23197Y-31392D01*
X22972Y-31392D01*
X22916Y-31373D01*
X22888Y-31336D01*
X22888Y-31261D01*
X22916Y-31223D01*
X22972Y-31204D01*
X23028Y-31204D01*
X23085Y-31392D01*
X23282Y-31035D02*
X22691Y-31035D01*
X22916Y-31035D02*
X22888Y-30998D01*
X22888Y-30923D01*
X22916Y-30885D01*
X22944Y-30866D01*
X23000Y-30848D01*
X23169Y-30848D01*
X23225Y-30866D01*
X23254Y-30885D01*
X23282Y-30923D01*
X23282Y-30998D01*
X23254Y-31035D01*
X23282Y-30510D02*
X22972Y-30510D01*
X22916Y-30529D01*
X22888Y-30567D01*
X22888Y-30642D01*
X22916Y-30679D01*
X23254Y-30510D02*
X23282Y-30548D01*
X23282Y-30642D01*
X23254Y-30679D01*
X23197Y-30698D01*
X23141Y-30698D01*
X23085Y-30679D01*
X23057Y-30642D01*
X23057Y-30548D01*
X23028Y-30510D01*
X23254Y-30342D02*
X23282Y-30304D01*
X23282Y-30229D01*
X23254Y-30192D01*
X23197Y-30173D01*
X23169Y-30173D01*
X23113Y-30192D01*
X23085Y-30229D01*
X23085Y-30286D01*
X23057Y-30323D01*
X23000Y-30342D01*
X22972Y-30342D01*
X22916Y-30323D01*
X22888Y-30286D01*
X22888Y-30229D01*
X22916Y-30192D01*
X22888Y-30060D02*
X22888Y-29910D01*
X22691Y-30004D02*
X23197Y-30004D01*
X23254Y-29985D01*
X23282Y-29948D01*
X23282Y-29910D01*
X23282Y-29779D02*
X22888Y-29779D01*
X22691Y-29779D02*
X22719Y-29798D01*
X22747Y-29779D01*
X22719Y-29760D01*
X22691Y-29779D01*
X22747Y-29779D01*
X23282Y-29422D02*
X22972Y-29422D01*
X22916Y-29441D01*
X22888Y-29479D01*
X22888Y-29554D01*
X22916Y-29591D01*
X23254Y-29422D02*
X23282Y-29460D01*
X23282Y-29554D01*
X23254Y-29591D01*
X23197Y-29610D01*
X23141Y-29610D01*
X23085Y-29591D01*
X23057Y-29554D01*
X23057Y-29460D01*
X23028Y-29422D01*
X22888Y-29235D02*
X23282Y-29235D01*
X22944Y-29235D02*
X22916Y-29216D01*
X22888Y-29179D01*
X22888Y-29123D01*
X22916Y-29085D01*
X22972Y-29066D01*
X23282Y-29066D01*
X24180Y-31486D02*
X24208Y-31430D01*
X24208Y-31336D01*
X24180Y-31298D01*
X24151Y-31280D01*
X24095Y-31261D01*
X24039Y-31261D01*
X23983Y-31280D01*
X23954Y-31298D01*
X23926Y-31336D01*
X23898Y-31411D01*
X23870Y-31448D01*
X23842Y-31467D01*
X23786Y-31486D01*
X23729Y-31486D01*
X23673Y-31467D01*
X23645Y-31448D01*
X23617Y-31411D01*
X23617Y-31317D01*
X23645Y-31261D01*
X24180Y-30923D02*
X24208Y-30961D01*
X24208Y-31036D01*
X24180Y-31073D01*
X24151Y-31092D01*
X24095Y-31111D01*
X23926Y-31111D01*
X23870Y-31092D01*
X23842Y-31073D01*
X23814Y-31036D01*
X23814Y-30961D01*
X23842Y-30923D01*
X24208Y-30754D02*
X23617Y-30754D01*
X24208Y-30585D02*
X23898Y-30585D01*
X23842Y-30604D01*
X23814Y-30642D01*
X23814Y-30698D01*
X23842Y-30735D01*
X23870Y-30754D01*
X23814Y-30229D02*
X24208Y-30229D01*
X23814Y-30398D02*
X24123Y-30398D01*
X24180Y-30379D01*
X24208Y-30342D01*
X24208Y-30286D01*
X24180Y-30248D01*
X24151Y-30229D01*
X24208Y-30042D02*
X23814Y-30042D01*
X23870Y-30042D02*
X23842Y-30023D01*
X23814Y-29986D01*
X23814Y-29930D01*
X23842Y-29892D01*
X23898Y-29873D01*
X24208Y-29873D01*
X23898Y-29873D02*
X23842Y-29855D01*
X23814Y-29817D01*
X23814Y-29761D01*
X23842Y-29723D01*
X23898Y-29704D01*
X24208Y-29704D01*
X24208Y-29517D02*
X23617Y-29517D01*
X23842Y-29517D02*
X23814Y-29480D01*
X23814Y-29405D01*
X23842Y-29367D01*
X23870Y-29348D01*
X23926Y-29330D01*
X24095Y-29330D01*
X24151Y-29348D01*
X24180Y-29367D01*
X24208Y-29405D01*
X24208Y-29480D01*
X24180Y-29517D01*
G54D13*
X14415Y-4408D02*
X14444Y-4370D01*
X14501Y-4332D01*
X14644Y-4332D01*
X14701Y-4370D01*
X14730Y-4408D01*
X14758Y-4484D01*
X14758Y-4560D01*
X14730Y-4675D01*
X14387Y-5132D01*
X14758Y-5132D01*
X15129Y-4332D02*
X15186Y-4332D01*
X15243Y-4370D01*
X15272Y-4408D01*
X15301Y-4484D01*
X15329Y-4637D01*
X15329Y-4827D01*
X15301Y-4979D01*
X15272Y-5056D01*
X15243Y-5094D01*
X15186Y-5132D01*
X15129Y-5132D01*
X15072Y-5094D01*
X15043Y-5056D01*
X15015Y-4979D01*
X14986Y-4827D01*
X14986Y-4637D01*
X15015Y-4484D01*
X15043Y-4408D01*
X15072Y-4370D01*
X15129Y-4332D01*
X15900Y-5132D02*
X15557Y-5132D01*
X15729Y-5132D02*
X15729Y-4332D01*
X15672Y-4446D01*
X15614Y-4522D01*
X15557Y-4560D01*
X16128Y-4408D02*
X16157Y-4370D01*
X16214Y-4332D01*
X16357Y-4332D01*
X16414Y-4370D01*
X16443Y-4408D01*
X16471Y-4484D01*
X16471Y-4560D01*
X16443Y-4675D01*
X16100Y-5132D01*
X16471Y-5132D01*
G54D11*
X13493Y-258D02*
X25493Y-258D01*
X25493Y-258D02*
X25493Y-39258D01*
X25493Y-39258D02*
X13493Y-39258D01*
X13493Y-39258D02*
X13493Y-258D01*
X1926Y-34909D02*
X1126Y-34909D01*
X1926Y-34566D02*
X1469Y-34823D01*
X1126Y-34566D02*
X1583Y-34909D01*
X1926Y-34052D02*
X1507Y-34052D01*
X1431Y-34081D01*
X1392Y-34138D01*
X1392Y-34252D01*
X1431Y-34309D01*
X1888Y-34052D02*
X1926Y-34109D01*
X1926Y-34252D01*
X1888Y-34309D01*
X1812Y-34338D01*
X1735Y-34338D01*
X1659Y-34309D01*
X1621Y-34252D01*
X1621Y-34109D01*
X1583Y-34052D01*
X1926Y-33766D02*
X1126Y-33766D01*
X1431Y-33766D02*
X1392Y-33709D01*
X1392Y-33595D01*
X1431Y-33538D01*
X1469Y-33509D01*
X1545Y-33480D01*
X1773Y-33480D01*
X1850Y-33509D01*
X1888Y-33538D01*
X1926Y-33595D01*
X1926Y-33709D01*
X1888Y-33766D01*
X1926Y-33137D02*
X1888Y-33195D01*
X1850Y-33223D01*
X1773Y-33252D01*
X1545Y-33252D01*
X1469Y-33223D01*
X1431Y-33195D01*
X1392Y-33137D01*
X1392Y-33052D01*
X1431Y-32995D01*
X1469Y-32966D01*
X1545Y-32937D01*
X1773Y-32937D01*
X1850Y-32966D01*
X1888Y-32995D01*
X1926Y-33052D01*
X1926Y-33137D01*
X1926Y-32423D02*
X1507Y-32423D01*
X1431Y-32452D01*
X1392Y-32509D01*
X1392Y-32623D01*
X1431Y-32680D01*
X1888Y-32423D02*
X1926Y-32480D01*
X1926Y-32623D01*
X1888Y-32680D01*
X1812Y-32709D01*
X1735Y-32709D01*
X1659Y-32680D01*
X1621Y-32623D01*
X1621Y-32480D01*
X1583Y-32423D01*
X1926Y-32137D02*
X1392Y-32137D01*
X1545Y-32137D02*
X1469Y-32109D01*
X1431Y-32080D01*
X1392Y-32023D01*
X1392Y-31966D01*
X1926Y-31509D02*
X1126Y-31509D01*
X1888Y-31509D02*
X1926Y-31566D01*
X1926Y-31680D01*
X1888Y-31738D01*
X1850Y-31766D01*
X1773Y-31795D01*
X1545Y-31795D01*
X1469Y-31766D01*
X1431Y-31738D01*
X1392Y-31680D01*
X1392Y-31566D01*
X1431Y-31509D01*
G54D12*
X2700Y-34959D02*
X3291Y-34828D01*
X2700Y-34697D01*
X3263Y-34415D02*
X3291Y-34453D01*
X3291Y-34528D01*
X3263Y-34565D01*
X3206Y-34584D01*
X2981Y-34584D01*
X2925Y-34565D01*
X2897Y-34528D01*
X2897Y-34453D01*
X2925Y-34415D01*
X2981Y-34396D01*
X3037Y-34396D01*
X3094Y-34584D01*
X3291Y-34227D02*
X2897Y-34227D01*
X3009Y-34227D02*
X2953Y-34208D01*
X2925Y-34190D01*
X2897Y-34152D01*
X2897Y-34115D01*
X3263Y-34002D02*
X3291Y-33964D01*
X3291Y-33889D01*
X3263Y-33852D01*
X3206Y-33833D01*
X3178Y-33833D01*
X3122Y-33852D01*
X3094Y-33889D01*
X3094Y-33946D01*
X3066Y-33983D01*
X3009Y-34002D01*
X2981Y-34002D01*
X2925Y-33983D01*
X2897Y-33946D01*
X2897Y-33889D01*
X2925Y-33852D01*
X3291Y-33664D02*
X2897Y-33664D01*
X2700Y-33664D02*
X2728Y-33683D01*
X2756Y-33664D01*
X2728Y-33645D01*
X2700Y-33664D01*
X2756Y-33664D01*
X3291Y-33420D02*
X3263Y-33457D01*
X3234Y-33476D01*
X3178Y-33495D01*
X3009Y-33495D01*
X2953Y-33476D01*
X2925Y-33457D01*
X2897Y-33420D01*
X2897Y-33364D01*
X2925Y-33326D01*
X2953Y-33307D01*
X3009Y-33289D01*
X3178Y-33289D01*
X3234Y-33307D01*
X3263Y-33326D01*
X3291Y-33364D01*
X3291Y-33420D01*
X2897Y-33120D02*
X3291Y-33120D01*
X2953Y-33120D02*
X2925Y-33101D01*
X2897Y-33064D01*
X2897Y-33008D01*
X2925Y-32970D01*
X2981Y-32951D01*
X3291Y-32951D01*
X3291Y-32258D02*
X3291Y-32483D01*
X3291Y-32370D02*
X2700Y-32370D01*
X2784Y-32408D01*
X2840Y-32445D01*
X2869Y-32483D01*
X3234Y-32089D02*
X3263Y-32070D01*
X3291Y-32089D01*
X3263Y-32108D01*
X3234Y-32089D01*
X3291Y-32089D01*
X2700Y-31826D02*
X2700Y-31789D01*
X2728Y-31751D01*
X2756Y-31732D01*
X2812Y-31714D01*
X2925Y-31695D01*
X3066Y-31695D01*
X3178Y-31714D01*
X3234Y-31732D01*
X3263Y-31751D01*
X3291Y-31789D01*
X3291Y-31826D01*
X3263Y-31864D01*
X3234Y-31882D01*
X3178Y-31901D01*
X3066Y-31920D01*
X2925Y-31920D01*
X2812Y-31901D01*
X2756Y-31882D01*
X2728Y-31864D01*
X2700Y-31826D01*
X10263Y-31768D02*
X10291Y-31712D01*
X10291Y-31618D01*
X10263Y-31580D01*
X10234Y-31562D01*
X10178Y-31543D01*
X10122Y-31543D01*
X10066Y-31562D01*
X10037Y-31580D01*
X10009Y-31618D01*
X9981Y-31693D01*
X9953Y-31730D01*
X9925Y-31749D01*
X9869Y-31768D01*
X9812Y-31768D01*
X9756Y-31749D01*
X9728Y-31730D01*
X9700Y-31693D01*
X9700Y-31599D01*
X9728Y-31543D01*
X10263Y-31224D02*
X10291Y-31262D01*
X10291Y-31337D01*
X10263Y-31374D01*
X10206Y-31393D01*
X9981Y-31393D01*
X9925Y-31374D01*
X9897Y-31337D01*
X9897Y-31262D01*
X9925Y-31224D01*
X9981Y-31205D01*
X10037Y-31205D01*
X10094Y-31393D01*
X10291Y-31036D02*
X9700Y-31036D01*
X9925Y-31036D02*
X9897Y-30999D01*
X9897Y-30924D01*
X9925Y-30886D01*
X9953Y-30867D01*
X10009Y-30849D01*
X10178Y-30849D01*
X10234Y-30867D01*
X10263Y-30886D01*
X10291Y-30924D01*
X10291Y-30999D01*
X10263Y-31036D01*
X10291Y-30511D02*
X9981Y-30511D01*
X9925Y-30530D01*
X9897Y-30568D01*
X9897Y-30643D01*
X9925Y-30680D01*
X10263Y-30511D02*
X10291Y-30549D01*
X10291Y-30643D01*
X10263Y-30680D01*
X10206Y-30699D01*
X10150Y-30699D01*
X10094Y-30680D01*
X10066Y-30643D01*
X10066Y-30549D01*
X10037Y-30511D01*
X10263Y-30343D02*
X10291Y-30305D01*
X10291Y-30230D01*
X10263Y-30193D01*
X10206Y-30174D01*
X10178Y-30174D01*
X10122Y-30193D01*
X10094Y-30230D01*
X10094Y-30287D01*
X10066Y-30324D01*
X10009Y-30343D01*
X9981Y-30343D01*
X9925Y-30324D01*
X9897Y-30287D01*
X9897Y-30230D01*
X9925Y-30193D01*
X9897Y-30061D02*
X9897Y-29911D01*
X9700Y-30005D02*
X10206Y-30005D01*
X10263Y-29986D01*
X10291Y-29949D01*
X10291Y-29911D01*
X10291Y-29780D02*
X9897Y-29780D01*
X9700Y-29780D02*
X9728Y-29799D01*
X9756Y-29780D01*
X9728Y-29761D01*
X9700Y-29780D01*
X9756Y-29780D01*
X10291Y-29423D02*
X9981Y-29423D01*
X9925Y-29442D01*
X9897Y-29480D01*
X9897Y-29555D01*
X9925Y-29592D01*
X10263Y-29423D02*
X10291Y-29461D01*
X10291Y-29555D01*
X10263Y-29592D01*
X10206Y-29611D01*
X10150Y-29611D01*
X10094Y-29592D01*
X10066Y-29555D01*
X10066Y-29461D01*
X10037Y-29423D01*
X9897Y-29236D02*
X10291Y-29236D01*
X9953Y-29236D02*
X9925Y-29217D01*
X9897Y-29180D01*
X9897Y-29124D01*
X9925Y-29086D01*
X9981Y-29067D01*
X10291Y-29067D01*
X11189Y-31487D02*
X11217Y-31431D01*
X11217Y-31337D01*
X11189Y-31299D01*
X11160Y-31281D01*
X11104Y-31262D01*
X11048Y-31262D01*
X10992Y-31281D01*
X10963Y-31299D01*
X10935Y-31337D01*
X10907Y-31412D01*
X10879Y-31449D01*
X10851Y-31468D01*
X10795Y-31487D01*
X10738Y-31487D01*
X10682Y-31468D01*
X10654Y-31449D01*
X10626Y-31412D01*
X10626Y-31318D01*
X10654Y-31262D01*
X11189Y-30924D02*
X11217Y-30962D01*
X11217Y-31037D01*
X11189Y-31074D01*
X11160Y-31093D01*
X11104Y-31112D01*
X10935Y-31112D01*
X10879Y-31093D01*
X10851Y-31074D01*
X10823Y-31037D01*
X10823Y-30962D01*
X10851Y-30924D01*
X11217Y-30755D02*
X10626Y-30755D01*
X11217Y-30586D02*
X10907Y-30586D01*
X10851Y-30605D01*
X10823Y-30643D01*
X10823Y-30699D01*
X10851Y-30736D01*
X10879Y-30755D01*
X10823Y-30230D02*
X11217Y-30230D01*
X10823Y-30399D02*
X11132Y-30399D01*
X11189Y-30380D01*
X11217Y-30343D01*
X11217Y-30287D01*
X11189Y-30249D01*
X11160Y-30230D01*
X11217Y-30043D02*
X10823Y-30043D01*
X10879Y-30043D02*
X10851Y-30024D01*
X10823Y-29987D01*
X10823Y-29931D01*
X10851Y-29893D01*
X10907Y-29874D01*
X11217Y-29874D01*
X10907Y-29874D02*
X10851Y-29856D01*
X10823Y-29818D01*
X10823Y-29762D01*
X10851Y-29724D01*
X10907Y-29705D01*
X11217Y-29705D01*
X11217Y-29518D02*
X10626Y-29518D01*
X10851Y-29518D02*
X10823Y-29481D01*
X10823Y-29406D01*
X10851Y-29368D01*
X10879Y-29349D01*
X10935Y-29331D01*
X11104Y-29331D01*
X11160Y-29349D01*
X11189Y-29368D01*
X11217Y-29406D01*
X11217Y-29481D01*
X11189Y-29518D01*
G54D13*
X1424Y-4409D02*
X1453Y-4371D01*
X1510Y-4333D01*
X1653Y-4333D01*
X1710Y-4371D01*
X1739Y-4409D01*
X1767Y-4485D01*
X1767Y-4561D01*
X1739Y-4676D01*
X1396Y-5133D01*
X1767Y-5133D01*
X2138Y-4333D02*
X2195Y-4333D01*
X2252Y-4371D01*
X2281Y-4409D01*
X2310Y-4485D01*
X2338Y-4638D01*
X2338Y-4828D01*
X2310Y-4980D01*
X2281Y-5057D01*
X2252Y-5095D01*
X2195Y-5133D01*
X2138Y-5133D01*
X2081Y-5095D01*
X2052Y-5057D01*
X2024Y-4980D01*
X1995Y-4828D01*
X1995Y-4638D01*
X2024Y-4485D01*
X2052Y-4409D01*
X2081Y-4371D01*
X2138Y-4333D01*
X2909Y-5133D02*
X2566Y-5133D01*
X2738Y-5133D02*
X2738Y-4333D01*
X2681Y-4447D01*
X2623Y-4523D01*
X2566Y-4561D01*
X3137Y-4409D02*
X3166Y-4371D01*
X3223Y-4333D01*
X3366Y-4333D01*
X3423Y-4371D01*
X3452Y-4409D01*
X3480Y-4485D01*
X3480Y-4561D01*
X3452Y-4676D01*
X3109Y-5133D01*
X3480Y-5133D01*
G54D11*
X502Y-259D02*
X12502Y-259D01*
X12502Y-259D02*
X12502Y-39259D01*
X12502Y-39259D02*
X502Y-39259D01*
X502Y-39259D02*
X502Y-259D01*
X26879Y-39259D02*
X26879Y-259D01*
X38879Y-39259D02*
X26879Y-39259D01*
X38879Y-259D02*
X38879Y-39259D01*
X26879Y-259D02*
X38879Y-259D01*
G54D13*
X27801Y-4409D02*
X27830Y-4371D01*
X27887Y-4333D01*
X28030Y-4333D01*
X28087Y-4371D01*
X28116Y-4409D01*
X28144Y-4485D01*
X28144Y-4561D01*
X28116Y-4676D01*
X27773Y-5133D01*
X28144Y-5133D01*
X28515Y-4333D02*
X28572Y-4333D01*
X28629Y-4371D01*
X28658Y-4409D01*
X28687Y-4485D01*
X28715Y-4638D01*
X28715Y-4828D01*
X28687Y-4980D01*
X28658Y-5057D01*
X28629Y-5095D01*
X28572Y-5133D01*
X28515Y-5133D01*
X28458Y-5095D01*
X28429Y-5057D01*
X28401Y-4980D01*
X28372Y-4828D01*
X28372Y-4638D01*
X28401Y-4485D01*
X28429Y-4409D01*
X28458Y-4371D01*
X28515Y-4333D01*
X29286Y-5133D02*
X28943Y-5133D01*
X29115Y-5133D02*
X29115Y-4333D01*
X29058Y-4447D01*
X29000Y-4523D01*
X28943Y-4561D01*
X29514Y-4409D02*
X29543Y-4371D01*
X29600Y-4333D01*
X29743Y-4333D01*
X29800Y-4371D01*
X29829Y-4409D01*
X29857Y-4485D01*
X29857Y-4561D01*
X29829Y-4676D01*
X29486Y-5133D01*
X29857Y-5133D01*
G54D12*
X36640Y-31768D02*
X36668Y-31712D01*
X36668Y-31618D01*
X36640Y-31580D01*
X36611Y-31562D01*
X36555Y-31543D01*
X36499Y-31543D01*
X36443Y-31562D01*
X36414Y-31580D01*
X36386Y-31618D01*
X36358Y-31693D01*
X36330Y-31730D01*
X36302Y-31749D01*
X36246Y-31768D01*
X36189Y-31768D01*
X36133Y-31749D01*
X36105Y-31730D01*
X36077Y-31693D01*
X36077Y-31599D01*
X36105Y-31543D01*
X36640Y-31224D02*
X36668Y-31262D01*
X36668Y-31337D01*
X36640Y-31374D01*
X36583Y-31393D01*
X36358Y-31393D01*
X36302Y-31374D01*
X36274Y-31337D01*
X36274Y-31262D01*
X36302Y-31224D01*
X36358Y-31205D01*
X36414Y-31205D01*
X36471Y-31393D01*
X36668Y-31036D02*
X36077Y-31036D01*
X36302Y-31036D02*
X36274Y-30999D01*
X36274Y-30924D01*
X36302Y-30886D01*
X36330Y-30867D01*
X36386Y-30849D01*
X36555Y-30849D01*
X36611Y-30867D01*
X36640Y-30886D01*
X36668Y-30924D01*
X36668Y-30999D01*
X36640Y-31036D01*
X36668Y-30511D02*
X36358Y-30511D01*
X36302Y-30530D01*
X36274Y-30568D01*
X36274Y-30643D01*
X36302Y-30680D01*
X36640Y-30511D02*
X36668Y-30549D01*
X36668Y-30643D01*
X36640Y-30680D01*
X36583Y-30699D01*
X36527Y-30699D01*
X36471Y-30680D01*
X36443Y-30643D01*
X36443Y-30549D01*
X36414Y-30511D01*
X36640Y-30343D02*
X36668Y-30305D01*
X36668Y-30230D01*
X36640Y-30193D01*
X36583Y-30174D01*
X36555Y-30174D01*
X36499Y-30193D01*
X36471Y-30230D01*
X36471Y-30287D01*
X36443Y-30324D01*
X36386Y-30343D01*
X36358Y-30343D01*
X36302Y-30324D01*
X36274Y-30287D01*
X36274Y-30230D01*
X36302Y-30193D01*
X36274Y-30061D02*
X36274Y-29911D01*
X36077Y-30005D02*
X36583Y-30005D01*
X36640Y-29986D01*
X36668Y-29949D01*
X36668Y-29911D01*
X36668Y-29780D02*
X36274Y-29780D01*
X36077Y-29780D02*
X36105Y-29799D01*
X36133Y-29780D01*
X36105Y-29761D01*
X36077Y-29780D01*
X36133Y-29780D01*
X36668Y-29423D02*
X36358Y-29423D01*
X36302Y-29442D01*
X36274Y-29480D01*
X36274Y-29555D01*
X36302Y-29592D01*
X36640Y-29423D02*
X36668Y-29461D01*
X36668Y-29555D01*
X36640Y-29592D01*
X36583Y-29611D01*
X36527Y-29611D01*
X36471Y-29592D01*
X36443Y-29555D01*
X36443Y-29461D01*
X36414Y-29423D01*
X36274Y-29236D02*
X36668Y-29236D01*
X36330Y-29236D02*
X36302Y-29217D01*
X36274Y-29180D01*
X36274Y-29124D01*
X36302Y-29086D01*
X36358Y-29067D01*
X36668Y-29067D01*
X37566Y-31487D02*
X37594Y-31431D01*
X37594Y-31337D01*
X37566Y-31299D01*
X37537Y-31281D01*
X37481Y-31262D01*
X37425Y-31262D01*
X37369Y-31281D01*
X37340Y-31299D01*
X37312Y-31337D01*
X37284Y-31412D01*
X37256Y-31449D01*
X37228Y-31468D01*
X37172Y-31487D01*
X37115Y-31487D01*
X37059Y-31468D01*
X37031Y-31449D01*
X37003Y-31412D01*
X37003Y-31318D01*
X37031Y-31262D01*
X37566Y-30924D02*
X37594Y-30962D01*
X37594Y-31037D01*
X37566Y-31074D01*
X37537Y-31093D01*
X37481Y-31112D01*
X37312Y-31112D01*
X37256Y-31093D01*
X37228Y-31074D01*
X37200Y-31037D01*
X37200Y-30962D01*
X37228Y-30924D01*
X37594Y-30755D02*
X37003Y-30755D01*
X37594Y-30586D02*
X37284Y-30586D01*
X37228Y-30605D01*
X37200Y-30643D01*
X37200Y-30699D01*
X37228Y-30736D01*
X37256Y-30755D01*
X37200Y-30230D02*
X37594Y-30230D01*
X37200Y-30399D02*
X37509Y-30399D01*
X37566Y-30380D01*
X37594Y-30343D01*
X37594Y-30287D01*
X37566Y-30249D01*
X37537Y-30230D01*
X37594Y-30043D02*
X37200Y-30043D01*
X37256Y-30043D02*
X37228Y-30024D01*
X37200Y-29987D01*
X37200Y-29931D01*
X37228Y-29893D01*
X37284Y-29874D01*
X37594Y-29874D01*
X37284Y-29874D02*
X37228Y-29856D01*
X37200Y-29818D01*
X37200Y-29762D01*
X37228Y-29724D01*
X37284Y-29705D01*
X37594Y-29705D01*
X37594Y-29518D02*
X37003Y-29518D01*
X37228Y-29518D02*
X37200Y-29481D01*
X37200Y-29406D01*
X37228Y-29368D01*
X37256Y-29349D01*
X37312Y-29331D01*
X37481Y-29331D01*
X37537Y-29349D01*
X37566Y-29368D01*
X37594Y-29406D01*
X37594Y-29481D01*
X37566Y-29518D01*
X29077Y-34959D02*
X29668Y-34828D01*
X29077Y-34697D01*
X29640Y-34415D02*
X29668Y-34453D01*
X29668Y-34528D01*
X29640Y-34565D01*
X29583Y-34584D01*
X29358Y-34584D01*
X29302Y-34565D01*
X29274Y-34528D01*
X29274Y-34453D01*
X29302Y-34415D01*
X29358Y-34396D01*
X29414Y-34396D01*
X29471Y-34584D01*
X29668Y-34227D02*
X29274Y-34227D01*
X29386Y-34227D02*
X29330Y-34208D01*
X29302Y-34190D01*
X29274Y-34152D01*
X29274Y-34115D01*
X29640Y-34002D02*
X29668Y-33964D01*
X29668Y-33889D01*
X29640Y-33852D01*
X29583Y-33833D01*
X29555Y-33833D01*
X29499Y-33852D01*
X29471Y-33889D01*
X29471Y-33946D01*
X29443Y-33983D01*
X29386Y-34002D01*
X29358Y-34002D01*
X29302Y-33983D01*
X29274Y-33946D01*
X29274Y-33889D01*
X29302Y-33852D01*
X29668Y-33664D02*
X29274Y-33664D01*
X29077Y-33664D02*
X29105Y-33683D01*
X29133Y-33664D01*
X29105Y-33645D01*
X29077Y-33664D01*
X29133Y-33664D01*
X29668Y-33420D02*
X29640Y-33457D01*
X29611Y-33476D01*
X29555Y-33495D01*
X29386Y-33495D01*
X29330Y-33476D01*
X29302Y-33457D01*
X29274Y-33420D01*
X29274Y-33364D01*
X29302Y-33326D01*
X29330Y-33307D01*
X29386Y-33289D01*
X29555Y-33289D01*
X29611Y-33307D01*
X29640Y-33326D01*
X29668Y-33364D01*
X29668Y-33420D01*
X29274Y-33120D02*
X29668Y-33120D01*
X29330Y-33120D02*
X29302Y-33101D01*
X29274Y-33064D01*
X29274Y-33008D01*
X29302Y-32970D01*
X29358Y-32951D01*
X29668Y-32951D01*
X29668Y-32258D02*
X29668Y-32483D01*
X29668Y-32370D02*
X29077Y-32370D01*
X29161Y-32408D01*
X29217Y-32445D01*
X29246Y-32483D01*
X29611Y-32089D02*
X29640Y-32070D01*
X29668Y-32089D01*
X29640Y-32108D01*
X29611Y-32089D01*
X29668Y-32089D01*
X29077Y-31826D02*
X29077Y-31789D01*
X29105Y-31751D01*
X29133Y-31732D01*
X29189Y-31714D01*
X29302Y-31695D01*
X29443Y-31695D01*
X29555Y-31714D01*
X29611Y-31732D01*
X29640Y-31751D01*
X29668Y-31789D01*
X29668Y-31826D01*
X29640Y-31864D01*
X29611Y-31882D01*
X29555Y-31901D01*
X29443Y-31920D01*
X29302Y-31920D01*
X29189Y-31901D01*
X29133Y-31882D01*
X29105Y-31864D01*
X29077Y-31826D01*
G54D11*
X28303Y-34909D02*
X27503Y-34909D01*
X28303Y-34566D02*
X27846Y-34823D01*
X27503Y-34566D02*
X27960Y-34909D01*
X28303Y-34052D02*
X27884Y-34052D01*
X27808Y-34081D01*
X27769Y-34138D01*
X27769Y-34252D01*
X27808Y-34309D01*
X28265Y-34052D02*
X28303Y-34109D01*
X28303Y-34252D01*
X28265Y-34309D01*
X28189Y-34338D01*
X28112Y-34338D01*
X28036Y-34309D01*
X27998Y-34252D01*
X27998Y-34109D01*
X27960Y-34052D01*
X28303Y-33766D02*
X27503Y-33766D01*
X27808Y-33766D02*
X27769Y-33709D01*
X27769Y-33595D01*
X27808Y-33538D01*
X27846Y-33509D01*
X27922Y-33480D01*
X28150Y-33480D01*
X28227Y-33509D01*
X28265Y-33538D01*
X28303Y-33595D01*
X28303Y-33709D01*
X28265Y-33766D01*
X28303Y-33137D02*
X28265Y-33195D01*
X28227Y-33223D01*
X28150Y-33252D01*
X27922Y-33252D01*
X27846Y-33223D01*
X27808Y-33195D01*
X27769Y-33137D01*
X27769Y-33052D01*
X27808Y-32995D01*
X27846Y-32966D01*
X27922Y-32937D01*
X28150Y-32937D01*
X28227Y-32966D01*
X28265Y-32995D01*
X28303Y-33052D01*
X28303Y-33137D01*
X28303Y-32423D02*
X27884Y-32423D01*
X27808Y-32452D01*
X27769Y-32509D01*
X27769Y-32623D01*
X27808Y-32680D01*
X28265Y-32423D02*
X28303Y-32480D01*
X28303Y-32623D01*
X28265Y-32680D01*
X28189Y-32709D01*
X28112Y-32709D01*
X28036Y-32680D01*
X27998Y-32623D01*
X27998Y-32480D01*
X27960Y-32423D01*
X28303Y-32137D02*
X27769Y-32137D01*
X27922Y-32137D02*
X27846Y-32109D01*
X27808Y-32080D01*
X27769Y-32023D01*
X27769Y-31966D01*
X28303Y-31509D02*
X27503Y-31509D01*
X28265Y-31509D02*
X28303Y-31566D01*
X28303Y-31680D01*
X28265Y-31738D01*
X28227Y-31766D01*
X28150Y-31795D01*
X27922Y-31795D01*
X27846Y-31766D01*
X27808Y-31738D01*
X27769Y-31680D01*
X27769Y-31566D01*
X27808Y-31509D01*
G54D14*
X23443Y-8108D02*
X23143Y-8108D01*
X23293Y-7958D02*
X23293Y-8258D01*
X23393Y-9008D02*
X21893Y-9008D01*
X23693Y-7508D02*
X23693Y-8708D01*
X23393Y-9008D02*
X23693Y-8708D01*
X23393Y-7208D02*
X21893Y-7208D01*
X23393Y-7208D02*
X23693Y-7508D01*
X21993Y-8158D02*
X21993Y-8058D01*
X22043Y-7858D02*
X22043Y-8358D01*
X22093Y-8458D02*
X22093Y-7758D01*
X22143Y-8558D02*
X22143Y-7658D01*
X22193Y-7608D02*
X22193Y-8608D01*
X22243Y-8658D02*
X22243Y-7558D01*
X22293Y-7508D02*
X22293Y-8708D01*
X22343Y-7458D02*
X22343Y-8758D01*
X23593Y-8108D02*
G75*
G03X23593Y-8108I-800J0D01*
G74*
G01*
X21893Y-7208D02*
X21893Y-9008D01*
X17593Y-31508D02*
X17593Y-32058D01*
X17643Y-31408D02*
X17643Y-32108D01*
X17693Y-31258D02*
X17693Y-32258D01*
X17743Y-32308D02*
X17743Y-31208D01*
X17793Y-31158D02*
X17793Y-32358D01*
X17843Y-32408D02*
X17843Y-31108D01*
X17893Y-31058D02*
X17893Y-32458D01*
X19443Y-31758D02*
G75*
G03X19443Y-31758I-950J0D01*
G74*
G01*
X17443Y-30708D02*
X19243Y-30708D01*
X19243Y-30708D02*
X19543Y-31008D01*
X19543Y-31008D02*
X19543Y-32508D01*
X19543Y-32508D02*
X19243Y-32808D01*
X19243Y-32808D02*
X17443Y-32808D01*
X17443Y-32808D02*
X17443Y-30708D01*
X19343Y-31758D02*
X19043Y-31758D01*
X19193Y-31608D02*
X19193Y-31908D01*
X17593Y-34008D02*
X17593Y-34558D01*
X17643Y-33908D02*
X17643Y-34608D01*
X17693Y-33758D02*
X17693Y-34758D01*
X17743Y-34808D02*
X17743Y-33708D01*
X17793Y-33658D02*
X17793Y-34858D01*
X17843Y-34908D02*
X17843Y-33608D01*
X17893Y-33558D02*
X17893Y-34958D01*
X19443Y-34258D02*
G75*
G03X19443Y-34258I-950J0D01*
G74*
G01*
X17443Y-33208D02*
X19243Y-33208D01*
X19243Y-33208D02*
X19543Y-33508D01*
X19543Y-33508D02*
X19543Y-35008D01*
X19543Y-35008D02*
X19243Y-35308D01*
X19243Y-35308D02*
X17443Y-35308D01*
X17443Y-35308D02*
X17443Y-33208D01*
X19343Y-34258D02*
X19043Y-34258D01*
X19193Y-34108D02*
X19193Y-34408D01*
G54D15*
X17993Y-28258D02*
X20993Y-28258D01*
X20993Y-30258D02*
X17993Y-30258D01*
X17993Y-30258D02*
X17993Y-28258D01*
X20993Y-28258D02*
X20993Y-30258D01*
G54D13*
X21028Y-3992D02*
X21462Y-3992D01*
X21462Y-3992D02*
X21462Y-3401D01*
X21462Y-3401D02*
X21028Y-3401D01*
X17524Y-3400D02*
X17958Y-3400D01*
X17524Y-3991D02*
X17524Y-3400D01*
X17958Y-3991D02*
X17524Y-3991D01*
X17958Y-1825D02*
X17524Y-1825D01*
X17524Y-1825D02*
X17524Y-1234D01*
X17524Y-1234D02*
X17958Y-1234D01*
X21028Y-1825D02*
X21462Y-1825D01*
X21462Y-1825D02*
X21462Y-1234D01*
X21462Y-1234D02*
X21028Y-1234D01*
X21028Y-289D02*
X17958Y-289D01*
X17958Y-289D02*
X17958Y-4227D01*
X17958Y-4227D02*
X21028Y-4227D01*
X21028Y-4227D02*
X21028Y-289D01*
G54D11*
X24393Y-37258D02*
G75*
G03X24393Y-37258I-900J0D01*
G74*
G01*
X16393Y-37258D02*
G75*
G03X16393Y-37258I-900J0D01*
G74*
G01*
X24393Y-2258D02*
G75*
G03X24393Y-2258I-900J0D01*
G74*
G01*
X16393Y-2258D02*
G75*
G03X16393Y-2258I-900J0D01*
G74*
G01*
G54D14*
X20828Y-33962D02*
X21458Y-33962D01*
X21458Y-34002D02*
X20828Y-34002D01*
X21458Y-33057D02*
X21458Y-34159D01*
X21458Y-34159D02*
X20828Y-34159D01*
X20828Y-34159D02*
X20828Y-33057D01*
X20828Y-33057D02*
X21458Y-33057D01*
G54D13*
X21493Y-38758D02*
X17493Y-38758D01*
X21493Y-39258D02*
X21493Y-36258D01*
X21493Y-36258D02*
X17493Y-36258D01*
X17493Y-36258D02*
X17493Y-39258D01*
X17493Y-39258D02*
X21493Y-39258D01*
G54D14*
X15993Y-10608D02*
X16893Y-10608D01*
X16893Y-10608D02*
X16893Y-11108D01*
X16893Y-11108D02*
X15993Y-11108D01*
X15993Y-11108D02*
X15993Y-10608D01*
X14793Y-10608D02*
X15693Y-10608D01*
X15693Y-10608D02*
X15693Y-11108D01*
X15693Y-11108D02*
X14793Y-11108D01*
X14793Y-11108D02*
X14793Y-10608D01*
X20893Y-31908D02*
X20893Y-31008D01*
X20893Y-31008D02*
X21393Y-31008D01*
X21393Y-31008D02*
X21393Y-31908D01*
X21393Y-31908D02*
X20893Y-31908D01*
G54D11*
X20493Y-12258D02*
X20493Y-27258D01*
X20493Y-27258D02*
X18493Y-27258D01*
X18493Y-27258D02*
X18493Y-12258D01*
X18493Y-12258D02*
X20493Y-12258D01*
X19993Y-12258D02*
X19993Y-12758D01*
X19993Y-12758D02*
X18993Y-12758D01*
X18993Y-12758D02*
X18993Y-12258D01*
G54D13*
X21993Y-18758D02*
X22993Y-18758D01*
X22993Y-18758D02*
X22993Y-20758D01*
X22993Y-20758D02*
X21993Y-20758D01*
X21993Y-20758D02*
X21993Y-18758D01*
X21493Y-6758D02*
X21493Y-5758D01*
X21493Y-5758D02*
X23493Y-5758D01*
X23493Y-5758D02*
X23493Y-6758D01*
X23493Y-6758D02*
X21493Y-6758D01*
X15993Y-24258D02*
X16993Y-24258D01*
X16993Y-24258D02*
X16993Y-27258D01*
X16993Y-27258D02*
X15993Y-27258D01*
X15993Y-27258D02*
X15993Y-24258D01*
X16993Y-25258D02*
X15993Y-25258D01*
X14993Y-24258D02*
X15993Y-24258D01*
X15993Y-24258D02*
X15993Y-27258D01*
X15993Y-27258D02*
X14993Y-27258D01*
X14993Y-27258D02*
X14993Y-24258D01*
X15993Y-25258D02*
X14993Y-25258D01*
X13993Y-24258D02*
X14993Y-24258D01*
X14993Y-24258D02*
X14993Y-27258D01*
X14993Y-27258D02*
X13993Y-27258D01*
X13993Y-27258D02*
X13993Y-24258D01*
X14993Y-25258D02*
X13993Y-25258D01*
X13993Y-13758D02*
X14993Y-13758D01*
X14993Y-13758D02*
X14993Y-18758D01*
X14993Y-18758D02*
X13993Y-18758D01*
X13993Y-18758D02*
X13993Y-13758D01*
X13993Y-14758D02*
X14993Y-14758D01*
X14993Y-13758D02*
X15993Y-13758D01*
X15993Y-13758D02*
X15993Y-18758D01*
X15993Y-18758D02*
X14993Y-18758D01*
X14993Y-18758D02*
X14993Y-13758D01*
X14993Y-14758D02*
X15993Y-14758D01*
X15993Y-13758D02*
X16993Y-13758D01*
X16993Y-13758D02*
X16993Y-18758D01*
X16993Y-18758D02*
X15993Y-18758D01*
X15993Y-18758D02*
X15993Y-13758D01*
X15993Y-14758D02*
X16993Y-14758D01*
X24993Y-18758D02*
X23993Y-18758D01*
X23993Y-18758D02*
X23993Y-12758D01*
X23993Y-12758D02*
X24993Y-12758D01*
X24993Y-12758D02*
X24993Y-18758D01*
X24993Y-17758D02*
X23993Y-17758D01*
X23993Y-18758D02*
X22993Y-18758D01*
X22993Y-18758D02*
X22993Y-12758D01*
X22993Y-12758D02*
X23993Y-12758D01*
X23993Y-12758D02*
X23993Y-18758D01*
X23993Y-17758D02*
X22993Y-17758D01*
X24993Y-27758D02*
X23993Y-27758D01*
X23993Y-27758D02*
X23993Y-21758D01*
X23993Y-21758D02*
X24993Y-21758D01*
X24993Y-21758D02*
X24993Y-27758D01*
X24993Y-26758D02*
X23993Y-26758D01*
X23993Y-27758D02*
X22993Y-27758D01*
X22993Y-27758D02*
X22993Y-21758D01*
X22993Y-21758D02*
X23993Y-21758D01*
X23993Y-21758D02*
X23993Y-27758D01*
X23993Y-26758D02*
X22993Y-26758D01*
X22993Y-18758D02*
X21993Y-18758D01*
X21993Y-18758D02*
X21993Y-12758D01*
X21993Y-12758D02*
X22993Y-12758D01*
X22993Y-12758D02*
X22993Y-18758D01*
X22993Y-17758D02*
X21993Y-17758D01*
X22993Y-27758D02*
X21993Y-27758D01*
X21993Y-27758D02*
X21993Y-21758D01*
X21993Y-21758D02*
X22993Y-21758D01*
X22993Y-21758D02*
X22993Y-27758D01*
X22993Y-26758D02*
X21993Y-26758D01*
G54D14*
X14793Y-9858D02*
X15693Y-9858D01*
X15693Y-9858D02*
X15693Y-10358D01*
X15693Y-10358D02*
X14793Y-10358D01*
X14793Y-10358D02*
X14793Y-9858D01*
X17393Y-8308D02*
X16493Y-8308D01*
X16493Y-8308D02*
X16493Y-7808D01*
X16493Y-7808D02*
X17393Y-7808D01*
X17393Y-7808D02*
X17393Y-8308D01*
X22193Y-10308D02*
X22193Y-9408D01*
X22193Y-9408D02*
X22693Y-9408D01*
X22693Y-9408D02*
X22693Y-10308D01*
X22693Y-10308D02*
X22193Y-10308D01*
X21443Y-10308D02*
X21443Y-9408D01*
X21443Y-9408D02*
X21943Y-9408D01*
X21943Y-9408D02*
X21943Y-10308D01*
X21943Y-10308D02*
X21443Y-10308D01*
X14743Y-22008D02*
X14743Y-22908D01*
X14743Y-22908D02*
X14243Y-22908D01*
X14243Y-22908D02*
X14243Y-22008D01*
X14243Y-22008D02*
X14743Y-22008D01*
X14243Y-21508D02*
X14243Y-20608D01*
X14243Y-20608D02*
X14743Y-20608D01*
X14743Y-20608D02*
X14743Y-21508D01*
X14743Y-21508D02*
X14243Y-21508D01*
X23693Y-19108D02*
X23693Y-20008D01*
X23693Y-20008D02*
X23193Y-20008D01*
X23193Y-20008D02*
X23193Y-19108D01*
X23193Y-19108D02*
X23693Y-19108D01*
X23343Y-21008D02*
X24243Y-21008D01*
X24243Y-21008D02*
X24243Y-21508D01*
X24243Y-21508D02*
X23343Y-21508D01*
X23343Y-21508D02*
X23343Y-21008D01*
X14793Y-9108D02*
X15693Y-9108D01*
X15693Y-9108D02*
X15693Y-9608D01*
X15693Y-9608D02*
X14793Y-9608D01*
X14793Y-9608D02*
X14793Y-9108D01*
X15993Y-9108D02*
X16893Y-9108D01*
X16893Y-9108D02*
X16893Y-9608D01*
X16893Y-9608D02*
X15993Y-9608D01*
X15993Y-9608D02*
X15993Y-9108D01*
X17993Y-5508D02*
X17093Y-5508D01*
X17093Y-5508D02*
X17093Y-5008D01*
X17093Y-5008D02*
X17993Y-5008D01*
X17993Y-5008D02*
X17993Y-5508D01*
X18593Y-6508D02*
X17693Y-6508D01*
X17693Y-6508D02*
X17693Y-6008D01*
X17693Y-6008D02*
X18593Y-6008D01*
X18593Y-6008D02*
X18593Y-6508D01*
X17243Y-27508D02*
X18143Y-27508D01*
X18143Y-27508D02*
X18143Y-28008D01*
X18143Y-28008D02*
X17243Y-28008D01*
X17243Y-28008D02*
X17243Y-27508D01*
X15343Y-13008D02*
X16243Y-13008D01*
X16243Y-13008D02*
X16243Y-13508D01*
X16243Y-13508D02*
X15343Y-13508D01*
X15343Y-13508D02*
X15343Y-13008D01*
X15993Y-9858D02*
X16893Y-9858D01*
X16893Y-9858D02*
X16893Y-10358D01*
X16893Y-10358D02*
X15993Y-10358D01*
X15993Y-10358D02*
X15993Y-9858D01*
X20243Y-5358D02*
G75*
G03X20243Y-5358I-50J0D01*
G74*
G01*
X20643Y-5358D02*
X20243Y-5358D01*
X20243Y-5358D02*
X20243Y-4758D01*
X20243Y-4758D02*
X20643Y-4758D01*
X21043Y-4758D02*
X21443Y-4758D01*
X21443Y-4758D02*
X21443Y-5358D01*
X21443Y-5358D02*
X21043Y-5358D01*
X20484Y-11058D02*
G75*
G03X20484Y-11058I-141J0D01*
G74*
G01*
X19243Y-11258D02*
X19243Y-10958D01*
X19243Y-10958D02*
X19743Y-10958D01*
X19743Y-10958D02*
X19743Y-11258D01*
X20543Y-7208D02*
X20543Y-11258D01*
X18443Y-11258D02*
X18443Y-7208D01*
X18443Y-11258D02*
X20543Y-11258D01*
X18443Y-7208D02*
X20543Y-7208D01*
X16493Y-29258D02*
G75*
G03X16493Y-29258I-1000J0D01*
G74*
G01*
X13993Y-30758D02*
X13993Y-27758D01*
X13993Y-27758D02*
X16993Y-27758D01*
X16993Y-27758D02*
X16993Y-30758D01*
X13993Y-30758D02*
X16993Y-30758D01*
G54D13*
X17493Y-5758D02*
X17493Y-6758D01*
X17493Y-6758D02*
X15493Y-6758D01*
X15493Y-6758D02*
X15493Y-5758D01*
X15493Y-5758D02*
X17493Y-5758D01*
G54D14*
X24928Y-32748D02*
X24928Y-33968D01*
X24928Y-33968D02*
X24223Y-33968D01*
X24928Y-32748D02*
X24223Y-32748D01*
X22058Y-34103D02*
X22058Y-34423D01*
X22058Y-34423D02*
X22763Y-34423D01*
X22058Y-34103D02*
X22763Y-34103D01*
X22058Y-33198D02*
X22763Y-33198D01*
X22058Y-33518D02*
X22763Y-33518D01*
X22058Y-33198D02*
X22058Y-33518D01*
X22058Y-32293D02*
X22058Y-32613D01*
X22058Y-32613D02*
X22763Y-32613D01*
X22058Y-32293D02*
X22763Y-32293D01*
X22763Y-34678D02*
X22763Y-32038D01*
X22763Y-32038D02*
X24223Y-32038D01*
X24223Y-32038D02*
X24223Y-34678D01*
X24223Y-34678D02*
X22763Y-34678D01*
G54D11*
X15493Y-22758D02*
X15493Y-20858D01*
X16493Y-20758D02*
X16493Y-22858D01*
X15893Y-20259D02*
G75*
G03X15494Y-20858I100J-499D01*
G74*
G01*
X16493Y-20758D02*
G75*
G03X15993Y-20258I-500J0D01*
G74*
G01*
X15893Y-23257D02*
G75*
G03X16492Y-22858I100J499D01*
G74*
G01*
X15493Y-22758D02*
G75*
G03X15993Y-23258I500J0D01*
G74*
G01*
G54D14*
X10452Y-8109D02*
X10152Y-8109D01*
X10302Y-7959D02*
X10302Y-8259D01*
X10402Y-9009D02*
X8902Y-9009D01*
X10702Y-7509D02*
X10702Y-8709D01*
X10402Y-9009D02*
X10702Y-8709D01*
X10402Y-7209D02*
X8902Y-7209D01*
X10402Y-7209D02*
X10702Y-7509D01*
X9002Y-8159D02*
X9002Y-8059D01*
X9052Y-7859D02*
X9052Y-8359D01*
X9102Y-8459D02*
X9102Y-7759D01*
X9152Y-8559D02*
X9152Y-7659D01*
X9202Y-7609D02*
X9202Y-8609D01*
X9252Y-8659D02*
X9252Y-7559D01*
X9302Y-7509D02*
X9302Y-8709D01*
X9352Y-7459D02*
X9352Y-8759D01*
X10602Y-8109D02*
G75*
G03X10602Y-8109I-800J0D01*
G74*
G01*
X8902Y-7209D02*
X8902Y-9009D01*
X4602Y-31509D02*
X4602Y-32059D01*
X4652Y-31409D02*
X4652Y-32109D01*
X4702Y-31259D02*
X4702Y-32259D01*
X4752Y-32309D02*
X4752Y-31209D01*
X4802Y-31159D02*
X4802Y-32359D01*
X4852Y-32409D02*
X4852Y-31109D01*
X4902Y-31059D02*
X4902Y-32459D01*
X6452Y-31759D02*
G75*
G03X6452Y-31759I-950J0D01*
G74*
G01*
X4452Y-30709D02*
X6252Y-30709D01*
X6252Y-30709D02*
X6552Y-31009D01*
X6552Y-31009D02*
X6552Y-32509D01*
X6552Y-32509D02*
X6252Y-32809D01*
X6252Y-32809D02*
X4452Y-32809D01*
X4452Y-32809D02*
X4452Y-30709D01*
X6352Y-31759D02*
X6052Y-31759D01*
X6202Y-31609D02*
X6202Y-31909D01*
X4602Y-34009D02*
X4602Y-34559D01*
X4652Y-33909D02*
X4652Y-34609D01*
X4702Y-33759D02*
X4702Y-34759D01*
X4752Y-34809D02*
X4752Y-33709D01*
X4802Y-33659D02*
X4802Y-34859D01*
X4852Y-34909D02*
X4852Y-33609D01*
X4902Y-33559D02*
X4902Y-34959D01*
X6452Y-34259D02*
G75*
G03X6452Y-34259I-950J0D01*
G74*
G01*
X4452Y-33209D02*
X6252Y-33209D01*
X6252Y-33209D02*
X6552Y-33509D01*
X6552Y-33509D02*
X6552Y-35009D01*
X6552Y-35009D02*
X6252Y-35309D01*
X6252Y-35309D02*
X4452Y-35309D01*
X4452Y-35309D02*
X4452Y-33209D01*
X6352Y-34259D02*
X6052Y-34259D01*
X6202Y-34109D02*
X6202Y-34409D01*
G54D15*
X5002Y-28259D02*
X8002Y-28259D01*
X8002Y-30259D02*
X5002Y-30259D01*
X5002Y-30259D02*
X5002Y-28259D01*
X8002Y-28259D02*
X8002Y-30259D01*
G54D13*
X8037Y-3993D02*
X8471Y-3993D01*
X8471Y-3993D02*
X8471Y-3402D01*
X8471Y-3402D02*
X8037Y-3402D01*
X4533Y-3401D02*
X4967Y-3401D01*
X4533Y-3992D02*
X4533Y-3401D01*
X4967Y-3992D02*
X4533Y-3992D01*
X4967Y-1826D02*
X4533Y-1826D01*
X4533Y-1826D02*
X4533Y-1235D01*
X4533Y-1235D02*
X4967Y-1235D01*
X8037Y-1826D02*
X8471Y-1826D01*
X8471Y-1826D02*
X8471Y-1235D01*
X8471Y-1235D02*
X8037Y-1235D01*
X8037Y-290D02*
X4967Y-290D01*
X4967Y-290D02*
X4967Y-4228D01*
X4967Y-4228D02*
X8037Y-4228D01*
X8037Y-4228D02*
X8037Y-290D01*
G54D11*
X11402Y-37259D02*
G75*
G03X11402Y-37259I-900J0D01*
G74*
G01*
X3402Y-37259D02*
G75*
G03X3402Y-37259I-900J0D01*
G74*
G01*
X11402Y-2259D02*
G75*
G03X11402Y-2259I-900J0D01*
G74*
G01*
X3402Y-2259D02*
G75*
G03X3402Y-2259I-900J0D01*
G74*
G01*
G54D14*
X7837Y-33963D02*
X8467Y-33963D01*
X8467Y-34003D02*
X7837Y-34003D01*
X8467Y-33058D02*
X8467Y-34160D01*
X8467Y-34160D02*
X7837Y-34160D01*
X7837Y-34160D02*
X7837Y-33058D01*
X7837Y-33058D02*
X8467Y-33058D01*
G54D13*
X8502Y-38759D02*
X4502Y-38759D01*
X8502Y-39259D02*
X8502Y-36259D01*
X8502Y-36259D02*
X4502Y-36259D01*
X4502Y-36259D02*
X4502Y-39259D01*
X4502Y-39259D02*
X8502Y-39259D01*
G54D14*
X3002Y-10609D02*
X3902Y-10609D01*
X3902Y-10609D02*
X3902Y-11109D01*
X3902Y-11109D02*
X3002Y-11109D01*
X3002Y-11109D02*
X3002Y-10609D01*
X1802Y-10609D02*
X2702Y-10609D01*
X2702Y-10609D02*
X2702Y-11109D01*
X2702Y-11109D02*
X1802Y-11109D01*
X1802Y-11109D02*
X1802Y-10609D01*
X7902Y-31909D02*
X7902Y-31009D01*
X7902Y-31009D02*
X8402Y-31009D01*
X8402Y-31009D02*
X8402Y-31909D01*
X8402Y-31909D02*
X7902Y-31909D01*
G54D11*
X7502Y-12259D02*
X7502Y-27259D01*
X7502Y-27259D02*
X5502Y-27259D01*
X5502Y-27259D02*
X5502Y-12259D01*
X5502Y-12259D02*
X7502Y-12259D01*
X7002Y-12259D02*
X7002Y-12759D01*
X7002Y-12759D02*
X6002Y-12759D01*
X6002Y-12759D02*
X6002Y-12259D01*
G54D13*
X9002Y-18759D02*
X10002Y-18759D01*
X10002Y-18759D02*
X10002Y-20759D01*
X10002Y-20759D02*
X9002Y-20759D01*
X9002Y-20759D02*
X9002Y-18759D01*
X8502Y-6759D02*
X8502Y-5759D01*
X8502Y-5759D02*
X10502Y-5759D01*
X10502Y-5759D02*
X10502Y-6759D01*
X10502Y-6759D02*
X8502Y-6759D01*
X3002Y-24259D02*
X4002Y-24259D01*
X4002Y-24259D02*
X4002Y-27259D01*
X4002Y-27259D02*
X3002Y-27259D01*
X3002Y-27259D02*
X3002Y-24259D01*
X4002Y-25259D02*
X3002Y-25259D01*
X2002Y-24259D02*
X3002Y-24259D01*
X3002Y-24259D02*
X3002Y-27259D01*
X3002Y-27259D02*
X2002Y-27259D01*
X2002Y-27259D02*
X2002Y-24259D01*
X3002Y-25259D02*
X2002Y-25259D01*
X1002Y-24259D02*
X2002Y-24259D01*
X2002Y-24259D02*
X2002Y-27259D01*
X2002Y-27259D02*
X1002Y-27259D01*
X1002Y-27259D02*
X1002Y-24259D01*
X2002Y-25259D02*
X1002Y-25259D01*
X1002Y-13759D02*
X2002Y-13759D01*
X2002Y-13759D02*
X2002Y-18759D01*
X2002Y-18759D02*
X1002Y-18759D01*
X1002Y-18759D02*
X1002Y-13759D01*
X1002Y-14759D02*
X2002Y-14759D01*
X2002Y-13759D02*
X3002Y-13759D01*
X3002Y-13759D02*
X3002Y-18759D01*
X3002Y-18759D02*
X2002Y-18759D01*
X2002Y-18759D02*
X2002Y-13759D01*
X2002Y-14759D02*
X3002Y-14759D01*
X3002Y-13759D02*
X4002Y-13759D01*
X4002Y-13759D02*
X4002Y-18759D01*
X4002Y-18759D02*
X3002Y-18759D01*
X3002Y-18759D02*
X3002Y-13759D01*
X3002Y-14759D02*
X4002Y-14759D01*
X12002Y-18759D02*
X11002Y-18759D01*
X11002Y-18759D02*
X11002Y-12759D01*
X11002Y-12759D02*
X12002Y-12759D01*
X12002Y-12759D02*
X12002Y-18759D01*
X12002Y-17759D02*
X11002Y-17759D01*
X11002Y-18759D02*
X10002Y-18759D01*
X10002Y-18759D02*
X10002Y-12759D01*
X10002Y-12759D02*
X11002Y-12759D01*
X11002Y-12759D02*
X11002Y-18759D01*
X11002Y-17759D02*
X10002Y-17759D01*
X12002Y-27759D02*
X11002Y-27759D01*
X11002Y-27759D02*
X11002Y-21759D01*
X11002Y-21759D02*
X12002Y-21759D01*
X12002Y-21759D02*
X12002Y-27759D01*
X12002Y-26759D02*
X11002Y-26759D01*
X11002Y-27759D02*
X10002Y-27759D01*
X10002Y-27759D02*
X10002Y-21759D01*
X10002Y-21759D02*
X11002Y-21759D01*
X11002Y-21759D02*
X11002Y-27759D01*
X11002Y-26759D02*
X10002Y-26759D01*
X10002Y-18759D02*
X9002Y-18759D01*
X9002Y-18759D02*
X9002Y-12759D01*
X9002Y-12759D02*
X10002Y-12759D01*
X10002Y-12759D02*
X10002Y-18759D01*
X10002Y-17759D02*
X9002Y-17759D01*
X10002Y-27759D02*
X9002Y-27759D01*
X9002Y-27759D02*
X9002Y-21759D01*
X9002Y-21759D02*
X10002Y-21759D01*
X10002Y-21759D02*
X10002Y-27759D01*
X10002Y-26759D02*
X9002Y-26759D01*
G54D14*
X1802Y-9859D02*
X2702Y-9859D01*
X2702Y-9859D02*
X2702Y-10359D01*
X2702Y-10359D02*
X1802Y-10359D01*
X1802Y-10359D02*
X1802Y-9859D01*
X4402Y-8309D02*
X3502Y-8309D01*
X3502Y-8309D02*
X3502Y-7809D01*
X3502Y-7809D02*
X4402Y-7809D01*
X4402Y-7809D02*
X4402Y-8309D01*
X9202Y-10309D02*
X9202Y-9409D01*
X9202Y-9409D02*
X9702Y-9409D01*
X9702Y-9409D02*
X9702Y-10309D01*
X9702Y-10309D02*
X9202Y-10309D01*
X8452Y-10309D02*
X8452Y-9409D01*
X8452Y-9409D02*
X8952Y-9409D01*
X8952Y-9409D02*
X8952Y-10309D01*
X8952Y-10309D02*
X8452Y-10309D01*
X1752Y-22009D02*
X1752Y-22909D01*
X1752Y-22909D02*
X1252Y-22909D01*
X1252Y-22909D02*
X1252Y-22009D01*
X1252Y-22009D02*
X1752Y-22009D01*
X1252Y-21509D02*
X1252Y-20609D01*
X1252Y-20609D02*
X1752Y-20609D01*
X1752Y-20609D02*
X1752Y-21509D01*
X1752Y-21509D02*
X1252Y-21509D01*
X10702Y-19109D02*
X10702Y-20009D01*
X10702Y-20009D02*
X10202Y-20009D01*
X10202Y-20009D02*
X10202Y-19109D01*
X10202Y-19109D02*
X10702Y-19109D01*
X10352Y-21009D02*
X11252Y-21009D01*
X11252Y-21009D02*
X11252Y-21509D01*
X11252Y-21509D02*
X10352Y-21509D01*
X10352Y-21509D02*
X10352Y-21009D01*
X1802Y-9109D02*
X2702Y-9109D01*
X2702Y-9109D02*
X2702Y-9609D01*
X2702Y-9609D02*
X1802Y-9609D01*
X1802Y-9609D02*
X1802Y-9109D01*
X3002Y-9109D02*
X3902Y-9109D01*
X3902Y-9109D02*
X3902Y-9609D01*
X3902Y-9609D02*
X3002Y-9609D01*
X3002Y-9609D02*
X3002Y-9109D01*
X5002Y-5509D02*
X4102Y-5509D01*
X4102Y-5509D02*
X4102Y-5009D01*
X4102Y-5009D02*
X5002Y-5009D01*
X5002Y-5009D02*
X5002Y-5509D01*
X5602Y-6509D02*
X4702Y-6509D01*
X4702Y-6509D02*
X4702Y-6009D01*
X4702Y-6009D02*
X5602Y-6009D01*
X5602Y-6009D02*
X5602Y-6509D01*
X4252Y-27509D02*
X5152Y-27509D01*
X5152Y-27509D02*
X5152Y-28009D01*
X5152Y-28009D02*
X4252Y-28009D01*
X4252Y-28009D02*
X4252Y-27509D01*
X2352Y-13009D02*
X3252Y-13009D01*
X3252Y-13009D02*
X3252Y-13509D01*
X3252Y-13509D02*
X2352Y-13509D01*
X2352Y-13509D02*
X2352Y-13009D01*
X3002Y-9859D02*
X3902Y-9859D01*
X3902Y-9859D02*
X3902Y-10359D01*
X3902Y-10359D02*
X3002Y-10359D01*
X3002Y-10359D02*
X3002Y-9859D01*
X7252Y-5359D02*
G75*
G03X7252Y-5359I-50J0D01*
G74*
G01*
X7652Y-5359D02*
X7252Y-5359D01*
X7252Y-5359D02*
X7252Y-4759D01*
X7252Y-4759D02*
X7652Y-4759D01*
X8052Y-4759D02*
X8452Y-4759D01*
X8452Y-4759D02*
X8452Y-5359D01*
X8452Y-5359D02*
X8052Y-5359D01*
X7493Y-11059D02*
G75*
G03X7493Y-11059I-141J0D01*
G74*
G01*
X6252Y-11259D02*
X6252Y-10959D01*
X6252Y-10959D02*
X6752Y-10959D01*
X6752Y-10959D02*
X6752Y-11259D01*
X7552Y-7209D02*
X7552Y-11259D01*
X5452Y-11259D02*
X5452Y-7209D01*
X5452Y-11259D02*
X7552Y-11259D01*
X5452Y-7209D02*
X7552Y-7209D01*
X3502Y-29259D02*
G75*
G03X3502Y-29259I-1000J0D01*
G74*
G01*
X1002Y-30759D02*
X1002Y-27759D01*
X1002Y-27759D02*
X4002Y-27759D01*
X4002Y-27759D02*
X4002Y-30759D01*
X1002Y-30759D02*
X4002Y-30759D01*
G54D13*
X4502Y-5759D02*
X4502Y-6759D01*
X4502Y-6759D02*
X2502Y-6759D01*
X2502Y-6759D02*
X2502Y-5759D01*
X2502Y-5759D02*
X4502Y-5759D01*
G54D14*
X11937Y-32749D02*
X11937Y-33969D01*
X11937Y-33969D02*
X11232Y-33969D01*
X11937Y-32749D02*
X11232Y-32749D01*
X9067Y-34104D02*
X9067Y-34424D01*
X9067Y-34424D02*
X9772Y-34424D01*
X9067Y-34104D02*
X9772Y-34104D01*
X9067Y-33199D02*
X9772Y-33199D01*
X9067Y-33519D02*
X9772Y-33519D01*
X9067Y-33199D02*
X9067Y-33519D01*
X9067Y-32294D02*
X9067Y-32614D01*
X9067Y-32614D02*
X9772Y-32614D01*
X9067Y-32294D02*
X9772Y-32294D01*
X9772Y-34679D02*
X9772Y-32039D01*
X9772Y-32039D02*
X11232Y-32039D01*
X11232Y-32039D02*
X11232Y-34679D01*
X11232Y-34679D02*
X9772Y-34679D01*
G54D11*
X2502Y-22759D02*
X2502Y-20859D01*
X3502Y-20759D02*
X3502Y-22859D01*
X2902Y-20260D02*
G75*
G03X2503Y-20859I100J-499D01*
G74*
G01*
X3502Y-20759D02*
G75*
G03X3002Y-20259I-500J0D01*
G74*
G01*
X2902Y-23258D02*
G75*
G03X3501Y-22859I100J499D01*
G74*
G01*
X2502Y-22759D02*
G75*
G03X3002Y-23259I500J0D01*
G74*
G01*
X28879Y-22759D02*
X28879Y-20859D01*
X29879Y-20759D02*
X29879Y-22859D01*
X29279Y-20260D02*
G75*
G03X28880Y-20859I100J-499D01*
G74*
G01*
X29879Y-20759D02*
G75*
G03X29379Y-20259I-500J0D01*
G74*
G01*
X29279Y-23258D02*
G75*
G03X29878Y-22859I100J499D01*
G74*
G01*
X28879Y-22759D02*
G75*
G03X29379Y-23259I500J0D01*
G74*
G01*
G54D14*
X38314Y-32749D02*
X38314Y-33969D01*
X38314Y-33969D02*
X37609Y-33969D01*
X38314Y-32749D02*
X37609Y-32749D01*
X35444Y-34104D02*
X35444Y-34424D01*
X35444Y-34424D02*
X36149Y-34424D01*
X35444Y-34104D02*
X36149Y-34104D01*
X35444Y-33199D02*
X36149Y-33199D01*
X35444Y-33519D02*
X36149Y-33519D01*
X35444Y-33199D02*
X35444Y-33519D01*
X35444Y-32294D02*
X35444Y-32614D01*
X35444Y-32614D02*
X36149Y-32614D01*
X35444Y-32294D02*
X36149Y-32294D01*
X36149Y-34679D02*
X36149Y-32039D01*
X36149Y-32039D02*
X37609Y-32039D01*
X37609Y-32039D02*
X37609Y-34679D01*
X37609Y-34679D02*
X36149Y-34679D01*
G54D13*
X30879Y-5759D02*
X30879Y-6759D01*
X30879Y-6759D02*
X28879Y-6759D01*
X28879Y-6759D02*
X28879Y-5759D01*
X28879Y-5759D02*
X30879Y-5759D01*
G54D14*
X29879Y-29259D02*
G75*
G03X29879Y-29259I-1000J0D01*
G74*
G01*
X27379Y-30759D02*
X27379Y-27759D01*
X27379Y-27759D02*
X30379Y-27759D01*
X30379Y-27759D02*
X30379Y-30759D01*
X27379Y-30759D02*
X30379Y-30759D01*
X33870Y-11059D02*
G75*
G03X33870Y-11059I-141J0D01*
G74*
G01*
X32629Y-11259D02*
X32629Y-10959D01*
X32629Y-10959D02*
X33129Y-10959D01*
X33129Y-10959D02*
X33129Y-11259D01*
X33929Y-7209D02*
X33929Y-11259D01*
X31829Y-11259D02*
X31829Y-7209D01*
X31829Y-11259D02*
X33929Y-11259D01*
X31829Y-7209D02*
X33929Y-7209D01*
X33629Y-5359D02*
G75*
G03X33629Y-5359I-50J0D01*
G74*
G01*
X34029Y-5359D02*
X33629Y-5359D01*
X33629Y-5359D02*
X33629Y-4759D01*
X33629Y-4759D02*
X34029Y-4759D01*
X34429Y-4759D02*
X34829Y-4759D01*
X34829Y-4759D02*
X34829Y-5359D01*
X34829Y-5359D02*
X34429Y-5359D01*
X29379Y-9859D02*
X30279Y-9859D01*
X30279Y-9859D02*
X30279Y-10359D01*
X30279Y-10359D02*
X29379Y-10359D01*
X29379Y-10359D02*
X29379Y-9859D01*
X28729Y-13009D02*
X29629Y-13009D01*
X29629Y-13009D02*
X29629Y-13509D01*
X29629Y-13509D02*
X28729Y-13509D01*
X28729Y-13509D02*
X28729Y-13009D01*
X30629Y-27509D02*
X31529Y-27509D01*
X31529Y-27509D02*
X31529Y-28009D01*
X31529Y-28009D02*
X30629Y-28009D01*
X30629Y-28009D02*
X30629Y-27509D01*
X31979Y-6509D02*
X31079Y-6509D01*
X31079Y-6509D02*
X31079Y-6009D01*
X31079Y-6009D02*
X31979Y-6009D01*
X31979Y-6009D02*
X31979Y-6509D01*
X31379Y-5509D02*
X30479Y-5509D01*
X30479Y-5509D02*
X30479Y-5009D01*
X30479Y-5009D02*
X31379Y-5009D01*
X31379Y-5009D02*
X31379Y-5509D01*
X29379Y-9109D02*
X30279Y-9109D01*
X30279Y-9109D02*
X30279Y-9609D01*
X30279Y-9609D02*
X29379Y-9609D01*
X29379Y-9609D02*
X29379Y-9109D01*
X28179Y-9109D02*
X29079Y-9109D01*
X29079Y-9109D02*
X29079Y-9609D01*
X29079Y-9609D02*
X28179Y-9609D01*
X28179Y-9609D02*
X28179Y-9109D01*
X36729Y-21009D02*
X37629Y-21009D01*
X37629Y-21009D02*
X37629Y-21509D01*
X37629Y-21509D02*
X36729Y-21509D01*
X36729Y-21509D02*
X36729Y-21009D01*
X37079Y-19109D02*
X37079Y-20009D01*
X37079Y-20009D02*
X36579Y-20009D01*
X36579Y-20009D02*
X36579Y-19109D01*
X36579Y-19109D02*
X37079Y-19109D01*
X27629Y-21509D02*
X27629Y-20609D01*
X27629Y-20609D02*
X28129Y-20609D01*
X28129Y-20609D02*
X28129Y-21509D01*
X28129Y-21509D02*
X27629Y-21509D01*
X28129Y-22009D02*
X28129Y-22909D01*
X28129Y-22909D02*
X27629Y-22909D01*
X27629Y-22909D02*
X27629Y-22009D01*
X27629Y-22009D02*
X28129Y-22009D01*
X34829Y-10309D02*
X34829Y-9409D01*
X34829Y-9409D02*
X35329Y-9409D01*
X35329Y-9409D02*
X35329Y-10309D01*
X35329Y-10309D02*
X34829Y-10309D01*
X35579Y-10309D02*
X35579Y-9409D01*
X35579Y-9409D02*
X36079Y-9409D01*
X36079Y-9409D02*
X36079Y-10309D01*
X36079Y-10309D02*
X35579Y-10309D01*
X30779Y-8309D02*
X29879Y-8309D01*
X29879Y-8309D02*
X29879Y-7809D01*
X29879Y-7809D02*
X30779Y-7809D01*
X30779Y-7809D02*
X30779Y-8309D01*
X28179Y-9859D02*
X29079Y-9859D01*
X29079Y-9859D02*
X29079Y-10359D01*
X29079Y-10359D02*
X28179Y-10359D01*
X28179Y-10359D02*
X28179Y-9859D01*
G54D13*
X36379Y-27759D02*
X35379Y-27759D01*
X35379Y-27759D02*
X35379Y-21759D01*
X35379Y-21759D02*
X36379Y-21759D01*
X36379Y-21759D02*
X36379Y-27759D01*
X36379Y-26759D02*
X35379Y-26759D01*
X36379Y-18759D02*
X35379Y-18759D01*
X35379Y-18759D02*
X35379Y-12759D01*
X35379Y-12759D02*
X36379Y-12759D01*
X36379Y-12759D02*
X36379Y-18759D01*
X36379Y-17759D02*
X35379Y-17759D01*
X37379Y-27759D02*
X36379Y-27759D01*
X36379Y-27759D02*
X36379Y-21759D01*
X36379Y-21759D02*
X37379Y-21759D01*
X37379Y-21759D02*
X37379Y-27759D01*
X37379Y-26759D02*
X36379Y-26759D01*
X38379Y-27759D02*
X37379Y-27759D01*
X37379Y-27759D02*
X37379Y-21759D01*
X37379Y-21759D02*
X38379Y-21759D01*
X38379Y-21759D02*
X38379Y-27759D01*
X38379Y-26759D02*
X37379Y-26759D01*
X37379Y-18759D02*
X36379Y-18759D01*
X36379Y-18759D02*
X36379Y-12759D01*
X36379Y-12759D02*
X37379Y-12759D01*
X37379Y-12759D02*
X37379Y-18759D01*
X37379Y-17759D02*
X36379Y-17759D01*
X38379Y-18759D02*
X37379Y-18759D01*
X37379Y-18759D02*
X37379Y-12759D01*
X37379Y-12759D02*
X38379Y-12759D01*
X38379Y-12759D02*
X38379Y-18759D01*
X38379Y-17759D02*
X37379Y-17759D01*
X29379Y-13759D02*
X30379Y-13759D01*
X30379Y-13759D02*
X30379Y-18759D01*
X30379Y-18759D02*
X29379Y-18759D01*
X29379Y-18759D02*
X29379Y-13759D01*
X29379Y-14759D02*
X30379Y-14759D01*
X28379Y-13759D02*
X29379Y-13759D01*
X29379Y-13759D02*
X29379Y-18759D01*
X29379Y-18759D02*
X28379Y-18759D01*
X28379Y-18759D02*
X28379Y-13759D01*
X28379Y-14759D02*
X29379Y-14759D01*
X27379Y-13759D02*
X28379Y-13759D01*
X28379Y-13759D02*
X28379Y-18759D01*
X28379Y-18759D02*
X27379Y-18759D01*
X27379Y-18759D02*
X27379Y-13759D01*
X27379Y-14759D02*
X28379Y-14759D01*
X27379Y-24259D02*
X28379Y-24259D01*
X28379Y-24259D02*
X28379Y-27259D01*
X28379Y-27259D02*
X27379Y-27259D01*
X27379Y-27259D02*
X27379Y-24259D01*
X28379Y-25259D02*
X27379Y-25259D01*
X28379Y-24259D02*
X29379Y-24259D01*
X29379Y-24259D02*
X29379Y-27259D01*
X29379Y-27259D02*
X28379Y-27259D01*
X28379Y-27259D02*
X28379Y-24259D01*
X29379Y-25259D02*
X28379Y-25259D01*
X29379Y-24259D02*
X30379Y-24259D01*
X30379Y-24259D02*
X30379Y-27259D01*
X30379Y-27259D02*
X29379Y-27259D01*
X29379Y-27259D02*
X29379Y-24259D01*
X30379Y-25259D02*
X29379Y-25259D01*
X34879Y-6759D02*
X34879Y-5759D01*
X34879Y-5759D02*
X36879Y-5759D01*
X36879Y-5759D02*
X36879Y-6759D01*
X36879Y-6759D02*
X34879Y-6759D01*
X35379Y-18759D02*
X36379Y-18759D01*
X36379Y-18759D02*
X36379Y-20759D01*
X36379Y-20759D02*
X35379Y-20759D01*
X35379Y-20759D02*
X35379Y-18759D01*
G54D11*
X33879Y-12259D02*
X33879Y-27259D01*
X33879Y-27259D02*
X31879Y-27259D01*
X31879Y-27259D02*
X31879Y-12259D01*
X31879Y-12259D02*
X33879Y-12259D01*
X33379Y-12259D02*
X33379Y-12759D01*
X33379Y-12759D02*
X32379Y-12759D01*
X32379Y-12759D02*
X32379Y-12259D01*
G54D14*
X34279Y-31909D02*
X34279Y-31009D01*
X34279Y-31009D02*
X34779Y-31009D01*
X34779Y-31009D02*
X34779Y-31909D01*
X34779Y-31909D02*
X34279Y-31909D01*
X28179Y-10609D02*
X29079Y-10609D01*
X29079Y-10609D02*
X29079Y-11109D01*
X29079Y-11109D02*
X28179Y-11109D01*
X28179Y-11109D02*
X28179Y-10609D01*
X29379Y-10609D02*
X30279Y-10609D01*
X30279Y-10609D02*
X30279Y-11109D01*
X30279Y-11109D02*
X29379Y-11109D01*
X29379Y-11109D02*
X29379Y-10609D01*
G54D13*
X34879Y-38759D02*
X30879Y-38759D01*
X34879Y-39259D02*
X34879Y-36259D01*
X34879Y-36259D02*
X30879Y-36259D01*
X30879Y-36259D02*
X30879Y-39259D01*
X30879Y-39259D02*
X34879Y-39259D01*
G54D14*
X34214Y-33963D02*
X34844Y-33963D01*
X34844Y-34003D02*
X34214Y-34003D01*
X34844Y-33058D02*
X34844Y-34160D01*
X34844Y-34160D02*
X34214Y-34160D01*
X34214Y-34160D02*
X34214Y-33058D01*
X34214Y-33058D02*
X34844Y-33058D01*
G54D11*
X29779Y-2259D02*
G75*
G03X29779Y-2259I-900J0D01*
G74*
G01*
X37779Y-2259D02*
G75*
G03X37779Y-2259I-900J0D01*
G74*
G01*
X29779Y-37259D02*
G75*
G03X29779Y-37259I-900J0D01*
G74*
G01*
X37779Y-37259D02*
G75*
G03X37779Y-37259I-900J0D01*
G74*
G01*
G54D13*
X34414Y-3993D02*
X34848Y-3993D01*
X34848Y-3993D02*
X34848Y-3402D01*
X34848Y-3402D02*
X34414Y-3402D01*
X30910Y-3401D02*
X31344Y-3401D01*
X30910Y-3992D02*
X30910Y-3401D01*
X31344Y-3992D02*
X30910Y-3992D01*
X31344Y-1826D02*
X30910Y-1826D01*
X30910Y-1826D02*
X30910Y-1235D01*
X30910Y-1235D02*
X31344Y-1235D01*
X34414Y-1826D02*
X34848Y-1826D01*
X34848Y-1826D02*
X34848Y-1235D01*
X34848Y-1235D02*
X34414Y-1235D01*
X34414Y-290D02*
X31344Y-290D01*
X31344Y-290D02*
X31344Y-4228D01*
X31344Y-4228D02*
X34414Y-4228D01*
X34414Y-4228D02*
X34414Y-290D01*
G54D15*
X31379Y-28259D02*
X34379Y-28259D01*
X34379Y-30259D02*
X31379Y-30259D01*
X31379Y-30259D02*
X31379Y-28259D01*
X34379Y-28259D02*
X34379Y-30259D01*
G54D14*
X30979Y-34009D02*
X30979Y-34559D01*
X31029Y-33909D02*
X31029Y-34609D01*
X31079Y-33759D02*
X31079Y-34759D01*
X31129Y-34809D02*
X31129Y-33709D01*
X31179Y-33659D02*
X31179Y-34859D01*
X31229Y-34909D02*
X31229Y-33609D01*
X31279Y-33559D02*
X31279Y-34959D01*
X32829Y-34259D02*
G75*
G03X32829Y-34259I-950J0D01*
G74*
G01*
X30829Y-33209D02*
X32629Y-33209D01*
X32629Y-33209D02*
X32929Y-33509D01*
X32929Y-33509D02*
X32929Y-35009D01*
X32929Y-35009D02*
X32629Y-35309D01*
X32629Y-35309D02*
X30829Y-35309D01*
X30829Y-35309D02*
X30829Y-33209D01*
X32729Y-34259D02*
X32429Y-34259D01*
X32579Y-34109D02*
X32579Y-34409D01*
X30979Y-31509D02*
X30979Y-32059D01*
X31029Y-31409D02*
X31029Y-32109D01*
X31079Y-31259D02*
X31079Y-32259D01*
X31129Y-32309D02*
X31129Y-31209D01*
X31179Y-31159D02*
X31179Y-32359D01*
X31229Y-32409D02*
X31229Y-31109D01*
X31279Y-31059D02*
X31279Y-32459D01*
X32829Y-31759D02*
G75*
G03X32829Y-31759I-950J0D01*
G74*
G01*
X30829Y-30709D02*
X32629Y-30709D01*
X32629Y-30709D02*
X32929Y-31009D01*
X32929Y-31009D02*
X32929Y-32509D01*
X32929Y-32509D02*
X32629Y-32809D01*
X32629Y-32809D02*
X30829Y-32809D01*
X30829Y-32809D02*
X30829Y-30709D01*
X32729Y-31759D02*
X32429Y-31759D01*
X32579Y-31609D02*
X32579Y-31909D01*
X36829Y-8109D02*
X36529Y-8109D01*
X36679Y-7959D02*
X36679Y-8259D01*
X36779Y-9009D02*
X35279Y-9009D01*
X37079Y-7509D02*
X37079Y-8709D01*
X36779Y-9009D02*
X37079Y-8709D01*
X36779Y-7209D02*
X35279Y-7209D01*
X36779Y-7209D02*
X37079Y-7509D01*
X35379Y-8159D02*
X35379Y-8059D01*
X35429Y-7859D02*
X35429Y-8359D01*
X35479Y-8459D02*
X35479Y-7759D01*
X35529Y-8559D02*
X35529Y-7659D01*
X35579Y-7609D02*
X35579Y-8609D01*
X35629Y-8659D02*
X35629Y-7559D01*
X35679Y-7509D02*
X35679Y-8709D01*
X35729Y-7459D02*
X35729Y-8759D01*
X36979Y-8109D02*
G75*
G03X36979Y-8109I-800J0D01*
G74*
G01*
X35279Y-7209D02*
X35279Y-9009D01*
G54D16*
X23810Y-9068D02*
X23801Y-9078D01*
X23773Y-9087D01*
X23754Y-9087D01*
X23726Y-9078D01*
X23707Y-9059D01*
X23698Y-9040D01*
X23689Y-9003D01*
X23689Y-8975D01*
X23698Y-8937D01*
X23707Y-8918D01*
X23726Y-8900D01*
X23754Y-8890D01*
X23773Y-8890D01*
X23801Y-8900D01*
X23810Y-8909D01*
X23876Y-8890D02*
X24007Y-8890D01*
X23923Y-9087D01*
X17016Y-32618D02*
X17007Y-32628D01*
X16979Y-32637D01*
X16960Y-32637D01*
X16932Y-32628D01*
X16913Y-32609D01*
X16904Y-32590D01*
X16895Y-32553D01*
X16895Y-32525D01*
X16904Y-32487D01*
X16913Y-32468D01*
X16932Y-32450D01*
X16960Y-32440D01*
X16979Y-32440D01*
X17007Y-32450D01*
X17016Y-32459D01*
X17204Y-32637D02*
X17092Y-32637D01*
X17148Y-32637D02*
X17148Y-32440D01*
X17129Y-32468D01*
X17110Y-32487D01*
X17092Y-32497D01*
X17392Y-32637D02*
X17280Y-32637D01*
X17336Y-32637D02*
X17336Y-32440D01*
X17317Y-32468D01*
X17298Y-32487D01*
X17280Y-32497D01*
X17110Y-35168D02*
X17101Y-35178D01*
X17073Y-35187D01*
X17054Y-35187D01*
X17026Y-35178D01*
X17007Y-35159D01*
X16998Y-35140D01*
X16989Y-35103D01*
X16989Y-35075D01*
X16998Y-35037D01*
X17007Y-35018D01*
X17026Y-35000D01*
X17054Y-34990D01*
X17073Y-34990D01*
X17101Y-35000D01*
X17110Y-35009D01*
X17279Y-34990D02*
X17242Y-34990D01*
X17223Y-35000D01*
X17214Y-35009D01*
X17195Y-35037D01*
X17186Y-35075D01*
X17186Y-35150D01*
X17195Y-35168D01*
X17204Y-35178D01*
X17223Y-35187D01*
X17261Y-35187D01*
X17279Y-35178D01*
X17289Y-35168D01*
X17298Y-35150D01*
X17298Y-35103D01*
X17289Y-35084D01*
X17279Y-35075D01*
X17261Y-35065D01*
X17223Y-35065D01*
X17204Y-35075D01*
X17195Y-35084D01*
X17186Y-35103D01*
G54D15*
X19107Y-28070D02*
X19107Y-27670D01*
X19260Y-27670D01*
X19298Y-27689D01*
X19317Y-27708D01*
X19336Y-27746D01*
X19336Y-27803D01*
X19317Y-27841D01*
X19298Y-27860D01*
X19260Y-27879D01*
X19107Y-27879D01*
X19717Y-28070D02*
X19488Y-28070D01*
X19602Y-28070D02*
X19602Y-27670D01*
X19564Y-27727D01*
X19526Y-27765D01*
X19488Y-27784D01*
X20098Y-28070D02*
X19869Y-28070D01*
X19983Y-28070D02*
X19983Y-27670D01*
X19945Y-27727D01*
X19907Y-27765D01*
X19869Y-27784D01*
G54D17*
X19363Y-2624D02*
X19363Y-2904D01*
X19344Y-2960D01*
X19307Y-2998D01*
X19251Y-3017D01*
X19213Y-3017D01*
X19755Y-3017D02*
X19531Y-3017D01*
X19643Y-3017D02*
X19643Y-2624D01*
X19606Y-2680D01*
X19568Y-2717D01*
X19531Y-2736D01*
G54D18*
X18998Y-2074D02*
X18998Y-2392D01*
X19016Y-2429D01*
X19035Y-2448D01*
X19072Y-2467D01*
X19147Y-2467D01*
X19185Y-2448D01*
X19203Y-2429D01*
X19222Y-2392D01*
X19222Y-2074D01*
X19391Y-2448D02*
X19447Y-2467D01*
X19541Y-2467D01*
X19578Y-2448D01*
X19597Y-2429D01*
X19615Y-2392D01*
X19615Y-2354D01*
X19597Y-2317D01*
X19578Y-2298D01*
X19541Y-2279D01*
X19466Y-2261D01*
X19428Y-2242D01*
X19410Y-2223D01*
X19391Y-2186D01*
X19391Y-2148D01*
X19410Y-2111D01*
X19428Y-2092D01*
X19466Y-2074D01*
X19559Y-2074D01*
X19615Y-2092D01*
X19915Y-2261D02*
X19971Y-2279D01*
X19989Y-2298D01*
X20008Y-2336D01*
X20008Y-2392D01*
X19989Y-2429D01*
X19971Y-2448D01*
X19933Y-2467D01*
X19784Y-2467D01*
X19784Y-2074D01*
X19915Y-2074D01*
X19952Y-2092D01*
X19971Y-2111D01*
X19989Y-2148D01*
X19989Y-2186D01*
X19971Y-2223D01*
X19952Y-2242D01*
X19915Y-2261D01*
X19784Y-2261D01*
G54D19*
X20706Y-33724D02*
X20549Y-33724D01*
X20549Y-33686D01*
X20557Y-33664D01*
X20571Y-33649D01*
X20586Y-33641D01*
X20616Y-33634D01*
X20639Y-33634D01*
X20669Y-33641D01*
X20684Y-33649D01*
X20699Y-33664D01*
X20706Y-33686D01*
X20706Y-33724D01*
X20564Y-33574D02*
X20557Y-33567D01*
X20549Y-33552D01*
X20549Y-33514D01*
X20557Y-33499D01*
X20564Y-33492D01*
X20579Y-33484D01*
X20594Y-33484D01*
X20616Y-33492D01*
X20706Y-33582D01*
X20706Y-33484D01*
G54D12*
X19015Y-36117D02*
X19015Y-35723D01*
X19165Y-35723D01*
X19202Y-35742D01*
X19221Y-35761D01*
X19240Y-35799D01*
X19240Y-35855D01*
X19221Y-35892D01*
X19202Y-35911D01*
X19165Y-35930D01*
X19015Y-35930D01*
X19615Y-36117D02*
X19390Y-36117D01*
X19503Y-36117D02*
X19503Y-35723D01*
X19465Y-35780D01*
X19428Y-35817D01*
X19390Y-35836D01*
X19859Y-35723D02*
X19896Y-35723D01*
X19934Y-35742D01*
X19953Y-35761D01*
X19971Y-35799D01*
X19990Y-35874D01*
X19990Y-35967D01*
X19971Y-36042D01*
X19953Y-36080D01*
X19934Y-36099D01*
X19896Y-36117D01*
X19859Y-36117D01*
X19821Y-36099D01*
X19803Y-36080D01*
X19784Y-36042D01*
X19765Y-35967D01*
X19765Y-35874D01*
X19784Y-35799D01*
X19803Y-35761D01*
X19821Y-35742D01*
X19859Y-35723D01*
G54D13*
X18222Y-39944D02*
X18193Y-39972D01*
X18107Y-40001D01*
X18050Y-40001D01*
X17965Y-39972D01*
X17907Y-39915D01*
X17879Y-39858D01*
X17850Y-39744D01*
X17850Y-39658D01*
X17879Y-39544D01*
X17907Y-39487D01*
X17965Y-39429D01*
X18050Y-39401D01*
X18107Y-39401D01*
X18193Y-39429D01*
X18222Y-39458D01*
X18593Y-39401D02*
X18707Y-39401D01*
X18765Y-39429D01*
X18822Y-39487D01*
X18850Y-39601D01*
X18850Y-39801D01*
X18822Y-39915D01*
X18765Y-39972D01*
X18707Y-40001D01*
X18593Y-40001D01*
X18536Y-39972D01*
X18479Y-39915D01*
X18450Y-39801D01*
X18450Y-39601D01*
X18479Y-39487D01*
X18536Y-39429D01*
X18593Y-39401D01*
X19108Y-40001D02*
X19108Y-39401D01*
X19451Y-40001D01*
X19451Y-39401D01*
X19737Y-40001D02*
X19737Y-39401D01*
X20080Y-40001D01*
X20080Y-39401D01*
X20223Y-40058D02*
X20680Y-40058D01*
X20794Y-39458D02*
X20823Y-39429D01*
X20880Y-39401D01*
X21023Y-39401D01*
X21080Y-39429D01*
X21109Y-39458D01*
X21137Y-39515D01*
X21137Y-39572D01*
X21109Y-39658D01*
X20766Y-40001D01*
X21137Y-40001D01*
G54D20*
X17111Y-10939D02*
X17111Y-10739D01*
X17154Y-10739D01*
X17179Y-10748D01*
X17197Y-10768D01*
X17205Y-10787D01*
X17214Y-10825D01*
X17214Y-10853D01*
X17205Y-10891D01*
X17197Y-10910D01*
X17179Y-10929D01*
X17154Y-10939D01*
X17111Y-10939D01*
X17385Y-10939D02*
X17282Y-10939D01*
X17334Y-10939D02*
X17334Y-10739D01*
X17317Y-10768D01*
X17299Y-10787D01*
X17282Y-10796D01*
X14464Y-10939D02*
X14404Y-10844D01*
X14361Y-10939D02*
X14361Y-10739D01*
X14429Y-10739D01*
X14447Y-10748D01*
X14455Y-10758D01*
X14464Y-10777D01*
X14464Y-10806D01*
X14455Y-10825D01*
X14447Y-10834D01*
X14429Y-10844D01*
X14361Y-10844D01*
X14532Y-10758D02*
X14541Y-10748D01*
X14558Y-10739D01*
X14601Y-10739D01*
X14618Y-10748D01*
X14627Y-10758D01*
X14635Y-10777D01*
X14635Y-10796D01*
X14627Y-10825D01*
X14524Y-10939D01*
X14635Y-10939D01*
X21205Y-31573D02*
X21214Y-31582D01*
X21224Y-31608D01*
X21224Y-31625D01*
X21214Y-31650D01*
X21195Y-31668D01*
X21176Y-31676D01*
X21138Y-31685D01*
X21110Y-31685D01*
X21072Y-31676D01*
X21053Y-31668D01*
X21033Y-31650D01*
X21024Y-31625D01*
X21024Y-31608D01*
X21033Y-31582D01*
X21043Y-31573D01*
X21224Y-31402D02*
X21224Y-31505D01*
X21224Y-31453D02*
X21024Y-31453D01*
X21053Y-31470D01*
X21072Y-31488D01*
X21081Y-31505D01*
X21043Y-31334D02*
X21033Y-31325D01*
X21024Y-31308D01*
X21024Y-31265D01*
X21033Y-31248D01*
X21043Y-31239D01*
X21062Y-31231D01*
X21081Y-31231D01*
X21110Y-31239D01*
X21224Y-31342D01*
X21224Y-31231D01*
G54D21*
X19736Y-20197D02*
X19136Y-20197D01*
X19679Y-19726D02*
X19707Y-19747D01*
X19736Y-19811D01*
X19736Y-19854D01*
X19707Y-19919D01*
X19650Y-19961D01*
X19593Y-19983D01*
X19479Y-20004D01*
X19393Y-20004D01*
X19279Y-19983D01*
X19222Y-19961D01*
X19164Y-19919D01*
X19136Y-19854D01*
X19136Y-19811D01*
X19164Y-19747D01*
X19193Y-19726D01*
X19736Y-19297D02*
X19736Y-19554D01*
X19736Y-19426D02*
X19136Y-19426D01*
X19222Y-19469D01*
X19279Y-19511D01*
X19307Y-19554D01*
G54D22*
X22329Y-21023D02*
X22329Y-21305D01*
X22320Y-21361D01*
X22301Y-21399D01*
X22273Y-21417D01*
X22254Y-21417D01*
X22423Y-21417D02*
X22423Y-21023D01*
X22498Y-21023D01*
X22517Y-21042D01*
X22526Y-21061D01*
X22535Y-21099D01*
X22535Y-21155D01*
X22526Y-21192D01*
X22517Y-21211D01*
X22498Y-21230D01*
X22423Y-21230D01*
X22723Y-21417D02*
X22611Y-21417D01*
X22667Y-21417D02*
X22667Y-21023D01*
X22648Y-21080D01*
X22629Y-21117D01*
X22611Y-21136D01*
X23729Y-6073D02*
X23729Y-6355D01*
X23720Y-6411D01*
X23701Y-6449D01*
X23673Y-6467D01*
X23654Y-6467D01*
X23823Y-6467D02*
X23823Y-6073D01*
X23898Y-6073D01*
X23917Y-6092D01*
X23926Y-6111D01*
X23935Y-6149D01*
X23935Y-6205D01*
X23926Y-6242D01*
X23917Y-6261D01*
X23898Y-6280D01*
X23823Y-6280D01*
X24001Y-6073D02*
X24123Y-6073D01*
X24057Y-6224D01*
X24086Y-6224D01*
X24104Y-6242D01*
X24114Y-6261D01*
X24123Y-6299D01*
X24123Y-6392D01*
X24114Y-6430D01*
X24104Y-6449D01*
X24086Y-6467D01*
X24029Y-6467D01*
X24011Y-6449D01*
X24001Y-6430D01*
X16602Y-24053D02*
X16208Y-24053D01*
X16602Y-23941D02*
X16377Y-24025D01*
X16208Y-23941D02*
X16434Y-24053D01*
X16602Y-23753D02*
X16602Y-23865D01*
X16602Y-23809D02*
X16208Y-23809D01*
X16265Y-23828D01*
X16302Y-23847D01*
X16321Y-23865D01*
X15652Y-24053D02*
X15258Y-24053D01*
X15652Y-23941D02*
X15427Y-24025D01*
X15258Y-23941D02*
X15484Y-24053D01*
X15296Y-23865D02*
X15277Y-23856D01*
X15258Y-23837D01*
X15258Y-23790D01*
X15277Y-23772D01*
X15296Y-23762D01*
X15334Y-23753D01*
X15371Y-23753D01*
X15427Y-23762D01*
X15652Y-23875D01*
X15652Y-23753D01*
X14702Y-24053D02*
X14308Y-24053D01*
X14702Y-23941D02*
X14477Y-24025D01*
X14308Y-23941D02*
X14534Y-24053D01*
X14308Y-23875D02*
X14308Y-23753D01*
X14459Y-23819D01*
X14459Y-23790D01*
X14477Y-23772D01*
X14496Y-23762D01*
X14534Y-23753D01*
X14627Y-23753D01*
X14665Y-23762D01*
X14684Y-23772D01*
X14702Y-23790D01*
X14702Y-23847D01*
X14684Y-23865D01*
X14665Y-23875D01*
X14652Y-19303D02*
X14258Y-19303D01*
X14258Y-19228D01*
X14277Y-19209D01*
X14296Y-19200D01*
X14334Y-19191D01*
X14390Y-19191D01*
X14427Y-19200D01*
X14446Y-19209D01*
X14465Y-19228D01*
X14465Y-19303D01*
X14652Y-19097D02*
X14652Y-19059D01*
X14634Y-19040D01*
X14615Y-19031D01*
X14559Y-19012D01*
X14484Y-19003D01*
X14334Y-19003D01*
X14296Y-19012D01*
X14277Y-19022D01*
X14258Y-19040D01*
X14258Y-19078D01*
X14277Y-19097D01*
X14296Y-19106D01*
X14334Y-19115D01*
X14427Y-19115D01*
X14465Y-19106D01*
X14484Y-19097D01*
X14502Y-19078D01*
X14502Y-19040D01*
X14484Y-19022D01*
X14465Y-19012D01*
X14427Y-19003D01*
X15652Y-19303D02*
X15258Y-19303D01*
X15258Y-19228D01*
X15277Y-19209D01*
X15296Y-19200D01*
X15334Y-19191D01*
X15390Y-19191D01*
X15427Y-19200D01*
X15446Y-19209D01*
X15465Y-19228D01*
X15465Y-19303D01*
X15258Y-19125D02*
X15258Y-18994D01*
X15652Y-19078D01*
X16702Y-19303D02*
X16308Y-19303D01*
X16308Y-19228D01*
X16327Y-19209D01*
X16346Y-19200D01*
X16384Y-19191D01*
X16440Y-19191D01*
X16477Y-19200D01*
X16496Y-19209D01*
X16515Y-19228D01*
X16515Y-19303D01*
X16308Y-19012D02*
X16308Y-19106D01*
X16496Y-19115D01*
X16477Y-19106D01*
X16459Y-19087D01*
X16459Y-19040D01*
X16477Y-19022D01*
X16496Y-19012D01*
X16534Y-19003D01*
X16627Y-19003D01*
X16665Y-19012D01*
X16684Y-19022D01*
X16702Y-19040D01*
X16702Y-19087D01*
X16684Y-19106D01*
X16665Y-19115D01*
X24652Y-12603D02*
X24258Y-12603D01*
X24258Y-12528D01*
X24277Y-12509D01*
X24296Y-12500D01*
X24334Y-12491D01*
X24390Y-12491D01*
X24427Y-12500D01*
X24446Y-12509D01*
X24465Y-12528D01*
X24465Y-12603D01*
X24427Y-12378D02*
X24409Y-12397D01*
X24390Y-12406D01*
X24352Y-12415D01*
X24334Y-12415D01*
X24296Y-12406D01*
X24277Y-12397D01*
X24258Y-12378D01*
X24258Y-12340D01*
X24277Y-12322D01*
X24296Y-12312D01*
X24334Y-12303D01*
X24352Y-12303D01*
X24390Y-12312D01*
X24409Y-12322D01*
X24427Y-12340D01*
X24427Y-12378D01*
X24446Y-12397D01*
X24465Y-12406D01*
X24502Y-12415D01*
X24577Y-12415D01*
X24615Y-12406D01*
X24634Y-12397D01*
X24652Y-12378D01*
X24652Y-12340D01*
X24634Y-12322D01*
X24615Y-12312D01*
X24577Y-12303D01*
X24502Y-12303D01*
X24465Y-12312D01*
X24446Y-12322D01*
X24427Y-12340D01*
X23652Y-12603D02*
X23258Y-12603D01*
X23258Y-12528D01*
X23277Y-12509D01*
X23296Y-12500D01*
X23334Y-12491D01*
X23390Y-12491D01*
X23427Y-12500D01*
X23446Y-12509D01*
X23465Y-12528D01*
X23465Y-12603D01*
X23258Y-12322D02*
X23258Y-12359D01*
X23277Y-12378D01*
X23296Y-12387D01*
X23352Y-12406D01*
X23427Y-12415D01*
X23577Y-12415D01*
X23615Y-12406D01*
X23634Y-12397D01*
X23652Y-12378D01*
X23652Y-12340D01*
X23634Y-12322D01*
X23615Y-12312D01*
X23577Y-12303D01*
X23484Y-12303D01*
X23446Y-12312D01*
X23427Y-12322D01*
X23409Y-12340D01*
X23409Y-12378D01*
X23427Y-12397D01*
X23446Y-12406D01*
X23484Y-12415D01*
X24652Y-28203D02*
X24258Y-28203D01*
X24258Y-28128D01*
X24277Y-28109D01*
X24296Y-28100D01*
X24334Y-28091D01*
X24390Y-28091D01*
X24427Y-28100D01*
X24446Y-28109D01*
X24465Y-28128D01*
X24465Y-28203D01*
X24390Y-27922D02*
X24652Y-27922D01*
X24240Y-27969D02*
X24521Y-28015D01*
X24521Y-27894D01*
X23702Y-28203D02*
X23308Y-28203D01*
X23308Y-28128D01*
X23327Y-28109D01*
X23346Y-28100D01*
X23384Y-28091D01*
X23440Y-28091D01*
X23477Y-28100D01*
X23496Y-28109D01*
X23515Y-28128D01*
X23515Y-28203D01*
X23308Y-28025D02*
X23308Y-27903D01*
X23459Y-27969D01*
X23459Y-27940D01*
X23477Y-27922D01*
X23496Y-27912D01*
X23534Y-27903D01*
X23627Y-27903D01*
X23665Y-27912D01*
X23684Y-27922D01*
X23702Y-27940D01*
X23702Y-27997D01*
X23684Y-28015D01*
X23665Y-28025D01*
X22652Y-12603D02*
X22258Y-12603D01*
X22258Y-12528D01*
X22277Y-12509D01*
X22296Y-12500D01*
X22334Y-12491D01*
X22390Y-12491D01*
X22427Y-12500D01*
X22446Y-12509D01*
X22465Y-12528D01*
X22465Y-12603D01*
X22296Y-12415D02*
X22277Y-12406D01*
X22258Y-12387D01*
X22258Y-12340D01*
X22277Y-12322D01*
X22296Y-12312D01*
X22334Y-12303D01*
X22371Y-12303D01*
X22427Y-12312D01*
X22652Y-12425D01*
X22652Y-12303D01*
X22652Y-28203D02*
X22258Y-28203D01*
X22258Y-28128D01*
X22277Y-28109D01*
X22296Y-28100D01*
X22334Y-28091D01*
X22390Y-28091D01*
X22427Y-28100D01*
X22446Y-28109D01*
X22465Y-28128D01*
X22465Y-28203D01*
X22652Y-27903D02*
X22652Y-28015D01*
X22652Y-27959D02*
X22258Y-27959D01*
X22315Y-27978D01*
X22352Y-27997D01*
X22371Y-28015D01*
G54D20*
X14361Y-10139D02*
X14361Y-9939D01*
X14404Y-9939D01*
X14429Y-9948D01*
X14447Y-9968D01*
X14455Y-9987D01*
X14464Y-10025D01*
X14464Y-10053D01*
X14455Y-10091D01*
X14447Y-10110D01*
X14429Y-10129D01*
X14404Y-10139D01*
X14361Y-10139D01*
X14618Y-9939D02*
X14584Y-9939D01*
X14567Y-9948D01*
X14558Y-9958D01*
X14541Y-9987D01*
X14532Y-10025D01*
X14532Y-10101D01*
X14541Y-10120D01*
X14549Y-10129D01*
X14567Y-10139D01*
X14601Y-10139D01*
X14618Y-10129D01*
X14627Y-10120D01*
X14635Y-10101D01*
X14635Y-10053D01*
X14627Y-10034D01*
X14618Y-10025D01*
X14601Y-10015D01*
X14567Y-10015D01*
X14549Y-10025D01*
X14541Y-10034D01*
X14532Y-10053D01*
X16828Y-7670D02*
X16819Y-7679D01*
X16793Y-7689D01*
X16776Y-7689D01*
X16751Y-7679D01*
X16733Y-7660D01*
X16725Y-7641D01*
X16716Y-7603D01*
X16716Y-7575D01*
X16725Y-7537D01*
X16733Y-7518D01*
X16751Y-7498D01*
X16776Y-7489D01*
X16793Y-7489D01*
X16819Y-7498D01*
X16828Y-7508D01*
X16999Y-7689D02*
X16896Y-7689D01*
X16948Y-7689D02*
X16948Y-7489D01*
X16931Y-7518D01*
X16913Y-7537D01*
X16896Y-7546D01*
X17110Y-7489D02*
X17127Y-7489D01*
X17144Y-7498D01*
X17153Y-7508D01*
X17162Y-7527D01*
X17170Y-7565D01*
X17170Y-7613D01*
X17162Y-7651D01*
X17153Y-7670D01*
X17144Y-7679D01*
X17127Y-7689D01*
X17110Y-7689D01*
X17093Y-7679D01*
X17084Y-7670D01*
X17076Y-7651D01*
X17067Y-7613D01*
X17067Y-7565D01*
X17076Y-7527D01*
X17084Y-7508D01*
X17093Y-7498D01*
X17110Y-7489D01*
X23005Y-9887D02*
X23014Y-9896D01*
X23024Y-9922D01*
X23024Y-9939D01*
X23014Y-9964D01*
X22995Y-9982D01*
X22976Y-9990D01*
X22938Y-9999D01*
X22910Y-9999D01*
X22872Y-9990D01*
X22853Y-9982D01*
X22833Y-9964D01*
X22824Y-9939D01*
X22824Y-9922D01*
X22833Y-9896D01*
X22843Y-9887D01*
X23024Y-9802D02*
X23024Y-9767D01*
X23014Y-9750D01*
X23005Y-9742D01*
X22976Y-9724D01*
X22938Y-9716D01*
X22862Y-9716D01*
X22843Y-9724D01*
X22833Y-9733D01*
X22824Y-9750D01*
X22824Y-9784D01*
X22833Y-9802D01*
X22843Y-9810D01*
X22862Y-9819D01*
X22910Y-9819D01*
X22929Y-9810D01*
X22938Y-9802D01*
X22948Y-9784D01*
X22948Y-9750D01*
X22938Y-9733D01*
X22929Y-9724D01*
X22910Y-9716D01*
X21755Y-9137D02*
X21764Y-9146D01*
X21774Y-9172D01*
X21774Y-9189D01*
X21764Y-9214D01*
X21745Y-9232D01*
X21726Y-9240D01*
X21688Y-9249D01*
X21660Y-9249D01*
X21622Y-9240D01*
X21603Y-9232D01*
X21583Y-9214D01*
X21574Y-9189D01*
X21574Y-9172D01*
X21583Y-9146D01*
X21593Y-9137D01*
X21660Y-9034D02*
X21650Y-9052D01*
X21641Y-9060D01*
X21622Y-9069D01*
X21612Y-9069D01*
X21593Y-9060D01*
X21583Y-9052D01*
X21574Y-9034D01*
X21574Y-9000D01*
X21583Y-8983D01*
X21593Y-8974D01*
X21612Y-8966D01*
X21622Y-8966D01*
X21641Y-8974D01*
X21650Y-8983D01*
X21660Y-9000D01*
X21660Y-9034D01*
X21669Y-9052D01*
X21679Y-9060D01*
X21698Y-9069D01*
X21736Y-9069D01*
X21755Y-9060D01*
X21764Y-9052D01*
X21774Y-9034D01*
X21774Y-9000D01*
X21764Y-8983D01*
X21755Y-8974D01*
X21736Y-8966D01*
X21698Y-8966D01*
X21679Y-8974D01*
X21669Y-8983D01*
X21660Y-9000D01*
X14105Y-22487D02*
X14114Y-22496D01*
X14124Y-22522D01*
X14124Y-22539D01*
X14114Y-22564D01*
X14095Y-22582D01*
X14076Y-22590D01*
X14038Y-22599D01*
X14010Y-22599D01*
X13972Y-22590D01*
X13953Y-22582D01*
X13933Y-22564D01*
X13924Y-22539D01*
X13924Y-22522D01*
X13933Y-22496D01*
X13943Y-22487D01*
X13924Y-22324D02*
X13924Y-22410D01*
X14019Y-22419D01*
X14010Y-22410D01*
X14000Y-22393D01*
X14000Y-22350D01*
X14010Y-22333D01*
X14019Y-22324D01*
X14038Y-22316D01*
X14086Y-22316D01*
X14105Y-22324D01*
X14114Y-22333D01*
X14124Y-22350D01*
X14124Y-22393D01*
X14114Y-22410D01*
X14105Y-22419D01*
X14105Y-21087D02*
X14114Y-21096D01*
X14124Y-21122D01*
X14124Y-21139D01*
X14114Y-21164D01*
X14095Y-21182D01*
X14076Y-21190D01*
X14038Y-21199D01*
X14010Y-21199D01*
X13972Y-21190D01*
X13953Y-21182D01*
X13933Y-21164D01*
X13924Y-21139D01*
X13924Y-21122D01*
X13933Y-21096D01*
X13943Y-21087D01*
X13991Y-20933D02*
X14124Y-20933D01*
X13914Y-20976D02*
X14057Y-21019D01*
X14057Y-20907D01*
X24105Y-19587D02*
X24114Y-19596D01*
X24124Y-19622D01*
X24124Y-19639D01*
X24114Y-19664D01*
X24095Y-19682D01*
X24076Y-19690D01*
X24038Y-19699D01*
X24010Y-19699D01*
X23972Y-19690D01*
X23953Y-19682D01*
X23933Y-19664D01*
X23924Y-19639D01*
X23924Y-19622D01*
X23933Y-19596D01*
X23943Y-19587D01*
X23924Y-19527D02*
X23924Y-19416D01*
X24000Y-19476D01*
X24000Y-19450D01*
X24010Y-19433D01*
X24019Y-19424D01*
X24038Y-19416D01*
X24086Y-19416D01*
X24105Y-19424D01*
X24114Y-19433D01*
X24124Y-19450D01*
X24124Y-19502D01*
X24114Y-19519D01*
X24105Y-19527D01*
X24564Y-21320D02*
X24555Y-21329D01*
X24529Y-21339D01*
X24512Y-21339D01*
X24487Y-21329D01*
X24469Y-21310D01*
X24461Y-21291D01*
X24452Y-21253D01*
X24452Y-21225D01*
X24461Y-21187D01*
X24469Y-21168D01*
X24487Y-21148D01*
X24512Y-21139D01*
X24529Y-21139D01*
X24555Y-21148D01*
X24564Y-21158D01*
X24632Y-21158D02*
X24641Y-21148D01*
X24658Y-21139D01*
X24701Y-21139D01*
X24718Y-21148D01*
X24727Y-21158D01*
X24735Y-21177D01*
X24735Y-21196D01*
X24727Y-21225D01*
X24624Y-21339D01*
X24735Y-21339D01*
X14361Y-9439D02*
X14361Y-9239D01*
X14404Y-9239D01*
X14429Y-9248D01*
X14447Y-9268D01*
X14455Y-9287D01*
X14464Y-9325D01*
X14464Y-9353D01*
X14455Y-9391D01*
X14447Y-9410D01*
X14429Y-9429D01*
X14404Y-9439D01*
X14361Y-9439D01*
X14524Y-9239D02*
X14644Y-9239D01*
X14567Y-9439D01*
X17178Y-9439D02*
X17118Y-9344D01*
X17075Y-9439D02*
X17075Y-9239D01*
X17143Y-9239D01*
X17161Y-9248D01*
X17169Y-9258D01*
X17178Y-9277D01*
X17178Y-9306D01*
X17169Y-9325D01*
X17161Y-9334D01*
X17143Y-9344D01*
X17075Y-9344D01*
X17349Y-9439D02*
X17246Y-9439D01*
X17298Y-9439D02*
X17298Y-9239D01*
X17281Y-9268D01*
X17263Y-9287D01*
X17246Y-9296D01*
X17520Y-9439D02*
X17417Y-9439D01*
X17469Y-9439D02*
X17469Y-9239D01*
X17452Y-9268D01*
X17434Y-9287D01*
X17417Y-9296D01*
X17514Y-4889D02*
X17454Y-4794D01*
X17411Y-4889D02*
X17411Y-4689D01*
X17479Y-4689D01*
X17497Y-4698D01*
X17505Y-4708D01*
X17514Y-4727D01*
X17514Y-4756D01*
X17505Y-4775D01*
X17497Y-4784D01*
X17479Y-4794D01*
X17411Y-4794D01*
X17599Y-4889D02*
X17634Y-4889D01*
X17651Y-4879D01*
X17659Y-4870D01*
X17677Y-4841D01*
X17685Y-4803D01*
X17685Y-4727D01*
X17677Y-4708D01*
X17668Y-4698D01*
X17651Y-4689D01*
X17617Y-4689D01*
X17599Y-4698D01*
X17591Y-4708D01*
X17582Y-4727D01*
X17582Y-4775D01*
X17591Y-4794D01*
X17599Y-4803D01*
X17617Y-4813D01*
X17651Y-4813D01*
X17668Y-4803D01*
X17677Y-4794D01*
X17685Y-4775D01*
X18114Y-6839D02*
X18054Y-6744D01*
X18011Y-6839D02*
X18011Y-6639D01*
X18079Y-6639D01*
X18097Y-6648D01*
X18105Y-6658D01*
X18114Y-6677D01*
X18114Y-6706D01*
X18105Y-6725D01*
X18097Y-6734D01*
X18079Y-6744D01*
X18011Y-6744D01*
X18217Y-6725D02*
X18199Y-6715D01*
X18191Y-6706D01*
X18182Y-6687D01*
X18182Y-6677D01*
X18191Y-6658D01*
X18199Y-6648D01*
X18217Y-6639D01*
X18251Y-6639D01*
X18268Y-6648D01*
X18277Y-6658D01*
X18285Y-6677D01*
X18285Y-6687D01*
X18277Y-6706D01*
X18268Y-6715D01*
X18251Y-6725D01*
X18217Y-6725D01*
X18199Y-6734D01*
X18191Y-6744D01*
X18182Y-6763D01*
X18182Y-6801D01*
X18191Y-6820D01*
X18199Y-6829D01*
X18217Y-6839D01*
X18251Y-6839D01*
X18268Y-6829D01*
X18277Y-6820D01*
X18285Y-6801D01*
X18285Y-6763D01*
X18277Y-6744D01*
X18268Y-6734D01*
X18251Y-6725D01*
X17664Y-27320D02*
X17655Y-27329D01*
X17629Y-27339D01*
X17612Y-27339D01*
X17587Y-27329D01*
X17569Y-27310D01*
X17561Y-27291D01*
X17552Y-27253D01*
X17552Y-27225D01*
X17561Y-27187D01*
X17569Y-27168D01*
X17587Y-27148D01*
X17612Y-27139D01*
X17629Y-27139D01*
X17655Y-27148D01*
X17664Y-27158D01*
X17835Y-27339D02*
X17732Y-27339D01*
X17784Y-27339D02*
X17784Y-27139D01*
X17767Y-27168D01*
X17749Y-27187D01*
X17732Y-27196D01*
X15764Y-12889D02*
X15704Y-12794D01*
X15661Y-12889D02*
X15661Y-12689D01*
X15729Y-12689D01*
X15747Y-12698D01*
X15755Y-12708D01*
X15764Y-12727D01*
X15764Y-12756D01*
X15755Y-12775D01*
X15747Y-12784D01*
X15729Y-12794D01*
X15661Y-12794D01*
X15935Y-12889D02*
X15832Y-12889D01*
X15884Y-12889D02*
X15884Y-12689D01*
X15867Y-12718D01*
X15849Y-12737D01*
X15832Y-12746D01*
X17178Y-10189D02*
X17118Y-10094D01*
X17075Y-10189D02*
X17075Y-9989D01*
X17143Y-9989D01*
X17161Y-9998D01*
X17169Y-10008D01*
X17178Y-10027D01*
X17178Y-10056D01*
X17169Y-10075D01*
X17161Y-10084D01*
X17143Y-10094D01*
X17075Y-10094D01*
X17349Y-10189D02*
X17246Y-10189D01*
X17298Y-10189D02*
X17298Y-9989D01*
X17281Y-10018D01*
X17263Y-10037D01*
X17246Y-10046D01*
X17460Y-9989D02*
X17477Y-9989D01*
X17494Y-9998D01*
X17503Y-10008D01*
X17512Y-10027D01*
X17520Y-10065D01*
X17520Y-10113D01*
X17512Y-10151D01*
X17503Y-10170D01*
X17494Y-10179D01*
X17477Y-10189D01*
X17460Y-10189D01*
X17443Y-10179D01*
X17434Y-10170D01*
X17426Y-10151D01*
X17417Y-10113D01*
X17417Y-10065D01*
X17426Y-10027D01*
X17434Y-10008D01*
X17443Y-9998D01*
X17460Y-9989D01*
G54D14*
X20802Y-5759D02*
X20683Y-5759D01*
X20683Y-5509D01*
X21015Y-5759D02*
X20873Y-5759D01*
X20944Y-5759D02*
X20944Y-5509D01*
X20920Y-5545D01*
X20896Y-5569D01*
X20873Y-5581D01*
X18714Y-9437D02*
X18957Y-9437D01*
X18986Y-9422D01*
X19000Y-9408D01*
X19014Y-9379D01*
X19014Y-9322D01*
X19000Y-9294D01*
X18986Y-9279D01*
X18957Y-9265D01*
X18714Y-9265D01*
X19014Y-8965D02*
X19014Y-9137D01*
X19014Y-9051D02*
X18714Y-9051D01*
X18757Y-9080D01*
X18786Y-9108D01*
X18800Y-9137D01*
X19907Y-10030D02*
X19907Y-10130D01*
X20064Y-10130D02*
X19764Y-10130D01*
X19764Y-9987D01*
X19764Y-9915D02*
X19764Y-9744D01*
X20064Y-9830D02*
X19764Y-9830D01*
X19793Y-9658D02*
X19779Y-9644D01*
X19764Y-9615D01*
X19764Y-9544D01*
X19779Y-9515D01*
X19793Y-9501D01*
X19822Y-9486D01*
X19850Y-9486D01*
X19893Y-9501D01*
X20064Y-9672D01*
X20064Y-9486D01*
X19764Y-9386D02*
X19764Y-9200D01*
X19879Y-9300D01*
X19879Y-9258D01*
X19893Y-9229D01*
X19907Y-9215D01*
X19936Y-9200D01*
X20007Y-9200D01*
X20036Y-9215D01*
X20050Y-9229D01*
X20064Y-9258D01*
X20064Y-9343D01*
X20050Y-9372D01*
X20036Y-9386D01*
X19793Y-9086D02*
X19779Y-9072D01*
X19764Y-9043D01*
X19764Y-8972D01*
X19779Y-8943D01*
X19793Y-8929D01*
X19822Y-8914D01*
X19850Y-8914D01*
X19893Y-8929D01*
X20064Y-9100D01*
X20064Y-8914D01*
X20064Y-8614D02*
X19922Y-8714D01*
X20064Y-8786D02*
X19764Y-8786D01*
X19764Y-8671D01*
X19779Y-8643D01*
X19793Y-8628D01*
X19822Y-8614D01*
X19864Y-8614D01*
X19893Y-8628D01*
X19907Y-8643D01*
X19922Y-8671D01*
X19922Y-8786D01*
X20064Y-8343D02*
X20064Y-8486D01*
X19764Y-8486D01*
G54D15*
X15636Y-29791D02*
X15655Y-29734D01*
X15655Y-29638D01*
X15636Y-29600D01*
X15617Y-29581D01*
X15579Y-29562D01*
X15541Y-29562D01*
X15503Y-29581D01*
X15483Y-29600D01*
X15464Y-29638D01*
X15445Y-29715D01*
X15426Y-29753D01*
X15407Y-29772D01*
X15369Y-29791D01*
X15331Y-29791D01*
X15293Y-29772D01*
X15274Y-29753D01*
X15255Y-29715D01*
X15255Y-29619D01*
X15274Y-29562D01*
X15255Y-29429D02*
X15655Y-29334D01*
X15369Y-29257D01*
X15655Y-29181D01*
X15255Y-29086D01*
X15655Y-28724D02*
X15655Y-28953D01*
X15655Y-28839D02*
X15255Y-28839D01*
X15312Y-28877D01*
X15350Y-28915D01*
X15369Y-28953D01*
G54D22*
X14879Y-6023D02*
X14879Y-6305D01*
X14870Y-6361D01*
X14851Y-6399D01*
X14823Y-6417D01*
X14804Y-6417D01*
X14973Y-6417D02*
X14973Y-6023D01*
X15048Y-6023D01*
X15067Y-6042D01*
X15076Y-6061D01*
X15085Y-6099D01*
X15085Y-6155D01*
X15076Y-6192D01*
X15067Y-6211D01*
X15048Y-6230D01*
X14973Y-6230D01*
X15161Y-6061D02*
X15170Y-6042D01*
X15189Y-6023D01*
X15236Y-6023D01*
X15254Y-6042D01*
X15264Y-6061D01*
X15273Y-6099D01*
X15273Y-6136D01*
X15264Y-6192D01*
X15151Y-6417D01*
X15273Y-6417D01*
G54D23*
X23143Y-34823D02*
X23143Y-35142D01*
X23162Y-35180D01*
X23180Y-35199D01*
X23218Y-35217D01*
X23293Y-35217D01*
X23330Y-35199D01*
X23349Y-35180D01*
X23368Y-35142D01*
X23368Y-34823D01*
X23537Y-34861D02*
X23556Y-34842D01*
X23593Y-34823D01*
X23687Y-34823D01*
X23725Y-34842D01*
X23743Y-34861D01*
X23762Y-34899D01*
X23762Y-34936D01*
X23743Y-34992D01*
X23518Y-35217D01*
X23762Y-35217D01*
G54D22*
X15758Y-21868D02*
X16152Y-21737D01*
X15758Y-21737D02*
X16152Y-21868D01*
X16152Y-21558D02*
X16152Y-21670D01*
X16152Y-21614D02*
X15758Y-21614D01*
X15815Y-21633D01*
X15852Y-21652D01*
X15871Y-21670D01*
G54D16*
X10819Y-9069D02*
X10810Y-9079D01*
X10782Y-9088D01*
X10763Y-9088D01*
X10735Y-9079D01*
X10716Y-9060D01*
X10707Y-9041D01*
X10698Y-9004D01*
X10698Y-8976D01*
X10707Y-8938D01*
X10716Y-8919D01*
X10735Y-8901D01*
X10763Y-8891D01*
X10782Y-8891D01*
X10810Y-8901D01*
X10819Y-8910D01*
X10885Y-8891D02*
X11016Y-8891D01*
X10932Y-9088D01*
X4025Y-32619D02*
X4016Y-32629D01*
X3988Y-32638D01*
X3969Y-32638D01*
X3941Y-32629D01*
X3922Y-32610D01*
X3913Y-32591D01*
X3904Y-32554D01*
X3904Y-32526D01*
X3913Y-32488D01*
X3922Y-32469D01*
X3941Y-32451D01*
X3969Y-32441D01*
X3988Y-32441D01*
X4016Y-32451D01*
X4025Y-32460D01*
X4213Y-32638D02*
X4101Y-32638D01*
X4157Y-32638D02*
X4157Y-32441D01*
X4138Y-32469D01*
X4119Y-32488D01*
X4101Y-32498D01*
X4401Y-32638D02*
X4289Y-32638D01*
X4345Y-32638D02*
X4345Y-32441D01*
X4326Y-32469D01*
X4307Y-32488D01*
X4289Y-32498D01*
X4119Y-35169D02*
X4110Y-35179D01*
X4082Y-35188D01*
X4063Y-35188D01*
X4035Y-35179D01*
X4016Y-35160D01*
X4007Y-35141D01*
X3998Y-35104D01*
X3998Y-35076D01*
X4007Y-35038D01*
X4016Y-35019D01*
X4035Y-35001D01*
X4063Y-34991D01*
X4082Y-34991D01*
X4110Y-35001D01*
X4119Y-35010D01*
X4288Y-34991D02*
X4251Y-34991D01*
X4232Y-35001D01*
X4223Y-35010D01*
X4204Y-35038D01*
X4195Y-35076D01*
X4195Y-35151D01*
X4204Y-35169D01*
X4213Y-35179D01*
X4232Y-35188D01*
X4270Y-35188D01*
X4288Y-35179D01*
X4298Y-35169D01*
X4307Y-35151D01*
X4307Y-35104D01*
X4298Y-35085D01*
X4288Y-35076D01*
X4270Y-35066D01*
X4232Y-35066D01*
X4213Y-35076D01*
X4204Y-35085D01*
X4195Y-35104D01*
G54D15*
X6116Y-28071D02*
X6116Y-27671D01*
X6269Y-27671D01*
X6307Y-27690D01*
X6326Y-27709D01*
X6345Y-27747D01*
X6345Y-27804D01*
X6326Y-27842D01*
X6307Y-27861D01*
X6269Y-27880D01*
X6116Y-27880D01*
X6726Y-28071D02*
X6497Y-28071D01*
X6611Y-28071D02*
X6611Y-27671D01*
X6573Y-27728D01*
X6535Y-27766D01*
X6497Y-27785D01*
X7107Y-28071D02*
X6878Y-28071D01*
X6992Y-28071D02*
X6992Y-27671D01*
X6954Y-27728D01*
X6916Y-27766D01*
X6878Y-27785D01*
G54D17*
X6372Y-2625D02*
X6372Y-2905D01*
X6353Y-2961D01*
X6316Y-2999D01*
X6260Y-3018D01*
X6222Y-3018D01*
X6764Y-3018D02*
X6540Y-3018D01*
X6652Y-3018D02*
X6652Y-2625D01*
X6615Y-2681D01*
X6577Y-2718D01*
X6540Y-2737D01*
G54D18*
X6007Y-2075D02*
X6007Y-2393D01*
X6025Y-2430D01*
X6044Y-2449D01*
X6081Y-2468D01*
X6156Y-2468D01*
X6194Y-2449D01*
X6212Y-2430D01*
X6231Y-2393D01*
X6231Y-2075D01*
X6400Y-2449D02*
X6456Y-2468D01*
X6550Y-2468D01*
X6587Y-2449D01*
X6606Y-2430D01*
X6624Y-2393D01*
X6624Y-2355D01*
X6606Y-2318D01*
X6587Y-2299D01*
X6550Y-2280D01*
X6475Y-2262D01*
X6437Y-2243D01*
X6419Y-2224D01*
X6400Y-2187D01*
X6400Y-2149D01*
X6419Y-2112D01*
X6437Y-2093D01*
X6475Y-2075D01*
X6568Y-2075D01*
X6624Y-2093D01*
X6924Y-2262D02*
X6980Y-2280D01*
X6998Y-2299D01*
X7017Y-2337D01*
X7017Y-2393D01*
X6998Y-2430D01*
X6980Y-2449D01*
X6942Y-2468D01*
X6793Y-2468D01*
X6793Y-2075D01*
X6924Y-2075D01*
X6961Y-2093D01*
X6980Y-2112D01*
X6998Y-2149D01*
X6998Y-2187D01*
X6980Y-2224D01*
X6961Y-2243D01*
X6924Y-2262D01*
X6793Y-2262D01*
G54D19*
X7715Y-33725D02*
X7558Y-33725D01*
X7558Y-33687D01*
X7566Y-33665D01*
X7580Y-33650D01*
X7595Y-33642D01*
X7625Y-33635D01*
X7648Y-33635D01*
X7678Y-33642D01*
X7693Y-33650D01*
X7708Y-33665D01*
X7715Y-33687D01*
X7715Y-33725D01*
X7573Y-33575D02*
X7566Y-33568D01*
X7558Y-33553D01*
X7558Y-33515D01*
X7566Y-33500D01*
X7573Y-33493D01*
X7588Y-33485D01*
X7603Y-33485D01*
X7625Y-33493D01*
X7715Y-33583D01*
X7715Y-33485D01*
G54D12*
X6024Y-36118D02*
X6024Y-35724D01*
X6174Y-35724D01*
X6211Y-35743D01*
X6230Y-35762D01*
X6249Y-35800D01*
X6249Y-35856D01*
X6230Y-35893D01*
X6211Y-35912D01*
X6174Y-35931D01*
X6024Y-35931D01*
X6624Y-36118D02*
X6399Y-36118D01*
X6512Y-36118D02*
X6512Y-35724D01*
X6474Y-35781D01*
X6437Y-35818D01*
X6399Y-35837D01*
X6868Y-35724D02*
X6905Y-35724D01*
X6943Y-35743D01*
X6962Y-35762D01*
X6980Y-35800D01*
X6999Y-35875D01*
X6999Y-35968D01*
X6980Y-36043D01*
X6962Y-36081D01*
X6943Y-36100D01*
X6905Y-36118D01*
X6868Y-36118D01*
X6830Y-36100D01*
X6812Y-36081D01*
X6793Y-36043D01*
X6774Y-35968D01*
X6774Y-35875D01*
X6793Y-35800D01*
X6812Y-35762D01*
X6830Y-35743D01*
X6868Y-35724D01*
G54D13*
X5231Y-39945D02*
X5202Y-39973D01*
X5116Y-40002D01*
X5059Y-40002D01*
X4974Y-39973D01*
X4916Y-39916D01*
X4888Y-39859D01*
X4859Y-39745D01*
X4859Y-39659D01*
X4888Y-39545D01*
X4916Y-39488D01*
X4974Y-39430D01*
X5059Y-39402D01*
X5116Y-39402D01*
X5202Y-39430D01*
X5231Y-39459D01*
X5602Y-39402D02*
X5716Y-39402D01*
X5774Y-39430D01*
X5831Y-39488D01*
X5859Y-39602D01*
X5859Y-39802D01*
X5831Y-39916D01*
X5774Y-39973D01*
X5716Y-40002D01*
X5602Y-40002D01*
X5545Y-39973D01*
X5488Y-39916D01*
X5459Y-39802D01*
X5459Y-39602D01*
X5488Y-39488D01*
X5545Y-39430D01*
X5602Y-39402D01*
X6117Y-40002D02*
X6117Y-39402D01*
X6460Y-40002D01*
X6460Y-39402D01*
X6746Y-40002D02*
X6746Y-39402D01*
X7089Y-40002D01*
X7089Y-39402D01*
X7232Y-40059D02*
X7689Y-40059D01*
X7803Y-39459D02*
X7832Y-39430D01*
X7889Y-39402D01*
X8032Y-39402D01*
X8089Y-39430D01*
X8118Y-39459D01*
X8146Y-39516D01*
X8146Y-39573D01*
X8118Y-39659D01*
X7775Y-40002D01*
X8146Y-40002D01*
G54D20*
X4120Y-10940D02*
X4120Y-10740D01*
X4163Y-10740D01*
X4188Y-10749D01*
X4206Y-10769D01*
X4214Y-10788D01*
X4223Y-10826D01*
X4223Y-10854D01*
X4214Y-10892D01*
X4206Y-10911D01*
X4188Y-10930D01*
X4163Y-10940D01*
X4120Y-10940D01*
X4394Y-10940D02*
X4291Y-10940D01*
X4343Y-10940D02*
X4343Y-10740D01*
X4326Y-10769D01*
X4308Y-10788D01*
X4291Y-10797D01*
X1473Y-10940D02*
X1413Y-10845D01*
X1370Y-10940D02*
X1370Y-10740D01*
X1438Y-10740D01*
X1456Y-10749D01*
X1464Y-10759D01*
X1473Y-10778D01*
X1473Y-10807D01*
X1464Y-10826D01*
X1456Y-10835D01*
X1438Y-10845D01*
X1370Y-10845D01*
X1541Y-10759D02*
X1550Y-10749D01*
X1567Y-10740D01*
X1610Y-10740D01*
X1627Y-10749D01*
X1636Y-10759D01*
X1644Y-10778D01*
X1644Y-10797D01*
X1636Y-10826D01*
X1533Y-10940D01*
X1644Y-10940D01*
X8214Y-31574D02*
X8223Y-31583D01*
X8233Y-31609D01*
X8233Y-31626D01*
X8223Y-31651D01*
X8204Y-31669D01*
X8185Y-31677D01*
X8147Y-31686D01*
X8119Y-31686D01*
X8081Y-31677D01*
X8062Y-31669D01*
X8042Y-31651D01*
X8033Y-31626D01*
X8033Y-31609D01*
X8042Y-31583D01*
X8052Y-31574D01*
X8233Y-31403D02*
X8233Y-31506D01*
X8233Y-31454D02*
X8033Y-31454D01*
X8062Y-31471D01*
X8081Y-31489D01*
X8090Y-31506D01*
X8052Y-31335D02*
X8042Y-31326D01*
X8033Y-31309D01*
X8033Y-31266D01*
X8042Y-31249D01*
X8052Y-31240D01*
X8071Y-31232D01*
X8090Y-31232D01*
X8119Y-31240D01*
X8233Y-31343D01*
X8233Y-31232D01*
G54D21*
X6745Y-20198D02*
X6145Y-20198D01*
X6688Y-19727D02*
X6716Y-19748D01*
X6745Y-19812D01*
X6745Y-19855D01*
X6716Y-19920D01*
X6659Y-19962D01*
X6602Y-19984D01*
X6488Y-20005D01*
X6402Y-20005D01*
X6288Y-19984D01*
X6231Y-19962D01*
X6173Y-19920D01*
X6145Y-19855D01*
X6145Y-19812D01*
X6173Y-19748D01*
X6202Y-19727D01*
X6745Y-19298D02*
X6745Y-19555D01*
X6745Y-19427D02*
X6145Y-19427D01*
X6231Y-19470D01*
X6288Y-19512D01*
X6316Y-19555D01*
G54D22*
X9338Y-21024D02*
X9338Y-21306D01*
X9329Y-21362D01*
X9310Y-21400D01*
X9282Y-21418D01*
X9263Y-21418D01*
X9432Y-21418D02*
X9432Y-21024D01*
X9507Y-21024D01*
X9526Y-21043D01*
X9535Y-21062D01*
X9544Y-21100D01*
X9544Y-21156D01*
X9535Y-21193D01*
X9526Y-21212D01*
X9507Y-21231D01*
X9432Y-21231D01*
X9732Y-21418D02*
X9620Y-21418D01*
X9676Y-21418D02*
X9676Y-21024D01*
X9657Y-21081D01*
X9638Y-21118D01*
X9620Y-21137D01*
X10738Y-6074D02*
X10738Y-6356D01*
X10729Y-6412D01*
X10710Y-6450D01*
X10682Y-6468D01*
X10663Y-6468D01*
X10832Y-6468D02*
X10832Y-6074D01*
X10907Y-6074D01*
X10926Y-6093D01*
X10935Y-6112D01*
X10944Y-6150D01*
X10944Y-6206D01*
X10935Y-6243D01*
X10926Y-6262D01*
X10907Y-6281D01*
X10832Y-6281D01*
X11010Y-6074D02*
X11132Y-6074D01*
X11066Y-6225D01*
X11095Y-6225D01*
X11113Y-6243D01*
X11123Y-6262D01*
X11132Y-6300D01*
X11132Y-6393D01*
X11123Y-6431D01*
X11113Y-6450D01*
X11095Y-6468D01*
X11038Y-6468D01*
X11020Y-6450D01*
X11010Y-6431D01*
X3611Y-24054D02*
X3217Y-24054D01*
X3611Y-23942D02*
X3386Y-24026D01*
X3217Y-23942D02*
X3443Y-24054D01*
X3611Y-23754D02*
X3611Y-23866D01*
X3611Y-23810D02*
X3217Y-23810D01*
X3274Y-23829D01*
X3311Y-23848D01*
X3330Y-23866D01*
X2661Y-24054D02*
X2267Y-24054D01*
X2661Y-23942D02*
X2436Y-24026D01*
X2267Y-23942D02*
X2493Y-24054D01*
X2305Y-23866D02*
X2286Y-23857D01*
X2267Y-23838D01*
X2267Y-23791D01*
X2286Y-23773D01*
X2305Y-23763D01*
X2343Y-23754D01*
X2380Y-23754D01*
X2436Y-23763D01*
X2661Y-23876D01*
X2661Y-23754D01*
X1711Y-24054D02*
X1317Y-24054D01*
X1711Y-23942D02*
X1486Y-24026D01*
X1317Y-23942D02*
X1543Y-24054D01*
X1317Y-23876D02*
X1317Y-23754D01*
X1468Y-23820D01*
X1468Y-23791D01*
X1486Y-23773D01*
X1505Y-23763D01*
X1543Y-23754D01*
X1636Y-23754D01*
X1674Y-23763D01*
X1693Y-23773D01*
X1711Y-23791D01*
X1711Y-23848D01*
X1693Y-23866D01*
X1674Y-23876D01*
X1661Y-19304D02*
X1267Y-19304D01*
X1267Y-19229D01*
X1286Y-19210D01*
X1305Y-19201D01*
X1343Y-19192D01*
X1399Y-19192D01*
X1436Y-19201D01*
X1455Y-19210D01*
X1474Y-19229D01*
X1474Y-19304D01*
X1661Y-19098D02*
X1661Y-19060D01*
X1643Y-19041D01*
X1624Y-19032D01*
X1568Y-19013D01*
X1493Y-19004D01*
X1343Y-19004D01*
X1305Y-19013D01*
X1286Y-19023D01*
X1267Y-19041D01*
X1267Y-19079D01*
X1286Y-19098D01*
X1305Y-19107D01*
X1343Y-19116D01*
X1436Y-19116D01*
X1474Y-19107D01*
X1493Y-19098D01*
X1511Y-19079D01*
X1511Y-19041D01*
X1493Y-19023D01*
X1474Y-19013D01*
X1436Y-19004D01*
X2661Y-19304D02*
X2267Y-19304D01*
X2267Y-19229D01*
X2286Y-19210D01*
X2305Y-19201D01*
X2343Y-19192D01*
X2399Y-19192D01*
X2436Y-19201D01*
X2455Y-19210D01*
X2474Y-19229D01*
X2474Y-19304D01*
X2267Y-19126D02*
X2267Y-18995D01*
X2661Y-19079D01*
X3711Y-19304D02*
X3317Y-19304D01*
X3317Y-19229D01*
X3336Y-19210D01*
X3355Y-19201D01*
X3393Y-19192D01*
X3449Y-19192D01*
X3486Y-19201D01*
X3505Y-19210D01*
X3524Y-19229D01*
X3524Y-19304D01*
X3317Y-19013D02*
X3317Y-19107D01*
X3505Y-19116D01*
X3486Y-19107D01*
X3468Y-19088D01*
X3468Y-19041D01*
X3486Y-19023D01*
X3505Y-19013D01*
X3543Y-19004D01*
X3636Y-19004D01*
X3674Y-19013D01*
X3693Y-19023D01*
X3711Y-19041D01*
X3711Y-19088D01*
X3693Y-19107D01*
X3674Y-19116D01*
X11661Y-12604D02*
X11267Y-12604D01*
X11267Y-12529D01*
X11286Y-12510D01*
X11305Y-12501D01*
X11343Y-12492D01*
X11399Y-12492D01*
X11436Y-12501D01*
X11455Y-12510D01*
X11474Y-12529D01*
X11474Y-12604D01*
X11436Y-12379D02*
X11418Y-12398D01*
X11399Y-12407D01*
X11361Y-12416D01*
X11343Y-12416D01*
X11305Y-12407D01*
X11286Y-12398D01*
X11267Y-12379D01*
X11267Y-12341D01*
X11286Y-12323D01*
X11305Y-12313D01*
X11343Y-12304D01*
X11361Y-12304D01*
X11399Y-12313D01*
X11418Y-12323D01*
X11436Y-12341D01*
X11436Y-12379D01*
X11455Y-12398D01*
X11474Y-12407D01*
X11511Y-12416D01*
X11586Y-12416D01*
X11624Y-12407D01*
X11643Y-12398D01*
X11661Y-12379D01*
X11661Y-12341D01*
X11643Y-12323D01*
X11624Y-12313D01*
X11586Y-12304D01*
X11511Y-12304D01*
X11474Y-12313D01*
X11455Y-12323D01*
X11436Y-12341D01*
X10661Y-12604D02*
X10267Y-12604D01*
X10267Y-12529D01*
X10286Y-12510D01*
X10305Y-12501D01*
X10343Y-12492D01*
X10399Y-12492D01*
X10436Y-12501D01*
X10455Y-12510D01*
X10474Y-12529D01*
X10474Y-12604D01*
X10267Y-12323D02*
X10267Y-12360D01*
X10286Y-12379D01*
X10305Y-12388D01*
X10361Y-12407D01*
X10436Y-12416D01*
X10586Y-12416D01*
X10624Y-12407D01*
X10643Y-12398D01*
X10661Y-12379D01*
X10661Y-12341D01*
X10643Y-12323D01*
X10624Y-12313D01*
X10586Y-12304D01*
X10493Y-12304D01*
X10455Y-12313D01*
X10436Y-12323D01*
X10418Y-12341D01*
X10418Y-12379D01*
X10436Y-12398D01*
X10455Y-12407D01*
X10493Y-12416D01*
X11661Y-28204D02*
X11267Y-28204D01*
X11267Y-28129D01*
X11286Y-28110D01*
X11305Y-28101D01*
X11343Y-28092D01*
X11399Y-28092D01*
X11436Y-28101D01*
X11455Y-28110D01*
X11474Y-28129D01*
X11474Y-28204D01*
X11399Y-27923D02*
X11661Y-27923D01*
X11249Y-27970D02*
X11530Y-28016D01*
X11530Y-27895D01*
X10711Y-28204D02*
X10317Y-28204D01*
X10317Y-28129D01*
X10336Y-28110D01*
X10355Y-28101D01*
X10393Y-28092D01*
X10449Y-28092D01*
X10486Y-28101D01*
X10505Y-28110D01*
X10524Y-28129D01*
X10524Y-28204D01*
X10317Y-28026D02*
X10317Y-27904D01*
X10468Y-27970D01*
X10468Y-27941D01*
X10486Y-27923D01*
X10505Y-27913D01*
X10543Y-27904D01*
X10636Y-27904D01*
X10674Y-27913D01*
X10693Y-27923D01*
X10711Y-27941D01*
X10711Y-27998D01*
X10693Y-28016D01*
X10674Y-28026D01*
X9661Y-12604D02*
X9267Y-12604D01*
X9267Y-12529D01*
X9286Y-12510D01*
X9305Y-12501D01*
X9343Y-12492D01*
X9399Y-12492D01*
X9436Y-12501D01*
X9455Y-12510D01*
X9474Y-12529D01*
X9474Y-12604D01*
X9305Y-12416D02*
X9286Y-12407D01*
X9267Y-12388D01*
X9267Y-12341D01*
X9286Y-12323D01*
X9305Y-12313D01*
X9343Y-12304D01*
X9380Y-12304D01*
X9436Y-12313D01*
X9661Y-12426D01*
X9661Y-12304D01*
X9661Y-28204D02*
X9267Y-28204D01*
X9267Y-28129D01*
X9286Y-28110D01*
X9305Y-28101D01*
X9343Y-28092D01*
X9399Y-28092D01*
X9436Y-28101D01*
X9455Y-28110D01*
X9474Y-28129D01*
X9474Y-28204D01*
X9661Y-27904D02*
X9661Y-28016D01*
X9661Y-27960D02*
X9267Y-27960D01*
X9324Y-27979D01*
X9361Y-27998D01*
X9380Y-28016D01*
G54D20*
X1370Y-10140D02*
X1370Y-9940D01*
X1413Y-9940D01*
X1438Y-9949D01*
X1456Y-9969D01*
X1464Y-9988D01*
X1473Y-10026D01*
X1473Y-10054D01*
X1464Y-10092D01*
X1456Y-10111D01*
X1438Y-10130D01*
X1413Y-10140D01*
X1370Y-10140D01*
X1627Y-9940D02*
X1593Y-9940D01*
X1576Y-9949D01*
X1567Y-9959D01*
X1550Y-9988D01*
X1541Y-10026D01*
X1541Y-10102D01*
X1550Y-10121D01*
X1558Y-10130D01*
X1576Y-10140D01*
X1610Y-10140D01*
X1627Y-10130D01*
X1636Y-10121D01*
X1644Y-10102D01*
X1644Y-10054D01*
X1636Y-10035D01*
X1627Y-10026D01*
X1610Y-10016D01*
X1576Y-10016D01*
X1558Y-10026D01*
X1550Y-10035D01*
X1541Y-10054D01*
X3837Y-7671D02*
X3828Y-7680D01*
X3802Y-7690D01*
X3785Y-7690D01*
X3760Y-7680D01*
X3742Y-7661D01*
X3734Y-7642D01*
X3725Y-7604D01*
X3725Y-7576D01*
X3734Y-7538D01*
X3742Y-7519D01*
X3760Y-7499D01*
X3785Y-7490D01*
X3802Y-7490D01*
X3828Y-7499D01*
X3837Y-7509D01*
X4008Y-7690D02*
X3905Y-7690D01*
X3957Y-7690D02*
X3957Y-7490D01*
X3940Y-7519D01*
X3922Y-7538D01*
X3905Y-7547D01*
X4119Y-7490D02*
X4136Y-7490D01*
X4153Y-7499D01*
X4162Y-7509D01*
X4171Y-7528D01*
X4179Y-7566D01*
X4179Y-7614D01*
X4171Y-7652D01*
X4162Y-7671D01*
X4153Y-7680D01*
X4136Y-7690D01*
X4119Y-7690D01*
X4102Y-7680D01*
X4093Y-7671D01*
X4085Y-7652D01*
X4076Y-7614D01*
X4076Y-7566D01*
X4085Y-7528D01*
X4093Y-7509D01*
X4102Y-7499D01*
X4119Y-7490D01*
X10014Y-9888D02*
X10023Y-9897D01*
X10033Y-9923D01*
X10033Y-9940D01*
X10023Y-9965D01*
X10004Y-9983D01*
X9985Y-9991D01*
X9947Y-10000D01*
X9919Y-10000D01*
X9881Y-9991D01*
X9862Y-9983D01*
X9842Y-9965D01*
X9833Y-9940D01*
X9833Y-9923D01*
X9842Y-9897D01*
X9852Y-9888D01*
X10033Y-9803D02*
X10033Y-9768D01*
X10023Y-9751D01*
X10014Y-9743D01*
X9985Y-9725D01*
X9947Y-9717D01*
X9871Y-9717D01*
X9852Y-9725D01*
X9842Y-9734D01*
X9833Y-9751D01*
X9833Y-9785D01*
X9842Y-9803D01*
X9852Y-9811D01*
X9871Y-9820D01*
X9919Y-9820D01*
X9938Y-9811D01*
X9947Y-9803D01*
X9957Y-9785D01*
X9957Y-9751D01*
X9947Y-9734D01*
X9938Y-9725D01*
X9919Y-9717D01*
X8764Y-9138D02*
X8773Y-9147D01*
X8783Y-9173D01*
X8783Y-9190D01*
X8773Y-9215D01*
X8754Y-9233D01*
X8735Y-9241D01*
X8697Y-9250D01*
X8669Y-9250D01*
X8631Y-9241D01*
X8612Y-9233D01*
X8592Y-9215D01*
X8583Y-9190D01*
X8583Y-9173D01*
X8592Y-9147D01*
X8602Y-9138D01*
X8669Y-9035D02*
X8659Y-9053D01*
X8650Y-9061D01*
X8631Y-9070D01*
X8621Y-9070D01*
X8602Y-9061D01*
X8592Y-9053D01*
X8583Y-9035D01*
X8583Y-9001D01*
X8592Y-8984D01*
X8602Y-8975D01*
X8621Y-8967D01*
X8631Y-8967D01*
X8650Y-8975D01*
X8659Y-8984D01*
X8669Y-9001D01*
X8669Y-9035D01*
X8678Y-9053D01*
X8688Y-9061D01*
X8707Y-9070D01*
X8745Y-9070D01*
X8764Y-9061D01*
X8773Y-9053D01*
X8783Y-9035D01*
X8783Y-9001D01*
X8773Y-8984D01*
X8764Y-8975D01*
X8745Y-8967D01*
X8707Y-8967D01*
X8688Y-8975D01*
X8678Y-8984D01*
X8669Y-9001D01*
X1114Y-22488D02*
X1123Y-22497D01*
X1133Y-22523D01*
X1133Y-22540D01*
X1123Y-22565D01*
X1104Y-22583D01*
X1085Y-22591D01*
X1047Y-22600D01*
X1019Y-22600D01*
X981Y-22591D01*
X962Y-22583D01*
X942Y-22565D01*
X933Y-22540D01*
X933Y-22523D01*
X942Y-22497D01*
X952Y-22488D01*
X933Y-22325D02*
X933Y-22411D01*
X1028Y-22420D01*
X1019Y-22411D01*
X1009Y-22394D01*
X1009Y-22351D01*
X1019Y-22334D01*
X1028Y-22325D01*
X1047Y-22317D01*
X1095Y-22317D01*
X1114Y-22325D01*
X1123Y-22334D01*
X1133Y-22351D01*
X1133Y-22394D01*
X1123Y-22411D01*
X1114Y-22420D01*
X1114Y-21088D02*
X1123Y-21097D01*
X1133Y-21123D01*
X1133Y-21140D01*
X1123Y-21165D01*
X1104Y-21183D01*
X1085Y-21191D01*
X1047Y-21200D01*
X1019Y-21200D01*
X981Y-21191D01*
X962Y-21183D01*
X942Y-21165D01*
X933Y-21140D01*
X933Y-21123D01*
X942Y-21097D01*
X952Y-21088D01*
X1000Y-20934D02*
X1133Y-20934D01*
X923Y-20977D02*
X1066Y-21020D01*
X1066Y-20908D01*
X11114Y-19588D02*
X11123Y-19597D01*
X11133Y-19623D01*
X11133Y-19640D01*
X11123Y-19665D01*
X11104Y-19683D01*
X11085Y-19691D01*
X11047Y-19700D01*
X11019Y-19700D01*
X10981Y-19691D01*
X10962Y-19683D01*
X10942Y-19665D01*
X10933Y-19640D01*
X10933Y-19623D01*
X10942Y-19597D01*
X10952Y-19588D01*
X10933Y-19528D02*
X10933Y-19417D01*
X11009Y-19477D01*
X11009Y-19451D01*
X11019Y-19434D01*
X11028Y-19425D01*
X11047Y-19417D01*
X11095Y-19417D01*
X11114Y-19425D01*
X11123Y-19434D01*
X11133Y-19451D01*
X11133Y-19503D01*
X11123Y-19520D01*
X11114Y-19528D01*
X11573Y-21321D02*
X11564Y-21330D01*
X11538Y-21340D01*
X11521Y-21340D01*
X11496Y-21330D01*
X11478Y-21311D01*
X11470Y-21292D01*
X11461Y-21254D01*
X11461Y-21226D01*
X11470Y-21188D01*
X11478Y-21169D01*
X11496Y-21149D01*
X11521Y-21140D01*
X11538Y-21140D01*
X11564Y-21149D01*
X11573Y-21159D01*
X11641Y-21159D02*
X11650Y-21149D01*
X11667Y-21140D01*
X11710Y-21140D01*
X11727Y-21149D01*
X11736Y-21159D01*
X11744Y-21178D01*
X11744Y-21197D01*
X11736Y-21226D01*
X11633Y-21340D01*
X11744Y-21340D01*
X1370Y-9440D02*
X1370Y-9240D01*
X1413Y-9240D01*
X1438Y-9249D01*
X1456Y-9269D01*
X1464Y-9288D01*
X1473Y-9326D01*
X1473Y-9354D01*
X1464Y-9392D01*
X1456Y-9411D01*
X1438Y-9430D01*
X1413Y-9440D01*
X1370Y-9440D01*
X1533Y-9240D02*
X1653Y-9240D01*
X1576Y-9440D01*
X4187Y-9440D02*
X4127Y-9345D01*
X4084Y-9440D02*
X4084Y-9240D01*
X4152Y-9240D01*
X4170Y-9249D01*
X4178Y-9259D01*
X4187Y-9278D01*
X4187Y-9307D01*
X4178Y-9326D01*
X4170Y-9335D01*
X4152Y-9345D01*
X4084Y-9345D01*
X4358Y-9440D02*
X4255Y-9440D01*
X4307Y-9440D02*
X4307Y-9240D01*
X4290Y-9269D01*
X4272Y-9288D01*
X4255Y-9297D01*
X4529Y-9440D02*
X4426Y-9440D01*
X4478Y-9440D02*
X4478Y-9240D01*
X4461Y-9269D01*
X4443Y-9288D01*
X4426Y-9297D01*
X4523Y-4890D02*
X4463Y-4795D01*
X4420Y-4890D02*
X4420Y-4690D01*
X4488Y-4690D01*
X4506Y-4699D01*
X4514Y-4709D01*
X4523Y-4728D01*
X4523Y-4757D01*
X4514Y-4776D01*
X4506Y-4785D01*
X4488Y-4795D01*
X4420Y-4795D01*
X4608Y-4890D02*
X4643Y-4890D01*
X4660Y-4880D01*
X4668Y-4871D01*
X4686Y-4842D01*
X4694Y-4804D01*
X4694Y-4728D01*
X4686Y-4709D01*
X4677Y-4699D01*
X4660Y-4690D01*
X4626Y-4690D01*
X4608Y-4699D01*
X4600Y-4709D01*
X4591Y-4728D01*
X4591Y-4776D01*
X4600Y-4795D01*
X4608Y-4804D01*
X4626Y-4814D01*
X4660Y-4814D01*
X4677Y-4804D01*
X4686Y-4795D01*
X4694Y-4776D01*
X5123Y-6840D02*
X5063Y-6745D01*
X5020Y-6840D02*
X5020Y-6640D01*
X5088Y-6640D01*
X5106Y-6649D01*
X5114Y-6659D01*
X5123Y-6678D01*
X5123Y-6707D01*
X5114Y-6726D01*
X5106Y-6735D01*
X5088Y-6745D01*
X5020Y-6745D01*
X5226Y-6726D02*
X5208Y-6716D01*
X5200Y-6707D01*
X5191Y-6688D01*
X5191Y-6678D01*
X5200Y-6659D01*
X5208Y-6649D01*
X5226Y-6640D01*
X5260Y-6640D01*
X5277Y-6649D01*
X5286Y-6659D01*
X5294Y-6678D01*
X5294Y-6688D01*
X5286Y-6707D01*
X5277Y-6716D01*
X5260Y-6726D01*
X5226Y-6726D01*
X5208Y-6735D01*
X5200Y-6745D01*
X5191Y-6764D01*
X5191Y-6802D01*
X5200Y-6821D01*
X5208Y-6830D01*
X5226Y-6840D01*
X5260Y-6840D01*
X5277Y-6830D01*
X5286Y-6821D01*
X5294Y-6802D01*
X5294Y-6764D01*
X5286Y-6745D01*
X5277Y-6735D01*
X5260Y-6726D01*
X4673Y-27321D02*
X4664Y-27330D01*
X4638Y-27340D01*
X4621Y-27340D01*
X4596Y-27330D01*
X4578Y-27311D01*
X4570Y-27292D01*
X4561Y-27254D01*
X4561Y-27226D01*
X4570Y-27188D01*
X4578Y-27169D01*
X4596Y-27149D01*
X4621Y-27140D01*
X4638Y-27140D01*
X4664Y-27149D01*
X4673Y-27159D01*
X4844Y-27340D02*
X4741Y-27340D01*
X4793Y-27340D02*
X4793Y-27140D01*
X4776Y-27169D01*
X4758Y-27188D01*
X4741Y-27197D01*
X2773Y-12890D02*
X2713Y-12795D01*
X2670Y-12890D02*
X2670Y-12690D01*
X2738Y-12690D01*
X2756Y-12699D01*
X2764Y-12709D01*
X2773Y-12728D01*
X2773Y-12757D01*
X2764Y-12776D01*
X2756Y-12785D01*
X2738Y-12795D01*
X2670Y-12795D01*
X2944Y-12890D02*
X2841Y-12890D01*
X2893Y-12890D02*
X2893Y-12690D01*
X2876Y-12719D01*
X2858Y-12738D01*
X2841Y-12747D01*
X4187Y-10190D02*
X4127Y-10095D01*
X4084Y-10190D02*
X4084Y-9990D01*
X4152Y-9990D01*
X4170Y-9999D01*
X4178Y-10009D01*
X4187Y-10028D01*
X4187Y-10057D01*
X4178Y-10076D01*
X4170Y-10085D01*
X4152Y-10095D01*
X4084Y-10095D01*
X4358Y-10190D02*
X4255Y-10190D01*
X4307Y-10190D02*
X4307Y-9990D01*
X4290Y-10019D01*
X4272Y-10038D01*
X4255Y-10047D01*
X4469Y-9990D02*
X4486Y-9990D01*
X4503Y-9999D01*
X4512Y-10009D01*
X4521Y-10028D01*
X4529Y-10066D01*
X4529Y-10114D01*
X4521Y-10152D01*
X4512Y-10171D01*
X4503Y-10180D01*
X4486Y-10190D01*
X4469Y-10190D01*
X4452Y-10180D01*
X4443Y-10171D01*
X4435Y-10152D01*
X4426Y-10114D01*
X4426Y-10066D01*
X4435Y-10028D01*
X4443Y-10009D01*
X4452Y-9999D01*
X4469Y-9990D01*
G54D14*
X7811Y-5760D02*
X7692Y-5760D01*
X7692Y-5510D01*
X8024Y-5760D02*
X7882Y-5760D01*
X7953Y-5760D02*
X7953Y-5510D01*
X7929Y-5546D01*
X7905Y-5570D01*
X7882Y-5582D01*
X5723Y-9438D02*
X5966Y-9438D01*
X5995Y-9423D01*
X6009Y-9409D01*
X6023Y-9380D01*
X6023Y-9323D01*
X6009Y-9295D01*
X5995Y-9280D01*
X5966Y-9266D01*
X5723Y-9266D01*
X6023Y-8966D02*
X6023Y-9138D01*
X6023Y-9052D02*
X5723Y-9052D01*
X5766Y-9081D01*
X5795Y-9109D01*
X5809Y-9138D01*
X6916Y-10031D02*
X6916Y-10131D01*
X7073Y-10131D02*
X6773Y-10131D01*
X6773Y-9988D01*
X6773Y-9916D02*
X6773Y-9745D01*
X7073Y-9831D02*
X6773Y-9831D01*
X6802Y-9659D02*
X6788Y-9645D01*
X6773Y-9616D01*
X6773Y-9545D01*
X6788Y-9516D01*
X6802Y-9502D01*
X6831Y-9487D01*
X6859Y-9487D01*
X6902Y-9502D01*
X7073Y-9673D01*
X7073Y-9487D01*
X6773Y-9387D02*
X6773Y-9201D01*
X6888Y-9301D01*
X6888Y-9259D01*
X6902Y-9230D01*
X6916Y-9216D01*
X6945Y-9201D01*
X7016Y-9201D01*
X7045Y-9216D01*
X7059Y-9230D01*
X7073Y-9259D01*
X7073Y-9344D01*
X7059Y-9373D01*
X7045Y-9387D01*
X6802Y-9087D02*
X6788Y-9073D01*
X6773Y-9044D01*
X6773Y-8973D01*
X6788Y-8944D01*
X6802Y-8930D01*
X6831Y-8915D01*
X6859Y-8915D01*
X6902Y-8930D01*
X7073Y-9101D01*
X7073Y-8915D01*
X7073Y-8615D02*
X6931Y-8715D01*
X7073Y-8787D02*
X6773Y-8787D01*
X6773Y-8672D01*
X6788Y-8644D01*
X6802Y-8629D01*
X6831Y-8615D01*
X6873Y-8615D01*
X6902Y-8629D01*
X6916Y-8644D01*
X6931Y-8672D01*
X6931Y-8787D01*
X7073Y-8344D02*
X7073Y-8487D01*
X6773Y-8487D01*
G54D15*
X2645Y-29792D02*
X2664Y-29735D01*
X2664Y-29639D01*
X2645Y-29601D01*
X2626Y-29582D01*
X2588Y-29563D01*
X2550Y-29563D01*
X2512Y-29582D01*
X2492Y-29601D01*
X2473Y-29639D01*
X2454Y-29716D01*
X2435Y-29754D01*
X2416Y-29773D01*
X2378Y-29792D01*
X2340Y-29792D01*
X2302Y-29773D01*
X2283Y-29754D01*
X2264Y-29716D01*
X2264Y-29620D01*
X2283Y-29563D01*
X2264Y-29430D02*
X2664Y-29335D01*
X2378Y-29258D01*
X2664Y-29182D01*
X2264Y-29087D01*
X2664Y-28725D02*
X2664Y-28954D01*
X2664Y-28840D02*
X2264Y-28840D01*
X2321Y-28878D01*
X2359Y-28916D01*
X2378Y-28954D01*
G54D22*
X1888Y-6024D02*
X1888Y-6306D01*
X1879Y-6362D01*
X1860Y-6400D01*
X1832Y-6418D01*
X1813Y-6418D01*
X1982Y-6418D02*
X1982Y-6024D01*
X2057Y-6024D01*
X2076Y-6043D01*
X2085Y-6062D01*
X2094Y-6100D01*
X2094Y-6156D01*
X2085Y-6193D01*
X2076Y-6212D01*
X2057Y-6231D01*
X1982Y-6231D01*
X2170Y-6062D02*
X2179Y-6043D01*
X2198Y-6024D01*
X2245Y-6024D01*
X2263Y-6043D01*
X2273Y-6062D01*
X2282Y-6100D01*
X2282Y-6137D01*
X2273Y-6193D01*
X2160Y-6418D01*
X2282Y-6418D01*
G54D23*
X10152Y-34824D02*
X10152Y-35143D01*
X10171Y-35181D01*
X10189Y-35200D01*
X10227Y-35218D01*
X10302Y-35218D01*
X10339Y-35200D01*
X10358Y-35181D01*
X10377Y-35143D01*
X10377Y-34824D01*
X10546Y-34862D02*
X10565Y-34843D01*
X10602Y-34824D01*
X10696Y-34824D01*
X10734Y-34843D01*
X10752Y-34862D01*
X10771Y-34900D01*
X10771Y-34937D01*
X10752Y-34993D01*
X10527Y-35218D01*
X10771Y-35218D01*
G54D22*
X2767Y-21869D02*
X3161Y-21738D01*
X2767Y-21738D02*
X3161Y-21869D01*
X3161Y-21559D02*
X3161Y-21671D01*
X3161Y-21615D02*
X2767Y-21615D01*
X2824Y-21634D01*
X2861Y-21653D01*
X2880Y-21671D01*
X29144Y-21869D02*
X29538Y-21738D01*
X29144Y-21738D02*
X29538Y-21869D01*
X29538Y-21559D02*
X29538Y-21671D01*
X29538Y-21615D02*
X29144Y-21615D01*
X29201Y-21634D01*
X29238Y-21653D01*
X29257Y-21671D01*
G54D23*
X36529Y-34824D02*
X36529Y-35143D01*
X36548Y-35181D01*
X36566Y-35200D01*
X36604Y-35218D01*
X36679Y-35218D01*
X36716Y-35200D01*
X36735Y-35181D01*
X36754Y-35143D01*
X36754Y-34824D01*
X36923Y-34862D02*
X36942Y-34843D01*
X36979Y-34824D01*
X37073Y-34824D01*
X37111Y-34843D01*
X37129Y-34862D01*
X37148Y-34900D01*
X37148Y-34937D01*
X37129Y-34993D01*
X36904Y-35218D01*
X37148Y-35218D01*
G54D22*
X28265Y-6024D02*
X28265Y-6306D01*
X28256Y-6362D01*
X28237Y-6400D01*
X28209Y-6418D01*
X28190Y-6418D01*
X28359Y-6418D02*
X28359Y-6024D01*
X28434Y-6024D01*
X28453Y-6043D01*
X28462Y-6062D01*
X28471Y-6100D01*
X28471Y-6156D01*
X28462Y-6193D01*
X28453Y-6212D01*
X28434Y-6231D01*
X28359Y-6231D01*
X28547Y-6062D02*
X28556Y-6043D01*
X28575Y-6024D01*
X28622Y-6024D01*
X28640Y-6043D01*
X28650Y-6062D01*
X28659Y-6100D01*
X28659Y-6137D01*
X28650Y-6193D01*
X28537Y-6418D01*
X28659Y-6418D01*
G54D15*
X29022Y-29792D02*
X29041Y-29735D01*
X29041Y-29639D01*
X29022Y-29601D01*
X29003Y-29582D01*
X28965Y-29563D01*
X28927Y-29563D01*
X28889Y-29582D01*
X28869Y-29601D01*
X28850Y-29639D01*
X28831Y-29716D01*
X28812Y-29754D01*
X28793Y-29773D01*
X28755Y-29792D01*
X28717Y-29792D01*
X28679Y-29773D01*
X28660Y-29754D01*
X28641Y-29716D01*
X28641Y-29620D01*
X28660Y-29563D01*
X28641Y-29430D02*
X29041Y-29335D01*
X28755Y-29258D01*
X29041Y-29182D01*
X28641Y-29087D01*
X29041Y-28725D02*
X29041Y-28954D01*
X29041Y-28840D02*
X28641Y-28840D01*
X28698Y-28878D01*
X28736Y-28916D01*
X28755Y-28954D01*
G54D14*
X32100Y-9438D02*
X32343Y-9438D01*
X32372Y-9423D01*
X32386Y-9409D01*
X32400Y-9380D01*
X32400Y-9323D01*
X32386Y-9295D01*
X32372Y-9280D01*
X32343Y-9266D01*
X32100Y-9266D01*
X32400Y-8966D02*
X32400Y-9138D01*
X32400Y-9052D02*
X32100Y-9052D01*
X32143Y-9081D01*
X32172Y-9109D01*
X32186Y-9138D01*
X33293Y-10031D02*
X33293Y-10131D01*
X33450Y-10131D02*
X33150Y-10131D01*
X33150Y-9988D01*
X33150Y-9916D02*
X33150Y-9745D01*
X33450Y-9831D02*
X33150Y-9831D01*
X33179Y-9659D02*
X33165Y-9645D01*
X33150Y-9616D01*
X33150Y-9545D01*
X33165Y-9516D01*
X33179Y-9502D01*
X33208Y-9487D01*
X33236Y-9487D01*
X33279Y-9502D01*
X33450Y-9673D01*
X33450Y-9487D01*
X33150Y-9387D02*
X33150Y-9201D01*
X33265Y-9301D01*
X33265Y-9259D01*
X33279Y-9230D01*
X33293Y-9216D01*
X33322Y-9201D01*
X33393Y-9201D01*
X33422Y-9216D01*
X33436Y-9230D01*
X33450Y-9259D01*
X33450Y-9344D01*
X33436Y-9373D01*
X33422Y-9387D01*
X33179Y-9087D02*
X33165Y-9073D01*
X33150Y-9044D01*
X33150Y-8973D01*
X33165Y-8944D01*
X33179Y-8930D01*
X33208Y-8915D01*
X33236Y-8915D01*
X33279Y-8930D01*
X33450Y-9101D01*
X33450Y-8915D01*
X33450Y-8615D02*
X33308Y-8715D01*
X33450Y-8787D02*
X33150Y-8787D01*
X33150Y-8672D01*
X33165Y-8644D01*
X33179Y-8629D01*
X33208Y-8615D01*
X33250Y-8615D01*
X33279Y-8629D01*
X33293Y-8644D01*
X33308Y-8672D01*
X33308Y-8787D01*
X33450Y-8344D02*
X33450Y-8487D01*
X33150Y-8487D01*
X34188Y-5760D02*
X34069Y-5760D01*
X34069Y-5510D01*
X34401Y-5760D02*
X34259Y-5760D01*
X34330Y-5760D02*
X34330Y-5510D01*
X34306Y-5546D01*
X34282Y-5570D01*
X34259Y-5582D01*
G54D20*
X30564Y-10190D02*
X30504Y-10095D01*
X30461Y-10190D02*
X30461Y-9990D01*
X30529Y-9990D01*
X30547Y-9999D01*
X30555Y-10009D01*
X30564Y-10028D01*
X30564Y-10057D01*
X30555Y-10076D01*
X30547Y-10085D01*
X30529Y-10095D01*
X30461Y-10095D01*
X30735Y-10190D02*
X30632Y-10190D01*
X30684Y-10190D02*
X30684Y-9990D01*
X30667Y-10019D01*
X30649Y-10038D01*
X30632Y-10047D01*
X30846Y-9990D02*
X30863Y-9990D01*
X30880Y-9999D01*
X30889Y-10009D01*
X30898Y-10028D01*
X30906Y-10066D01*
X30906Y-10114D01*
X30898Y-10152D01*
X30889Y-10171D01*
X30880Y-10180D01*
X30863Y-10190D01*
X30846Y-10190D01*
X30829Y-10180D01*
X30820Y-10171D01*
X30812Y-10152D01*
X30803Y-10114D01*
X30803Y-10066D01*
X30812Y-10028D01*
X30820Y-10009D01*
X30829Y-9999D01*
X30846Y-9990D01*
X29150Y-12890D02*
X29090Y-12795D01*
X29047Y-12890D02*
X29047Y-12690D01*
X29115Y-12690D01*
X29133Y-12699D01*
X29141Y-12709D01*
X29150Y-12728D01*
X29150Y-12757D01*
X29141Y-12776D01*
X29133Y-12785D01*
X29115Y-12795D01*
X29047Y-12795D01*
X29321Y-12890D02*
X29218Y-12890D01*
X29270Y-12890D02*
X29270Y-12690D01*
X29253Y-12719D01*
X29235Y-12738D01*
X29218Y-12747D01*
X31050Y-27321D02*
X31041Y-27330D01*
X31015Y-27340D01*
X30998Y-27340D01*
X30973Y-27330D01*
X30955Y-27311D01*
X30947Y-27292D01*
X30938Y-27254D01*
X30938Y-27226D01*
X30947Y-27188D01*
X30955Y-27169D01*
X30973Y-27149D01*
X30998Y-27140D01*
X31015Y-27140D01*
X31041Y-27149D01*
X31050Y-27159D01*
X31221Y-27340D02*
X31118Y-27340D01*
X31170Y-27340D02*
X31170Y-27140D01*
X31153Y-27169D01*
X31135Y-27188D01*
X31118Y-27197D01*
X31500Y-6840D02*
X31440Y-6745D01*
X31397Y-6840D02*
X31397Y-6640D01*
X31465Y-6640D01*
X31483Y-6649D01*
X31491Y-6659D01*
X31500Y-6678D01*
X31500Y-6707D01*
X31491Y-6726D01*
X31483Y-6735D01*
X31465Y-6745D01*
X31397Y-6745D01*
X31603Y-6726D02*
X31585Y-6716D01*
X31577Y-6707D01*
X31568Y-6688D01*
X31568Y-6678D01*
X31577Y-6659D01*
X31585Y-6649D01*
X31603Y-6640D01*
X31637Y-6640D01*
X31654Y-6649D01*
X31663Y-6659D01*
X31671Y-6678D01*
X31671Y-6688D01*
X31663Y-6707D01*
X31654Y-6716D01*
X31637Y-6726D01*
X31603Y-6726D01*
X31585Y-6735D01*
X31577Y-6745D01*
X31568Y-6764D01*
X31568Y-6802D01*
X31577Y-6821D01*
X31585Y-6830D01*
X31603Y-6840D01*
X31637Y-6840D01*
X31654Y-6830D01*
X31663Y-6821D01*
X31671Y-6802D01*
X31671Y-6764D01*
X31663Y-6745D01*
X31654Y-6735D01*
X31637Y-6726D01*
X30900Y-4890D02*
X30840Y-4795D01*
X30797Y-4890D02*
X30797Y-4690D01*
X30865Y-4690D01*
X30883Y-4699D01*
X30891Y-4709D01*
X30900Y-4728D01*
X30900Y-4757D01*
X30891Y-4776D01*
X30883Y-4785D01*
X30865Y-4795D01*
X30797Y-4795D01*
X30985Y-4890D02*
X31020Y-4890D01*
X31037Y-4880D01*
X31045Y-4871D01*
X31063Y-4842D01*
X31071Y-4804D01*
X31071Y-4728D01*
X31063Y-4709D01*
X31054Y-4699D01*
X31037Y-4690D01*
X31003Y-4690D01*
X30985Y-4699D01*
X30977Y-4709D01*
X30968Y-4728D01*
X30968Y-4776D01*
X30977Y-4795D01*
X30985Y-4804D01*
X31003Y-4814D01*
X31037Y-4814D01*
X31054Y-4804D01*
X31063Y-4795D01*
X31071Y-4776D01*
X30564Y-9440D02*
X30504Y-9345D01*
X30461Y-9440D02*
X30461Y-9240D01*
X30529Y-9240D01*
X30547Y-9249D01*
X30555Y-9259D01*
X30564Y-9278D01*
X30564Y-9307D01*
X30555Y-9326D01*
X30547Y-9335D01*
X30529Y-9345D01*
X30461Y-9345D01*
X30735Y-9440D02*
X30632Y-9440D01*
X30684Y-9440D02*
X30684Y-9240D01*
X30667Y-9269D01*
X30649Y-9288D01*
X30632Y-9297D01*
X30906Y-9440D02*
X30803Y-9440D01*
X30855Y-9440D02*
X30855Y-9240D01*
X30838Y-9269D01*
X30820Y-9288D01*
X30803Y-9297D01*
X27747Y-9440D02*
X27747Y-9240D01*
X27790Y-9240D01*
X27815Y-9249D01*
X27833Y-9269D01*
X27841Y-9288D01*
X27850Y-9326D01*
X27850Y-9354D01*
X27841Y-9392D01*
X27833Y-9411D01*
X27815Y-9430D01*
X27790Y-9440D01*
X27747Y-9440D01*
X27910Y-9240D02*
X28030Y-9240D01*
X27953Y-9440D01*
X37950Y-21321D02*
X37941Y-21330D01*
X37915Y-21340D01*
X37898Y-21340D01*
X37873Y-21330D01*
X37855Y-21311D01*
X37847Y-21292D01*
X37838Y-21254D01*
X37838Y-21226D01*
X37847Y-21188D01*
X37855Y-21169D01*
X37873Y-21149D01*
X37898Y-21140D01*
X37915Y-21140D01*
X37941Y-21149D01*
X37950Y-21159D01*
X38018Y-21159D02*
X38027Y-21149D01*
X38044Y-21140D01*
X38087Y-21140D01*
X38104Y-21149D01*
X38113Y-21159D01*
X38121Y-21178D01*
X38121Y-21197D01*
X38113Y-21226D01*
X38010Y-21340D01*
X38121Y-21340D01*
X37491Y-19588D02*
X37500Y-19597D01*
X37510Y-19623D01*
X37510Y-19640D01*
X37500Y-19665D01*
X37481Y-19683D01*
X37462Y-19691D01*
X37424Y-19700D01*
X37396Y-19700D01*
X37358Y-19691D01*
X37339Y-19683D01*
X37319Y-19665D01*
X37310Y-19640D01*
X37310Y-19623D01*
X37319Y-19597D01*
X37329Y-19588D01*
X37310Y-19528D02*
X37310Y-19417D01*
X37386Y-19477D01*
X37386Y-19451D01*
X37396Y-19434D01*
X37405Y-19425D01*
X37424Y-19417D01*
X37472Y-19417D01*
X37491Y-19425D01*
X37500Y-19434D01*
X37510Y-19451D01*
X37510Y-19503D01*
X37500Y-19520D01*
X37491Y-19528D01*
X27491Y-21088D02*
X27500Y-21097D01*
X27510Y-21123D01*
X27510Y-21140D01*
X27500Y-21165D01*
X27481Y-21183D01*
X27462Y-21191D01*
X27424Y-21200D01*
X27396Y-21200D01*
X27358Y-21191D01*
X27339Y-21183D01*
X27319Y-21165D01*
X27310Y-21140D01*
X27310Y-21123D01*
X27319Y-21097D01*
X27329Y-21088D01*
X27377Y-20934D02*
X27510Y-20934D01*
X27300Y-20977D02*
X27443Y-21020D01*
X27443Y-20908D01*
X27491Y-22488D02*
X27500Y-22497D01*
X27510Y-22523D01*
X27510Y-22540D01*
X27500Y-22565D01*
X27481Y-22583D01*
X27462Y-22591D01*
X27424Y-22600D01*
X27396Y-22600D01*
X27358Y-22591D01*
X27339Y-22583D01*
X27319Y-22565D01*
X27310Y-22540D01*
X27310Y-22523D01*
X27319Y-22497D01*
X27329Y-22488D01*
X27310Y-22325D02*
X27310Y-22411D01*
X27405Y-22420D01*
X27396Y-22411D01*
X27386Y-22394D01*
X27386Y-22351D01*
X27396Y-22334D01*
X27405Y-22325D01*
X27424Y-22317D01*
X27472Y-22317D01*
X27491Y-22325D01*
X27500Y-22334D01*
X27510Y-22351D01*
X27510Y-22394D01*
X27500Y-22411D01*
X27491Y-22420D01*
X35141Y-9138D02*
X35150Y-9147D01*
X35160Y-9173D01*
X35160Y-9190D01*
X35150Y-9215D01*
X35131Y-9233D01*
X35112Y-9241D01*
X35074Y-9250D01*
X35046Y-9250D01*
X35008Y-9241D01*
X34989Y-9233D01*
X34969Y-9215D01*
X34960Y-9190D01*
X34960Y-9173D01*
X34969Y-9147D01*
X34979Y-9138D01*
X35046Y-9035D02*
X35036Y-9053D01*
X35027Y-9061D01*
X35008Y-9070D01*
X34998Y-9070D01*
X34979Y-9061D01*
X34969Y-9053D01*
X34960Y-9035D01*
X34960Y-9001D01*
X34969Y-8984D01*
X34979Y-8975D01*
X34998Y-8967D01*
X35008Y-8967D01*
X35027Y-8975D01*
X35036Y-8984D01*
X35046Y-9001D01*
X35046Y-9035D01*
X35055Y-9053D01*
X35065Y-9061D01*
X35084Y-9070D01*
X35122Y-9070D01*
X35141Y-9061D01*
X35150Y-9053D01*
X35160Y-9035D01*
X35160Y-9001D01*
X35150Y-8984D01*
X35141Y-8975D01*
X35122Y-8967D01*
X35084Y-8967D01*
X35065Y-8975D01*
X35055Y-8984D01*
X35046Y-9001D01*
X36391Y-9888D02*
X36400Y-9897D01*
X36410Y-9923D01*
X36410Y-9940D01*
X36400Y-9965D01*
X36381Y-9983D01*
X36362Y-9991D01*
X36324Y-10000D01*
X36296Y-10000D01*
X36258Y-9991D01*
X36239Y-9983D01*
X36219Y-9965D01*
X36210Y-9940D01*
X36210Y-9923D01*
X36219Y-9897D01*
X36229Y-9888D01*
X36410Y-9803D02*
X36410Y-9768D01*
X36400Y-9751D01*
X36391Y-9743D01*
X36362Y-9725D01*
X36324Y-9717D01*
X36248Y-9717D01*
X36229Y-9725D01*
X36219Y-9734D01*
X36210Y-9751D01*
X36210Y-9785D01*
X36219Y-9803D01*
X36229Y-9811D01*
X36248Y-9820D01*
X36296Y-9820D01*
X36315Y-9811D01*
X36324Y-9803D01*
X36334Y-9785D01*
X36334Y-9751D01*
X36324Y-9734D01*
X36315Y-9725D01*
X36296Y-9717D01*
X30214Y-7671D02*
X30205Y-7680D01*
X30179Y-7690D01*
X30162Y-7690D01*
X30137Y-7680D01*
X30119Y-7661D01*
X30111Y-7642D01*
X30102Y-7604D01*
X30102Y-7576D01*
X30111Y-7538D01*
X30119Y-7519D01*
X30137Y-7499D01*
X30162Y-7490D01*
X30179Y-7490D01*
X30205Y-7499D01*
X30214Y-7509D01*
X30385Y-7690D02*
X30282Y-7690D01*
X30334Y-7690D02*
X30334Y-7490D01*
X30317Y-7519D01*
X30299Y-7538D01*
X30282Y-7547D01*
X30496Y-7490D02*
X30513Y-7490D01*
X30530Y-7499D01*
X30539Y-7509D01*
X30548Y-7528D01*
X30556Y-7566D01*
X30556Y-7614D01*
X30548Y-7652D01*
X30539Y-7671D01*
X30530Y-7680D01*
X30513Y-7690D01*
X30496Y-7690D01*
X30479Y-7680D01*
X30470Y-7671D01*
X30462Y-7652D01*
X30453Y-7614D01*
X30453Y-7566D01*
X30462Y-7528D01*
X30470Y-7509D01*
X30479Y-7499D01*
X30496Y-7490D01*
X27747Y-10140D02*
X27747Y-9940D01*
X27790Y-9940D01*
X27815Y-9949D01*
X27833Y-9969D01*
X27841Y-9988D01*
X27850Y-10026D01*
X27850Y-10054D01*
X27841Y-10092D01*
X27833Y-10111D01*
X27815Y-10130D01*
X27790Y-10140D01*
X27747Y-10140D01*
X28004Y-9940D02*
X27970Y-9940D01*
X27953Y-9949D01*
X27944Y-9959D01*
X27927Y-9988D01*
X27918Y-10026D01*
X27918Y-10102D01*
X27927Y-10121D01*
X27935Y-10130D01*
X27953Y-10140D01*
X27987Y-10140D01*
X28004Y-10130D01*
X28013Y-10121D01*
X28021Y-10102D01*
X28021Y-10054D01*
X28013Y-10035D01*
X28004Y-10026D01*
X27987Y-10016D01*
X27953Y-10016D01*
X27935Y-10026D01*
X27927Y-10035D01*
X27918Y-10054D01*
G54D22*
X36038Y-28204D02*
X35644Y-28204D01*
X35644Y-28129D01*
X35663Y-28110D01*
X35682Y-28101D01*
X35720Y-28092D01*
X35776Y-28092D01*
X35813Y-28101D01*
X35832Y-28110D01*
X35851Y-28129D01*
X35851Y-28204D01*
X36038Y-27904D02*
X36038Y-28016D01*
X36038Y-27960D02*
X35644Y-27960D01*
X35701Y-27979D01*
X35738Y-27998D01*
X35757Y-28016D01*
X36038Y-12604D02*
X35644Y-12604D01*
X35644Y-12529D01*
X35663Y-12510D01*
X35682Y-12501D01*
X35720Y-12492D01*
X35776Y-12492D01*
X35813Y-12501D01*
X35832Y-12510D01*
X35851Y-12529D01*
X35851Y-12604D01*
X35682Y-12416D02*
X35663Y-12407D01*
X35644Y-12388D01*
X35644Y-12341D01*
X35663Y-12323D01*
X35682Y-12313D01*
X35720Y-12304D01*
X35757Y-12304D01*
X35813Y-12313D01*
X36038Y-12426D01*
X36038Y-12304D01*
X37088Y-28204D02*
X36694Y-28204D01*
X36694Y-28129D01*
X36713Y-28110D01*
X36732Y-28101D01*
X36770Y-28092D01*
X36826Y-28092D01*
X36863Y-28101D01*
X36882Y-28110D01*
X36901Y-28129D01*
X36901Y-28204D01*
X36694Y-28026D02*
X36694Y-27904D01*
X36845Y-27970D01*
X36845Y-27941D01*
X36863Y-27923D01*
X36882Y-27913D01*
X36920Y-27904D01*
X37013Y-27904D01*
X37051Y-27913D01*
X37070Y-27923D01*
X37088Y-27941D01*
X37088Y-27998D01*
X37070Y-28016D01*
X37051Y-28026D01*
X38038Y-28204D02*
X37644Y-28204D01*
X37644Y-28129D01*
X37663Y-28110D01*
X37682Y-28101D01*
X37720Y-28092D01*
X37776Y-28092D01*
X37813Y-28101D01*
X37832Y-28110D01*
X37851Y-28129D01*
X37851Y-28204D01*
X37776Y-27923D02*
X38038Y-27923D01*
X37626Y-27970D02*
X37907Y-28016D01*
X37907Y-27895D01*
X37038Y-12604D02*
X36644Y-12604D01*
X36644Y-12529D01*
X36663Y-12510D01*
X36682Y-12501D01*
X36720Y-12492D01*
X36776Y-12492D01*
X36813Y-12501D01*
X36832Y-12510D01*
X36851Y-12529D01*
X36851Y-12604D01*
X36644Y-12323D02*
X36644Y-12360D01*
X36663Y-12379D01*
X36682Y-12388D01*
X36738Y-12407D01*
X36813Y-12416D01*
X36963Y-12416D01*
X37001Y-12407D01*
X37020Y-12398D01*
X37038Y-12379D01*
X37038Y-12341D01*
X37020Y-12323D01*
X37001Y-12313D01*
X36963Y-12304D01*
X36870Y-12304D01*
X36832Y-12313D01*
X36813Y-12323D01*
X36795Y-12341D01*
X36795Y-12379D01*
X36813Y-12398D01*
X36832Y-12407D01*
X36870Y-12416D01*
X38038Y-12604D02*
X37644Y-12604D01*
X37644Y-12529D01*
X37663Y-12510D01*
X37682Y-12501D01*
X37720Y-12492D01*
X37776Y-12492D01*
X37813Y-12501D01*
X37832Y-12510D01*
X37851Y-12529D01*
X37851Y-12604D01*
X37813Y-12379D02*
X37795Y-12398D01*
X37776Y-12407D01*
X37738Y-12416D01*
X37720Y-12416D01*
X37682Y-12407D01*
X37663Y-12398D01*
X37644Y-12379D01*
X37644Y-12341D01*
X37663Y-12323D01*
X37682Y-12313D01*
X37720Y-12304D01*
X37738Y-12304D01*
X37776Y-12313D01*
X37795Y-12323D01*
X37813Y-12341D01*
X37813Y-12379D01*
X37832Y-12398D01*
X37851Y-12407D01*
X37888Y-12416D01*
X37963Y-12416D01*
X38001Y-12407D01*
X38020Y-12398D01*
X38038Y-12379D01*
X38038Y-12341D01*
X38020Y-12323D01*
X38001Y-12313D01*
X37963Y-12304D01*
X37888Y-12304D01*
X37851Y-12313D01*
X37832Y-12323D01*
X37813Y-12341D01*
X30088Y-19304D02*
X29694Y-19304D01*
X29694Y-19229D01*
X29713Y-19210D01*
X29732Y-19201D01*
X29770Y-19192D01*
X29826Y-19192D01*
X29863Y-19201D01*
X29882Y-19210D01*
X29901Y-19229D01*
X29901Y-19304D01*
X29694Y-19013D02*
X29694Y-19107D01*
X29882Y-19116D01*
X29863Y-19107D01*
X29845Y-19088D01*
X29845Y-19041D01*
X29863Y-19023D01*
X29882Y-19013D01*
X29920Y-19004D01*
X30013Y-19004D01*
X30051Y-19013D01*
X30070Y-19023D01*
X30088Y-19041D01*
X30088Y-19088D01*
X30070Y-19107D01*
X30051Y-19116D01*
X29038Y-19304D02*
X28644Y-19304D01*
X28644Y-19229D01*
X28663Y-19210D01*
X28682Y-19201D01*
X28720Y-19192D01*
X28776Y-19192D01*
X28813Y-19201D01*
X28832Y-19210D01*
X28851Y-19229D01*
X28851Y-19304D01*
X28644Y-19126D02*
X28644Y-18995D01*
X29038Y-19079D01*
X28038Y-19304D02*
X27644Y-19304D01*
X27644Y-19229D01*
X27663Y-19210D01*
X27682Y-19201D01*
X27720Y-19192D01*
X27776Y-19192D01*
X27813Y-19201D01*
X27832Y-19210D01*
X27851Y-19229D01*
X27851Y-19304D01*
X28038Y-19098D02*
X28038Y-19060D01*
X28020Y-19041D01*
X28001Y-19032D01*
X27945Y-19013D01*
X27870Y-19004D01*
X27720Y-19004D01*
X27682Y-19013D01*
X27663Y-19023D01*
X27644Y-19041D01*
X27644Y-19079D01*
X27663Y-19098D01*
X27682Y-19107D01*
X27720Y-19116D01*
X27813Y-19116D01*
X27851Y-19107D01*
X27870Y-19098D01*
X27888Y-19079D01*
X27888Y-19041D01*
X27870Y-19023D01*
X27851Y-19013D01*
X27813Y-19004D01*
X28088Y-24054D02*
X27694Y-24054D01*
X28088Y-23942D02*
X27863Y-24026D01*
X27694Y-23942D02*
X27920Y-24054D01*
X27694Y-23876D02*
X27694Y-23754D01*
X27845Y-23820D01*
X27845Y-23791D01*
X27863Y-23773D01*
X27882Y-23763D01*
X27920Y-23754D01*
X28013Y-23754D01*
X28051Y-23763D01*
X28070Y-23773D01*
X28088Y-23791D01*
X28088Y-23848D01*
X28070Y-23866D01*
X28051Y-23876D01*
X29038Y-24054D02*
X28644Y-24054D01*
X29038Y-23942D02*
X28813Y-24026D01*
X28644Y-23942D02*
X28870Y-24054D01*
X28682Y-23866D02*
X28663Y-23857D01*
X28644Y-23838D01*
X28644Y-23791D01*
X28663Y-23773D01*
X28682Y-23763D01*
X28720Y-23754D01*
X28757Y-23754D01*
X28813Y-23763D01*
X29038Y-23876D01*
X29038Y-23754D01*
X29988Y-24054D02*
X29594Y-24054D01*
X29988Y-23942D02*
X29763Y-24026D01*
X29594Y-23942D02*
X29820Y-24054D01*
X29988Y-23754D02*
X29988Y-23866D01*
X29988Y-23810D02*
X29594Y-23810D01*
X29651Y-23829D01*
X29688Y-23848D01*
X29707Y-23866D01*
X37115Y-6074D02*
X37115Y-6356D01*
X37106Y-6412D01*
X37087Y-6450D01*
X37059Y-6468D01*
X37040Y-6468D01*
X37209Y-6468D02*
X37209Y-6074D01*
X37284Y-6074D01*
X37303Y-6093D01*
X37312Y-6112D01*
X37321Y-6150D01*
X37321Y-6206D01*
X37312Y-6243D01*
X37303Y-6262D01*
X37284Y-6281D01*
X37209Y-6281D01*
X37387Y-6074D02*
X37509Y-6074D01*
X37443Y-6225D01*
X37472Y-6225D01*
X37490Y-6243D01*
X37500Y-6262D01*
X37509Y-6300D01*
X37509Y-6393D01*
X37500Y-6431D01*
X37490Y-6450D01*
X37472Y-6468D01*
X37415Y-6468D01*
X37397Y-6450D01*
X37387Y-6431D01*
X35715Y-21024D02*
X35715Y-21306D01*
X35706Y-21362D01*
X35687Y-21400D01*
X35659Y-21418D01*
X35640Y-21418D01*
X35809Y-21418D02*
X35809Y-21024D01*
X35884Y-21024D01*
X35903Y-21043D01*
X35912Y-21062D01*
X35921Y-21100D01*
X35921Y-21156D01*
X35912Y-21193D01*
X35903Y-21212D01*
X35884Y-21231D01*
X35809Y-21231D01*
X36109Y-21418D02*
X35997Y-21418D01*
X36053Y-21418D02*
X36053Y-21024D01*
X36034Y-21081D01*
X36015Y-21118D01*
X35997Y-21137D01*
G54D21*
X33122Y-20198D02*
X32522Y-20198D01*
X33065Y-19727D02*
X33093Y-19748D01*
X33122Y-19812D01*
X33122Y-19855D01*
X33093Y-19920D01*
X33036Y-19962D01*
X32979Y-19984D01*
X32865Y-20005D01*
X32779Y-20005D01*
X32665Y-19984D01*
X32608Y-19962D01*
X32550Y-19920D01*
X32522Y-19855D01*
X32522Y-19812D01*
X32550Y-19748D01*
X32579Y-19727D01*
X33122Y-19298D02*
X33122Y-19555D01*
X33122Y-19427D02*
X32522Y-19427D01*
X32608Y-19470D01*
X32665Y-19512D01*
X32693Y-19555D01*
G54D20*
X34591Y-31574D02*
X34600Y-31583D01*
X34610Y-31609D01*
X34610Y-31626D01*
X34600Y-31651D01*
X34581Y-31669D01*
X34562Y-31677D01*
X34524Y-31686D01*
X34496Y-31686D01*
X34458Y-31677D01*
X34439Y-31669D01*
X34419Y-31651D01*
X34410Y-31626D01*
X34410Y-31609D01*
X34419Y-31583D01*
X34429Y-31574D01*
X34610Y-31403D02*
X34610Y-31506D01*
X34610Y-31454D02*
X34410Y-31454D01*
X34439Y-31471D01*
X34458Y-31489D01*
X34467Y-31506D01*
X34429Y-31335D02*
X34419Y-31326D01*
X34410Y-31309D01*
X34410Y-31266D01*
X34419Y-31249D01*
X34429Y-31240D01*
X34448Y-31232D01*
X34467Y-31232D01*
X34496Y-31240D01*
X34610Y-31343D01*
X34610Y-31232D01*
X27850Y-10940D02*
X27790Y-10845D01*
X27747Y-10940D02*
X27747Y-10740D01*
X27815Y-10740D01*
X27833Y-10749D01*
X27841Y-10759D01*
X27850Y-10778D01*
X27850Y-10807D01*
X27841Y-10826D01*
X27833Y-10835D01*
X27815Y-10845D01*
X27747Y-10845D01*
X27918Y-10759D02*
X27927Y-10749D01*
X27944Y-10740D01*
X27987Y-10740D01*
X28004Y-10749D01*
X28013Y-10759D01*
X28021Y-10778D01*
X28021Y-10797D01*
X28013Y-10826D01*
X27910Y-10940D01*
X28021Y-10940D01*
X30497Y-10940D02*
X30497Y-10740D01*
X30540Y-10740D01*
X30565Y-10749D01*
X30583Y-10769D01*
X30591Y-10788D01*
X30600Y-10826D01*
X30600Y-10854D01*
X30591Y-10892D01*
X30583Y-10911D01*
X30565Y-10930D01*
X30540Y-10940D01*
X30497Y-10940D01*
X30771Y-10940D02*
X30668Y-10940D01*
X30720Y-10940D02*
X30720Y-10740D01*
X30703Y-10769D01*
X30685Y-10788D01*
X30668Y-10797D01*
G54D12*
X32401Y-36118D02*
X32401Y-35724D01*
X32551Y-35724D01*
X32588Y-35743D01*
X32607Y-35762D01*
X32626Y-35800D01*
X32626Y-35856D01*
X32607Y-35893D01*
X32588Y-35912D01*
X32551Y-35931D01*
X32401Y-35931D01*
X33001Y-36118D02*
X32776Y-36118D01*
X32889Y-36118D02*
X32889Y-35724D01*
X32851Y-35781D01*
X32814Y-35818D01*
X32776Y-35837D01*
X33245Y-35724D02*
X33282Y-35724D01*
X33320Y-35743D01*
X33339Y-35762D01*
X33357Y-35800D01*
X33376Y-35875D01*
X33376Y-35968D01*
X33357Y-36043D01*
X33339Y-36081D01*
X33320Y-36100D01*
X33282Y-36118D01*
X33245Y-36118D01*
X33207Y-36100D01*
X33189Y-36081D01*
X33170Y-36043D01*
X33151Y-35968D01*
X33151Y-35875D01*
X33170Y-35800D01*
X33189Y-35762D01*
X33207Y-35743D01*
X33245Y-35724D01*
G54D13*
X31608Y-39945D02*
X31579Y-39973D01*
X31493Y-40002D01*
X31436Y-40002D01*
X31351Y-39973D01*
X31293Y-39916D01*
X31265Y-39859D01*
X31236Y-39745D01*
X31236Y-39659D01*
X31265Y-39545D01*
X31293Y-39488D01*
X31351Y-39430D01*
X31436Y-39402D01*
X31493Y-39402D01*
X31579Y-39430D01*
X31608Y-39459D01*
X31979Y-39402D02*
X32093Y-39402D01*
X32151Y-39430D01*
X32208Y-39488D01*
X32236Y-39602D01*
X32236Y-39802D01*
X32208Y-39916D01*
X32151Y-39973D01*
X32093Y-40002D01*
X31979Y-40002D01*
X31922Y-39973D01*
X31865Y-39916D01*
X31836Y-39802D01*
X31836Y-39602D01*
X31865Y-39488D01*
X31922Y-39430D01*
X31979Y-39402D01*
X32494Y-40002D02*
X32494Y-39402D01*
X32837Y-40002D01*
X32837Y-39402D01*
X33123Y-40002D02*
X33123Y-39402D01*
X33466Y-40002D01*
X33466Y-39402D01*
X33609Y-40059D02*
X34066Y-40059D01*
X34180Y-39459D02*
X34209Y-39430D01*
X34266Y-39402D01*
X34409Y-39402D01*
X34466Y-39430D01*
X34495Y-39459D01*
X34523Y-39516D01*
X34523Y-39573D01*
X34495Y-39659D01*
X34152Y-40002D01*
X34523Y-40002D01*
G54D19*
X34092Y-33725D02*
X33935Y-33725D01*
X33935Y-33687D01*
X33943Y-33665D01*
X33957Y-33650D01*
X33972Y-33642D01*
X34002Y-33635D01*
X34025Y-33635D01*
X34055Y-33642D01*
X34070Y-33650D01*
X34085Y-33665D01*
X34092Y-33687D01*
X34092Y-33725D01*
X33950Y-33575D02*
X33943Y-33568D01*
X33935Y-33553D01*
X33935Y-33515D01*
X33943Y-33500D01*
X33950Y-33493D01*
X33965Y-33485D01*
X33980Y-33485D01*
X34002Y-33493D01*
X34092Y-33583D01*
X34092Y-33485D01*
G54D17*
X32749Y-2625D02*
X32749Y-2905D01*
X32730Y-2961D01*
X32693Y-2999D01*
X32637Y-3018D01*
X32599Y-3018D01*
X33141Y-3018D02*
X32917Y-3018D01*
X33029Y-3018D02*
X33029Y-2625D01*
X32992Y-2681D01*
X32954Y-2718D01*
X32917Y-2737D01*
G54D18*
X32384Y-2075D02*
X32384Y-2393D01*
X32402Y-2430D01*
X32421Y-2449D01*
X32458Y-2468D01*
X32533Y-2468D01*
X32571Y-2449D01*
X32589Y-2430D01*
X32608Y-2393D01*
X32608Y-2075D01*
X32777Y-2449D02*
X32833Y-2468D01*
X32927Y-2468D01*
X32964Y-2449D01*
X32983Y-2430D01*
X33001Y-2393D01*
X33001Y-2355D01*
X32983Y-2318D01*
X32964Y-2299D01*
X32927Y-2280D01*
X32852Y-2262D01*
X32814Y-2243D01*
X32796Y-2224D01*
X32777Y-2187D01*
X32777Y-2149D01*
X32796Y-2112D01*
X32814Y-2093D01*
X32852Y-2075D01*
X32945Y-2075D01*
X33001Y-2093D01*
X33301Y-2262D02*
X33357Y-2280D01*
X33375Y-2299D01*
X33394Y-2337D01*
X33394Y-2393D01*
X33375Y-2430D01*
X33357Y-2449D01*
X33319Y-2468D01*
X33170Y-2468D01*
X33170Y-2075D01*
X33301Y-2075D01*
X33338Y-2093D01*
X33357Y-2112D01*
X33375Y-2149D01*
X33375Y-2187D01*
X33357Y-2224D01*
X33338Y-2243D01*
X33301Y-2262D01*
X33170Y-2262D01*
G54D15*
X32493Y-28071D02*
X32493Y-27671D01*
X32646Y-27671D01*
X32684Y-27690D01*
X32703Y-27709D01*
X32722Y-27747D01*
X32722Y-27804D01*
X32703Y-27842D01*
X32684Y-27861D01*
X32646Y-27880D01*
X32493Y-27880D01*
X33103Y-28071D02*
X32874Y-28071D01*
X32988Y-28071D02*
X32988Y-27671D01*
X32950Y-27728D01*
X32912Y-27766D01*
X32874Y-27785D01*
X33484Y-28071D02*
X33255Y-28071D01*
X33369Y-28071D02*
X33369Y-27671D01*
X33331Y-27728D01*
X33293Y-27766D01*
X33255Y-27785D01*
G54D16*
X30496Y-35169D02*
X30487Y-35179D01*
X30459Y-35188D01*
X30440Y-35188D01*
X30412Y-35179D01*
X30393Y-35160D01*
X30384Y-35141D01*
X30375Y-35104D01*
X30375Y-35076D01*
X30384Y-35038D01*
X30393Y-35019D01*
X30412Y-35001D01*
X30440Y-34991D01*
X30459Y-34991D01*
X30487Y-35001D01*
X30496Y-35010D01*
X30665Y-34991D02*
X30628Y-34991D01*
X30609Y-35001D01*
X30600Y-35010D01*
X30581Y-35038D01*
X30572Y-35076D01*
X30572Y-35151D01*
X30581Y-35169D01*
X30590Y-35179D01*
X30609Y-35188D01*
X30647Y-35188D01*
X30665Y-35179D01*
X30675Y-35169D01*
X30684Y-35151D01*
X30684Y-35104D01*
X30675Y-35085D01*
X30665Y-35076D01*
X30647Y-35066D01*
X30609Y-35066D01*
X30590Y-35076D01*
X30581Y-35085D01*
X30572Y-35104D01*
X30402Y-32619D02*
X30393Y-32629D01*
X30365Y-32638D01*
X30346Y-32638D01*
X30318Y-32629D01*
X30299Y-32610D01*
X30290Y-32591D01*
X30281Y-32554D01*
X30281Y-32526D01*
X30290Y-32488D01*
X30299Y-32469D01*
X30318Y-32451D01*
X30346Y-32441D01*
X30365Y-32441D01*
X30393Y-32451D01*
X30402Y-32460D01*
X30590Y-32638D02*
X30478Y-32638D01*
X30534Y-32638D02*
X30534Y-32441D01*
X30515Y-32469D01*
X30496Y-32488D01*
X30478Y-32498D01*
X30778Y-32638D02*
X30666Y-32638D01*
X30722Y-32638D02*
X30722Y-32441D01*
X30703Y-32469D01*
X30684Y-32488D01*
X30666Y-32498D01*
X37196Y-9069D02*
X37187Y-9079D01*
X37159Y-9088D01*
X37140Y-9088D01*
X37112Y-9079D01*
X37093Y-9060D01*
X37084Y-9041D01*
X37075Y-9004D01*
X37075Y-8976D01*
X37084Y-8938D01*
X37093Y-8919D01*
X37112Y-8901D01*
X37140Y-8891D01*
X37159Y-8891D01*
X37187Y-8901D01*
X37196Y-8910D01*
X37262Y-8891D02*
X37393Y-8891D01*
X37309Y-9088D01*
G54D10*
G36*
X35079Y-28971D02*
X34726Y-28759D01*
X35079Y-28547D01*
X35079Y-28971D01*
X35079Y-28971D01*
G37*
G54D24*
X35079Y-28971D02*
X34726Y-28759D01*
X35079Y-28547D01*
X35079Y-28971D01*
G54D10*
G36*
X8702Y-28971D02*
X8349Y-28759D01*
X8702Y-28547D01*
X8702Y-28971D01*
X8702Y-28971D01*
G37*
G54D24*
X8702Y-28971D02*
X8349Y-28759D01*
X8702Y-28547D01*
X8702Y-28971D01*
G54D10*
G36*
X21693Y-28970D02*
X21340Y-28758D01*
X21693Y-28546D01*
X21693Y-28970D01*
X21693Y-28970D01*
G37*
G54D24*
X21693Y-28970D02*
X21340Y-28758D01*
X21693Y-28546D01*
X21693Y-28970D01*
%LPC*%
G54D25*
X23502Y-8108D03*
X22084Y-8108D03*
G54D26*
X19359Y-31758D03*
X17627Y-31758D03*
X19359Y-34258D03*
X17627Y-34258D03*
G54D27*
X20493Y-28758D03*
G54D28*
X20493Y-29758D03*
X19493Y-28758D03*
X19493Y-29758D03*
X18493Y-28758D03*
X18493Y-29758D03*
G54D29*
X17749Y-3683D03*
G54D30*
X20122Y-3793D03*
X19807Y-3793D03*
X19493Y-3793D03*
X19179Y-3793D03*
X18864Y-3793D03*
G54D31*
X20358Y-2798D03*
X18627Y-2798D03*
G54D29*
X21237Y-3683D03*
X21237Y-1518D03*
X17749Y-1518D03*
G54D32*
X23493Y-37258D03*
X15493Y-37258D03*
X23493Y-2258D03*
X15493Y-2258D03*
G54D33*
X21143Y-34267D03*
X21143Y-32949D03*
G54D34*
X18493Y-37758D03*
G54D35*
X20493Y-37758D03*
G54D36*
X16143Y-10858D03*
X16743Y-10858D03*
X14943Y-10858D03*
X15543Y-10858D03*
G54D37*
X21143Y-31758D03*
X21143Y-31158D03*
G54D38*
X17993Y-14258D03*
X17993Y-15258D03*
X17993Y-16258D03*
X17993Y-17258D03*
X17993Y-18258D03*
X17993Y-19258D03*
X17993Y-20258D03*
X17993Y-21258D03*
X17993Y-22258D03*
X17993Y-23258D03*
X17993Y-24258D03*
X17993Y-25258D03*
X17993Y-26258D03*
G54D39*
X17993Y-13258D03*
G54D38*
X20993Y-26258D03*
X20993Y-25258D03*
X20993Y-24258D03*
X20993Y-23258D03*
X20993Y-22258D03*
X20993Y-21258D03*
X20993Y-20258D03*
X20993Y-19258D03*
X20993Y-18258D03*
X20993Y-17258D03*
X20993Y-16258D03*
X20993Y-15258D03*
X20993Y-14258D03*
X20993Y-13258D03*
G54D40*
X22493Y-19258D03*
G54D41*
X22493Y-20258D03*
G54D40*
X21993Y-6258D03*
G54D41*
X22993Y-6258D03*
G54D40*
X16493Y-24758D03*
G54D41*
X16493Y-25758D03*
X16493Y-26758D03*
G54D40*
X15493Y-24758D03*
G54D41*
X15493Y-25758D03*
X15493Y-26758D03*
G54D40*
X14493Y-24758D03*
G54D41*
X14493Y-25758D03*
X14493Y-26758D03*
G54D40*
X14493Y-14258D03*
G54D41*
X14493Y-15258D03*
X14493Y-16258D03*
X14493Y-17258D03*
X14493Y-18258D03*
G54D40*
X15493Y-14258D03*
G54D41*
X15493Y-15258D03*
X15493Y-16258D03*
X15493Y-17258D03*
X15493Y-18258D03*
G54D40*
X16493Y-14258D03*
G54D41*
X16493Y-15258D03*
X16493Y-16258D03*
X16493Y-17258D03*
X16493Y-18258D03*
G54D40*
X24493Y-18258D03*
G54D41*
X24493Y-17258D03*
X24493Y-16258D03*
X24493Y-15258D03*
X24493Y-14258D03*
X24493Y-13258D03*
G54D40*
X23493Y-18258D03*
G54D41*
X23493Y-17258D03*
X23493Y-16258D03*
X23493Y-15258D03*
X23493Y-14258D03*
X23493Y-13258D03*
G54D40*
X24493Y-27258D03*
G54D41*
X24493Y-26258D03*
X24493Y-25258D03*
X24493Y-24258D03*
X24493Y-23258D03*
X24493Y-22258D03*
G54D40*
X23493Y-27258D03*
G54D41*
X23493Y-26258D03*
X23493Y-25258D03*
X23493Y-24258D03*
X23493Y-23258D03*
X23493Y-22258D03*
G54D40*
X22493Y-18258D03*
G54D41*
X22493Y-17258D03*
X22493Y-16258D03*
X22493Y-15258D03*
X22493Y-14258D03*
X22493Y-13258D03*
G54D40*
X22493Y-27258D03*
G54D41*
X22493Y-26258D03*
X22493Y-25258D03*
X22493Y-24258D03*
X22493Y-23258D03*
X22493Y-22258D03*
G54D36*
X14943Y-10108D03*
X15543Y-10108D03*
X17243Y-8058D03*
X16643Y-8058D03*
G54D37*
X22443Y-10158D03*
X22443Y-9558D03*
X21693Y-10158D03*
X21693Y-9558D03*
X14493Y-22158D03*
X14493Y-22758D03*
X14493Y-21358D03*
X14493Y-20758D03*
X23443Y-19258D03*
X23443Y-19858D03*
G54D36*
X23493Y-21258D03*
X24093Y-21258D03*
X14943Y-9358D03*
X15543Y-9358D03*
X16143Y-9358D03*
X16743Y-9358D03*
X17843Y-5258D03*
X17243Y-5258D03*
X18443Y-6258D03*
X17843Y-6258D03*
X17393Y-27758D03*
X17993Y-27758D03*
X15493Y-13258D03*
X16093Y-13258D03*
X16143Y-10108D03*
X16743Y-10108D03*
G54D42*
X20468Y-5058D03*
X21218Y-5058D03*
G54D43*
X20893Y-10908D03*
X20893Y-10658D03*
X20893Y-10398D03*
X20893Y-10138D03*
X20893Y-9888D03*
X20893Y-9628D03*
X20893Y-9368D03*
X20893Y-9118D03*
X20893Y-8858D03*
X20893Y-8608D03*
X20893Y-8348D03*
X20893Y-8088D03*
X20893Y-7838D03*
X20893Y-7578D03*
X18093Y-7578D03*
X18093Y-7838D03*
X18093Y-8078D03*
X18093Y-8348D03*
X18093Y-8608D03*
X18093Y-8858D03*
X18093Y-9118D03*
X18093Y-9368D03*
X18093Y-9628D03*
X18093Y-9888D03*
X18093Y-10138D03*
X18093Y-10398D03*
X18093Y-10658D03*
X18093Y-10908D03*
G54D41*
X14493Y-27758D03*
X16493Y-27758D03*
X14493Y-30758D03*
X16493Y-30758D03*
G54D40*
X16993Y-6258D03*
G54D41*
X15993Y-6258D03*
G54D44*
X22312Y-32452D03*
X22312Y-33358D03*
X22312Y-34264D03*
G54D45*
X24674Y-33358D03*
G54D46*
X15993Y-20758D03*
X15993Y-22758D03*
G54D25*
X10511Y-8109D03*
X9093Y-8109D03*
G54D26*
X6368Y-31759D03*
X4636Y-31759D03*
X6368Y-34259D03*
X4636Y-34259D03*
G54D27*
X7502Y-28759D03*
G54D28*
X7502Y-29759D03*
X6502Y-28759D03*
X6502Y-29759D03*
X5502Y-28759D03*
X5502Y-29759D03*
G54D29*
X4758Y-3684D03*
G54D30*
X7131Y-3794D03*
X6816Y-3794D03*
X6502Y-3794D03*
X6188Y-3794D03*
X5873Y-3794D03*
G54D31*
X7367Y-2799D03*
X5636Y-2799D03*
G54D29*
X8246Y-3684D03*
X8246Y-1519D03*
X4758Y-1519D03*
G54D32*
X10502Y-37259D03*
X2502Y-37259D03*
X10502Y-2259D03*
X2502Y-2259D03*
G54D33*
X8152Y-34268D03*
X8152Y-32950D03*
G54D34*
X5502Y-37759D03*
G54D35*
X7502Y-37759D03*
G54D36*
X3152Y-10859D03*
X3752Y-10859D03*
X1952Y-10859D03*
X2552Y-10859D03*
G54D37*
X8152Y-31759D03*
X8152Y-31159D03*
G54D38*
X5002Y-14259D03*
X5002Y-15259D03*
X5002Y-16259D03*
X5002Y-17259D03*
X5002Y-18259D03*
X5002Y-19259D03*
X5002Y-20259D03*
X5002Y-21259D03*
X5002Y-22259D03*
X5002Y-23259D03*
X5002Y-24259D03*
X5002Y-25259D03*
X5002Y-26259D03*
G54D39*
X5002Y-13259D03*
G54D38*
X8002Y-26259D03*
X8002Y-25259D03*
X8002Y-24259D03*
X8002Y-23259D03*
X8002Y-22259D03*
X8002Y-21259D03*
X8002Y-20259D03*
X8002Y-19259D03*
X8002Y-18259D03*
X8002Y-17259D03*
X8002Y-16259D03*
X8002Y-15259D03*
X8002Y-14259D03*
X8002Y-13259D03*
G54D40*
X9502Y-19259D03*
G54D41*
X9502Y-20259D03*
G54D40*
X9002Y-6259D03*
G54D41*
X10002Y-6259D03*
G54D40*
X3502Y-24759D03*
G54D41*
X3502Y-25759D03*
X3502Y-26759D03*
G54D40*
X2502Y-24759D03*
G54D41*
X2502Y-25759D03*
X2502Y-26759D03*
G54D40*
X1502Y-24759D03*
G54D41*
X1502Y-25759D03*
X1502Y-26759D03*
G54D40*
X1502Y-14259D03*
G54D41*
X1502Y-15259D03*
X1502Y-16259D03*
X1502Y-17259D03*
X1502Y-18259D03*
G54D40*
X2502Y-14259D03*
G54D41*
X2502Y-15259D03*
X2502Y-16259D03*
X2502Y-17259D03*
X2502Y-18259D03*
G54D40*
X3502Y-14259D03*
G54D41*
X3502Y-15259D03*
X3502Y-16259D03*
X3502Y-17259D03*
X3502Y-18259D03*
G54D40*
X11502Y-18259D03*
G54D41*
X11502Y-17259D03*
X11502Y-16259D03*
X11502Y-15259D03*
X11502Y-14259D03*
X11502Y-13259D03*
G54D40*
X10502Y-18259D03*
G54D41*
X10502Y-17259D03*
X10502Y-16259D03*
X10502Y-15259D03*
X10502Y-14259D03*
X10502Y-13259D03*
G54D40*
X11502Y-27259D03*
G54D41*
X11502Y-26259D03*
X11502Y-25259D03*
X11502Y-24259D03*
X11502Y-23259D03*
X11502Y-22259D03*
G54D40*
X10502Y-27259D03*
G54D41*
X10502Y-26259D03*
X10502Y-25259D03*
X10502Y-24259D03*
X10502Y-23259D03*
X10502Y-22259D03*
G54D40*
X9502Y-18259D03*
G54D41*
X9502Y-17259D03*
X9502Y-16259D03*
X9502Y-15259D03*
X9502Y-14259D03*
X9502Y-13259D03*
G54D40*
X9502Y-27259D03*
G54D41*
X9502Y-26259D03*
X9502Y-25259D03*
X9502Y-24259D03*
X9502Y-23259D03*
X9502Y-22259D03*
G54D36*
X1952Y-10109D03*
X2552Y-10109D03*
X4252Y-8059D03*
X3652Y-8059D03*
G54D37*
X9452Y-10159D03*
X9452Y-9559D03*
X8702Y-10159D03*
X8702Y-9559D03*
X1502Y-22159D03*
X1502Y-22759D03*
X1502Y-21359D03*
X1502Y-20759D03*
X10452Y-19259D03*
X10452Y-19859D03*
G54D36*
X10502Y-21259D03*
X11102Y-21259D03*
X1952Y-9359D03*
X2552Y-9359D03*
X3152Y-9359D03*
X3752Y-9359D03*
X4852Y-5259D03*
X4252Y-5259D03*
X5452Y-6259D03*
X4852Y-6259D03*
X4402Y-27759D03*
X5002Y-27759D03*
X2502Y-13259D03*
X3102Y-13259D03*
X3152Y-10109D03*
X3752Y-10109D03*
G54D42*
X7477Y-5059D03*
X8227Y-5059D03*
G54D43*
X7902Y-10909D03*
X7902Y-10659D03*
X7902Y-10399D03*
X7902Y-10139D03*
X7902Y-9889D03*
X7902Y-9629D03*
X7902Y-9369D03*
X7902Y-9119D03*
X7902Y-8859D03*
X7902Y-8609D03*
X7902Y-8349D03*
X7902Y-8089D03*
X7902Y-7839D03*
X7902Y-7579D03*
X5102Y-7579D03*
X5102Y-7839D03*
X5102Y-8079D03*
X5102Y-8349D03*
X5102Y-8609D03*
X5102Y-8859D03*
X5102Y-9119D03*
X5102Y-9369D03*
X5102Y-9629D03*
X5102Y-9889D03*
X5102Y-10139D03*
X5102Y-10399D03*
X5102Y-10659D03*
X5102Y-10909D03*
G54D41*
X1502Y-27759D03*
X3502Y-27759D03*
X1502Y-30759D03*
X3502Y-30759D03*
G54D40*
X4002Y-6259D03*
G54D41*
X3002Y-6259D03*
G54D44*
X9321Y-32453D03*
X9321Y-33359D03*
X9321Y-34265D03*
G54D45*
X11683Y-33359D03*
G54D46*
X3002Y-20759D03*
X3002Y-22759D03*
X29379Y-20759D03*
X29379Y-22759D03*
G54D44*
X35698Y-32453D03*
X35698Y-33359D03*
X35698Y-34265D03*
G54D45*
X38060Y-33359D03*
G54D40*
X30379Y-6259D03*
G54D41*
X29379Y-6259D03*
X27879Y-27759D03*
X29879Y-27759D03*
X27879Y-30759D03*
X29879Y-30759D03*
G54D43*
X34279Y-10909D03*
X34279Y-10659D03*
X34279Y-10399D03*
X34279Y-10139D03*
X34279Y-9889D03*
X34279Y-9629D03*
X34279Y-9369D03*
X34279Y-9119D03*
X34279Y-8859D03*
X34279Y-8609D03*
X34279Y-8349D03*
X34279Y-8089D03*
X34279Y-7839D03*
X34279Y-7579D03*
X31479Y-7579D03*
X31479Y-7839D03*
X31479Y-8079D03*
X31479Y-8349D03*
X31479Y-8609D03*
X31479Y-8859D03*
X31479Y-9119D03*
X31479Y-9369D03*
X31479Y-9629D03*
X31479Y-9889D03*
X31479Y-10139D03*
X31479Y-10399D03*
X31479Y-10659D03*
X31479Y-10909D03*
G54D42*
X33854Y-5059D03*
X34604Y-5059D03*
G54D36*
X29529Y-10109D03*
X30129Y-10109D03*
X28879Y-13259D03*
X29479Y-13259D03*
X30779Y-27759D03*
X31379Y-27759D03*
X31829Y-6259D03*
X31229Y-6259D03*
X31229Y-5259D03*
X30629Y-5259D03*
X29529Y-9359D03*
X30129Y-9359D03*
X28329Y-9359D03*
X28929Y-9359D03*
X36879Y-21259D03*
X37479Y-21259D03*
G54D37*
X36829Y-19259D03*
X36829Y-19859D03*
X27879Y-21359D03*
X27879Y-20759D03*
X27879Y-22159D03*
X27879Y-22759D03*
X35079Y-10159D03*
X35079Y-9559D03*
X35829Y-10159D03*
X35829Y-9559D03*
G54D36*
X30629Y-8059D03*
X30029Y-8059D03*
X28329Y-10109D03*
X28929Y-10109D03*
G54D40*
X35879Y-27259D03*
G54D41*
X35879Y-26259D03*
X35879Y-25259D03*
X35879Y-24259D03*
X35879Y-23259D03*
X35879Y-22259D03*
G54D40*
X35879Y-18259D03*
G54D41*
X35879Y-17259D03*
X35879Y-16259D03*
X35879Y-15259D03*
X35879Y-14259D03*
X35879Y-13259D03*
G54D40*
X36879Y-27259D03*
G54D41*
X36879Y-26259D03*
X36879Y-25259D03*
X36879Y-24259D03*
X36879Y-23259D03*
X36879Y-22259D03*
G54D40*
X37879Y-27259D03*
G54D41*
X37879Y-26259D03*
X37879Y-25259D03*
X37879Y-24259D03*
X37879Y-23259D03*
X37879Y-22259D03*
G54D40*
X36879Y-18259D03*
G54D41*
X36879Y-17259D03*
X36879Y-16259D03*
X36879Y-15259D03*
X36879Y-14259D03*
X36879Y-13259D03*
G54D40*
X37879Y-18259D03*
G54D41*
X37879Y-17259D03*
X37879Y-16259D03*
X37879Y-15259D03*
X37879Y-14259D03*
X37879Y-13259D03*
G54D40*
X29879Y-14259D03*
G54D41*
X29879Y-15259D03*
X29879Y-16259D03*
X29879Y-17259D03*
X29879Y-18259D03*
G54D40*
X28879Y-14259D03*
G54D41*
X28879Y-15259D03*
X28879Y-16259D03*
X28879Y-17259D03*
X28879Y-18259D03*
G54D40*
X27879Y-14259D03*
G54D41*
X27879Y-15259D03*
X27879Y-16259D03*
X27879Y-17259D03*
X27879Y-18259D03*
G54D40*
X27879Y-24759D03*
G54D41*
X27879Y-25759D03*
X27879Y-26759D03*
G54D40*
X28879Y-24759D03*
G54D41*
X28879Y-25759D03*
X28879Y-26759D03*
G54D40*
X29879Y-24759D03*
G54D41*
X29879Y-25759D03*
X29879Y-26759D03*
G54D40*
X35379Y-6259D03*
G54D41*
X36379Y-6259D03*
G54D40*
X35879Y-19259D03*
G54D41*
X35879Y-20259D03*
G54D38*
X31379Y-14259D03*
X31379Y-15259D03*
X31379Y-16259D03*
X31379Y-17259D03*
X31379Y-18259D03*
X31379Y-19259D03*
X31379Y-20259D03*
X31379Y-21259D03*
X31379Y-22259D03*
X31379Y-23259D03*
X31379Y-24259D03*
X31379Y-25259D03*
X31379Y-26259D03*
G54D39*
X31379Y-13259D03*
G54D38*
X34379Y-26259D03*
X34379Y-25259D03*
X34379Y-24259D03*
X34379Y-23259D03*
X34379Y-22259D03*
X34379Y-21259D03*
X34379Y-20259D03*
X34379Y-19259D03*
X34379Y-18259D03*
X34379Y-17259D03*
X34379Y-16259D03*
X34379Y-15259D03*
X34379Y-14259D03*
X34379Y-13259D03*
G54D37*
X34529Y-31759D03*
X34529Y-31159D03*
G54D36*
X28329Y-10859D03*
X28929Y-10859D03*
X29529Y-10859D03*
X30129Y-10859D03*
G54D34*
X31879Y-37759D03*
G54D35*
X33879Y-37759D03*
G54D33*
X34529Y-34268D03*
X34529Y-32950D03*
G54D32*
X28879Y-2259D03*
X36879Y-2259D03*
X28879Y-37259D03*
X36879Y-37259D03*
G54D29*
X31135Y-3684D03*
G54D30*
X33508Y-3794D03*
X33193Y-3794D03*
X32879Y-3794D03*
X32565Y-3794D03*
X32250Y-3794D03*
G54D31*
X33744Y-2799D03*
X32013Y-2799D03*
G54D29*
X34623Y-3684D03*
X34623Y-1519D03*
X31135Y-1519D03*
G54D27*
X33879Y-28759D03*
G54D28*
X33879Y-29759D03*
X32879Y-28759D03*
X32879Y-29759D03*
X31879Y-28759D03*
X31879Y-29759D03*
G54D26*
X32745Y-34259D03*
X31013Y-34259D03*
X32745Y-31759D03*
X31013Y-31759D03*
G54D25*
X36888Y-8109D03*
X35470Y-8109D03*
M02*
