M48
;DRILL file {Pcbnew (2012-12-10 BZR 3844)-stable} date Tue 18 Dec 2012 09:43:07 AM CET
;FORMAT={3:3/ absolute / metric / suppress leading zeros}
FMAT,2
METRIC,TZ
T1C0.508
T2C0.762
T3C0.813
T4C0.899
T5C1.016
T6C1.524
T7C3.099
%
G90
G05
M71
T1
X15245Y-15898
X19055Y-15898
X21595Y-27074
X48242Y-15895
X52052Y-15895
X54592Y-27071
X82243Y-15898
X86053Y-15898
X88593Y-27074
T2
X7625Y-52728
X7625Y-57808
X40622Y-52725
X40622Y-57805
X74623Y-52728
X74623Y-57808
T3
X3815Y-36218
X3815Y-38758
X3815Y-41298
X3815Y-43838
X3815Y-46378
X3815Y-62888
X3815Y-65428
X3815Y-67968
X3815Y-70508
X3815Y-78128
X6355Y-36218
X6355Y-38758
X6355Y-41298
X6355Y-43838
X6355Y-46378
X6355Y-62888
X6355Y-65428
X6355Y-67968
X7625Y-15898
X8895Y-36218
X8895Y-38758
X8895Y-41298
X8895Y-43838
X8895Y-46378
X8895Y-62888
X8895Y-65428
X8895Y-67968
X8895Y-70508
X8895Y-78128
X10165Y-15898
X12705Y-33678
X12705Y-36218
X12705Y-38758
X12705Y-41298
X12705Y-43838
X12705Y-46378
X12705Y-48918
X12705Y-51458
X12705Y-53998
X12705Y-56538
X12705Y-59078
X12705Y-61618
X12705Y-64158
X12705Y-66698
X20325Y-33678
X20325Y-36218
X20325Y-38758
X20325Y-41298
X20325Y-43838
X20325Y-46378
X20325Y-48918
X20325Y-51458
X20325Y-53998
X20325Y-56538
X20325Y-59078
X20325Y-61618
X20325Y-64158
X20325Y-66698
X22865Y-15898
X24135Y-33678
X24135Y-36218
X24135Y-38758
X24135Y-41298
X24135Y-43838
X24135Y-46378
X24135Y-48918
X24135Y-51458
X24135Y-56538
X24135Y-59078
X24135Y-61618
X24135Y-64158
X24135Y-66698
X24135Y-69238
X25405Y-15898
X26675Y-33678
X26675Y-36218
X26675Y-38758
X26675Y-41298
X26675Y-43838
X26675Y-46378
X26675Y-56538
X26675Y-59078
X26675Y-61618
X26675Y-64158
X26675Y-66698
X26675Y-69238
X29215Y-33678
X29215Y-36218
X29215Y-38758
X29215Y-41298
X29215Y-43838
X29215Y-46378
X29215Y-56538
X29215Y-59078
X29215Y-61618
X29215Y-64158
X29215Y-66698
X29215Y-69238
X36812Y-36215
X36812Y-38755
X36812Y-41295
X36812Y-43835
X36812Y-46375
X36812Y-62885
X36812Y-65425
X36812Y-67965
X36812Y-70505
X36812Y-78125
X39352Y-36215
X39352Y-38755
X39352Y-41295
X39352Y-43835
X39352Y-46375
X39352Y-62885
X39352Y-65425
X39352Y-67965
X40622Y-15895
X41892Y-36215
X41892Y-38755
X41892Y-41295
X41892Y-43835
X41892Y-46375
X41892Y-62885
X41892Y-65425
X41892Y-67965
X41892Y-70505
X41892Y-78125
X43162Y-15895
X45702Y-33675
X45702Y-36215
X45702Y-38755
X45702Y-41295
X45702Y-43835
X45702Y-46375
X45702Y-48915
X45702Y-51455
X45702Y-53995
X45702Y-56535
X45702Y-59075
X45702Y-61615
X45702Y-64155
X45702Y-66695
X53322Y-33675
X53322Y-36215
X53322Y-38755
X53322Y-41295
X53322Y-43835
X53322Y-46375
X53322Y-48915
X53322Y-51455
X53322Y-53995
X53322Y-56535
X53322Y-59075
X53322Y-61615
X53322Y-64155
X53322Y-66695
X55862Y-15895
X57132Y-33675
X57132Y-36215
X57132Y-38755
X57132Y-41295
X57132Y-43835
X57132Y-46375
X57132Y-48915
X57132Y-51455
X57132Y-56535
X57132Y-59075
X57132Y-61615
X57132Y-64155
X57132Y-66695
X57132Y-69235
X58402Y-15895
X59672Y-33675
X59672Y-36215
X59672Y-38755
X59672Y-41295
X59672Y-43835
X59672Y-46375
X59672Y-56535
X59672Y-59075
X59672Y-61615
X59672Y-64155
X59672Y-66695
X59672Y-69235
X62212Y-33675
X62212Y-36215
X62212Y-38755
X62212Y-41295
X62212Y-43835
X62212Y-46375
X62212Y-56535
X62212Y-59075
X62212Y-61615
X62212Y-64155
X62212Y-66695
X62212Y-69235
X70813Y-36218
X70813Y-38758
X70813Y-41298
X70813Y-43838
X70813Y-46378
X70813Y-62888
X70813Y-65428
X70813Y-67968
X70813Y-70508
X70813Y-78128
X73353Y-36218
X73353Y-38758
X73353Y-41298
X73353Y-43838
X73353Y-46378
X73353Y-62888
X73353Y-65428
X73353Y-67968
X74623Y-15898
X75893Y-36218
X75893Y-38758
X75893Y-41298
X75893Y-43838
X75893Y-46378
X75893Y-62888
X75893Y-65428
X75893Y-67968
X75893Y-70508
X75893Y-78128
X77163Y-15898
X79703Y-33678
X79703Y-36218
X79703Y-38758
X79703Y-41298
X79703Y-43838
X79703Y-46378
X79703Y-48918
X79703Y-51458
X79703Y-53998
X79703Y-56538
X79703Y-59078
X79703Y-61618
X79703Y-64158
X79703Y-66698
X87323Y-33678
X87323Y-36218
X87323Y-38758
X87323Y-41298
X87323Y-43838
X87323Y-46378
X87323Y-48918
X87323Y-51458
X87323Y-53998
X87323Y-56538
X87323Y-59078
X87323Y-61618
X87323Y-64158
X87323Y-66698
X89863Y-15898
X91133Y-33678
X91133Y-36218
X91133Y-38758
X91133Y-41298
X91133Y-43838
X91133Y-46378
X91133Y-48918
X91133Y-51458
X91133Y-56538
X91133Y-59078
X91133Y-61618
X91133Y-64158
X91133Y-66698
X91133Y-69238
X92403Y-15898
X93673Y-33678
X93673Y-36218
X93673Y-38758
X93673Y-41298
X93673Y-43838
X93673Y-46378
X93673Y-56538
X93673Y-59078
X93673Y-61618
X93673Y-64158
X93673Y-66698
X93673Y-69238
X96213Y-33678
X96213Y-36218
X96213Y-38758
X96213Y-41298
X96213Y-43838
X96213Y-46378
X96213Y-56538
X96213Y-59078
X96213Y-61618
X96213Y-64158
X96213Y-66698
X96213Y-69238
T4
X14315Y-7109
X18712Y-7109
X47313Y-7107
X51709Y-7107
X81313Y-7109
X85710Y-7109
T5
X13975Y-73048
X13975Y-75588
X16515Y-73048
X16515Y-75588
X19055Y-73048
X19055Y-75588
X46972Y-73045
X46972Y-75585
X49512Y-73045
X49512Y-75585
X52052Y-73045
X52052Y-75585
X80973Y-73048
X80973Y-75588
X83513Y-73048
X83513Y-75588
X86053Y-73048
X86053Y-75588
T6
X13975Y-95908
X19055Y-95908
X46972Y-95905
X52052Y-95905
X80973Y-95908
X86053Y-95908
T7
X6355Y-5738
X6355Y-94638
X26675Y-5738
X26675Y-94638
X39352Y-5735
X39352Y-94635
X59672Y-5735
X59672Y-94635
X73353Y-5738
X73353Y-94638
X93673Y-5738
X93673Y-94638
T0
M30
